<?xml version="1.0" encoding="utf-8" standalone="no"?>
<!DOCTYPE svg PUBLIC "-//W3C//DTD SVG 1.1//EN"
  "http://www.w3.org/Graphics/SVG/1.1/DTD/svg11.dtd">
<!-- Created with matplotlib (https://matplotlib.org/) -->
<svg height="360pt" version="1.1" viewBox="0 0 720 360" width="720pt" xmlns="http://www.w3.org/2000/svg" xmlns:xlink="http://www.w3.org/1999/xlink">
 <defs>
  <style type="text/css">
*{stroke-linecap:butt;stroke-linejoin:round;}
  </style>
 </defs>
 <g id="figure_1">
  <g id="patch_1">
   <path d="M 0 360 
L 720 360 
L 720 0 
L 0 0 
z
" style="fill:#121212;"/>
  </g>
  <g id="axes_1">
   <g id="patch_2">
    <path d="M 90 320.4 
L 648 320.4 
L 648 43.2 
L 90 43.2 
z
" style="fill:#121212;"/>
   </g>
   <g id="matplotlib.axis_1">
    <g id="xtick_1">
     <g id="line2d_1">
      <path clip-path="url(#p07d0aac75e)" d="M 115.363636 320.4 
L 115.363636 43.2 
" style="fill:none;stroke:#ffffff;stroke-linecap:square;stroke-opacity:0.2;stroke-width:0.8;"/>
     </g>
     <g id="line2d_2">
      <defs>
       <path d="M 0 0 
L 0 3.5 
" id="m9badf2d65c" style="stroke:#ffffff;stroke-width:0.8;"/>
      </defs>
      <g>
       <use style="fill:#ffffff;stroke:#ffffff;stroke-width:0.8;" x="115.363636" xlink:href="#m9badf2d65c" y="320.4"/>
      </g>
     </g>
     <g id="text_1">
      <!-- 0 -->
      <defs>
       <path d="M 31.78125 66.40625 
Q 24.171875 66.40625 20.328125 58.90625 
Q 16.5 51.421875 16.5 36.375 
Q 16.5 21.390625 20.328125 13.890625 
Q 24.171875 6.390625 31.78125 6.390625 
Q 39.453125 6.390625 43.28125 13.890625 
Q 47.125 21.390625 47.125 36.375 
Q 47.125 51.421875 43.28125 58.90625 
Q 39.453125 66.40625 31.78125 66.40625 
z
M 31.78125 74.21875 
Q 44.046875 74.21875 50.515625 64.515625 
Q 56.984375 54.828125 56.984375 36.375 
Q 56.984375 17.96875 50.515625 8.265625 
Q 44.046875 -1.421875 31.78125 -1.421875 
Q 19.53125 -1.421875 13.0625 8.265625 
Q 6.59375 17.96875 6.59375 36.375 
Q 6.59375 54.828125 13.0625 64.515625 
Q 19.53125 74.21875 31.78125 74.21875 
z
" id="DejaVuSans-48"/>
      </defs>
      <g style="fill:#ffffff;" transform="translate(110.591761 338.797656)scale(0.15 -0.15)">
       <use xlink:href="#DejaVuSans-48"/>
      </g>
     </g>
    </g>
    <g id="xtick_2">
     <g id="line2d_3">
      <path clip-path="url(#p07d0aac75e)" d="M 216.282339 320.4 
L 216.282339 43.2 
" style="fill:none;stroke:#ffffff;stroke-linecap:square;stroke-opacity:0.2;stroke-width:0.8;"/>
     </g>
     <g id="line2d_4">
      <g>
       <use style="fill:#ffffff;stroke:#ffffff;stroke-width:0.8;" x="216.282339" xlink:href="#m9badf2d65c" y="320.4"/>
      </g>
     </g>
     <g id="text_2">
      <!-- 5 -->
      <defs>
       <path d="M 10.796875 72.90625 
L 49.515625 72.90625 
L 49.515625 64.59375 
L 19.828125 64.59375 
L 19.828125 46.734375 
Q 21.96875 47.46875 24.109375 47.828125 
Q 26.265625 48.1875 28.421875 48.1875 
Q 40.625 48.1875 47.75 41.5 
Q 54.890625 34.8125 54.890625 23.390625 
Q 54.890625 11.625 47.5625 5.09375 
Q 40.234375 -1.421875 26.90625 -1.421875 
Q 22.3125 -1.421875 17.546875 -0.640625 
Q 12.796875 0.140625 7.71875 1.703125 
L 7.71875 11.625 
Q 12.109375 9.234375 16.796875 8.0625 
Q 21.484375 6.890625 26.703125 6.890625 
Q 35.15625 6.890625 40.078125 11.328125 
Q 45.015625 15.765625 45.015625 23.390625 
Q 45.015625 31 40.078125 35.4375 
Q 35.15625 39.890625 26.703125 39.890625 
Q 22.75 39.890625 18.8125 39.015625 
Q 14.890625 38.140625 10.796875 36.28125 
z
" id="DejaVuSans-53"/>
      </defs>
      <g style="fill:#ffffff;" transform="translate(211.510464 338.797656)scale(0.15 -0.15)">
       <use xlink:href="#DejaVuSans-53"/>
      </g>
     </g>
    </g>
    <g id="xtick_3">
     <g id="line2d_5">
      <path clip-path="url(#p07d0aac75e)" d="M 317.201041 320.4 
L 317.201041 43.2 
" style="fill:none;stroke:#ffffff;stroke-linecap:square;stroke-opacity:0.2;stroke-width:0.8;"/>
     </g>
     <g id="line2d_6">
      <g>
       <use style="fill:#ffffff;stroke:#ffffff;stroke-width:0.8;" x="317.201041" xlink:href="#m9badf2d65c" y="320.4"/>
      </g>
     </g>
     <g id="text_3">
      <!-- 10 -->
      <defs>
       <path d="M 12.40625 8.296875 
L 28.515625 8.296875 
L 28.515625 63.921875 
L 10.984375 60.40625 
L 10.984375 69.390625 
L 28.421875 72.90625 
L 38.28125 72.90625 
L 38.28125 8.296875 
L 54.390625 8.296875 
L 54.390625 0 
L 12.40625 0 
z
" id="DejaVuSans-49"/>
      </defs>
      <g style="fill:#ffffff;" transform="translate(307.657291 338.797656)scale(0.15 -0.15)">
       <use xlink:href="#DejaVuSans-49"/>
       <use x="63.623047" xlink:href="#DejaVuSans-48"/>
      </g>
     </g>
    </g>
    <g id="xtick_4">
     <g id="line2d_7">
      <path clip-path="url(#p07d0aac75e)" d="M 418.119744 320.4 
L 418.119744 43.2 
" style="fill:none;stroke:#ffffff;stroke-linecap:square;stroke-opacity:0.2;stroke-width:0.8;"/>
     </g>
     <g id="line2d_8">
      <g>
       <use style="fill:#ffffff;stroke:#ffffff;stroke-width:0.8;" x="418.119744" xlink:href="#m9badf2d65c" y="320.4"/>
      </g>
     </g>
     <g id="text_4">
      <!-- 15 -->
      <g style="fill:#ffffff;" transform="translate(408.575994 338.797656)scale(0.15 -0.15)">
       <use xlink:href="#DejaVuSans-49"/>
       <use x="63.623047" xlink:href="#DejaVuSans-53"/>
      </g>
     </g>
    </g>
    <g id="xtick_5">
     <g id="line2d_9">
      <path clip-path="url(#p07d0aac75e)" d="M 519.038447 320.4 
L 519.038447 43.2 
" style="fill:none;stroke:#ffffff;stroke-linecap:square;stroke-opacity:0.2;stroke-width:0.8;"/>
     </g>
     <g id="line2d_10">
      <g>
       <use style="fill:#ffffff;stroke:#ffffff;stroke-width:0.8;" x="519.038447" xlink:href="#m9badf2d65c" y="320.4"/>
      </g>
     </g>
     <g id="text_5">
      <!-- 20 -->
      <defs>
       <path d="M 19.1875 8.296875 
L 53.609375 8.296875 
L 53.609375 0 
L 7.328125 0 
L 7.328125 8.296875 
Q 12.9375 14.109375 22.625 23.890625 
Q 32.328125 33.6875 34.8125 36.53125 
Q 39.546875 41.84375 41.421875 45.53125 
Q 43.3125 49.21875 43.3125 52.78125 
Q 43.3125 58.59375 39.234375 62.25 
Q 35.15625 65.921875 28.609375 65.921875 
Q 23.96875 65.921875 18.8125 64.3125 
Q 13.671875 62.703125 7.8125 59.421875 
L 7.8125 69.390625 
Q 13.765625 71.78125 18.9375 73 
Q 24.125 74.21875 28.421875 74.21875 
Q 39.75 74.21875 46.484375 68.546875 
Q 53.21875 62.890625 53.21875 53.421875 
Q 53.21875 48.921875 51.53125 44.890625 
Q 49.859375 40.875 45.40625 35.40625 
Q 44.1875 33.984375 37.640625 27.21875 
Q 31.109375 20.453125 19.1875 8.296875 
z
" id="DejaVuSans-50"/>
      </defs>
      <g style="fill:#ffffff;" transform="translate(509.494697 338.797656)scale(0.15 -0.15)">
       <use xlink:href="#DejaVuSans-50"/>
       <use x="63.623047" xlink:href="#DejaVuSans-48"/>
      </g>
     </g>
    </g>
    <g id="xtick_6">
     <g id="line2d_11">
      <path clip-path="url(#p07d0aac75e)" d="M 619.957149 320.4 
L 619.957149 43.2 
" style="fill:none;stroke:#ffffff;stroke-linecap:square;stroke-opacity:0.2;stroke-width:0.8;"/>
     </g>
     <g id="line2d_12">
      <g>
       <use style="fill:#ffffff;stroke:#ffffff;stroke-width:0.8;" x="619.957149" xlink:href="#m9badf2d65c" y="320.4"/>
      </g>
     </g>
     <g id="text_6">
      <!-- 25 -->
      <g style="fill:#ffffff;" transform="translate(610.413399 338.797656)scale(0.15 -0.15)">
       <use xlink:href="#DejaVuSans-50"/>
       <use x="63.623047" xlink:href="#DejaVuSans-53"/>
      </g>
     </g>
    </g>
    <g id="text_7">
     <!-- Time (t) -->
     <defs>
      <path d="M -0.296875 72.90625 
L 61.375 72.90625 
L 61.375 64.59375 
L 35.5 64.59375 
L 35.5 0 
L 25.59375 0 
L 25.59375 64.59375 
L -0.296875 64.59375 
z
" id="DejaVuSans-84"/>
      <path d="M 9.421875 54.6875 
L 18.40625 54.6875 
L 18.40625 0 
L 9.421875 0 
z
M 9.421875 75.984375 
L 18.40625 75.984375 
L 18.40625 64.59375 
L 9.421875 64.59375 
z
" id="DejaVuSans-105"/>
      <path d="M 52 44.1875 
Q 55.375 50.25 60.0625 53.125 
Q 64.75 56 71.09375 56 
Q 79.640625 56 84.28125 50.015625 
Q 88.921875 44.046875 88.921875 33.015625 
L 88.921875 0 
L 79.890625 0 
L 79.890625 32.71875 
Q 79.890625 40.578125 77.09375 44.375 
Q 74.3125 48.1875 68.609375 48.1875 
Q 61.625 48.1875 57.5625 43.546875 
Q 53.515625 38.921875 53.515625 30.90625 
L 53.515625 0 
L 44.484375 0 
L 44.484375 32.71875 
Q 44.484375 40.625 41.703125 44.40625 
Q 38.921875 48.1875 33.109375 48.1875 
Q 26.21875 48.1875 22.15625 43.53125 
Q 18.109375 38.875 18.109375 30.90625 
L 18.109375 0 
L 9.078125 0 
L 9.078125 54.6875 
L 18.109375 54.6875 
L 18.109375 46.1875 
Q 21.1875 51.21875 25.484375 53.609375 
Q 29.78125 56 35.6875 56 
Q 41.65625 56 45.828125 52.96875 
Q 50 49.953125 52 44.1875 
z
" id="DejaVuSans-109"/>
      <path d="M 56.203125 29.59375 
L 56.203125 25.203125 
L 14.890625 25.203125 
Q 15.484375 15.921875 20.484375 11.0625 
Q 25.484375 6.203125 34.421875 6.203125 
Q 39.59375 6.203125 44.453125 7.46875 
Q 49.3125 8.734375 54.109375 11.28125 
L 54.109375 2.78125 
Q 49.265625 0.734375 44.1875 -0.34375 
Q 39.109375 -1.421875 33.890625 -1.421875 
Q 20.796875 -1.421875 13.15625 6.1875 
Q 5.515625 13.8125 5.515625 26.8125 
Q 5.515625 40.234375 12.765625 48.109375 
Q 20.015625 56 32.328125 56 
Q 43.359375 56 49.78125 48.890625 
Q 56.203125 41.796875 56.203125 29.59375 
z
M 47.21875 32.234375 
Q 47.125 39.59375 43.09375 43.984375 
Q 39.0625 48.390625 32.421875 48.390625 
Q 24.90625 48.390625 20.390625 44.140625 
Q 15.875 39.890625 15.1875 32.171875 
z
" id="DejaVuSans-101"/>
      <path id="DejaVuSans-32"/>
      <path d="M 31 75.875 
Q 24.46875 64.65625 21.28125 53.65625 
Q 18.109375 42.671875 18.109375 31.390625 
Q 18.109375 20.125 21.3125 9.0625 
Q 24.515625 -2 31 -13.1875 
L 23.1875 -13.1875 
Q 15.875 -1.703125 12.234375 9.375 
Q 8.59375 20.453125 8.59375 31.390625 
Q 8.59375 42.28125 12.203125 53.3125 
Q 15.828125 64.359375 23.1875 75.875 
z
" id="DejaVuSans-40"/>
      <path d="M 18.3125 70.21875 
L 18.3125 54.6875 
L 36.8125 54.6875 
L 36.8125 47.703125 
L 18.3125 47.703125 
L 18.3125 18.015625 
Q 18.3125 11.328125 20.140625 9.421875 
Q 21.96875 7.515625 27.59375 7.515625 
L 36.8125 7.515625 
L 36.8125 0 
L 27.59375 0 
Q 17.1875 0 13.234375 3.875 
Q 9.28125 7.765625 9.28125 18.015625 
L 9.28125 47.703125 
L 2.6875 47.703125 
L 2.6875 54.6875 
L 9.28125 54.6875 
L 9.28125 70.21875 
z
" id="DejaVuSans-116"/>
      <path d="M 8.015625 75.875 
L 15.828125 75.875 
Q 23.140625 64.359375 26.78125 53.3125 
Q 30.421875 42.28125 30.421875 31.390625 
Q 30.421875 20.453125 26.78125 9.375 
Q 23.140625 -1.703125 15.828125 -13.1875 
L 8.015625 -13.1875 
Q 14.5 -2 17.703125 9.0625 
Q 20.90625 20.125 20.90625 31.390625 
Q 20.90625 42.671875 17.703125 53.65625 
Q 14.5 64.65625 8.015625 75.875 
z
" id="DejaVuSans-41"/>
     </defs>
     <g style="fill:#ffffff;" transform="translate(329.323438 361.114062)scale(0.2 -0.2)">
      <use xlink:href="#DejaVuSans-84"/>
      <use x="61.037109" xlink:href="#DejaVuSans-105"/>
      <use x="88.820312" xlink:href="#DejaVuSans-109"/>
      <use x="186.232422" xlink:href="#DejaVuSans-101"/>
      <use x="247.755859" xlink:href="#DejaVuSans-32"/>
      <use x="279.542969" xlink:href="#DejaVuSans-40"/>
      <use x="318.556641" xlink:href="#DejaVuSans-116"/>
      <use x="357.765625" xlink:href="#DejaVuSans-41"/>
     </g>
    </g>
   </g>
   <g id="matplotlib.axis_2">
    <g id="ytick_1">
     <g id="line2d_13">
      <path clip-path="url(#p07d0aac75e)" d="M 90 312.925196 
L 648 312.925196 
" style="fill:none;stroke:#ffffff;stroke-linecap:square;stroke-opacity:0.2;stroke-width:0.8;"/>
     </g>
     <g id="line2d_14">
      <defs>
       <path d="M 0 0 
L -3.5 0 
" id="m80f977f1a2" style="stroke:#ffffff;stroke-width:0.8;"/>
      </defs>
      <g>
       <use style="fill:#ffffff;stroke:#ffffff;stroke-width:0.8;" x="90" xlink:href="#m80f977f1a2" y="312.925196"/>
      </g>
     </g>
     <g id="text_8">
      <!-- −10.0 -->
      <defs>
       <path d="M 10.59375 35.5 
L 73.1875 35.5 
L 73.1875 27.203125 
L 10.59375 27.203125 
z
" id="DejaVuSans-8722"/>
       <path d="M 10.6875 12.40625 
L 21 12.40625 
L 21 0 
L 10.6875 0 
z
" id="DejaVuSans-46"/>
      </defs>
      <g style="fill:#ffffff;" transform="translate(37.032031 318.624024)scale(0.15 -0.15)">
       <use xlink:href="#DejaVuSans-8722"/>
       <use x="83.789062" xlink:href="#DejaVuSans-49"/>
       <use x="147.412109" xlink:href="#DejaVuSans-48"/>
       <use x="211.035156" xlink:href="#DejaVuSans-46"/>
       <use x="242.822266" xlink:href="#DejaVuSans-48"/>
      </g>
     </g>
    </g>
    <g id="ytick_2">
     <g id="line2d_15">
      <path clip-path="url(#p07d0aac75e)" d="M 90 281.571804 
L 648 281.571804 
" style="fill:none;stroke:#ffffff;stroke-linecap:square;stroke-opacity:0.2;stroke-width:0.8;"/>
     </g>
     <g id="line2d_16">
      <g>
       <use style="fill:#ffffff;stroke:#ffffff;stroke-width:0.8;" x="90" xlink:href="#m80f977f1a2" y="281.571804"/>
      </g>
     </g>
     <g id="text_9">
      <!-- −7.5 -->
      <defs>
       <path d="M 8.203125 72.90625 
L 55.078125 72.90625 
L 55.078125 68.703125 
L 28.609375 0 
L 18.3125 0 
L 43.21875 64.59375 
L 8.203125 64.59375 
z
" id="DejaVuSans-55"/>
      </defs>
      <g style="fill:#ffffff;" transform="translate(46.575781 287.270632)scale(0.15 -0.15)">
       <use xlink:href="#DejaVuSans-8722"/>
       <use x="83.789062" xlink:href="#DejaVuSans-55"/>
       <use x="147.412109" xlink:href="#DejaVuSans-46"/>
       <use x="179.199219" xlink:href="#DejaVuSans-53"/>
      </g>
     </g>
    </g>
    <g id="ytick_3">
     <g id="line2d_17">
      <path clip-path="url(#p07d0aac75e)" d="M 90 250.218411 
L 648 250.218411 
" style="fill:none;stroke:#ffffff;stroke-linecap:square;stroke-opacity:0.2;stroke-width:0.8;"/>
     </g>
     <g id="line2d_18">
      <g>
       <use style="fill:#ffffff;stroke:#ffffff;stroke-width:0.8;" x="90" xlink:href="#m80f977f1a2" y="250.218411"/>
      </g>
     </g>
     <g id="text_10">
      <!-- −5.0 -->
      <g style="fill:#ffffff;" transform="translate(46.575781 255.917239)scale(0.15 -0.15)">
       <use xlink:href="#DejaVuSans-8722"/>
       <use x="83.789062" xlink:href="#DejaVuSans-53"/>
       <use x="147.412109" xlink:href="#DejaVuSans-46"/>
       <use x="179.199219" xlink:href="#DejaVuSans-48"/>
      </g>
     </g>
    </g>
    <g id="ytick_4">
     <g id="line2d_19">
      <path clip-path="url(#p07d0aac75e)" d="M 90 218.865019 
L 648 218.865019 
" style="fill:none;stroke:#ffffff;stroke-linecap:square;stroke-opacity:0.2;stroke-width:0.8;"/>
     </g>
     <g id="line2d_20">
      <g>
       <use style="fill:#ffffff;stroke:#ffffff;stroke-width:0.8;" x="90" xlink:href="#m80f977f1a2" y="218.865019"/>
      </g>
     </g>
     <g id="text_11">
      <!-- −2.5 -->
      <g style="fill:#ffffff;" transform="translate(46.575781 224.563847)scale(0.15 -0.15)">
       <use xlink:href="#DejaVuSans-8722"/>
       <use x="83.789062" xlink:href="#DejaVuSans-50"/>
       <use x="147.412109" xlink:href="#DejaVuSans-46"/>
       <use x="179.199219" xlink:href="#DejaVuSans-53"/>
      </g>
     </g>
    </g>
    <g id="ytick_5">
     <g id="line2d_21">
      <path clip-path="url(#p07d0aac75e)" d="M 90 187.511626 
L 648 187.511626 
" style="fill:none;stroke:#ffffff;stroke-linecap:square;stroke-opacity:0.2;stroke-width:0.8;"/>
     </g>
     <g id="line2d_22">
      <g>
       <use style="fill:#ffffff;stroke:#ffffff;stroke-width:0.8;" x="90" xlink:href="#m80f977f1a2" y="187.511626"/>
      </g>
     </g>
     <g id="text_12">
      <!-- 0.0 -->
      <g style="fill:#ffffff;" transform="translate(59.145313 193.210454)scale(0.15 -0.15)">
       <use xlink:href="#DejaVuSans-48"/>
       <use x="63.623047" xlink:href="#DejaVuSans-46"/>
       <use x="95.410156" xlink:href="#DejaVuSans-48"/>
      </g>
     </g>
    </g>
    <g id="ytick_6">
     <g id="line2d_23">
      <path clip-path="url(#p07d0aac75e)" d="M 90 156.158234 
L 648 156.158234 
" style="fill:none;stroke:#ffffff;stroke-linecap:square;stroke-opacity:0.2;stroke-width:0.8;"/>
     </g>
     <g id="line2d_24">
      <g>
       <use style="fill:#ffffff;stroke:#ffffff;stroke-width:0.8;" x="90" xlink:href="#m80f977f1a2" y="156.158234"/>
      </g>
     </g>
     <g id="text_13">
      <!-- 2.5 -->
      <g style="fill:#ffffff;" transform="translate(59.145313 161.857062)scale(0.15 -0.15)">
       <use xlink:href="#DejaVuSans-50"/>
       <use x="63.623047" xlink:href="#DejaVuSans-46"/>
       <use x="95.410156" xlink:href="#DejaVuSans-53"/>
      </g>
     </g>
    </g>
    <g id="ytick_7">
     <g id="line2d_25">
      <path clip-path="url(#p07d0aac75e)" d="M 90 124.804841 
L 648 124.804841 
" style="fill:none;stroke:#ffffff;stroke-linecap:square;stroke-opacity:0.2;stroke-width:0.8;"/>
     </g>
     <g id="line2d_26">
      <g>
       <use style="fill:#ffffff;stroke:#ffffff;stroke-width:0.8;" x="90" xlink:href="#m80f977f1a2" y="124.804841"/>
      </g>
     </g>
     <g id="text_14">
      <!-- 5.0 -->
      <g style="fill:#ffffff;" transform="translate(59.145313 130.503669)scale(0.15 -0.15)">
       <use xlink:href="#DejaVuSans-53"/>
       <use x="63.623047" xlink:href="#DejaVuSans-46"/>
       <use x="95.410156" xlink:href="#DejaVuSans-48"/>
      </g>
     </g>
    </g>
    <g id="ytick_8">
     <g id="line2d_27">
      <path clip-path="url(#p07d0aac75e)" d="M 90 93.451448 
L 648 93.451448 
" style="fill:none;stroke:#ffffff;stroke-linecap:square;stroke-opacity:0.2;stroke-width:0.8;"/>
     </g>
     <g id="line2d_28">
      <g>
       <use style="fill:#ffffff;stroke:#ffffff;stroke-width:0.8;" x="90" xlink:href="#m80f977f1a2" y="93.451448"/>
      </g>
     </g>
     <g id="text_15">
      <!-- 7.5 -->
      <g style="fill:#ffffff;" transform="translate(59.145313 99.150277)scale(0.15 -0.15)">
       <use xlink:href="#DejaVuSans-55"/>
       <use x="63.623047" xlink:href="#DejaVuSans-46"/>
       <use x="95.410156" xlink:href="#DejaVuSans-53"/>
      </g>
     </g>
    </g>
    <g id="ytick_9">
     <g id="line2d_29">
      <path clip-path="url(#p07d0aac75e)" d="M 90 62.098056 
L 648 62.098056 
" style="fill:none;stroke:#ffffff;stroke-linecap:square;stroke-opacity:0.2;stroke-width:0.8;"/>
     </g>
     <g id="line2d_30">
      <g>
       <use style="fill:#ffffff;stroke:#ffffff;stroke-width:0.8;" x="90" xlink:href="#m80f977f1a2" y="62.098056"/>
      </g>
     </g>
     <g id="text_16">
      <!-- 10.0 -->
      <g style="fill:#ffffff;" transform="translate(49.601562 67.796884)scale(0.15 -0.15)">
       <use xlink:href="#DejaVuSans-49"/>
       <use x="63.623047" xlink:href="#DejaVuSans-48"/>
       <use x="127.246094" xlink:href="#DejaVuSans-46"/>
       <use x="159.033203" xlink:href="#DejaVuSans-48"/>
      </g>
     </g>
    </g>
    <g id="text_17">
     <!-- Amplitude (y) -->
     <defs>
      <path d="M 34.1875 63.1875 
L 20.796875 26.90625 
L 47.609375 26.90625 
z
M 28.609375 72.90625 
L 39.796875 72.90625 
L 67.578125 0 
L 57.328125 0 
L 50.6875 18.703125 
L 17.828125 18.703125 
L 11.1875 0 
L 0.78125 0 
z
" id="DejaVuSans-65"/>
      <path d="M 18.109375 8.203125 
L 18.109375 -20.796875 
L 9.078125 -20.796875 
L 9.078125 54.6875 
L 18.109375 54.6875 
L 18.109375 46.390625 
Q 20.953125 51.265625 25.265625 53.625 
Q 29.59375 56 35.59375 56 
Q 45.5625 56 51.78125 48.09375 
Q 58.015625 40.1875 58.015625 27.296875 
Q 58.015625 14.40625 51.78125 6.484375 
Q 45.5625 -1.421875 35.59375 -1.421875 
Q 29.59375 -1.421875 25.265625 0.953125 
Q 20.953125 3.328125 18.109375 8.203125 
z
M 48.6875 27.296875 
Q 48.6875 37.203125 44.609375 42.84375 
Q 40.53125 48.484375 33.40625 48.484375 
Q 26.265625 48.484375 22.1875 42.84375 
Q 18.109375 37.203125 18.109375 27.296875 
Q 18.109375 17.390625 22.1875 11.75 
Q 26.265625 6.109375 33.40625 6.109375 
Q 40.53125 6.109375 44.609375 11.75 
Q 48.6875 17.390625 48.6875 27.296875 
z
" id="DejaVuSans-112"/>
      <path d="M 9.421875 75.984375 
L 18.40625 75.984375 
L 18.40625 0 
L 9.421875 0 
z
" id="DejaVuSans-108"/>
      <path d="M 8.5 21.578125 
L 8.5 54.6875 
L 17.484375 54.6875 
L 17.484375 21.921875 
Q 17.484375 14.15625 20.5 10.265625 
Q 23.53125 6.390625 29.59375 6.390625 
Q 36.859375 6.390625 41.078125 11.03125 
Q 45.3125 15.671875 45.3125 23.6875 
L 45.3125 54.6875 
L 54.296875 54.6875 
L 54.296875 0 
L 45.3125 0 
L 45.3125 8.40625 
Q 42.046875 3.421875 37.71875 1 
Q 33.40625 -1.421875 27.6875 -1.421875 
Q 18.265625 -1.421875 13.375 4.4375 
Q 8.5 10.296875 8.5 21.578125 
z
M 31.109375 56 
z
" id="DejaVuSans-117"/>
      <path d="M 45.40625 46.390625 
L 45.40625 75.984375 
L 54.390625 75.984375 
L 54.390625 0 
L 45.40625 0 
L 45.40625 8.203125 
Q 42.578125 3.328125 38.25 0.953125 
Q 33.9375 -1.421875 27.875 -1.421875 
Q 17.96875 -1.421875 11.734375 6.484375 
Q 5.515625 14.40625 5.515625 27.296875 
Q 5.515625 40.1875 11.734375 48.09375 
Q 17.96875 56 27.875 56 
Q 33.9375 56 38.25 53.625 
Q 42.578125 51.265625 45.40625 46.390625 
z
M 14.796875 27.296875 
Q 14.796875 17.390625 18.875 11.75 
Q 22.953125 6.109375 30.078125 6.109375 
Q 37.203125 6.109375 41.296875 11.75 
Q 45.40625 17.390625 45.40625 27.296875 
Q 45.40625 37.203125 41.296875 42.84375 
Q 37.203125 48.484375 30.078125 48.484375 
Q 22.953125 48.484375 18.875 42.84375 
Q 14.796875 37.203125 14.796875 27.296875 
z
" id="DejaVuSans-100"/>
      <path d="M 32.171875 -5.078125 
Q 28.375 -14.84375 24.75 -17.8125 
Q 21.140625 -20.796875 15.09375 -20.796875 
L 7.90625 -20.796875 
L 7.90625 -13.28125 
L 13.1875 -13.28125 
Q 16.890625 -13.28125 18.9375 -11.515625 
Q 21 -9.765625 23.484375 -3.21875 
L 25.09375 0.875 
L 2.984375 54.6875 
L 12.5 54.6875 
L 29.59375 11.921875 
L 46.6875 54.6875 
L 56.203125 54.6875 
z
" id="DejaVuSans-121"/>
     </defs>
     <g style="fill:#ffffff;" transform="translate(28.872656 249.945312)rotate(-90)scale(0.2 -0.2)">
      <use xlink:href="#DejaVuSans-65"/>
      <use x="68.408203" xlink:href="#DejaVuSans-109"/>
      <use x="165.820312" xlink:href="#DejaVuSans-112"/>
      <use x="229.296875" xlink:href="#DejaVuSans-108"/>
      <use x="257.080078" xlink:href="#DejaVuSans-105"/>
      <use x="284.863281" xlink:href="#DejaVuSans-116"/>
      <use x="324.072266" xlink:href="#DejaVuSans-117"/>
      <use x="387.451172" xlink:href="#DejaVuSans-100"/>
      <use x="450.927734" xlink:href="#DejaVuSans-101"/>
      <use x="512.451172" xlink:href="#DejaVuSans-32"/>
      <use x="544.238281" xlink:href="#DejaVuSans-40"/>
      <use x="583.251953" xlink:href="#DejaVuSans-121"/>
      <use x="642.431641" xlink:href="#DejaVuSans-41"/>
     </g>
    </g>
   </g>
   <g id="line2d_31">
    <path clip-path="url(#p07d0aac75e)" d="M 115.363636 187.511626 
L 116.632453 145.360734 
L 117.139979 133.457782 
L 117.647506 125.798468 
L 117.901269 123.674293 
L 118.155032 122.683221 
L 118.408795 122.782673 
L 118.662559 123.900569 
L 119.170085 128.77462 
L 119.931375 140.620915 
L 121.200191 162.126248 
L 121.707717 168.240569 
L 122.215244 172.034614 
L 122.469007 173.035902 
L 122.72277 173.479319 
L 122.976534 173.424431 
L 123.230297 172.951374 
L 123.737823 171.150586 
L 124.499113 168.031034 
L 124.752876 167.339282 
L 125.00664 166.990087 
L 125.260403 167.061595 
L 125.514166 167.611285 
L 125.767929 168.673143 
L 126.275456 172.341226 
L 127.036746 181.049716 
L 128.305562 197.23206 
L 128.813088 201.037577 
L 129.066852 201.819347 
L 129.320615 201.710592 
L 129.574378 200.632258 
L 129.828141 198.532237 
L 130.335668 191.207717 
L 130.843194 179.93085 
L 131.604484 157.214969 
L 133.380827 100.003987 
L 133.888353 89.021166 
L 134.39588 82.385786 
L 134.649643 80.835966 
L 134.903406 80.472758 
L 135.157169 81.261167 
L 135.410933 83.134977 
L 135.918459 89.733888 
L 136.679749 104.672611 
L 138.202328 136.44573 
L 138.709855 143.425238 
L 139.217381 147.569306 
L 139.471145 148.570722 
L 139.724908 148.909094 
L 139.978671 148.653005 
L 140.232434 147.8916 
L 140.739961 145.287177 
L 141.755014 139.16755 
L 142.26254 137.476016 
L 142.516304 137.26833 
L 142.770067 137.543546 
L 143.02383 138.313415 
L 143.531357 141.253597 
L 144.292646 148.207022 
L 145.307699 157.60593 
L 145.815226 159.97316 
L 146.068989 160.143928 
L 146.322752 159.515952 
L 146.576516 158.025192 
L 147.084042 152.334841 
L 147.591569 143.126351 
L 148.352858 123.98936 
L 150.129201 75.175099 
L 150.636727 66.32562 
L 151.144254 61.716966 
L 151.398017 61.155382 
L 151.65178 61.772683 
L 151.905544 63.540386 
L 152.41307 70.254768 
L 153.17436 86.533688 
L 154.950703 130.508735 
L 155.458229 138.871929 
L 155.965756 143.91094 
L 156.219519 145.13872 
L 156.473282 145.540175 
L 156.727045 145.175665 
L 156.980809 144.129635 
L 157.488335 140.42819 
L 159.264678 124.241786 
L 159.772204 122.451298 
L 160.025968 122.346057 
L 160.279731 122.763441 
L 160.533494 123.667795 
L 161.041021 126.674942 
L 162.5636 137.571932 
L 162.817363 138.362126 
L 163.071126 138.558859 
L 163.32489 138.083767 
L 163.578653 136.881824 
L 164.086179 132.209473 
L 164.593706 124.648614 
L 165.354996 109.212809 
L 166.623812 81.745959 
L 167.131338 73.94384 
L 167.638865 69.672098 
L 167.892628 69.091977 
L 168.146391 69.61577 
L 168.400155 71.254131 
L 168.907681 77.755057 
L 169.415208 88.045051 
L 170.430261 115.708917 
L 171.445314 143.487095 
L 172.206603 158.00243 
L 172.71413 163.06153 
L 172.967893 164.094719 
L 173.221656 164.153454 
L 173.47542 163.292408 
L 173.982946 159.162024 
L 174.744236 148.796012 
L 176.013052 130.168483 
L 176.520578 125.298026 
L 177.028105 122.828516 
L 177.281868 122.528681 
L 177.535631 122.816605 
L 177.789395 123.634141 
L 178.296921 126.518174 
L 179.819501 136.838023 
L 180.073264 137.550128 
L 180.327027 137.720264 
L 180.58079 137.29628 
L 180.834554 136.251405 
L 181.34208 132.326944 
L 181.849607 126.272966 
L 183.625949 101.153014 
L 184.133476 97.570947 
L 184.387239 97.027614 
L 184.641002 97.424722 
L 184.894766 98.80974 
L 185.402292 104.582003 
L 185.909819 114.109469 
L 186.671108 133.768903 
L 188.193688 176.607895 
L 188.701214 186.80115 
L 189.208741 193.127573 
L 189.462504 194.668318 
L 189.716267 195.098346 
L 189.97003 194.436372 
L 190.223794 192.732648 
L 190.73132 186.545922 
L 191.49261 172.229882 
L 193.015189 141.275479 
L 193.522716 134.54403 
L 194.030242 130.755701 
L 194.284006 129.998409 
L 194.537769 129.960626 
L 194.791532 130.581189 
L 195.299059 133.443851 
L 196.314112 142.38792 
L 197.075401 147.984936 
L 197.329165 149.079443 
L 197.582928 149.679623 
L 197.836691 149.756201 
L 198.090454 149.306122 
L 198.344218 148.352824 
L 198.851744 145.157307 
L 200.374324 132.719558 
L 200.628087 131.58743 
L 200.88185 131.06365 
L 201.135613 131.248309 
L 201.389377 132.220136 
L 201.64314 134.032963 
L 202.150666 140.257317 
L 202.658193 149.776368 
L 203.419482 168.78027 
L 204.942062 208.938777 
L 205.449588 217.934727 
L 205.957115 222.874049 
L 206.210878 223.63432 
L 206.464641 223.21714 
L 206.718405 221.635339 
L 207.225931 215.191431 
L 207.733458 205.026778 
L 208.748511 178.286832 
L 209.763564 152.417968 
L 210.27109 142.975623 
L 210.778617 136.920691 
L 211.03238 135.254754 
L 211.286143 134.485295 
L 211.539906 134.568045 
L 211.79367 135.432713 
L 212.301196 139.116903 
L 213.062486 147.673144 
L 214.077539 159.151245 
L 214.585065 162.944328 
L 215.092592 164.829331 
L 215.346355 165.052917 
L 215.600118 164.846603 
L 215.853881 164.276868 
L 216.361408 162.411034 
L 217.122698 159.505041 
L 217.376461 159.001408 
L 217.630224 158.927695 
L 217.883987 159.385805 
L 218.137751 160.460079 
L 218.645277 164.683897 
L 219.152804 171.793379 
L 219.914093 187.200225 
L 221.690436 228.426146 
L 222.197963 235.805105 
L 222.451726 238.029736 
L 222.705489 239.151667 
L 222.959252 239.112265 
L 223.213016 237.88459 
L 223.466779 235.474644 
L 223.974305 227.296564 
L 224.735595 208.137839 
L 226.765701 148.190115 
L 227.273228 138.676518 
L 227.780754 133.173188 
L 228.034517 131.985823 
L 228.288281 131.811308 
L 228.542044 132.590496 
L 228.795807 134.238077 
L 229.303333 139.688855 
L 230.318386 155.331728 
L 231.333439 169.836038 
L 231.840966 174.598436 
L 232.348492 177.307363 
L 232.602256 177.944515 
L 232.856019 178.179726 
L 233.109782 178.095744 
L 233.617309 177.376962 
L 234.124835 176.688462 
L 234.378598 176.648352 
L 234.632362 176.955932 
L 234.886125 177.704265 
L 235.139888 178.968651 
L 235.647415 183.236833 
L 236.154941 189.889425 
L 236.916231 203.572182 
L 238.43881 232.790776 
L 238.946337 238.647505 
L 239.2001 240.214246 
L 239.453863 240.742234 
L 239.707627 240.166492 
L 239.96139 238.452146 
L 240.468916 231.628283 
L 240.976443 220.63486 
L 241.737733 198.295968 
L 243.514075 143.359669 
L 244.021602 133.347003 
L 244.529128 127.642735 
L 244.782891 126.50021 
L 245.036655 126.482762 
L 245.290418 127.54018 
L 245.797944 132.537772 
L 246.305471 140.577797 
L 248.58934 182.418083 
L 249.096867 187.287322 
L 249.604393 189.830317 
L 249.858156 190.34803 
L 250.11192 190.469568 
L 250.365683 190.295299 
L 251.380736 188.931238 
L 251.634499 188.99587 
L 251.888262 189.423339 
L 252.142026 190.286909 
L 252.649552 193.505525 
L 253.157079 198.76827 
L 253.918368 209.733356 
L 255.187185 229.014574 
L 255.694711 233.800556 
L 255.948474 235.02678 
L 256.202237 235.338906 
L 256.456001 234.664303 
L 256.709764 232.958006 
L 257.21729 226.421673 
L 257.724817 215.985944 
L 258.486107 194.753418 
L 260.008686 148.546747 
L 260.516213 137.390112 
L 261.023739 130.303586 
L 261.277502 128.482883 
L 261.531266 127.851617 
L 261.785029 128.399232 
L 262.038792 130.082719 
L 262.546319 136.534636 
L 263.307608 152.063921 
L 265.083951 193.143504 
L 265.591478 200.955326 
L 266.099004 205.901538 
L 266.352767 207.310127 
L 266.606531 208.068232 
L 266.860294 208.2499 
L 267.114057 207.948785 
L 267.621584 206.344854 
L 268.636637 202.560622 
L 268.8904 202.164249 
L 269.144163 202.167288 
L 269.397926 202.624935 
L 269.651689 203.568127 
L 270.159216 206.905831 
L 270.920506 214.852002 
L 272.189322 229.195218 
L 272.696848 232.277266 
L 272.950612 232.762777 
L 273.204375 232.428169 
L 273.458138 231.215806 
L 273.965665 226.06584 
L 274.473191 217.425659 
L 275.234481 199.315861 
L 276.75706 159.349913 
L 277.264587 150.026991 
L 277.772113 144.648007 
L 278.025877 143.646599 
L 278.27964 143.820382 
L 278.533403 145.165604 
L 279.04093 151.192105 
L 279.548456 161.067703 
L 280.563509 187.815264 
L 281.578562 214.63644 
L 282.339852 228.872682 
L 282.847378 234.236055 
L 283.101141 235.625326 
L 283.354905 236.197223 
L 283.608668 236.01842 
L 283.862431 235.178817 
L 284.369958 231.968835 
L 285.892537 219.578115 
L 286.400064 217.688151 
L 286.653827 217.502293 
L 286.90759 217.844896 
L 287.161353 218.699695 
L 287.66888 221.754097 
L 289.445223 236.198191 
L 289.698986 237.120135 
L 289.952749 237.422988 
L 290.206512 237.033906 
L 290.460276 235.90415 
L 290.967802 231.362318 
L 291.475329 223.960961 
L 292.236618 208.932191 
L 293.505435 182.845504 
L 294.012961 175.840781 
L 294.266724 173.646912 
L 294.520488 172.458425 
L 294.774251 172.34067 
L 295.028014 173.32831 
L 295.281777 175.423885 
L 295.789304 182.787179 
L 296.29683 193.820854 
L 297.311883 222.443843 
L 298.326936 250.395404 
L 298.834463 260.77318 
L 299.341989 267.531235 
L 299.595752 269.421472 
L 299.849516 270.311242 
L 300.103279 270.233209 
L 300.357042 269.249093 
L 300.864569 264.937863 
L 301.625858 254.52599 
L 302.894675 236.459696 
L 303.402201 231.961611 
L 303.655964 230.60761 
L 303.909728 229.877864 
L 304.163491 229.758928 
L 304.417254 230.211087 
L 304.924781 232.551444 
L 305.939834 240.063931 
L 306.44736 243.27611 
L 306.701123 244.33272 
L 306.954887 244.897314 
L 307.20865 244.900277 
L 307.462413 244.295606 
L 307.716176 243.063155 
L 308.223703 238.770235 
L 308.984992 228.664254 
L 310.253809 209.831233 
L 310.761335 205.006507 
L 311.015098 203.718004 
L 311.268862 203.31159 
L 311.522625 203.855872 
L 311.776388 205.39098 
L 312.283915 211.441114 
L 312.791441 221.165232 
L 313.552731 240.849542 
L 315.07531 282.441302 
L 315.582837 291.868442 
L 316.090363 297.324196 
L 316.344127 298.409545 
L 316.59789 298.381617 
L 316.851653 297.267146 
L 317.35918 292.039017 
L 317.866706 283.515601 
L 319.135522 255.646017 
L 319.896812 240.888605 
L 320.404339 234.022457 
L 320.911865 230.11425 
L 321.165628 229.284831 
L 321.419392 229.15787 
L 321.673155 229.666277 
L 322.180681 232.216482 
L 323.957024 244.578711 
L 324.210787 245.249548 
L 324.46455 245.412422 
L 324.718314 245.044546 
L 324.972077 244.149514 
L 325.479603 240.923368 
L 326.240893 233.658037 
L 327.002183 226.268146 
L 327.509709 223.06108 
L 327.763473 222.347982 
L 328.017236 222.361432 
L 328.270999 223.174253 
L 328.524762 224.833611 
L 329.032289 230.7386 
L 329.539815 239.872133 
L 330.301105 258.055761 
L 331.569921 290.209778 
L 332.077448 299.660053 
L 332.584974 305.361084 
L 332.838738 306.563509 
L 333.092501 306.597206 
L 333.346264 305.45016 
L 333.600027 303.143478 
L 334.107554 295.296309 
L 334.868844 277.104218 
L 336.898949 222.214517 
L 337.406476 213.863406 
L 337.914002 209.088597 
L 338.167766 208.040184 
L 338.421529 207.825714 
L 338.675292 208.368889 
L 338.929055 209.571599 
L 339.436582 213.479864 
L 340.959161 227.668375 
L 341.466688 230.167897 
L 341.720451 230.695314 
L 341.974214 230.730716 
L 342.227978 230.298731 
L 342.735504 228.25251 
L 344.258084 219.758088 
L 344.511847 219.241899 
L 344.76561 219.27794 
L 345.019373 219.945545 
L 345.273137 221.301696 
L 345.780663 226.178942 
L 346.28819 233.829148 
L 347.049479 249.236569 
L 348.318296 276.281815 
L 348.825822 283.725701 
L 349.333348 287.45961 
L 349.587112 287.683636 
L 349.840875 286.734537 
L 350.094638 284.593558 
L 350.602165 276.826261 
L 351.109691 264.883951 
L 351.870981 241.358523 
L 353.39356 191.704223 
L 354.15485 174.858348 
L 354.662377 168.582319 
L 354.91614 167.003137 
L 355.169903 166.423149 
L 355.423666 166.776397 
L 355.67743 167.97159 
L 356.184956 172.419625 
L 357.200009 185.605894 
L 357.961299 194.804057 
L 358.468825 198.974842 
L 358.976352 201.111594 
L 359.230115 201.421878 
L 359.483878 201.279949 
L 359.737642 200.754026 
L 360.245168 198.913849 
L 361.006458 195.841736 
L 361.260221 195.200586 
L 361.513984 194.931003 
L 361.767748 195.122016 
L 362.021511 195.84391 
L 362.275274 197.144762 
L 362.7828 201.549638 
L 363.290327 208.200087 
L 364.30538 225.627825 
L 365.06667 238.070159 
L 365.574196 243.719264 
L 365.827959 245.31665 
L 366.081723 245.94181 
L 366.335486 245.508973 
L 366.589249 243.960494 
L 367.096776 237.440763 
L 367.604302 226.554245 
L 368.365592 203.635698 
L 370.395698 135.640795 
L 370.903224 124.754541 
L 371.410751 118.235155 
L 371.664514 116.686878 
L 371.918277 116.254264 
L 372.172041 116.879667 
L 372.425804 118.477317 
L 372.93333 124.12701 
L 373.69462 136.570379 
L 374.963436 157.580699 
L 375.470963 163.153535 
L 375.978489 166.35849 
L 376.232252 167.080952 
L 376.486016 167.272552 
L 376.739779 167.003578 
L 377.247305 165.45461 
L 378.262358 161.454213 
L 378.516122 160.92904 
L 378.769885 160.787881 
L 379.023648 161.098955 
L 379.277411 161.908293 
L 379.784938 165.081553 
L 380.292464 170.16531 
L 382.32257 194.251079 
L 382.576334 195.447346 
L 382.830097 195.801688 
L 383.08386 195.222814 
L 383.337623 193.644768 
L 383.84515 187.371068 
L 384.352676 177.049671 
L 385.113966 155.335202 
L 387.144072 90.920183 
L 387.651599 80.974438 
L 388.159125 75.517949 
L 388.412888 74.570388 
L 388.666652 74.795973 
L 388.920415 76.143844 
L 389.427941 81.855598 
L 390.189231 96.022611 
L 391.71181 128.446717 
L 392.219337 136.100585 
L 392.726863 140.981574 
L 392.980627 142.339627 
L 393.23439 143.009154 
L 393.488153 143.047136 
L 393.741916 142.532909 
L 394.249443 140.253787 
L 395.518259 132.856595 
L 395.772022 132.008688 
L 396.025786 131.578846 
L 396.279549 131.616411 
L 396.533312 132.146011 
L 396.787075 133.166343 
L 397.294602 136.544085 
L 398.309655 146.409195 
L 399.070945 152.765247 
L 399.324708 153.970361 
L 399.578471 154.51596 
L 399.832234 154.303934 
L 400.085998 153.257986 
L 400.339761 151.327101 
L 400.847287 144.747625 
L 401.354814 134.738084 
L 402.116104 114.807946 
L 403.638683 72.430634 
L 404.146209 62.657988 
L 404.653736 56.944202 
L 404.907499 55.8 
L 405.161262 55.836562 
L 405.415026 57.041871 
L 405.668789 59.371222 
L 406.176315 67.069866 
L 406.937605 84.298275 
L 408.460185 122.566987 
L 408.967711 131.706826 
L 409.475238 137.618201 
L 409.729001 139.280782 
L 409.982764 140.096845 
L 410.236527 140.113558 
L 410.490291 139.403742 
L 410.997817 136.2033 
L 412.01287 126.218961 
L 412.77416 119.737933 
L 413.281686 117.45769 
L 413.53545 117.093334 
L 413.789213 117.259748 
L 414.042976 117.934145 
L 414.550503 120.590988 
L 416.326845 132.879505 
L 416.580608 133.391669 
L 416.834372 133.268486 
L 417.088135 132.442863 
L 417.341898 130.872528 
L 417.849425 125.465447 
L 418.356951 117.267543 
L 419.372004 95.504882 
L 420.387057 74.483503 
L 420.894584 67.492415 
L 421.148347 65.353389 
L 421.40211 64.243048 
L 421.655873 64.219271 
L 421.909637 65.30879 
L 422.1634 67.506019 
L 422.670926 75.04009 
L 423.432216 92.725625 
L 425.462322 146.811805 
L 425.969849 154.775752 
L 426.477375 158.855516 
L 426.731138 159.404339 
L 426.984902 159.002485 
L 427.238665 157.718562 
L 427.746191 152.903053 
L 428.507481 142.030848 
L 429.522534 126.962015 
L 430.03006 121.566823 
L 430.537587 118.490766 
L 430.79135 117.890947 
L 431.045113 117.898781 
L 431.298877 118.468265 
L 431.806403 120.993221 
L 433.582746 132.634776 
L 433.836509 133.092018 
L 434.090272 132.978184 
L 434.344036 132.25356 
L 434.597799 130.904699 
L 435.105325 126.416952 
L 435.866615 116.208495 
L 437.135431 97.980908 
L 437.642958 93.6804 
L 437.896721 92.701673 
L 438.150484 92.629049 
L 438.404248 93.524248 
L 438.658011 95.419931 
L 439.165537 102.188937 
L 439.673064 112.577741 
L 440.688117 140.551586 
L 441.956933 175.12237 
L 442.46446 184.437727 
L 442.971986 189.718368 
L 443.225749 190.711797 
L 443.479512 190.59985 
L 443.733276 189.41719 
L 444.240802 184.129357 
L 444.748329 175.688772 
L 447.032198 131.779251 
L 447.539724 127.249619 
L 447.793488 126.125992 
L 448.047251 125.743057 
L 448.301014 126.052075 
L 448.554777 126.980204 
L 449.062304 130.302815 
L 450.838647 144.535202 
L 451.09241 145.396373 
L 451.346173 145.745366 
L 451.599936 145.565917 
L 451.8537 144.868248 
L 452.361226 142.089112 
L 453.122516 135.705108 
L 453.883806 129.524953 
L 454.391332 127.307367 
L 454.645095 127.135195 
L 454.898859 127.713742 
L 455.152622 129.109681 
L 455.660148 134.486446 
L 456.167675 143.238847 
L 456.928964 161.48768 
L 458.705307 207.733619 
L 459.212834 215.809316 
L 459.466597 218.296305 
L 459.72036 219.648525 
L 459.974123 219.829325 
L 460.227887 218.834953 
L 460.48165 216.694723 
L 460.989176 209.252695 
L 461.750466 191.944552 
L 463.526809 146.150415 
L 464.034335 137.524831 
L 464.541862 132.389535 
L 464.795625 131.184533 
L 465.049388 130.857305 
L 465.303152 131.350214 
L 465.556915 132.581134 
L 466.064441 136.828723 
L 468.094547 158.707961 
L 468.602074 161.100353 
L 468.855837 161.565649 
L 469.1096 161.576354 
L 469.363363 161.187666 
L 469.87089 159.538907 
L 470.63218 156.513077 
L 470.885943 155.845985 
L 471.139706 155.552679 
L 471.393469 155.742174 
L 471.647233 156.508124 
L 471.900996 157.924575 
L 472.408522 162.886565 
L 472.916049 170.714235 
L 473.677339 186.917553 
L 475.199918 222.854346 
L 475.707445 231.117776 
L 476.214971 235.56324 
L 476.468734 236.119033 
L 476.722498 235.495964 
L 476.976261 233.683475 
L 477.483787 226.613429 
L 477.991314 215.473344 
L 479.006367 185.389413 
L 480.275183 148.109481 
L 480.78271 137.690684 
L 481.290236 131.171351 
L 481.543999 129.47358 
L 481.797763 128.807519 
L 482.051526 129.128206 
L 482.305289 130.363008 
L 482.812815 135.166197 
L 483.574105 146.236369 
L 484.842921 165.482011 
L 485.350448 170.762304 
L 485.857974 173.998537 
L 486.111738 174.87094 
L 486.365501 175.30726 
L 486.619264 175.380759 
L 486.873027 175.182722 
L 487.88808 173.88702 
L 488.141844 174.017528 
L 488.395607 174.544227 
L 488.64937 175.551798 
L 489.156897 179.246609 
L 489.664423 185.332941 
L 490.425713 198.412952 
L 492.202056 231.973569 
L 492.709582 236.989684 
L 492.963345 238.056389 
L 493.217109 238.048244 
L 493.470872 236.915038 
L 493.724635 234.63768 
L 494.232162 226.736235 
L 494.739688 214.834676 
L 495.754741 183.226606 
L 497.023557 144.055119 
L 497.531084 133.080844 
L 498.03861 126.276195 
L 498.292373 124.571481 
L 498.546137 124.005387 
L 498.7999 124.543039 
L 499.053663 126.119459 
L 499.56119 131.995597 
L 500.322479 145.617687 
L 501.845059 174.985088 
L 502.352585 181.657443 
L 502.860112 185.945453 
L 503.367638 187.978063 
L 503.621402 188.295613 
L 503.875165 188.265488 
L 504.382691 187.597006 
L 504.890218 186.898307 
L 505.143981 186.82439 
L 505.397744 187.069682 
L 505.651508 187.71693 
L 505.905271 188.829052 
L 506.412797 192.583085 
L 506.920324 198.3456 
L 507.935377 213.919406 
L 508.95043 228.510776 
L 509.457956 232.587134 
L 509.711719 233.37667 
L 509.965483 233.212518 
L 510.219246 232.035531 
L 510.473009 229.815508 
L 510.980536 222.280134 
L 511.488062 210.986733 
L 512.503115 180.910841 
L 513.771931 143.654411 
L 514.279458 133.455339 
L 514.786984 127.513582 
L 515.040748 126.296578 
L 515.294511 126.267861 
L 515.548274 127.400493 
L 515.802037 129.635841 
L 516.309564 137.036277 
L 517.070854 153.444466 
L 518.593433 189.190091 
L 519.10096 197.698723 
L 519.608486 203.39012 
L 520.116013 206.239617 
L 520.369776 206.708714 
L 520.623539 206.646002 
L 520.877302 206.153385 
L 521.384829 204.346226 
L 522.146119 201.436858 
L 522.399882 200.878228 
L 522.653645 200.683033 
L 522.907408 200.917752 
L 523.161171 201.625698 
L 523.668698 204.50798 
L 524.176224 209.163799 
L 525.952567 228.895572 
L 526.460094 231.336443 
L 526.713857 231.430545 
L 526.96762 230.672452 
L 527.221383 229.017895 
L 527.72891 222.985767 
L 528.236436 213.566285 
L 528.997726 194.719156 
L 530.520306 155.575991 
L 531.027832 147.176524 
L 531.535359 142.917098 
L 531.789122 142.511555 
L 532.042885 143.283476 
L 532.296648 145.212571 
L 532.804175 152.300848 
L 533.565465 169.36329 
L 535.595571 221.689407 
L 536.103097 229.632779 
L 536.610623 234.149474 
L 536.864387 235.133214 
L 537.11815 235.3298 
L 537.371913 234.817962 
L 537.87944 232.08648 
L 538.894493 223.39453 
L 539.402019 219.555917 
L 539.909546 217.219423 
L 540.163309 216.781434 
L 540.417072 216.870114 
L 540.670835 217.48241 
L 541.178362 220.135814 
L 541.939652 226.553827 
L 542.700941 233.215413 
L 543.208468 236.102561 
L 543.462231 236.735387 
L 543.715994 236.709879 
L 543.969758 235.964875 
L 544.223521 234.464691 
L 544.731047 229.194715 
L 545.238574 221.176811 
L 546.253627 200.094043 
L 547.26868 180.335595 
L 547.776206 174.173823 
L 548.02997 172.482596 
L 548.283733 171.833131 
L 548.537496 172.275681 
L 548.791259 173.828961 
L 549.298786 180.180492 
L 549.806312 190.398905 
L 550.567602 210.821099 
L 552.090181 253.011169 
L 552.597708 262.564071 
L 553.105234 268.361819 
L 553.358998 269.759598 
L 553.612761 270.16948 
L 553.866524 269.638933 
L 554.120287 268.243259 
L 554.627814 263.277365 
L 555.389104 252.415382 
L 556.404157 237.809026 
L 556.911683 232.778495 
L 557.41921 230.093891 
L 557.672973 229.682876 
L 557.926736 229.865994 
L 558.180499 230.591091 
L 558.688026 233.347365 
L 560.210605 243.899349 
L 560.464369 244.729985 
L 560.718132 245.031022 
L 560.971895 244.744311 
L 561.225658 243.836559 
L 561.733185 240.158601 
L 562.240711 234.269864 
L 564.270817 206.151109 
L 564.52458 204.465383 
L 564.778344 203.617636 
L 565.032107 203.689681 
L 565.28587 204.736192 
L 565.539633 206.782264 
L 566.04716 213.817956 
L 566.554686 224.377405 
L 567.569739 252.209209 
L 568.584792 279.926881 
L 569.092319 290.243845 
L 569.599845 296.771785 
L 569.853609 298.42367 
L 570.107372 298.960998 
L 570.361135 298.394423 
L 570.614898 296.766465 
L 571.122425 290.644594 
L 571.883715 276.13051 
L 573.406294 243.581308 
L 573.913821 236.047835 
L 574.421347 231.402911 
L 574.67511 230.214699 
L 574.928874 229.753347 
L 575.182637 229.963831 
L 575.4364 230.767787 
L 575.943927 233.748015 
L 577.466506 244.782396 
L 577.720269 245.700606 
L 577.974032 246.131857 
L 578.227796 246.040492 
L 578.481559 245.416851 
L 578.989085 242.66619 
L 579.750375 235.777421 
L 580.765428 226.124231 
L 581.272955 223.483445 
L 581.526718 223.132944 
L 581.780481 223.548418 
L 582.034244 224.790227 
L 582.541771 229.857327 
L 583.049297 238.248649 
L 583.810587 255.737135 
L 585.333167 293.891197 
L 585.840693 302.514851 
L 586.34822 307.168493 
L 586.601983 307.8 
L 586.855746 307.252631 
L 587.109509 305.530944 
L 587.617036 298.746352 
L 588.124562 288.112839 
L 589.139615 259.899446 
L 590.154668 231.805444 
L 590.915958 216.863487 
L 591.423484 211.201895 
L 591.677248 209.725529 
L 591.931011 209.111955 
L 592.184774 209.297135 
L 592.438537 210.193382 
L 592.946064 213.673856 
L 594.722407 229.851383 
L 595.229933 231.90039 
L 595.483696 232.190133 
L 595.73746 231.996985 
L 595.991223 231.358143 
L 596.498749 229.008265 
L 597.767566 221.698009 
L 598.021329 220.951219 
L 598.275092 220.709753 
L 598.528855 221.062757 
L 598.782619 222.078814 
L 599.290145 226.252188 
L 599.797672 233.261037 
L 600.558961 248.059695 
L 602.081541 280.105324 
L 602.589067 286.733758 
L 602.842831 288.622341 
L 603.096594 289.425532 
L 603.350357 289.077114 
L 603.60412 287.542092 
L 604.111647 280.936332 
L 604.619173 269.983163 
L 605.380463 247.391435 
L 607.156806 190.205035 
L 607.664332 178.958008 
L 608.171859 171.663359 
L 608.425622 169.578285 
L 608.679385 168.514906 
L 608.933148 168.421113 
L 609.186912 169.217853 
L 609.694438 173.053332 
L 610.455728 182.396439 
L 611.470781 195.504994 
L 611.978307 200.164861 
L 612.485834 202.839429 
L 612.739597 203.404193 
L 612.99336 203.490781 
L 613.247124 203.156673 
L 613.75465 201.556002 
L 614.769703 197.635256 
L 615.023466 197.177336 
L 615.27723 197.137592 
L 615.530993 197.59616 
L 615.784756 198.612606 
L 616.292283 202.436988 
L 616.799809 208.581673 
L 617.561099 221.040102 
L 618.829915 242.055028 
L 619.337441 246.959578 
L 619.591205 248.092733 
L 619.844968 248.207452 
L 620.098731 247.231652 
L 620.352494 245.122756 
L 620.860021 237.494019 
L 621.367547 225.62167 
L 622.128837 201.705539 
L 622.636364 183.547396 
L 622.636364 183.547396 
" style="fill:none;stroke:#00ffff;stroke-linecap:square;stroke-width:1.5;"/>
   </g>
   <g id="patch_3">
    <path d="M 90 320.4 
L 90 43.2 
" style="fill:none;stroke:#ffffff;stroke-linecap:square;stroke-linejoin:miter;stroke-width:0.8;"/>
   </g>
   <g id="patch_4">
    <path d="M 648 320.4 
L 648 43.2 
" style="fill:none;stroke:#ffffff;stroke-linecap:square;stroke-linejoin:miter;stroke-width:0.8;"/>
   </g>
   <g id="patch_5">
    <path d="M 90 320.4 
L 648 320.4 
" style="fill:none;stroke:#ffffff;stroke-linecap:square;stroke-linejoin:miter;stroke-width:0.8;"/>
   </g>
   <g id="patch_6">
    <path d="M 90 43.2 
L 648 43.2 
" style="fill:none;stroke:#ffffff;stroke-linecap:square;stroke-linejoin:miter;stroke-width:0.8;"/>
   </g>
  </g>
 </g>
 <defs>
  <clipPath id="p07d0aac75e">
   <rect height="277.2" width="558" x="90" y="43.2"/>
  </clipPath>
 </defs>
</svg>
