<?xml version="1.0" encoding="utf-8" standalone="no"?>
<!DOCTYPE svg PUBLIC "-//W3C//DTD SVG 1.1//EN"
  "http://www.w3.org/Graphics/SVG/1.1/DTD/svg11.dtd">
<svg height="360pt" version="1.1" viewBox="0 0 720 360" width="720pt" xmlns="http://www.w3.org/2000/svg" xmlns:xlink="http://www.w3.org/1999/xlink">
 <metadata>
  <rdf:RDF xmlns:cc="http://creativecommons.org/ns#" xmlns:dc="http://purl.org/dc/elements/1.1/" xmlns:rdf="http://www.w3.org/1999/02/22-rdf-syntax-ns#">
   <cc:Work>
    <dc:type rdf:resource="http://purl.org/dc/dcmitype/StillImage"/>
    <dc:date>2025-06-26T20:58:44.288691</dc:date>
    <dc:format>image/svg+xml</dc:format>
    <dc:creator>
     <cc:Agent>
      <dc:title>Matplotlib v3.4.3, https://matplotlib.org/</dc:title>
     </cc:Agent>
    </dc:creator>
   </cc:Work>
  </rdf:RDF>
 </metadata>
 <defs>
  <style type="text/css">*{stroke-linecap:butt;stroke-linejoin:round;}</style>
 </defs>
 <g id="figure_1">
  <g id="patch_1">
   <path d="M 0 360 
L 720 360 
L 720 0 
L 0 0 
z
" style="fill:#121212;"/>
  </g>
  <g id="axes_1">
   <g id="patch_2">
    <path d="M 90 315 
L 648 315 
L 648 43.2 
L 90 43.2 
z
" style="fill:#121212;"/>
   </g>
   <g id="matplotlib.axis_1">
    <g id="xtick_1">
     <g id="line2d_1">
      <path clip-path="url(#p4823b6e40f)" d="M 115.363636 315 
L 115.363636 43.2 
" style="fill:none;stroke:#ffffff;stroke-linecap:square;stroke-opacity:0.2;stroke-width:0.8;"/>
     </g>
     <g id="line2d_2">
      <defs>
       <path d="M 0 0 
L 0 3.5 
" id="m4960a1002f" style="stroke:#ffffff;stroke-width:0.8;"/>
      </defs>
      <g>
       <use style="fill:#ffffff;stroke:#ffffff;stroke-width:0.8;" x="115.363636" xlink:href="#m4960a1002f" y="315"/>
      </g>
     </g>
     <g id="text_1">
      <!-- 0 -->
      <g style="fill:#ffffff;" transform="translate(110.591761 333.397656)scale(0.15 -0.15)">
       <defs>
        <path d="M 2034 4250 
Q 1547 4250 1301 3770 
Q 1056 3291 1056 2328 
Q 1056 1369 1301 889 
Q 1547 409 2034 409 
Q 2525 409 2770 889 
Q 3016 1369 3016 2328 
Q 3016 3291 2770 3770 
Q 2525 4250 2034 4250 
z
M 2034 4750 
Q 2819 4750 3233 4129 
Q 3647 3509 3647 2328 
Q 3647 1150 3233 529 
Q 2819 -91 2034 -91 
Q 1250 -91 836 529 
Q 422 1150 422 2328 
Q 422 3509 836 4129 
Q 1250 4750 2034 4750 
z
" id="DejaVuSans-30" transform="scale(0.015625)"/>
       </defs>
       <use xlink:href="#DejaVuSans-30"/>
      </g>
     </g>
    </g>
    <g id="xtick_2">
     <g id="line2d_3">
      <path clip-path="url(#p4823b6e40f)" d="M 216.282339 315 
L 216.282339 43.2 
" style="fill:none;stroke:#ffffff;stroke-linecap:square;stroke-opacity:0.2;stroke-width:0.8;"/>
     </g>
     <g id="line2d_4">
      <g>
       <use style="fill:#ffffff;stroke:#ffffff;stroke-width:0.8;" x="216.282339" xlink:href="#m4960a1002f" y="315"/>
      </g>
     </g>
     <g id="text_2">
      <!-- 5 -->
      <g style="fill:#ffffff;" transform="translate(211.510464 333.397656)scale(0.15 -0.15)">
       <defs>
        <path d="M 691 4666 
L 3169 4666 
L 3169 4134 
L 1269 4134 
L 1269 2991 
Q 1406 3038 1543 3061 
Q 1681 3084 1819 3084 
Q 2600 3084 3056 2656 
Q 3513 2228 3513 1497 
Q 3513 744 3044 326 
Q 2575 -91 1722 -91 
Q 1428 -91 1123 -41 
Q 819 9 494 109 
L 494 744 
Q 775 591 1075 516 
Q 1375 441 1709 441 
Q 2250 441 2565 725 
Q 2881 1009 2881 1497 
Q 2881 1984 2565 2268 
Q 2250 2553 1709 2553 
Q 1456 2553 1204 2497 
Q 953 2441 691 2322 
L 691 4666 
z
" id="DejaVuSans-35" transform="scale(0.015625)"/>
       </defs>
       <use xlink:href="#DejaVuSans-35"/>
      </g>
     </g>
    </g>
    <g id="xtick_3">
     <g id="line2d_5">
      <path clip-path="url(#p4823b6e40f)" d="M 317.201041 315 
L 317.201041 43.2 
" style="fill:none;stroke:#ffffff;stroke-linecap:square;stroke-opacity:0.2;stroke-width:0.8;"/>
     </g>
     <g id="line2d_6">
      <g>
       <use style="fill:#ffffff;stroke:#ffffff;stroke-width:0.8;" x="317.201041" xlink:href="#m4960a1002f" y="315"/>
      </g>
     </g>
     <g id="text_3">
      <!-- 10 -->
      <g style="fill:#ffffff;" transform="translate(307.657291 333.397656)scale(0.15 -0.15)">
       <defs>
        <path d="M 794 531 
L 1825 531 
L 1825 4091 
L 703 3866 
L 703 4441 
L 1819 4666 
L 2450 4666 
L 2450 531 
L 3481 531 
L 3481 0 
L 794 0 
L 794 531 
z
" id="DejaVuSans-31" transform="scale(0.015625)"/>
       </defs>
       <use xlink:href="#DejaVuSans-31"/>
       <use x="63.623047" xlink:href="#DejaVuSans-30"/>
      </g>
     </g>
    </g>
    <g id="xtick_4">
     <g id="line2d_7">
      <path clip-path="url(#p4823b6e40f)" d="M 418.119744 315 
L 418.119744 43.2 
" style="fill:none;stroke:#ffffff;stroke-linecap:square;stroke-opacity:0.2;stroke-width:0.8;"/>
     </g>
     <g id="line2d_8">
      <g>
       <use style="fill:#ffffff;stroke:#ffffff;stroke-width:0.8;" x="418.119744" xlink:href="#m4960a1002f" y="315"/>
      </g>
     </g>
     <g id="text_4">
      <!-- 15 -->
      <g style="fill:#ffffff;" transform="translate(408.575994 333.397656)scale(0.15 -0.15)">
       <use xlink:href="#DejaVuSans-31"/>
       <use x="63.623047" xlink:href="#DejaVuSans-35"/>
      </g>
     </g>
    </g>
    <g id="xtick_5">
     <g id="line2d_9">
      <path clip-path="url(#p4823b6e40f)" d="M 519.038447 315 
L 519.038447 43.2 
" style="fill:none;stroke:#ffffff;stroke-linecap:square;stroke-opacity:0.2;stroke-width:0.8;"/>
     </g>
     <g id="line2d_10">
      <g>
       <use style="fill:#ffffff;stroke:#ffffff;stroke-width:0.8;" x="519.038447" xlink:href="#m4960a1002f" y="315"/>
      </g>
     </g>
     <g id="text_5">
      <!-- 20 -->
      <g style="fill:#ffffff;" transform="translate(509.494697 333.397656)scale(0.15 -0.15)">
       <defs>
        <path d="M 1228 531 
L 3431 531 
L 3431 0 
L 469 0 
L 469 531 
Q 828 903 1448 1529 
Q 2069 2156 2228 2338 
Q 2531 2678 2651 2914 
Q 2772 3150 2772 3378 
Q 2772 3750 2511 3984 
Q 2250 4219 1831 4219 
Q 1534 4219 1204 4116 
Q 875 4013 500 3803 
L 500 4441 
Q 881 4594 1212 4672 
Q 1544 4750 1819 4750 
Q 2544 4750 2975 4387 
Q 3406 4025 3406 3419 
Q 3406 3131 3298 2873 
Q 3191 2616 2906 2266 
Q 2828 2175 2409 1742 
Q 1991 1309 1228 531 
z
" id="DejaVuSans-32" transform="scale(0.015625)"/>
       </defs>
       <use xlink:href="#DejaVuSans-32"/>
       <use x="63.623047" xlink:href="#DejaVuSans-30"/>
      </g>
     </g>
    </g>
    <g id="xtick_6">
     <g id="line2d_11">
      <path clip-path="url(#p4823b6e40f)" d="M 619.957149 315 
L 619.957149 43.2 
" style="fill:none;stroke:#ffffff;stroke-linecap:square;stroke-opacity:0.2;stroke-width:0.8;"/>
     </g>
     <g id="line2d_12">
      <g>
       <use style="fill:#ffffff;stroke:#ffffff;stroke-width:0.8;" x="619.957149" xlink:href="#m4960a1002f" y="315"/>
      </g>
     </g>
     <g id="text_6">
      <!-- 25 -->
      <g style="fill:#ffffff;" transform="translate(610.413399 333.397656)scale(0.15 -0.15)">
       <use xlink:href="#DejaVuSans-32"/>
       <use x="63.623047" xlink:href="#DejaVuSans-35"/>
      </g>
     </g>
    </g>
    <g id="text_7">
     <!-- Time (t) -->
     <g style="fill:#ffffff;" transform="translate(329.63125 355.714063)scale(0.2 -0.2)">
      <defs>
       <path d="M -19 4666 
L 3928 4666 
L 3928 4134 
L 2272 4134 
L 2272 0 
L 1638 0 
L 1638 4134 
L -19 4134 
L -19 4666 
z
" id="DejaVuSans-54" transform="scale(0.015625)"/>
       <path d="M 603 3500 
L 1178 3500 
L 1178 0 
L 603 0 
L 603 3500 
z
M 603 4863 
L 1178 4863 
L 1178 4134 
L 603 4134 
L 603 4863 
z
" id="DejaVuSans-69" transform="scale(0.015625)"/>
       <path d="M 3328 2828 
Q 3544 3216 3844 3400 
Q 4144 3584 4550 3584 
Q 5097 3584 5394 3201 
Q 5691 2819 5691 2113 
L 5691 0 
L 5113 0 
L 5113 2094 
Q 5113 2597 4934 2840 
Q 4756 3084 4391 3084 
Q 3944 3084 3684 2787 
Q 3425 2491 3425 1978 
L 3425 0 
L 2847 0 
L 2847 2094 
Q 2847 2600 2669 2842 
Q 2491 3084 2119 3084 
Q 1678 3084 1418 2786 
Q 1159 2488 1159 1978 
L 1159 0 
L 581 0 
L 581 3500 
L 1159 3500 
L 1159 2956 
Q 1356 3278 1631 3431 
Q 1906 3584 2284 3584 
Q 2666 3584 2933 3390 
Q 3200 3197 3328 2828 
z
" id="DejaVuSans-6d" transform="scale(0.015625)"/>
       <path d="M 3597 1894 
L 3597 1613 
L 953 1613 
Q 991 1019 1311 708 
Q 1631 397 2203 397 
Q 2534 397 2845 478 
Q 3156 559 3463 722 
L 3463 178 
Q 3153 47 2828 -22 
Q 2503 -91 2169 -91 
Q 1331 -91 842 396 
Q 353 884 353 1716 
Q 353 2575 817 3079 
Q 1281 3584 2069 3584 
Q 2775 3584 3186 3129 
Q 3597 2675 3597 1894 
z
M 3022 2063 
Q 3016 2534 2758 2815 
Q 2500 3097 2075 3097 
Q 1594 3097 1305 2825 
Q 1016 2553 972 2059 
L 3022 2063 
z
" id="DejaVuSans-65" transform="scale(0.015625)"/>
       <path id="DejaVuSans-20" transform="scale(0.015625)"/>
       <path d="M 1984 4856 
Q 1566 4138 1362 3434 
Q 1159 2731 1159 2009 
Q 1159 1288 1364 580 
Q 1569 -128 1984 -844 
L 1484 -844 
Q 1016 -109 783 600 
Q 550 1309 550 2009 
Q 550 2706 781 3412 
Q 1013 4119 1484 4856 
L 1984 4856 
z
" id="DejaVuSans-28" transform="scale(0.015625)"/>
       <path d="M 1172 4494 
L 1172 3500 
L 2356 3500 
L 2356 3053 
L 1172 3053 
L 1172 1153 
Q 1172 725 1289 603 
Q 1406 481 1766 481 
L 2356 481 
L 2356 0 
L 1766 0 
Q 1100 0 847 248 
Q 594 497 594 1153 
L 594 3053 
L 172 3053 
L 172 3500 
L 594 3500 
L 594 4494 
L 1172 4494 
z
" id="DejaVuSans-74" transform="scale(0.015625)"/>
       <path d="M 513 4856 
L 1013 4856 
Q 1481 4119 1714 3412 
Q 1947 2706 1947 2009 
Q 1947 1309 1714 600 
Q 1481 -109 1013 -844 
L 513 -844 
Q 928 -128 1133 580 
Q 1338 1288 1338 2009 
Q 1338 2731 1133 3434 
Q 928 4138 513 4856 
z
" id="DejaVuSans-29" transform="scale(0.015625)"/>
      </defs>
      <use xlink:href="#DejaVuSans-54"/>
      <use x="57.958984" xlink:href="#DejaVuSans-69"/>
      <use x="85.742188" xlink:href="#DejaVuSans-6d"/>
      <use x="183.154297" xlink:href="#DejaVuSans-65"/>
      <use x="244.677734" xlink:href="#DejaVuSans-20"/>
      <use x="276.464844" xlink:href="#DejaVuSans-28"/>
      <use x="315.478516" xlink:href="#DejaVuSans-74"/>
      <use x="354.6875" xlink:href="#DejaVuSans-29"/>
     </g>
    </g>
   </g>
   <g id="matplotlib.axis_2">
    <g id="ytick_1">
     <g id="line2d_13">
      <path clip-path="url(#p4823b6e40f)" d="M 90 285.208727 
L 648 285.208727 
" style="fill:none;stroke:#ffffff;stroke-linecap:square;stroke-opacity:0.2;stroke-width:0.8;"/>
     </g>
     <g id="line2d_14">
      <defs>
       <path d="M 0 0 
L -3.5 0 
" id="mfc0925e469" style="stroke:#ffffff;stroke-width:0.8;"/>
      </defs>
      <g>
       <use style="fill:#ffffff;stroke:#ffffff;stroke-width:0.8;" x="90" xlink:href="#mfc0925e469" y="285.208727"/>
      </g>
     </g>
     <g id="text_8">
      <!-- −10 -->
      <g style="fill:#ffffff;" transform="translate(51.342969 290.907555)scale(0.15 -0.15)">
       <defs>
        <path d="M 678 2272 
L 4684 2272 
L 4684 1741 
L 678 1741 
L 678 2272 
z
" id="DejaVuSans-2212" transform="scale(0.015625)"/>
       </defs>
       <use xlink:href="#DejaVuSans-2212"/>
       <use x="83.789062" xlink:href="#DejaVuSans-31"/>
       <use x="147.412109" xlink:href="#DejaVuSans-30"/>
      </g>
     </g>
    </g>
    <g id="ytick_2">
     <g id="line2d_15">
      <path clip-path="url(#p4823b6e40f)" d="M 90 240.899799 
L 648 240.899799 
" style="fill:none;stroke:#ffffff;stroke-linecap:square;stroke-opacity:0.2;stroke-width:0.8;"/>
     </g>
     <g id="line2d_16">
      <g>
       <use style="fill:#ffffff;stroke:#ffffff;stroke-width:0.8;" x="90" xlink:href="#mfc0925e469" y="240.899799"/>
      </g>
     </g>
     <g id="text_9">
      <!-- −5 -->
      <g style="fill:#ffffff;" transform="translate(60.886719 246.598627)scale(0.15 -0.15)">
       <use xlink:href="#DejaVuSans-2212"/>
       <use x="83.789062" xlink:href="#DejaVuSans-35"/>
      </g>
     </g>
    </g>
    <g id="ytick_3">
     <g id="line2d_17">
      <path clip-path="url(#p4823b6e40f)" d="M 90 196.590871 
L 648 196.590871 
" style="fill:none;stroke:#ffffff;stroke-linecap:square;stroke-opacity:0.2;stroke-width:0.8;"/>
     </g>
     <g id="line2d_18">
      <g>
       <use style="fill:#ffffff;stroke:#ffffff;stroke-width:0.8;" x="90" xlink:href="#mfc0925e469" y="196.590871"/>
      </g>
     </g>
     <g id="text_10">
      <!-- 0 -->
      <g style="fill:#ffffff;" transform="translate(73.45625 202.289699)scale(0.15 -0.15)">
       <use xlink:href="#DejaVuSans-30"/>
      </g>
     </g>
    </g>
    <g id="ytick_4">
     <g id="line2d_19">
      <path clip-path="url(#p4823b6e40f)" d="M 90 152.281944 
L 648 152.281944 
" style="fill:none;stroke:#ffffff;stroke-linecap:square;stroke-opacity:0.2;stroke-width:0.8;"/>
     </g>
     <g id="line2d_20">
      <g>
       <use style="fill:#ffffff;stroke:#ffffff;stroke-width:0.8;" x="90" xlink:href="#mfc0925e469" y="152.281944"/>
      </g>
     </g>
     <g id="text_11">
      <!-- 5 -->
      <g style="fill:#ffffff;" transform="translate(73.45625 157.980772)scale(0.15 -0.15)">
       <use xlink:href="#DejaVuSans-35"/>
      </g>
     </g>
    </g>
    <g id="ytick_5">
     <g id="line2d_21">
      <path clip-path="url(#p4823b6e40f)" d="M 90 107.973016 
L 648 107.973016 
" style="fill:none;stroke:#ffffff;stroke-linecap:square;stroke-opacity:0.2;stroke-width:0.8;"/>
     </g>
     <g id="line2d_22">
      <g>
       <use style="fill:#ffffff;stroke:#ffffff;stroke-width:0.8;" x="90" xlink:href="#mfc0925e469" y="107.973016"/>
      </g>
     </g>
     <g id="text_12">
      <!-- 10 -->
      <g style="fill:#ffffff;" transform="translate(63.9125 113.671844)scale(0.15 -0.15)">
       <use xlink:href="#DejaVuSans-31"/>
       <use x="63.623047" xlink:href="#DejaVuSans-30"/>
      </g>
     </g>
    </g>
    <g id="ytick_6">
     <g id="line2d_23">
      <path clip-path="url(#p4823b6e40f)" d="M 90 63.664088 
L 648 63.664088 
" style="fill:none;stroke:#ffffff;stroke-linecap:square;stroke-opacity:0.2;stroke-width:0.8;"/>
     </g>
     <g id="line2d_24">
      <g>
       <use style="fill:#ffffff;stroke:#ffffff;stroke-width:0.8;" x="90" xlink:href="#mfc0925e469" y="63.664088"/>
      </g>
     </g>
     <g id="text_13">
      <!-- 15 -->
      <g style="fill:#ffffff;" transform="translate(63.9125 69.362916)scale(0.15 -0.15)">
       <use xlink:href="#DejaVuSans-31"/>
       <use x="63.623047" xlink:href="#DejaVuSans-35"/>
      </g>
     </g>
    </g>
    <g id="text_14">
     <!-- Amplitude (y) -->
     <g style="fill:#ffffff;" transform="translate(43.183594 247.245313)rotate(-90)scale(0.2 -0.2)">
      <defs>
       <path d="M 2188 4044 
L 1331 1722 
L 3047 1722 
L 2188 4044 
z
M 1831 4666 
L 2547 4666 
L 4325 0 
L 3669 0 
L 3244 1197 
L 1141 1197 
L 716 0 
L 50 0 
L 1831 4666 
z
" id="DejaVuSans-41" transform="scale(0.015625)"/>
       <path d="M 1159 525 
L 1159 -1331 
L 581 -1331 
L 581 3500 
L 1159 3500 
L 1159 2969 
Q 1341 3281 1617 3432 
Q 1894 3584 2278 3584 
Q 2916 3584 3314 3078 
Q 3713 2572 3713 1747 
Q 3713 922 3314 415 
Q 2916 -91 2278 -91 
Q 1894 -91 1617 61 
Q 1341 213 1159 525 
z
M 3116 1747 
Q 3116 2381 2855 2742 
Q 2594 3103 2138 3103 
Q 1681 3103 1420 2742 
Q 1159 2381 1159 1747 
Q 1159 1113 1420 752 
Q 1681 391 2138 391 
Q 2594 391 2855 752 
Q 3116 1113 3116 1747 
z
" id="DejaVuSans-70" transform="scale(0.015625)"/>
       <path d="M 603 4863 
L 1178 4863 
L 1178 0 
L 603 0 
L 603 4863 
z
" id="DejaVuSans-6c" transform="scale(0.015625)"/>
       <path d="M 544 1381 
L 544 3500 
L 1119 3500 
L 1119 1403 
Q 1119 906 1312 657 
Q 1506 409 1894 409 
Q 2359 409 2629 706 
Q 2900 1003 2900 1516 
L 2900 3500 
L 3475 3500 
L 3475 0 
L 2900 0 
L 2900 538 
Q 2691 219 2414 64 
Q 2138 -91 1772 -91 
Q 1169 -91 856 284 
Q 544 659 544 1381 
z
M 1991 3584 
L 1991 3584 
z
" id="DejaVuSans-75" transform="scale(0.015625)"/>
       <path d="M 2906 2969 
L 2906 4863 
L 3481 4863 
L 3481 0 
L 2906 0 
L 2906 525 
Q 2725 213 2448 61 
Q 2172 -91 1784 -91 
Q 1150 -91 751 415 
Q 353 922 353 1747 
Q 353 2572 751 3078 
Q 1150 3584 1784 3584 
Q 2172 3584 2448 3432 
Q 2725 3281 2906 2969 
z
M 947 1747 
Q 947 1113 1208 752 
Q 1469 391 1925 391 
Q 2381 391 2643 752 
Q 2906 1113 2906 1747 
Q 2906 2381 2643 2742 
Q 2381 3103 1925 3103 
Q 1469 3103 1208 2742 
Q 947 2381 947 1747 
z
" id="DejaVuSans-64" transform="scale(0.015625)"/>
       <path d="M 2059 -325 
Q 1816 -950 1584 -1140 
Q 1353 -1331 966 -1331 
L 506 -1331 
L 506 -850 
L 844 -850 
Q 1081 -850 1212 -737 
Q 1344 -625 1503 -206 
L 1606 56 
L 191 3500 
L 800 3500 
L 1894 763 
L 2988 3500 
L 3597 3500 
L 2059 -325 
z
" id="DejaVuSans-79" transform="scale(0.015625)"/>
      </defs>
      <use xlink:href="#DejaVuSans-41"/>
      <use x="68.408203" xlink:href="#DejaVuSans-6d"/>
      <use x="165.820312" xlink:href="#DejaVuSans-70"/>
      <use x="229.296875" xlink:href="#DejaVuSans-6c"/>
      <use x="257.080078" xlink:href="#DejaVuSans-69"/>
      <use x="284.863281" xlink:href="#DejaVuSans-74"/>
      <use x="324.072266" xlink:href="#DejaVuSans-75"/>
      <use x="387.451172" xlink:href="#DejaVuSans-64"/>
      <use x="450.927734" xlink:href="#DejaVuSans-65"/>
      <use x="512.451172" xlink:href="#DejaVuSans-20"/>
      <use x="544.238281" xlink:href="#DejaVuSans-28"/>
      <use x="583.251953" xlink:href="#DejaVuSans-79"/>
      <use x="642.431641" xlink:href="#DejaVuSans-29"/>
     </g>
    </g>
   </g>
   <g id="line2d_25">
    <path clip-path="url(#p4823b6e40f)" d="M 115.363636 196.590871 
L 116.379197 150.77871 
L 116.886978 132.369124 
L 117.394758 118.774633 
L 117.902539 110.715011 
L 118.410319 108.304384 
L 118.9181 111.066022 
L 119.42588 118.02267 
L 120.441441 139.063139 
L 121.457002 160.165278 
L 121.964783 168.050324 
L 122.472563 173.549993 
L 122.980344 176.808427 
L 123.488124 178.391402 
L 124.503686 180.114153 
L 125.011466 182.183108 
L 125.519247 186.071366 
L 126.027027 192.106163 
L 127.042588 209.618877 
L 128.058149 228.443733 
L 128.56593 235.101506 
L 129.07371 238.137622 
L 129.581491 236.521676 
L 130.089271 229.672742 
L 130.597052 217.567286 
L 131.612613 180.417427 
L 133.135954 114.602195 
L 133.643735 97.082028 
L 134.151515 84.256822 
L 134.659296 76.935367 
L 135.167076 75.324921 
L 135.674857 79.026128 
L 136.182637 87.105778 
L 137.198198 110.884379 
L 138.213759 134.797582 
L 138.72154 143.763167 
L 139.22932 149.91751 
L 139.737101 153.273731 
L 140.244881 154.313322 
L 140.752662 153.8785 
L 141.260442 153.013197 
L 141.768223 152.776602 
L 142.276003 154.056981 
L 142.783784 157.413359 
L 143.291564 162.968562 
L 144.307125 178.822202 
L 145.322686 194.172521 
L 145.830467 198.458774 
L 146.338247 198.961231 
L 146.846028 194.970775 
L 147.353808 186.285756 
L 147.861589 173.270315 
L 148.87715 138.349757 
L 149.892711 101.971945 
L 150.400491 87.486088 
L 150.908272 77.340527 
L 151.416052 72.376719 
L 151.923833 72.854466 
L 152.431613 78.428303 
L 152.939394 88.202672 
L 155.478296 149.669285 
L 155.986077 155.448075 
L 156.493857 157.755834 
L 157.001638 157.034262 
L 157.509419 154.146568 
L 158.52498 146.497231 
L 159.03276 144.066891 
L 159.540541 143.76298 
L 160.048321 145.997026 
L 160.556102 150.698696 
L 161.571663 164.925095 
L 162.587224 178.195915 
L 163.095004 181.432934 
L 163.602785 181.165456 
L 164.110565 176.983956 
L 164.618346 169.004321 
L 165.633907 144.71219 
L 166.649468 118.206881 
L 167.157248 107.986395 
L 167.665029 101.563259 
L 168.172809 99.768983 
L 168.68059 102.887141 
L 169.18837 110.612294 
L 170.203931 136.014488 
L 171.219492 164.881255 
L 171.727273 176.694051 
L 172.235053 185.107425 
L 172.742834 189.444106 
L 173.250614 189.580998 
L 173.758395 185.948685 
L 174.266175 179.455273 
L 175.789517 155.822304 
L 176.297297 150.865027 
L 176.805078 148.861925 
L 177.312858 150.040692 
L 177.820639 154.119941 
L 178.8362 167.69268 
L 179.851761 180.672839 
L 180.359541 184.099678 
L 180.867322 184.517159 
L 181.375102 181.769059 
L 181.882883 176.209879 
L 183.914005 146.736247 
L 184.421785 144.05773 
L 184.929566 145.312501 
L 185.437346 150.797011 
L 185.945127 160.246593 
L 186.960688 187.365648 
L 187.976249 215.819765 
L 188.484029 226.603596 
L 188.99181 233.383777 
L 189.49959 235.433403 
L 190.007371 232.593824 
L 190.515152 225.292439 
L 191.530713 201.513661 
L 192.546274 175.368029 
L 193.054054 165.142782 
L 193.561835 158.283483 
L 194.069615 155.309336 
L 194.577396 156.201124 
L 195.085176 160.427958 
L 196.100737 174.849516 
L 197.116298 189.0439 
L 197.624079 193.428871 
L 198.131859 195.289274 
L 198.63964 194.677529 
L 199.14742 192.117866 
L 200.162981 185.046689 
L 200.670762 182.908371 
L 201.178542 183.190573 
L 201.686323 186.663195 
L 202.194103 193.645508 
L 202.701884 203.931483 
L 205.240786 266.812884 
L 205.748567 271.545849 
L 206.256347 271.04726 
L 206.764128 265.120763 
L 207.271908 254.176826 
L 208.287469 221.579498 
L 209.30303 185.328591 
L 209.810811 170.051455 
L 210.318591 158.473775 
L 210.826372 151.376317 
L 211.334152 148.980356 
L 211.841933 150.948983 
L 212.349713 156.46346 
L 213.365274 173.325087 
L 214.380835 189.526136 
L 214.888616 195.012378 
L 215.396396 198.290948 
L 215.904177 199.600176 
L 216.411957 199.593699 
L 216.919738 199.218814 
L 217.427518 199.548772 
L 217.935299 201.593868 
L 218.443079 206.119324 
L 218.95086 213.497112 
L 219.966421 235.851027 
L 221.489762 273.10008 
L 221.997543 280.722851 
L 222.505324 283.694144 
L 223.013104 281.203364 
L 223.520885 272.998839 
L 224.028665 259.441731 
L 225.044226 220.552337 
L 226.567568 157.895414 
L 227.075348 142.748507 
L 227.583129 132.488185 
L 228.090909 127.536771 
L 228.59869 127.72492 
L 229.10647 132.346611 
L 229.614251 140.282841 
L 231.645373 178.561348 
L 232.153153 184.635744 
L 232.660934 188.606462 
L 233.168714 190.904761 
L 234.184275 193.778758 
L 234.692056 196.299943 
L 235.199836 200.673155 
L 235.707617 207.368099 
L 236.723178 227.342045 
L 238.246519 260.695129 
L 238.7543 267.317059 
L 239.26208 269.460902 
L 239.769861 266.262262 
L 240.277641 257.386354 
L 240.785422 243.100344 
L 241.800983 202.26838 
L 243.324324 135.281212 
L 243.832105 118.579657 
L 244.339885 106.927504 
L 244.847666 100.895987 
L 245.355446 100.446951 
L 245.863227 104.967246 
L 246.371007 113.376194 
L 248.90991 165.753524 
L 249.41769 171.256808 
L 249.925471 174.623402 
L 250.433251 176.50712 
L 250.941032 177.820606 
L 251.448812 179.560176 
L 251.956593 182.619019 
L 252.464373 187.616791 
L 252.972154 194.771234 
L 253.987715 214.083452 
L 255.003276 233.523745 
L 255.511057 239.96589 
L 256.018837 242.492486 
L 256.526618 240.171889 
L 257.034398 232.554921 
L 257.542179 219.76596 
L 258.55774 182.059011 
L 260.081081 118.619232 
L 260.588862 102.713457 
L 261.096642 91.754745 
L 261.604423 86.406262 
L 262.112203 86.720878 
L 262.619984 92.155986 
L 263.127764 101.664434 
L 265.666667 160.171506 
L 266.174447 166.112583 
L 266.682228 169.331031 
L 267.190008 170.410894 
L 267.697789 170.261173 
L 268.205569 169.947495 
L 268.71335 170.503062 
L 269.22113 172.746943 
L 269.728911 177.136642 
L 270.236691 183.676827 
L 272.267813 216.39141 
L 272.775594 220.269525 
L 273.283374 220.139783 
L 273.791155 215.41048 
L 274.298935 206.018781 
L 274.806716 192.47042 
L 277.345618 109.589712 
L 277.853399 101.076456 
L 278.361179 97.86101 
L 278.86896 100.050902 
L 279.37674 107.154929 
L 279.884521 118.157201 
L 281.915643 171.5066 
L 282.423423 180.211997 
L 282.931204 185.443369 
L 283.438984 187.262184 
L 283.946765 186.226664 
L 284.454545 183.283744 
L 285.470106 176.409551 
L 285.977887 174.744108 
L 286.485667 175.344155 
L 286.993448 178.504206 
L 287.501229 184.031495 
L 289.532351 212.159119 
L 290.040131 214.827644 
L 290.547912 213.836451 
L 291.055692 208.902449 
L 291.563473 200.277059 
L 292.579034 175.487667 
L 293.594595 149.974294 
L 294.102375 140.78608 
L 294.610156 135.642272 
L 295.117936 135.245388 
L 295.625717 139.732528 
L 296.133497 148.653776 
L 297.149058 175.474269 
L 298.164619 204.139342 
L 298.6724 215.316355 
L 299.18018 222.868288 
L 299.687961 226.252171 
L 300.195741 225.486416 
L 300.703522 221.130895 
L 301.719083 205.975371 
L 302.734644 191.218154 
L 303.242424 187.006703 
L 303.750205 185.846786 
L 304.257985 187.837908 
L 304.765766 192.576848 
L 306.796888 218.908919 
L 307.304668 221.622552 
L 307.812449 221.233115 
L 308.320229 217.711751 
L 308.82801 211.537221 
L 310.351351 187.810467 
L 310.859132 182.628946 
L 311.366912 180.814939 
L 311.874693 183.051709 
L 312.382473 189.497939 
L 312.890254 199.748617 
L 313.905815 227.527734 
L 314.921376 255.028249 
L 315.429156 264.787536 
L 315.936937 270.304895 
L 316.444717 270.989554 
L 316.952498 266.830825 
L 317.460278 258.396181 
L 318.475839 233.321781 
L 319.4914 207.403395 
L 319.999181 197.75894 
L 320.506962 191.652358 
L 321.014742 189.469954 
L 321.522523 191.059172 
L 322.030303 195.774027 
L 324.061425 223.320378 
L 324.569206 226.851395 
L 325.076986 227.818167 
L 325.584767 226.395176 
L 326.092547 223.214129 
L 327.108108 215.732582 
L 327.615889 213.823464 
L 328.123669 214.55666 
L 328.63145 218.600175 
L 329.13923 226.146228 
L 330.154791 249.870673 
L 331.170352 277.461931 
L 331.678133 288.887227 
L 332.185913 296.729135 
L 332.693694 299.860488 
L 333.201474 297.649138 
L 333.709255 290.050221 
L 334.217035 277.622255 
L 335.232596 243.084251 
L 336.248157 206.583694 
L 336.755938 191.74045 
L 337.263718 180.836154 
L 337.771499 174.515908 
L 338.279279 172.858343 
L 338.78706 175.396257 
L 339.29484 181.210247 
L 341.325962 212.335826 
L 341.833743 216.834148 
L 342.341523 219.136489 
L 342.849304 219.5932 
L 343.864865 218.187717 
L 344.372645 218.396916 
L 344.880426 220.537873 
L 345.388206 225.289597 
L 345.895987 232.908883 
L 346.911548 255.288323 
L 347.927109 280.256738 
L 348.434889 290.075524 
L 348.94267 296.14123 
L 349.45045 297.302647 
L 349.958231 292.879836 
L 350.466011 282.772384 
L 350.973792 267.493952 
L 351.989353 226.206747 
L 353.004914 181.991911 
L 353.512695 163.277362 
L 354.020475 148.752334 
L 354.528256 139.272394 
L 355.036036 135.111072 
L 355.543817 135.956871 
L 356.051597 140.986674 
L 357.067158 158.622138 
L 358.082719 177.356632 
L 358.5905 184.477992 
L 359.09828 189.458709 
L 359.606061 192.402991 
L 360.113841 193.840009 
L 360.621622 194.609398 
L 361.129402 195.69913 
L 361.637183 198.060213 
L 362.144963 202.426013 
L 362.652744 209.163402 
L 363.668305 228.891168 
L 364.683866 251.026522 
L 365.191646 259.632263 
L 365.699427 264.673716 
L 366.207207 264.977378 
L 366.714988 259.800661 
L 367.222768 248.955492 
L 367.730549 232.861948 
L 368.74611 189.425257 
L 370.269451 121.934499 
L 370.777232 105.841684 
L 371.285012 94.997487 
L 371.792793 89.821985 
L 372.300573 90.127105 
L 372.808354 95.170258 
L 373.316134 103.777942 
L 375.347256 145.651266 
L 375.855037 152.391813 
L 376.362817 156.761013 
L 376.870598 159.12574 
L 377.378378 160.219358 
L 377.886159 160.992875 
L 378.393939 162.434265 
L 378.90172 165.383162 
L 379.4095 170.368736 
L 379.917281 177.495195 
L 381.948403 213.887978 
L 382.456183 218.924093 
L 382.963964 219.776447 
L 383.471744 215.621921 
L 383.979525 206.149021 
L 384.487305 191.631274 
L 385.502867 151.385209 
L 387.026208 87.454726 
L 387.533989 72.185027 
L 388.041769 62.086552 
L 388.54955 57.672959 
L 389.05733 58.843837 
L 389.565111 64.919244 
L 390.072891 74.747974 
L 392.104013 122.138018 
L 392.611794 129.768454 
L 393.119574 134.531571 
L 393.627355 136.684161 
L 394.135135 136.905235 
L 395.150696 135.524224 
L 395.658477 135.993533 
L 396.166257 138.308712 
L 396.674038 142.820113 
L 397.181818 149.413048 
L 398.70516 174.000415 
L 399.21294 179.828686 
L 399.720721 182.381122 
L 400.228501 180.738319 
L 400.736282 174.433075 
L 401.244062 163.544022 
L 402.259623 131.104795 
L 403.782965 77.742022 
L 404.290745 65.330736 
L 404.798526 57.748738 
L 405.306306 55.554545 
L 405.814087 58.703296 
L 406.321867 66.56284 
L 407.337428 91.56607 
L 408.352989 118.668553 
L 408.86077 129.395599 
L 409.36855 136.960719 
L 409.876331 141.02354 
L 410.384111 141.776279 
L 410.891892 139.886942 
L 412.415233 129.285117 
L 412.923014 127.882858 
L 413.430794 128.870599 
L 413.938575 132.422821 
L 414.446355 138.225994 
L 415.969697 160.056362 
L 416.477477 164.793607 
L 416.985258 166.40545 
L 417.493038 164.245908 
L 418.000819 158.162423 
L 418.5086 148.541301 
L 421.047502 89.234069 
L 421.555283 85.100085 
L 422.063063 85.809724 
L 422.570844 91.352297 
L 423.078624 101.137033 
L 424.094185 128.689149 
L 425.109746 156.520802 
L 425.617527 166.798098 
L 426.125307 173.271181 
L 426.633088 175.535036 
L 427.140868 173.748348 
L 427.648649 168.594378 
L 429.679771 138.805626 
L 430.187551 135.312976 
L 430.695332 134.952484 
L 431.203112 137.695293 
L 431.710893 143.020829 
L 433.234234 164.146386 
L 433.742015 168.915659 
L 434.249795 170.937344 
L 434.757576 169.808221 
L 435.265356 165.627793 
L 436.280917 150.933314 
L 437.296478 135.841446 
L 437.804259 131.518096 
L 438.312039 130.784742 
L 438.81982 134.201255 
L 439.3276 141.786045 
L 439.835381 152.996145 
L 441.866503 208.616335 
L 442.374283 217.571808 
L 442.882064 222.093401 
L 443.389844 221.731196 
L 443.897625 216.622293 
L 444.405405 207.469211 
L 446.944308 148.720104 
L 447.452088 143.822588 
L 447.959869 142.868106 
L 448.467649 145.573566 
L 448.97543 151.185024 
L 451.006552 179.416516 
L 451.514333 182.614844 
L 452.022113 183.253392 
L 452.529894 181.626672 
L 454.053235 171.927063 
L 454.561016 170.931155 
L 455.068796 172.789803 
L 455.576577 178.06123 
L 456.084357 186.806902 
L 457.099918 212.329233 
L 458.115479 240.319606 
L 458.62326 251.363254 
L 459.13104 258.508876 
L 459.638821 260.740584 
L 460.146601 257.567171 
L 460.654382 249.096167 
L 461.162162 236.030069 
L 462.177723 201.342461 
L 463.193284 166.42999 
L 463.701065 152.925187 
L 464.208845 143.577262 
L 464.716626 138.89195 
L 465.224406 138.806416 
L 465.732187 142.728954 
L 466.239967 149.648988 
L 467.763309 175.623382 
L 468.271089 182.209066 
L 468.77887 186.644477 
L 469.28665 188.934285 
L 469.794431 189.535991 
L 470.302211 189.268666 
L 470.809992 189.165511 
L 471.317772 190.292153 
L 471.825553 193.557593 
L 472.333333 199.545873 
L 472.841114 208.393699 
L 473.856675 232.706504 
L 474.872236 258.292132 
L 475.380016 267.84905 
L 475.887797 273.332838 
L 476.395577 273.696342 
L 476.903358 268.396958 
L 477.411138 257.487555 
L 477.918919 241.631296 
L 478.93448 200.326497 
L 479.950041 157.931098 
L 480.457821 140.735269 
L 480.965602 127.997071 
L 481.473382 120.431071 
L 481.981163 118.16165 
L 482.488943 120.739627 
L 482.996724 127.233357 
L 484.012285 146.777439 
L 485.027846 166.194264 
L 485.535627 173.401316 
L 486.043407 178.4519 
L 486.551188 181.563759 
L 487.058968 183.356548 
L 487.566749 184.723455 
L 488.074529 186.660797 
L 488.58231 190.081217 
L 489.09009 195.638528 
L 489.597871 203.590616 
L 490.613432 225.33431 
L 491.628993 248.289005 
L 492.136773 256.753182 
L 492.644554 261.328905 
L 493.152334 260.935496 
L 493.660115 254.959805 
L 494.167895 243.363675 
L 494.675676 226.718342 
L 495.691237 183.270439 
L 496.706798 137.958093 
L 497.214578 119.183269 
L 497.722359 104.954659 
L 498.230139 96.136347 
L 498.73792 92.995496 
L 499.2457 95.197324 
L 499.753481 101.877433 
L 500.769042 123.444483 
L 501.784603 146.396082 
L 502.292383 155.498254 
L 502.800164 162.252533 
L 503.307944 166.685273 
L 503.815725 169.266175 
L 504.831286 172.26018 
L 505.339066 174.618769 
L 505.846847 178.649965 
L 506.354627 184.785029 
L 507.370188 202.841082 
L 508.385749 223.308093 
L 508.89353 231.305931 
L 509.40131 235.989418 
L 509.909091 236.239548 
L 510.416871 231.350302 
L 510.924652 221.152334 
L 511.432432 206.067965 
L 512.447993 165.67576 
L 513.463554 122.734337 
L 513.971335 104.837109 
L 514.479115 91.343643 
L 514.986896 83.202943 
L 515.494676 80.77617 
L 516.002457 83.811652 
L 516.510238 91.498793 
L 517.525799 115.591525 
L 518.54136 141.244055 
L 519.04914 151.426317 
L 519.556921 158.869554 
L 520.064701 163.460638 
L 520.572482 165.57154 
L 521.080262 165.967481 
L 521.588043 165.658757 
L 522.095823 165.718618 
L 522.603604 167.094359 
L 523.111384 170.439619 
L 523.619165 175.992727 
L 524.634726 192.32803 
L 525.650287 209.324609 
L 526.158067 214.906823 
L 526.665848 216.943359 
L 527.173628 214.61548 
L 527.681409 207.586277 
L 528.189189 196.077022 
L 529.20475 163.225673 
L 530.220311 127.214427 
L 530.728092 112.296339 
L 531.235872 101.421848 
L 531.743653 95.564966 
L 532.251433 95.136161 
L 532.759214 99.939076 
L 533.266994 109.206337 
L 534.282555 135.925717 
L 535.298116 163.172732 
L 535.805897 173.529655 
L 536.313677 180.583081 
L 536.821458 184.126979 
L 537.329238 184.480621 
L 537.837019 182.413907 
L 538.85258 175.486425 
L 539.36036 172.998853 
L 539.868141 172.459359 
L 540.375921 174.392176 
L 540.883702 178.84972 
L 541.899263 193.189732 
L 542.914824 207.757552 
L 543.422604 212.057755 
L 543.930385 213.023071 
L 544.438165 210.122608 
L 544.945946 203.337149 
L 545.453726 193.1859 
L 547.484848 143.559034 
L 547.992629 136.332421 
L 548.50041 133.567767 
L 549.00819 135.692472 
L 549.515971 142.547884 
L 550.023751 153.407098 
L 552.562654 218.809034 
L 553.070434 224.369829 
L 553.578215 225.701035 
L 554.085995 223.0991 
L 554.593776 217.36368 
L 556.117117 193.933272 
L 556.624898 188.451408 
L 557.132678 185.780771 
L 557.640459 186.275858 
L 558.148239 189.780449 
L 558.65602 195.662159 
L 560.179361 216.645785 
L 560.687142 220.803499 
L 561.194922 222.060874 
L 561.702703 220.13652 
L 562.210483 215.258131 
L 563.226044 199.892651 
L 564.241605 185.448696 
L 564.749386 181.895965 
L 565.257166 182.112577 
L 565.764947 186.529115 
L 566.272727 195.022482 
L 567.288288 221.052473 
L 568.303849 249.950505 
L 568.81163 261.506233 
L 569.31941 269.312187 
L 569.827191 272.511278 
L 570.334971 270.798068 
L 570.842752 264.456129 
L 571.350532 254.316972 
L 573.381654 203.84615 
L 573.889435 195.948493 
L 574.397215 191.849098 
L 574.904996 191.663853 
L 575.412776 194.983233 
L 575.920557 200.953539 
L 577.443898 222.811154 
L 577.951679 227.595812 
L 578.459459 229.91297 
L 578.96724 229.692294 
L 579.47502 227.345313 
L 580.998362 217.05909 
L 581.506143 216.421362 
L 582.013923 218.813087 
L 582.521704 224.675962 
L 583.029484 233.938377 
L 584.045045 259.768138 
L 585.060606 286.564777 
L 585.568387 296.423939 
L 586.076167 302.082684 
L 586.583948 302.645455 
L 587.091728 297.766785 
L 587.599509 287.706477 
L 588.61507 255.888955 
L 590.138411 202.350213 
L 590.646192 189.420699 
L 591.153972 180.821719 
L 591.661753 176.917412 
L 592.169533 177.506127 
L 592.677314 181.878747 
L 593.692875 197.402126 
L 594.708436 213.429254 
L 595.216216 219.071361 
L 595.723997 222.514748 
L 596.231777 223.882242 
L 596.739558 223.732867 
L 597.247338 222.954887 
L 597.755119 222.607491 
L 598.262899 223.734612 
L 598.77068 227.178465 
L 599.27846 233.420542 
L 599.786241 242.473962 
L 600.801802 266.563137 
L 601.817363 290.518108 
L 602.325143 298.686091 
L 602.832924 302.475729 
L 603.340704 300.953811 
L 603.848485 293.720981 
L 604.356265 280.984496 
L 605.371826 242.754204 
L 606.895168 177.736384 
L 607.402948 161.033556 
L 607.910729 149.017479 
L 608.418509 142.258016 
L 608.92629 140.731631 
L 609.43407 143.8574 
L 609.941851 150.604916 
L 611.972973 187.302345 
L 612.480753 193.427326 
L 612.988534 197.405855 
L 613.496314 199.565167 
L 614.511876 201.468888 
L 615.019656 203.142474 
L 615.527437 206.491603 
L 616.035217 212.08205 
L 616.542998 220.057957 
L 617.558559 241.342064 
L 618.57412 262.564824 
L 619.0819 269.612737 
L 619.589681 272.46572 
L 620.097461 270.146516 
L 620.605242 262.178394 
L 621.113022 248.675482 
L 622.128583 208.48604 
L 622.636364 184.728928 
L 622.636364 184.728928 
" style="fill:none;stroke:#00ffff;stroke-linecap:square;stroke-width:1.5;"/>
   </g>
   <g id="patch_3">
    <path d="M 90 315 
L 90 43.2 
" style="fill:none;stroke:#ffffff;stroke-linecap:square;stroke-linejoin:miter;stroke-width:0.8;"/>
   </g>
   <g id="patch_4">
    <path d="M 648 315 
L 648 43.2 
" style="fill:none;stroke:#ffffff;stroke-linecap:square;stroke-linejoin:miter;stroke-width:0.8;"/>
   </g>
   <g id="patch_5">
    <path d="M 90 315 
L 648 315 
" style="fill:none;stroke:#ffffff;stroke-linecap:square;stroke-linejoin:miter;stroke-width:0.8;"/>
   </g>
   <g id="patch_6">
    <path d="M 90 43.2 
L 648 43.2 
" style="fill:none;stroke:#ffffff;stroke-linecap:square;stroke-linejoin:miter;stroke-width:0.8;"/>
   </g>
  </g>
 </g>
 <defs>
  <clipPath id="p4823b6e40f">
   <rect height="271.8" width="558" x="90" y="43.2"/>
  </clipPath>
 </defs>
</svg>
