<?xml version="1.0" encoding="utf-8" standalone="no"?>
<!DOCTYPE svg PUBLIC "-//W3C//DTD SVG 1.1//EN"
  "http://www.w3.org/Graphics/SVG/1.1/DTD/svg11.dtd">
<!-- Created with matplotlib (https://matplotlib.org/) -->
<svg height="432pt" version="1.1" viewBox="0 0 720 432" width="720pt" xmlns="http://www.w3.org/2000/svg" xmlns:xlink="http://www.w3.org/1999/xlink">
 <defs>
  <style type="text/css">
*{stroke-linecap:butt;stroke-linejoin:round;}
  </style>
 </defs>
 <g id="figure_1">
  <g id="patch_1">
   <path d="M 0 432 
L 720 432 
L 720 0 
L 0 0 
z
" style="fill:#121212;"/>
  </g>
  <g id="axes_1">
   <g id="patch_2">
    <path d="M 65.63 165.04 
L 709.2 165.04 
L 709.2 10.8 
L 65.63 10.8 
z
" style="fill:#121212;"/>
   </g>
   <g id="matplotlib.axis_1">
    <g id="xtick_1">
     <g id="line2d_1">
      <defs>
       <path d="M 0 0 
L 0 3.5 
" id="m060c32ec04" style="stroke:#ffffff;stroke-width:0.8;"/>
      </defs>
      <g>
       <use style="fill:#ffffff;stroke:#ffffff;stroke-width:0.8;" x="94.883182" xlink:href="#m060c32ec04" y="165.04"/>
      </g>
     </g>
     <g id="text_1">
      <!-- 0 -->
      <defs>
       <path d="M 31.78125 66.40625 
Q 24.171875 66.40625 20.328125 58.90625 
Q 16.5 51.421875 16.5 36.375 
Q 16.5 21.390625 20.328125 13.890625 
Q 24.171875 6.390625 31.78125 6.390625 
Q 39.453125 6.390625 43.28125 13.890625 
Q 47.125 21.390625 47.125 36.375 
Q 47.125 51.421875 43.28125 58.90625 
Q 39.453125 66.40625 31.78125 66.40625 
z
M 31.78125 74.21875 
Q 44.046875 74.21875 50.515625 64.515625 
Q 56.984375 54.828125 56.984375 36.375 
Q 56.984375 17.96875 50.515625 8.265625 
Q 44.046875 -1.421875 31.78125 -1.421875 
Q 19.53125 -1.421875 13.0625 8.265625 
Q 6.59375 17.96875 6.59375 36.375 
Q 6.59375 54.828125 13.0625 64.515625 
Q 19.53125 74.21875 31.78125 74.21875 
z
" id="DejaVuSans-48"/>
      </defs>
      <g style="fill:#ffffff;" transform="translate(89.156932 185.717188)scale(0.18 -0.18)">
       <use xlink:href="#DejaVuSans-48"/>
      </g>
     </g>
    </g>
    <g id="xtick_2">
     <g id="line2d_2">
      <g>
       <use style="fill:#ffffff;stroke:#ffffff;stroke-width:0.8;" x="211.277894" xlink:href="#m060c32ec04" y="165.04"/>
      </g>
     </g>
     <g id="text_2">
      <!-- 5 -->
      <defs>
       <path d="M 10.796875 72.90625 
L 49.515625 72.90625 
L 49.515625 64.59375 
L 19.828125 64.59375 
L 19.828125 46.734375 
Q 21.96875 47.46875 24.109375 47.828125 
Q 26.265625 48.1875 28.421875 48.1875 
Q 40.625 48.1875 47.75 41.5 
Q 54.890625 34.8125 54.890625 23.390625 
Q 54.890625 11.625 47.5625 5.09375 
Q 40.234375 -1.421875 26.90625 -1.421875 
Q 22.3125 -1.421875 17.546875 -0.640625 
Q 12.796875 0.140625 7.71875 1.703125 
L 7.71875 11.625 
Q 12.109375 9.234375 16.796875 8.0625 
Q 21.484375 6.890625 26.703125 6.890625 
Q 35.15625 6.890625 40.078125 11.328125 
Q 45.015625 15.765625 45.015625 23.390625 
Q 45.015625 31 40.078125 35.4375 
Q 35.15625 39.890625 26.703125 39.890625 
Q 22.75 39.890625 18.8125 39.015625 
Q 14.890625 38.140625 10.796875 36.28125 
z
" id="DejaVuSans-53"/>
      </defs>
      <g style="fill:#ffffff;" transform="translate(205.551644 185.717188)scale(0.18 -0.18)">
       <use xlink:href="#DejaVuSans-53"/>
      </g>
     </g>
    </g>
    <g id="xtick_3">
     <g id="line2d_3">
      <g>
       <use style="fill:#ffffff;stroke:#ffffff;stroke-width:0.8;" x="327.672606" xlink:href="#m060c32ec04" y="165.04"/>
      </g>
     </g>
     <g id="text_3">
      <!-- 10 -->
      <defs>
       <path d="M 12.40625 8.296875 
L 28.515625 8.296875 
L 28.515625 63.921875 
L 10.984375 60.40625 
L 10.984375 69.390625 
L 28.421875 72.90625 
L 38.28125 72.90625 
L 38.28125 8.296875 
L 54.390625 8.296875 
L 54.390625 0 
L 12.40625 0 
z
" id="DejaVuSans-49"/>
      </defs>
      <g style="fill:#ffffff;" transform="translate(316.220106 185.717188)scale(0.18 -0.18)">
       <use xlink:href="#DejaVuSans-49"/>
       <use x="63.623047" xlink:href="#DejaVuSans-48"/>
      </g>
     </g>
    </g>
    <g id="xtick_4">
     <g id="line2d_4">
      <g>
       <use style="fill:#ffffff;stroke:#ffffff;stroke-width:0.8;" x="444.067318" xlink:href="#m060c32ec04" y="165.04"/>
      </g>
     </g>
     <g id="text_4">
      <!-- 15 -->
      <g style="fill:#ffffff;" transform="translate(432.614818 185.717188)scale(0.18 -0.18)">
       <use xlink:href="#DejaVuSans-49"/>
       <use x="63.623047" xlink:href="#DejaVuSans-53"/>
      </g>
     </g>
    </g>
    <g id="xtick_5">
     <g id="line2d_5">
      <g>
       <use style="fill:#ffffff;stroke:#ffffff;stroke-width:0.8;" x="560.462031" xlink:href="#m060c32ec04" y="165.04"/>
      </g>
     </g>
     <g id="text_5">
      <!-- 20 -->
      <defs>
       <path d="M 19.1875 8.296875 
L 53.609375 8.296875 
L 53.609375 0 
L 7.328125 0 
L 7.328125 8.296875 
Q 12.9375 14.109375 22.625 23.890625 
Q 32.328125 33.6875 34.8125 36.53125 
Q 39.546875 41.84375 41.421875 45.53125 
Q 43.3125 49.21875 43.3125 52.78125 
Q 43.3125 58.59375 39.234375 62.25 
Q 35.15625 65.921875 28.609375 65.921875 
Q 23.96875 65.921875 18.8125 64.3125 
Q 13.671875 62.703125 7.8125 59.421875 
L 7.8125 69.390625 
Q 13.765625 71.78125 18.9375 73 
Q 24.125 74.21875 28.421875 74.21875 
Q 39.75 74.21875 46.484375 68.546875 
Q 53.21875 62.890625 53.21875 53.421875 
Q 53.21875 48.921875 51.53125 44.890625 
Q 49.859375 40.875 45.40625 35.40625 
Q 44.1875 33.984375 37.640625 27.21875 
Q 31.109375 20.453125 19.1875 8.296875 
z
" id="DejaVuSans-50"/>
      </defs>
      <g style="fill:#ffffff;" transform="translate(549.009531 185.717188)scale(0.18 -0.18)">
       <use xlink:href="#DejaVuSans-50"/>
       <use x="63.623047" xlink:href="#DejaVuSans-48"/>
      </g>
     </g>
    </g>
    <g id="xtick_6">
     <g id="line2d_6">
      <g>
       <use style="fill:#ffffff;stroke:#ffffff;stroke-width:0.8;" x="676.856743" xlink:href="#m060c32ec04" y="165.04"/>
      </g>
     </g>
     <g id="text_6">
      <!-- 25 -->
      <g style="fill:#ffffff;" transform="translate(665.404243 185.717188)scale(0.18 -0.18)">
       <use xlink:href="#DejaVuSans-50"/>
       <use x="63.623047" xlink:href="#DejaVuSans-53"/>
      </g>
     </g>
    </g>
    <g id="text_7">
     <!-- Time (t) -->
     <defs>
      <path d="M -0.296875 72.90625 
L 61.375 72.90625 
L 61.375 64.59375 
L 35.5 64.59375 
L 35.5 0 
L 25.59375 0 
L 25.59375 64.59375 
L -0.296875 64.59375 
z
" id="DejaVuSans-84"/>
      <path d="M 9.421875 54.6875 
L 18.40625 54.6875 
L 18.40625 0 
L 9.421875 0 
z
M 9.421875 75.984375 
L 18.40625 75.984375 
L 18.40625 64.59375 
L 9.421875 64.59375 
z
" id="DejaVuSans-105"/>
      <path d="M 52 44.1875 
Q 55.375 50.25 60.0625 53.125 
Q 64.75 56 71.09375 56 
Q 79.640625 56 84.28125 50.015625 
Q 88.921875 44.046875 88.921875 33.015625 
L 88.921875 0 
L 79.890625 0 
L 79.890625 32.71875 
Q 79.890625 40.578125 77.09375 44.375 
Q 74.3125 48.1875 68.609375 48.1875 
Q 61.625 48.1875 57.5625 43.546875 
Q 53.515625 38.921875 53.515625 30.90625 
L 53.515625 0 
L 44.484375 0 
L 44.484375 32.71875 
Q 44.484375 40.625 41.703125 44.40625 
Q 38.921875 48.1875 33.109375 48.1875 
Q 26.21875 48.1875 22.15625 43.53125 
Q 18.109375 38.875 18.109375 30.90625 
L 18.109375 0 
L 9.078125 0 
L 9.078125 54.6875 
L 18.109375 54.6875 
L 18.109375 46.1875 
Q 21.1875 51.21875 25.484375 53.609375 
Q 29.78125 56 35.6875 56 
Q 41.65625 56 45.828125 52.96875 
Q 50 49.953125 52 44.1875 
z
" id="DejaVuSans-109"/>
      <path d="M 56.203125 29.59375 
L 56.203125 25.203125 
L 14.890625 25.203125 
Q 15.484375 15.921875 20.484375 11.0625 
Q 25.484375 6.203125 34.421875 6.203125 
Q 39.59375 6.203125 44.453125 7.46875 
Q 49.3125 8.734375 54.109375 11.28125 
L 54.109375 2.78125 
Q 49.265625 0.734375 44.1875 -0.34375 
Q 39.109375 -1.421875 33.890625 -1.421875 
Q 20.796875 -1.421875 13.15625 6.1875 
Q 5.515625 13.8125 5.515625 26.8125 
Q 5.515625 40.234375 12.765625 48.109375 
Q 20.015625 56 32.328125 56 
Q 43.359375 56 49.78125 48.890625 
Q 56.203125 41.796875 56.203125 29.59375 
z
M 47.21875 32.234375 
Q 47.125 39.59375 43.09375 43.984375 
Q 39.0625 48.390625 32.421875 48.390625 
Q 24.90625 48.390625 20.390625 44.140625 
Q 15.875 39.890625 15.1875 32.171875 
z
" id="DejaVuSans-101"/>
      <path id="DejaVuSans-32"/>
      <path d="M 31 75.875 
Q 24.46875 64.65625 21.28125 53.65625 
Q 18.109375 42.671875 18.109375 31.390625 
Q 18.109375 20.125 21.3125 9.0625 
Q 24.515625 -2 31 -13.1875 
L 23.1875 -13.1875 
Q 15.875 -1.703125 12.234375 9.375 
Q 8.59375 20.453125 8.59375 31.390625 
Q 8.59375 42.28125 12.203125 53.3125 
Q 15.828125 64.359375 23.1875 75.875 
z
" id="DejaVuSans-40"/>
      <path d="M 18.3125 70.21875 
L 18.3125 54.6875 
L 36.8125 54.6875 
L 36.8125 47.703125 
L 18.3125 47.703125 
L 18.3125 18.015625 
Q 18.3125 11.328125 20.140625 9.421875 
Q 21.96875 7.515625 27.59375 7.515625 
L 36.8125 7.515625 
L 36.8125 0 
L 27.59375 0 
Q 17.1875 0 13.234375 3.875 
Q 9.28125 7.765625 9.28125 18.015625 
L 9.28125 47.703125 
L 2.6875 47.703125 
L 2.6875 54.6875 
L 9.28125 54.6875 
L 9.28125 70.21875 
z
" id="DejaVuSans-116"/>
      <path d="M 8.015625 75.875 
L 15.828125 75.875 
Q 23.140625 64.359375 26.78125 53.3125 
Q 30.421875 42.28125 30.421875 31.390625 
Q 30.421875 20.453125 26.78125 9.375 
Q 23.140625 -1.703125 15.828125 -13.1875 
L 8.015625 -13.1875 
Q 14.5 -2 17.703125 9.0625 
Q 20.90625 20.125 20.90625 31.390625 
Q 20.90625 42.671875 17.703125 53.65625 
Q 14.5 64.65625 8.015625 75.875 
z
" id="DejaVuSans-41"/>
     </defs>
     <g style="fill:#ffffff;" transform="translate(351.706094 207.137813)scale(0.18 -0.18)">
      <use xlink:href="#DejaVuSans-84"/>
      <use x="61.037109" xlink:href="#DejaVuSans-105"/>
      <use x="88.820312" xlink:href="#DejaVuSans-109"/>
      <use x="186.232422" xlink:href="#DejaVuSans-101"/>
      <use x="247.755859" xlink:href="#DejaVuSans-32"/>
      <use x="279.542969" xlink:href="#DejaVuSans-40"/>
      <use x="318.556641" xlink:href="#DejaVuSans-116"/>
      <use x="357.765625" xlink:href="#DejaVuSans-41"/>
     </g>
    </g>
   </g>
   <g id="matplotlib.axis_2">
    <g id="ytick_1">
     <g id="line2d_7">
      <defs>
       <path d="M 0 0 
L -3.5 0 
" id="med4efc89dc" style="stroke:#ffffff;stroke-width:0.8;"/>
      </defs>
      <g>
       <use style="fill:#ffffff;stroke:#ffffff;stroke-width:0.8;" x="65.63" xlink:href="#med4efc89dc" y="143.1515"/>
      </g>
     </g>
     <g id="text_8">
      <!-- −4 -->
      <defs>
       <path d="M 10.59375 35.5 
L 73.1875 35.5 
L 73.1875 27.203125 
L 10.59375 27.203125 
z
" id="DejaVuSans-8722"/>
       <path d="M 37.796875 64.3125 
L 12.890625 25.390625 
L 37.796875 25.390625 
z
M 35.203125 72.90625 
L 47.609375 72.90625 
L 47.609375 25.390625 
L 58.015625 25.390625 
L 58.015625 17.1875 
L 47.609375 17.1875 
L 47.609375 0 
L 37.796875 0 
L 37.796875 17.1875 
L 4.890625 17.1875 
L 4.890625 26.703125 
z
" id="DejaVuSans-52"/>
      </defs>
      <g style="fill:#ffffff;" transform="translate(32.094063 149.990093)scale(0.18 -0.18)">
       <use xlink:href="#DejaVuSans-8722"/>
       <use x="83.789062" xlink:href="#DejaVuSans-52"/>
      </g>
     </g>
    </g>
    <g id="ytick_2">
     <g id="line2d_8">
      <g>
       <use style="fill:#ffffff;stroke:#ffffff;stroke-width:0.8;" x="65.63" xlink:href="#med4efc89dc" y="118.41876"/>
      </g>
     </g>
     <g id="text_9">
      <!-- −2 -->
      <g style="fill:#ffffff;" transform="translate(32.094063 125.257354)scale(0.18 -0.18)">
       <use xlink:href="#DejaVuSans-8722"/>
       <use x="83.789062" xlink:href="#DejaVuSans-50"/>
      </g>
     </g>
    </g>
    <g id="ytick_3">
     <g id="line2d_9">
      <g>
       <use style="fill:#ffffff;stroke:#ffffff;stroke-width:0.8;" x="65.63" xlink:href="#med4efc89dc" y="93.686021"/>
      </g>
     </g>
     <g id="text_10">
      <!-- 0 -->
      <g style="fill:#ffffff;" transform="translate(47.1775 100.524615)scale(0.18 -0.18)">
       <use xlink:href="#DejaVuSans-48"/>
      </g>
     </g>
    </g>
    <g id="ytick_4">
     <g id="line2d_10">
      <g>
       <use style="fill:#ffffff;stroke:#ffffff;stroke-width:0.8;" x="65.63" xlink:href="#med4efc89dc" y="68.953282"/>
      </g>
     </g>
     <g id="text_11">
      <!-- 2 -->
      <g style="fill:#ffffff;" transform="translate(47.1775 75.791876)scale(0.18 -0.18)">
       <use xlink:href="#DejaVuSans-50"/>
      </g>
     </g>
    </g>
    <g id="ytick_5">
     <g id="line2d_11">
      <g>
       <use style="fill:#ffffff;stroke:#ffffff;stroke-width:0.8;" x="65.63" xlink:href="#med4efc89dc" y="44.220543"/>
      </g>
     </g>
     <g id="text_12">
      <!-- 4 -->
      <g style="fill:#ffffff;" transform="translate(47.1775 51.059136)scale(0.18 -0.18)">
       <use xlink:href="#DejaVuSans-52"/>
      </g>
     </g>
    </g>
    <g id="ytick_6">
     <g id="line2d_12">
      <g>
       <use style="fill:#ffffff;stroke:#ffffff;stroke-width:0.8;" x="65.63" xlink:href="#med4efc89dc" y="19.487803"/>
      </g>
     </g>
     <g id="text_13">
      <!-- 6 -->
      <defs>
       <path d="M 33.015625 40.375 
Q 26.375 40.375 22.484375 35.828125 
Q 18.609375 31.296875 18.609375 23.390625 
Q 18.609375 15.53125 22.484375 10.953125 
Q 26.375 6.390625 33.015625 6.390625 
Q 39.65625 6.390625 43.53125 10.953125 
Q 47.40625 15.53125 47.40625 23.390625 
Q 47.40625 31.296875 43.53125 35.828125 
Q 39.65625 40.375 33.015625 40.375 
z
M 52.59375 71.296875 
L 52.59375 62.3125 
Q 48.875 64.0625 45.09375 64.984375 
Q 41.3125 65.921875 37.59375 65.921875 
Q 27.828125 65.921875 22.671875 59.328125 
Q 17.53125 52.734375 16.796875 39.40625 
Q 19.671875 43.65625 24.015625 45.921875 
Q 28.375 48.1875 33.59375 48.1875 
Q 44.578125 48.1875 50.953125 41.515625 
Q 57.328125 34.859375 57.328125 23.390625 
Q 57.328125 12.15625 50.6875 5.359375 
Q 44.046875 -1.421875 33.015625 -1.421875 
Q 20.359375 -1.421875 13.671875 8.265625 
Q 6.984375 17.96875 6.984375 36.375 
Q 6.984375 53.65625 15.1875 63.9375 
Q 23.390625 74.21875 37.203125 74.21875 
Q 40.921875 74.21875 44.703125 73.484375 
Q 48.484375 72.75 52.59375 71.296875 
z
" id="DejaVuSans-54"/>
      </defs>
      <g style="fill:#ffffff;" transform="translate(47.1775 26.326397)scale(0.18 -0.18)">
       <use xlink:href="#DejaVuSans-54"/>
      </g>
     </g>
    </g>
    <g id="text_14">
     <!-- Amplitude (y) -->
     <defs>
      <path d="M 34.1875 63.1875 
L 20.796875 26.90625 
L 47.609375 26.90625 
z
M 28.609375 72.90625 
L 39.796875 72.90625 
L 67.578125 0 
L 57.328125 0 
L 50.6875 18.703125 
L 17.828125 18.703125 
L 11.1875 0 
L 0.78125 0 
z
" id="DejaVuSans-65"/>
      <path d="M 18.109375 8.203125 
L 18.109375 -20.796875 
L 9.078125 -20.796875 
L 9.078125 54.6875 
L 18.109375 54.6875 
L 18.109375 46.390625 
Q 20.953125 51.265625 25.265625 53.625 
Q 29.59375 56 35.59375 56 
Q 45.5625 56 51.78125 48.09375 
Q 58.015625 40.1875 58.015625 27.296875 
Q 58.015625 14.40625 51.78125 6.484375 
Q 45.5625 -1.421875 35.59375 -1.421875 
Q 29.59375 -1.421875 25.265625 0.953125 
Q 20.953125 3.328125 18.109375 8.203125 
z
M 48.6875 27.296875 
Q 48.6875 37.203125 44.609375 42.84375 
Q 40.53125 48.484375 33.40625 48.484375 
Q 26.265625 48.484375 22.1875 42.84375 
Q 18.109375 37.203125 18.109375 27.296875 
Q 18.109375 17.390625 22.1875 11.75 
Q 26.265625 6.109375 33.40625 6.109375 
Q 40.53125 6.109375 44.609375 11.75 
Q 48.6875 17.390625 48.6875 27.296875 
z
" id="DejaVuSans-112"/>
      <path d="M 9.421875 75.984375 
L 18.40625 75.984375 
L 18.40625 0 
L 9.421875 0 
z
" id="DejaVuSans-108"/>
      <path d="M 8.5 21.578125 
L 8.5 54.6875 
L 17.484375 54.6875 
L 17.484375 21.921875 
Q 17.484375 14.15625 20.5 10.265625 
Q 23.53125 6.390625 29.59375 6.390625 
Q 36.859375 6.390625 41.078125 11.03125 
Q 45.3125 15.671875 45.3125 23.6875 
L 45.3125 54.6875 
L 54.296875 54.6875 
L 54.296875 0 
L 45.3125 0 
L 45.3125 8.40625 
Q 42.046875 3.421875 37.71875 1 
Q 33.40625 -1.421875 27.6875 -1.421875 
Q 18.265625 -1.421875 13.375 4.4375 
Q 8.5 10.296875 8.5 21.578125 
z
M 31.109375 56 
z
" id="DejaVuSans-117"/>
      <path d="M 45.40625 46.390625 
L 45.40625 75.984375 
L 54.390625 75.984375 
L 54.390625 0 
L 45.40625 0 
L 45.40625 8.203125 
Q 42.578125 3.328125 38.25 0.953125 
Q 33.9375 -1.421875 27.875 -1.421875 
Q 17.96875 -1.421875 11.734375 6.484375 
Q 5.515625 14.40625 5.515625 27.296875 
Q 5.515625 40.1875 11.734375 48.09375 
Q 17.96875 56 27.875 56 
Q 33.9375 56 38.25 53.625 
Q 42.578125 51.265625 45.40625 46.390625 
z
M 14.796875 27.296875 
Q 14.796875 17.390625 18.875 11.75 
Q 22.953125 6.109375 30.078125 6.109375 
Q 37.203125 6.109375 41.296875 11.75 
Q 45.40625 17.390625 45.40625 27.296875 
Q 45.40625 37.203125 41.296875 42.84375 
Q 37.203125 48.484375 30.078125 48.484375 
Q 22.953125 48.484375 18.875 42.84375 
Q 14.796875 37.203125 14.796875 27.296875 
z
" id="DejaVuSans-100"/>
      <path d="M 32.171875 -5.078125 
Q 28.375 -14.84375 24.75 -17.8125 
Q 21.140625 -20.796875 15.09375 -20.796875 
L 7.90625 -20.796875 
L 7.90625 -13.28125 
L 13.1875 -13.28125 
Q 16.890625 -13.28125 18.9375 -11.515625 
Q 21 -9.765625 23.484375 -3.21875 
L 25.09375 0.875 
L 2.984375 54.6875 
L 12.5 54.6875 
L 29.59375 11.921875 
L 46.6875 54.6875 
L 56.203125 54.6875 
z
" id="DejaVuSans-121"/>
     </defs>
     <g style="fill:#ffffff;" transform="translate(24.350625 149.250781)rotate(-90)scale(0.18 -0.18)">
      <use xlink:href="#DejaVuSans-65"/>
      <use x="68.408203" xlink:href="#DejaVuSans-109"/>
      <use x="165.820312" xlink:href="#DejaVuSans-112"/>
      <use x="229.296875" xlink:href="#DejaVuSans-108"/>
      <use x="257.080078" xlink:href="#DejaVuSans-105"/>
      <use x="284.863281" xlink:href="#DejaVuSans-116"/>
      <use x="324.072266" xlink:href="#DejaVuSans-117"/>
      <use x="387.451172" xlink:href="#DejaVuSans-100"/>
      <use x="450.927734" xlink:href="#DejaVuSans-101"/>
      <use x="512.451172" xlink:href="#DejaVuSans-32"/>
      <use x="544.238281" xlink:href="#DejaVuSans-40"/>
      <use x="583.251953" xlink:href="#DejaVuSans-121"/>
      <use x="642.431641" xlink:href="#DejaVuSans-41"/>
     </g>
    </g>
   </g>
   <g id="line2d_13">
    <path clip-path="url(#pd663a9d25a)" d="M 94.883182 91.376456 
L 110.395124 59.94069 
L 115.077975 51.018749 
L 118.297434 45.321545 
L 121.224216 40.601126 
L 123.565641 37.21073 
L 125.907066 34.200081 
L 128.248492 31.580708 
L 130.297239 29.6038 
L 132.345986 27.906689 
L 134.394733 26.472787 
L 136.44348 25.287733 
L 138.492227 24.343208 
L 140.540974 23.638636 
L 142.589721 23.180429 
L 144.638469 22.979036 
L 146.394537 23.018655 
L 148.150606 23.258394 
L 149.906675 23.697956 
L 151.955422 24.455921 
L 154.00417 25.461397 
L 156.345595 26.882461 
L 158.979698 28.778637 
L 161.90648 31.191252 
L 165.12594 34.15517 
L 168.638077 37.716652 
L 172.150215 41.593543 
L 176.540388 46.803372 
L 189.710905 62.73995 
L 194.101077 67.56341 
L 198.198571 71.757259 
L 202.003387 75.332256 
L 205.222847 78.053541 
L 208.149629 80.242659 
L 211.07641 82.143545 
L 214.003192 83.765189 
L 216.929973 85.135598 
L 220.149433 86.392569 
L 223.368893 87.418825 
L 226.588353 88.228625 
L 230.10049 88.872063 
L 233.612628 89.28858 
L 238.295479 89.600599 
L 247.075824 90.142258 
L 251.465996 90.657382 
L 255.56349 91.360393 
L 259.075628 92.184381 
L 262.295088 93.177777 
L 265.221869 94.32503 
L 268.148651 95.734528 
L 271.075432 97.415674 
L 274.002214 99.36006 
L 277.221674 101.781944 
L 280.441134 104.48036 
L 283.953271 107.728607 
L 287.465409 111.290669 
L 291.270225 115.481959 
L 295.953076 121.011738 
L 312.050375 140.37537 
L 316.147869 144.80977 
L 319.367328 147.979084 
L 322.29411 150.540958 
L 324.928213 152.535751 
L 327.269639 154.033152 
L 329.611064 155.253727 
L 331.659811 156.085672 
L 333.708558 156.690895 
L 335.757305 157.06305 
L 337.806052 157.194397 
L 339.854799 157.075496 
L 341.610868 156.766432 
L 343.366937 156.25926 
L 345.123006 155.54842 
L 347.171753 154.456726 
L 349.2205 153.08068 
L 351.269248 151.422965 
L 353.317995 149.490506 
L 355.65942 146.958349 
L 358.000845 144.097046 
L 360.634949 140.504502 
L 363.269052 136.534891 
L 366.195834 131.702077 
L 369.122615 126.449177 
L 372.342075 120.22899 
L 376.146891 112.376146 
L 380.829741 102.179199 
L 389.610086 82.394022 
L 396.92704 66.128004 
L 401.317212 56.882045 
L 404.82935 49.961421 
L 408.04881 44.086098 
L 410.975592 39.181688 
L 413.902373 34.721233 
L 416.536477 31.1046 
L 419.17058 27.883467 
L 421.512005 25.369845 
L 423.853431 23.202402 
L 425.902178 21.601442 
L 427.950925 20.283455 
L 429.999672 19.250855 
L 432.048419 18.501327 
L 433.804488 18.07929 
L 435.560557 17.854507 
L 437.609304 17.832548 
L 439.658051 18.059233 
L 441.706798 18.525171 
L 443.755545 19.222712 
L 445.804292 20.145501 
L 448.145718 21.467813 
L 450.487143 23.064054 
L 452.828568 24.916821 
L 455.462672 27.277567 
L 458.389453 30.192873 
L 461.901591 34.008517 
L 466.291763 39.117842 
L 472.438005 46.647373 
L 482.974418 59.61815 
L 487.071913 64.264276 
L 490.58405 67.93381 
L 494.096188 71.290382 
L 497.608326 74.330545 
L 500.827786 76.831511 
L 504.047246 79.039272 
L 506.974027 80.772471 
L 509.900809 82.236272 
L 512.82759 83.440668 
L 516.04705 84.501104 
L 519.559188 85.404335 
L 523.656682 86.208879 
L 528.046855 86.843771 
L 533.315061 87.370577 
L 542.095406 88.210752 
L 545.607544 88.79575 
L 548.827004 89.542651 
L 552.046463 90.50605 
L 555.265923 91.690461 
L 558.485383 93.11093 
L 561.412164 94.635847 
L 564.338946 96.417877 
L 567.265728 98.483614 
L 570.192509 100.8391 
L 573.411969 103.741014 
L 576.924107 107.21956 
L 581.021601 111.603156 
L 585.411773 116.624978 
L 590.094624 122.322851 
L 597.996934 132.39149 
L 602.972463 138.514446 
L 606.777279 142.840339 
L 610.289417 146.497356 
L 613.508876 149.543967 
L 616.435658 152.026284 
L 619.069761 153.978017 
L 621.411187 155.440818 
L 623.459934 156.476293 
L 625.508681 157.258563 
L 627.26475 157.715359 
L 629.020819 157.970256 
L 630.776888 158.024342 
L 632.532957 157.882845 
L 634.581704 157.480618 
L 636.630451 156.834092 
L 638.679198 155.950424 
L 640.727945 154.829056 
L 642.776692 153.460901 
L 644.825439 151.830206 
L 646.874186 149.918736 
L 648.922934 147.71125 
L 650.971681 145.200919 
L 653.313106 141.968927 
L 655.947209 137.90822 
L 658.873991 132.957326 
L 662.678807 126.03117 
L 668.239692 115.370705 
L 675.849324 100.284985 
L 679.946818 91.973886 
L 679.946818 91.973886 
" style="fill:none;stroke:#00ffff;stroke-linecap:square;stroke-width:5;"/>
   </g>
   <g id="patch_3">
    <path d="M 65.63 165.04 
L 65.63 10.8 
" style="fill:none;stroke:#ffffff;stroke-linecap:square;stroke-linejoin:miter;stroke-width:0.8;"/>
   </g>
   <g id="patch_4">
    <path d="M 709.2 165.04 
L 709.2 10.8 
" style="fill:none;stroke:#ffffff;stroke-linecap:square;stroke-linejoin:miter;stroke-width:0.8;"/>
   </g>
   <g id="patch_5">
    <path d="M 65.63 165.04 
L 709.2 165.04 
" style="fill:none;stroke:#ffffff;stroke-linecap:square;stroke-linejoin:miter;stroke-width:0.8;"/>
   </g>
   <g id="patch_6">
    <path d="M 65.63 10.8 
L 709.2 10.8 
" style="fill:none;stroke:#ffffff;stroke-linecap:square;stroke-linejoin:miter;stroke-width:0.8;"/>
   </g>
   <g id="legend_1">
    <g id="patch_7">
     <path d="M 616.97625 38.01375 
L 700.8 38.01375 
Q 703.2 38.01375 703.2 35.61375 
L 703.2 19.2 
Q 703.2 16.8 700.8 16.8 
L 616.97625 16.8 
Q 614.57625 16.8 614.57625 19.2 
L 614.57625 35.61375 
Q 614.57625 38.01375 616.97625 38.01375 
z
" style="fill:#121212;opacity:0.8;stroke:#ffffff;stroke-linejoin:miter;"/>
    </g>
    <g id="line2d_14">
     <path d="M 619.37625 26.518125 
L 643.37625 26.518125 
" style="fill:none;stroke:#00ffff;stroke-linecap:square;stroke-width:5;"/>
    </g>
    <g id="line2d_15"/>
    <g id="text_15">
     <!-- Low IFT -->
     <defs>
      <path d="M 9.8125 72.90625 
L 19.671875 72.90625 
L 19.671875 8.296875 
L 55.171875 8.296875 
L 55.171875 0 
L 9.8125 0 
z
" id="DejaVuSans-76"/>
      <path d="M 30.609375 48.390625 
Q 23.390625 48.390625 19.1875 42.75 
Q 14.984375 37.109375 14.984375 27.296875 
Q 14.984375 17.484375 19.15625 11.84375 
Q 23.34375 6.203125 30.609375 6.203125 
Q 37.796875 6.203125 41.984375 11.859375 
Q 46.1875 17.53125 46.1875 27.296875 
Q 46.1875 37.015625 41.984375 42.703125 
Q 37.796875 48.390625 30.609375 48.390625 
z
M 30.609375 56 
Q 42.328125 56 49.015625 48.375 
Q 55.71875 40.765625 55.71875 27.296875 
Q 55.71875 13.875 49.015625 6.21875 
Q 42.328125 -1.421875 30.609375 -1.421875 
Q 18.84375 -1.421875 12.171875 6.21875 
Q 5.515625 13.875 5.515625 27.296875 
Q 5.515625 40.765625 12.171875 48.375 
Q 18.84375 56 30.609375 56 
z
" id="DejaVuSans-111"/>
      <path d="M 4.203125 54.6875 
L 13.1875 54.6875 
L 24.421875 12.015625 
L 35.59375 54.6875 
L 46.1875 54.6875 
L 57.421875 12.015625 
L 68.609375 54.6875 
L 77.59375 54.6875 
L 63.28125 0 
L 52.6875 0 
L 40.921875 44.828125 
L 29.109375 0 
L 18.5 0 
z
" id="DejaVuSans-119"/>
      <path d="M 9.8125 72.90625 
L 19.671875 72.90625 
L 19.671875 0 
L 9.8125 0 
z
" id="DejaVuSans-73"/>
      <path d="M 9.8125 72.90625 
L 51.703125 72.90625 
L 51.703125 64.59375 
L 19.671875 64.59375 
L 19.671875 43.109375 
L 48.578125 43.109375 
L 48.578125 34.8125 
L 19.671875 34.8125 
L 19.671875 0 
L 9.8125 0 
z
" id="DejaVuSans-70"/>
     </defs>
     <g style="fill:#ffffff;" transform="translate(652.97625 30.718125)scale(0.12 -0.12)">
      <use xlink:href="#DejaVuSans-76"/>
      <use x="55.697266" xlink:href="#DejaVuSans-111"/>
      <use x="116.878906" xlink:href="#DejaVuSans-119"/>
      <use x="198.666016" xlink:href="#DejaVuSans-32"/>
      <use x="230.453125" xlink:href="#DejaVuSans-73"/>
      <use x="259.945312" xlink:href="#DejaVuSans-70"/>
      <use x="317.449219" xlink:href="#DejaVuSans-84"/>
     </g>
    </g>
   </g>
  </g>
  <g id="axes_2">
   <g id="patch_8">
    <path d="M 65.63 375.64 
L 709.2 375.64 
L 709.2 221.4 
L 65.63 221.4 
z
" style="fill:#121212;"/>
   </g>
   <g id="matplotlib.axis_3">
    <g id="xtick_7">
     <g id="line2d_16">
      <g>
       <use style="fill:#ffffff;stroke:#ffffff;stroke-width:0.8;" x="94.883182" xlink:href="#m060c32ec04" y="375.64"/>
      </g>
     </g>
     <g id="text_16">
      <!-- 0 -->
      <g style="fill:#ffffff;" transform="translate(89.156932 396.317187)scale(0.18 -0.18)">
       <use xlink:href="#DejaVuSans-48"/>
      </g>
     </g>
    </g>
    <g id="xtick_8">
     <g id="line2d_17">
      <g>
       <use style="fill:#ffffff;stroke:#ffffff;stroke-width:0.8;" x="211.277894" xlink:href="#m060c32ec04" y="375.64"/>
      </g>
     </g>
     <g id="text_17">
      <!-- 5 -->
      <g style="fill:#ffffff;" transform="translate(205.551644 396.317187)scale(0.18 -0.18)">
       <use xlink:href="#DejaVuSans-53"/>
      </g>
     </g>
    </g>
    <g id="xtick_9">
     <g id="line2d_18">
      <g>
       <use style="fill:#ffffff;stroke:#ffffff;stroke-width:0.8;" x="327.672606" xlink:href="#m060c32ec04" y="375.64"/>
      </g>
     </g>
     <g id="text_18">
      <!-- 10 -->
      <g style="fill:#ffffff;" transform="translate(316.220106 396.317187)scale(0.18 -0.18)">
       <use xlink:href="#DejaVuSans-49"/>
       <use x="63.623047" xlink:href="#DejaVuSans-48"/>
      </g>
     </g>
    </g>
    <g id="xtick_10">
     <g id="line2d_19">
      <g>
       <use style="fill:#ffffff;stroke:#ffffff;stroke-width:0.8;" x="444.067318" xlink:href="#m060c32ec04" y="375.64"/>
      </g>
     </g>
     <g id="text_19">
      <!-- 15 -->
      <g style="fill:#ffffff;" transform="translate(432.614818 396.317187)scale(0.18 -0.18)">
       <use xlink:href="#DejaVuSans-49"/>
       <use x="63.623047" xlink:href="#DejaVuSans-53"/>
      </g>
     </g>
    </g>
    <g id="xtick_11">
     <g id="line2d_20">
      <g>
       <use style="fill:#ffffff;stroke:#ffffff;stroke-width:0.8;" x="560.462031" xlink:href="#m060c32ec04" y="375.64"/>
      </g>
     </g>
     <g id="text_20">
      <!-- 20 -->
      <g style="fill:#ffffff;" transform="translate(549.009531 396.317187)scale(0.18 -0.18)">
       <use xlink:href="#DejaVuSans-50"/>
       <use x="63.623047" xlink:href="#DejaVuSans-48"/>
      </g>
     </g>
    </g>
    <g id="xtick_12">
     <g id="line2d_21">
      <g>
       <use style="fill:#ffffff;stroke:#ffffff;stroke-width:0.8;" x="676.856743" xlink:href="#m060c32ec04" y="375.64"/>
      </g>
     </g>
     <g id="text_21">
      <!-- 25 -->
      <g style="fill:#ffffff;" transform="translate(665.404243 396.317187)scale(0.18 -0.18)">
       <use xlink:href="#DejaVuSans-50"/>
       <use x="63.623047" xlink:href="#DejaVuSans-53"/>
      </g>
     </g>
    </g>
    <g id="text_22">
     <!-- Time (t) -->
     <g style="fill:#ffffff;" transform="translate(351.706094 417.737812)scale(0.18 -0.18)">
      <use xlink:href="#DejaVuSans-84"/>
      <use x="61.037109" xlink:href="#DejaVuSans-105"/>
      <use x="88.820312" xlink:href="#DejaVuSans-109"/>
      <use x="186.232422" xlink:href="#DejaVuSans-101"/>
      <use x="247.755859" xlink:href="#DejaVuSans-32"/>
      <use x="279.542969" xlink:href="#DejaVuSans-40"/>
      <use x="318.556641" xlink:href="#DejaVuSans-116"/>
      <use x="357.765625" xlink:href="#DejaVuSans-41"/>
     </g>
    </g>
   </g>
   <g id="matplotlib.axis_4">
    <g id="ytick_7">
     <g id="line2d_22">
      <g>
       <use style="fill:#ffffff;stroke:#ffffff;stroke-width:0.8;" x="65.63" xlink:href="#med4efc89dc" y="357.442461"/>
      </g>
     </g>
     <g id="text_23">
      <!-- −4 -->
      <g style="fill:#ffffff;" transform="translate(32.094063 364.281055)scale(0.18 -0.18)">
       <use xlink:href="#DejaVuSans-8722"/>
       <use x="83.789062" xlink:href="#DejaVuSans-52"/>
      </g>
     </g>
    </g>
    <g id="ytick_8">
     <g id="line2d_23">
      <g>
       <use style="fill:#ffffff;stroke:#ffffff;stroke-width:0.8;" x="65.63" xlink:href="#med4efc89dc" y="327.978913"/>
      </g>
     </g>
     <g id="text_24">
      <!-- −2 -->
      <g style="fill:#ffffff;" transform="translate(32.094063 334.817507)scale(0.18 -0.18)">
       <use xlink:href="#DejaVuSans-8722"/>
       <use x="83.789062" xlink:href="#DejaVuSans-50"/>
      </g>
     </g>
    </g>
    <g id="ytick_9">
     <g id="line2d_24">
      <g>
       <use style="fill:#ffffff;stroke:#ffffff;stroke-width:0.8;" x="65.63" xlink:href="#med4efc89dc" y="298.515365"/>
      </g>
     </g>
     <g id="text_25">
      <!-- 0 -->
      <g style="fill:#ffffff;" transform="translate(47.1775 305.353959)scale(0.18 -0.18)">
       <use xlink:href="#DejaVuSans-48"/>
      </g>
     </g>
    </g>
    <g id="ytick_10">
     <g id="line2d_25">
      <g>
       <use style="fill:#ffffff;stroke:#ffffff;stroke-width:0.8;" x="65.63" xlink:href="#med4efc89dc" y="269.051817"/>
      </g>
     </g>
     <g id="text_26">
      <!-- 2 -->
      <g style="fill:#ffffff;" transform="translate(47.1775 275.89041)scale(0.18 -0.18)">
       <use xlink:href="#DejaVuSans-50"/>
      </g>
     </g>
    </g>
    <g id="ytick_11">
     <g id="line2d_26">
      <g>
       <use style="fill:#ffffff;stroke:#ffffff;stroke-width:0.8;" x="65.63" xlink:href="#med4efc89dc" y="239.588268"/>
      </g>
     </g>
     <g id="text_27">
      <!-- 4 -->
      <g style="fill:#ffffff;" transform="translate(47.1775 246.426862)scale(0.18 -0.18)">
       <use xlink:href="#DejaVuSans-52"/>
      </g>
     </g>
    </g>
    <g id="text_28">
     <!-- Amplitude (y) -->
     <g style="fill:#ffffff;" transform="translate(24.350625 359.850781)rotate(-90)scale(0.18 -0.18)">
      <use xlink:href="#DejaVuSans-65"/>
      <use x="68.408203" xlink:href="#DejaVuSans-109"/>
      <use x="165.820312" xlink:href="#DejaVuSans-112"/>
      <use x="229.296875" xlink:href="#DejaVuSans-108"/>
      <use x="257.080078" xlink:href="#DejaVuSans-105"/>
      <use x="284.863281" xlink:href="#DejaVuSans-116"/>
      <use x="324.072266" xlink:href="#DejaVuSans-117"/>
      <use x="387.451172" xlink:href="#DejaVuSans-100"/>
      <use x="450.927734" xlink:href="#DejaVuSans-101"/>
      <use x="512.451172" xlink:href="#DejaVuSans-32"/>
      <use x="544.238281" xlink:href="#DejaVuSans-40"/>
      <use x="583.251953" xlink:href="#DejaVuSans-121"/>
      <use x="642.431641" xlink:href="#DejaVuSans-41"/>
     </g>
    </g>
   </g>
   <g id="line2d_27">
    <path clip-path="url(#pc9419627f6)" d="M 94.883182 297.405459 
L 95.17586 292.258472 
L 96.346573 255.739456 
L 96.931929 242.44046 
L 97.224607 238.035423 
L 97.809963 233.640043 
L 98.102642 232.741705 
L 98.39532 233.611866 
L 98.980676 239.087816 
L 99.566032 247.664904 
L 101.907458 292.402356 
L 102.492814 299.836179 
L 103.07817 304.166033 
L 103.370848 305.562919 
L 103.663527 306.168825 
L 103.956205 306.166399 
L 104.248883 305.979627 
L 104.541561 305.649624 
L 105.419595 303.965731 
L 105.712274 303.985524 
L 106.004952 304.240123 
L 106.29763 304.905246 
L 106.590308 306.290644 
L 107.175664 310.873096 
L 107.761021 317.636382 
L 108.931733 335.744993 
L 109.809768 348.700734 
L 110.395124 354.664508 
L 110.687802 356.227356 
L 110.98048 356.698183 
L 111.273159 356.147707 
L 111.565837 354.435678 
L 111.858515 351.378647 
L 112.443871 341.69188 
L 113.029228 327.756592 
L 114.19994 291.529397 
L 115.370653 255.272094 
L 115.956009 241.407309 
L 116.541365 232.235853 
L 116.834044 229.58151 
L 117.126722 228.410909 
L 117.4194 228.64575 
L 117.712078 230.138826 
L 118.004756 232.887387 
L 118.590113 241.90635 
L 119.468147 261.138172 
L 120.931538 296.058435 
L 121.516894 306.756896 
L 122.10225 314.431163 
L 122.687607 318.551166 
L 122.980285 319.478832 
L 123.272963 319.702824 
L 123.565641 319.253788 
L 124.150998 317.133909 
L 125.32171 311.739986 
L 125.614388 310.982844 
L 125.907066 310.603459 
L 126.199745 310.74403 
L 126.492423 311.510135 
L 127.077779 314.672963 
L 127.663135 319.855019 
L 129.711883 340.803936 
L 130.004561 342.19583 
L 130.297239 342.735933 
L 130.589917 342.273612 
L 130.882595 340.80148 
L 131.175273 338.321616 
L 131.76063 330.088013 
L 132.345986 317.959916 
L 133.22402 294.429701 
L 134.687411 253.612595 
L 135.272768 241.494735 
L 135.858124 233.904306 
L 136.150802 232.070872 
L 136.44348 231.563605 
L 136.736158 232.451782 
L 137.028836 234.731974 
L 137.614193 242.929546 
L 138.199549 255.253378 
L 139.66294 294.205754 
L 140.540974 315.012073 
L 141.126331 325.002916 
L 141.711687 331.10403 
L 142.004365 332.627539 
L 142.297043 333.135326 
L 142.589721 332.757925 
L 142.8824 331.611851 
L 143.467756 327.33078 
L 145.516503 308.449815 
L 145.809181 307.056126 
L 146.101859 306.283942 
L 146.394537 306.163975 
L 146.687216 306.628352 
L 146.979894 307.625251 
L 147.56525 311.085371 
L 149.028641 322.024863 
L 149.321319 323.417451 
L 149.613997 324.245812 
L 149.906675 324.399914 
L 150.199354 323.734064 
L 150.492032 322.17935 
L 151.077388 316.463318 
L 151.662744 307.280557 
L 152.540779 288.713162 
L 154.00417 255.53897 
L 154.589526 246.006944 
L 155.174882 240.550192 
L 155.46756 239.65572 
L 155.760239 240.075856 
L 156.052917 241.774454 
L 156.345595 244.729624 
L 156.930951 254.261115 
L 157.808986 275.40904 
L 159.857733 329.936809 
L 160.443089 339.794486 
L 161.028445 345.128645 
L 161.321124 346.050828 
L 161.613802 345.842032 
L 161.90648 344.522911 
L 162.491836 339.040148 
L 163.077192 330.741792 
L 164.833261 302.403443 
L 165.418618 296.021705 
L 166.003974 292.422708 
L 166.296652 291.743284 
L 166.58933 291.724761 
L 166.882009 292.313486 
L 167.467365 295.014981 
L 168.930756 303.91549 
L 169.223434 304.908539 
L 169.516112 305.37717 
L 169.80879 305.216235 
L 170.101468 304.328307 
L 170.394146 302.699403 
L 170.979503 297.34073 
L 171.564859 289.418525 
L 173.906284 254.130231 
L 174.198962 252.07312 
L 174.491641 251.036303 
L 174.784319 251.076431 
L 175.076997 252.269925 
L 175.369675 254.668678 
L 175.955031 262.887044 
L 176.540388 275.149303 
L 177.7111 307.091576 
L 178.881813 338.12307 
L 179.467169 349.234797 
L 180.052526 355.799384 
L 180.345204 357.189904 
L 180.637882 357.250933 
L 180.93056 356.028206 
L 181.223238 353.606791 
L 181.808595 345.477495 
L 182.686629 327.383022 
L 184.442698 288.441454 
L 185.028054 279.714281 
L 185.613411 274.402408 
L 185.906089 273.108331 
L 186.198767 272.658671 
L 186.491445 272.960471 
L 186.784123 273.941305 
L 187.36948 277.477763 
L 188.83287 288.341289 
L 189.418227 290.634977 
L 189.710905 290.95217 
L 190.003583 290.633783 
L 190.296261 289.702986 
L 190.881617 286.170129 
L 191.759652 277.823724 
L 192.637686 269.041125 
L 193.223043 265.071343 
L 193.515721 264.068102 
L 193.808399 263.905178 
L 194.101077 264.689466 
L 194.393755 266.456753 
L 194.979112 273.01513 
L 195.564468 283.491399 
L 196.442502 304.734214 
L 198.198571 349.803886 
L 198.783928 359.698239 
L 199.076606 362.915526 
L 199.369284 364.818968 
L 199.661962 365.374561 
L 199.95464 364.567963 
L 200.247318 362.386428 
L 200.832675 354.150585 
L 201.418031 341.590318 
L 202.588744 308.936137 
L 203.759456 277.351208 
L 204.344813 265.662485 
L 204.930169 257.998358 
L 205.222847 255.748557 
L 205.515525 254.566404 
L 205.808203 254.404672 
L 206.100882 255.153222 
L 206.39356 256.698498 
L 206.978916 261.724076 
L 209.027663 282.985617 
L 209.613019 285.899676 
L 209.905698 286.480068 
L 210.198376 286.520826 
L 210.491054 286.074007 
L 211.07641 283.972153 
L 212.247123 278.54978 
L 212.539801 277.763762 
L 212.832479 277.498879 
L 213.125157 277.848292 
L 213.417836 278.911935 
L 213.710514 280.789984 
L 214.29587 287.106816 
L 214.881226 296.720697 
L 215.759261 316.033437 
L 217.51533 356.474791 
L 218.100686 364.843902 
L 218.393364 367.320872 
L 218.686042 368.515192 
L 218.97872 368.332945 
L 219.271399 366.747281 
L 219.564077 363.790056 
L 220.149433 353.942169 
L 220.734789 339.557204 
L 221.905502 302.835737 
L 223.076215 267.035063 
L 223.661571 253.553929 
L 224.246927 244.480239 
L 224.539605 241.779817 
L 224.832284 240.29117 
L 225.124962 239.987146 
L 225.41764 240.821115 
L 225.710318 242.684207 
L 226.295674 248.910764 
L 227.173709 262.213747 
L 228.344422 280.187822 
L 228.929778 286.803903 
L 229.515134 291.079419 
L 229.807812 292.308645 
L 230.10049 293.009666 
L 230.393169 293.245255 
L 230.685847 293.091849 
L 231.271203 292.150388 
L 231.856559 291.260132 
L 232.149238 291.162843 
L 232.441916 291.491589 
L 232.734594 292.343419 
L 233.027272 293.787021 
L 233.612628 298.730916 
L 234.197985 306.48771 
L 235.076019 322.48494 
L 236.832088 356.655264 
L 237.417444 363.511678 
L 237.710123 365.326272 
L 238.002801 365.919753 
L 238.295479 365.232974 
L 238.588157 363.210226 
L 238.880835 359.830959 
L 239.466192 349.241013 
L 240.051548 334.187638 
L 241.22226 296.051579 
L 242.392973 258.805162 
L 242.978329 244.763992 
L 243.563686 235.417635 
L 243.856364 232.702423 
L 244.149042 231.345826 
L 244.44172 231.308743 
L 244.734398 232.518159 
L 245.027076 234.89799 
L 245.612433 242.675618 
L 246.490467 259.299588 
L 247.953858 288.178704 
L 248.539214 296.570913 
L 249.124571 302.227109 
L 249.709927 305.117059 
L 250.002605 305.691027 
L 250.295283 305.794858 
L 250.587961 305.535545 
L 251.758674 303.73815 
L 252.051352 303.757172 
L 252.34403 304.215205 
L 252.636709 305.179736 
L 252.929387 306.701985 
L 253.514743 311.584897 
L 254.100099 318.73899 
L 255.270812 337.131382 
L 256.148846 349.899508 
L 256.734203 355.356508 
L 257.026881 356.727787 
L 257.319559 357.017395 
L 257.612237 356.132912 
L 257.904915 354.040737 
L 258.490272 346.20034 
L 259.075628 333.745461 
L 259.953663 308.514588 
L 261.709731 253.592704 
L 262.295088 240.241537 
L 262.880444 231.675251 
L 263.173122 229.409332 
L 263.4658 228.52602 
L 263.758479 229.032476 
L 264.051157 230.881691 
L 264.636513 238.167176 
L 265.221869 249.355325 
L 267.855973 307.872821 
L 268.441329 315.007579 
L 269.026685 318.769481 
L 269.319364 319.454863 
L 269.612042 319.469334 
L 269.90472 318.923339 
L 270.490076 316.616254 
L 271.660789 311.305998 
L 271.953467 310.616724 
L 272.246145 310.402698 
L 272.538823 310.709545 
L 272.831501 311.574718 
L 273.416858 315.030021 
L 274.002214 320.413176 
L 275.758283 339.193549 
L 276.050961 341.110114 
L 276.343639 342.270062 
L 276.636317 342.571204 
L 276.928996 341.913946 
L 277.221674 340.211963 
L 277.80703 333.59467 
L 278.392386 322.881385 
L 279.270421 300.733859 
L 281.02649 251.951513 
L 281.611846 240.382527 
L 282.197202 233.412816 
L 282.489881 231.91565 
L 282.782559 231.802096 
L 283.075237 233.050215 
L 283.367915 235.623122 
L 283.953271 244.433636 
L 284.538628 257.154612 
L 287.172731 321.83305 
L 287.758087 329.420972 
L 288.050766 331.679814 
L 288.343444 332.940957 
L 288.636122 333.243376 
L 288.9288 332.649358 
L 289.221478 331.273188 
L 289.806835 326.743843 
L 291.562903 309.812023 
L 292.14826 306.799976 
L 292.440938 306.171778 
L 292.733616 306.16016 
L 293.026294 306.76092 
L 293.318972 307.914601 
L 293.904329 311.512883 
L 295.36772 322.294635 
L 295.660398 323.580909 
L 295.953076 324.236379 
L 296.245754 324.162439 
L 296.538432 323.287276 
L 296.83111 321.54226 
L 297.416467 315.343321 
L 298.001823 305.807632 
L 298.879857 286.863211 
L 300.343248 254.080752 
L 300.928605 244.981699 
L 301.221283 241.981887 
L 301.513961 240.162691 
L 301.806639 239.589152 
L 302.099317 240.315099 
L 302.391995 242.355113 
L 302.977352 250.148415 
L 303.562708 262.257278 
L 304.733421 294.180605 
L 305.904133 325.327022 
L 306.48949 336.676802 
L 307.074846 343.782977 
L 307.367524 345.592339 
L 307.660202 346.215698 
L 307.95288 345.705958 
L 308.245558 344.144876 
L 308.830915 338.256792 
L 309.708949 324.811915 
L 310.879662 305.546967 
L 311.465018 298.198738 
L 312.050375 293.523975 
L 312.343053 292.26783 
L 312.635731 291.735102 
L 312.928409 291.88644 
L 313.221087 292.631281 
L 313.806443 295.474681 
L 315.269834 304.212016 
L 315.562512 305.089222 
L 315.855191 305.380279 
L 316.147869 305.019369 
L 316.440547 303.958242 
L 316.733225 302.157356 
L 317.318581 296.401273 
L 318.196616 283.501858 
L 319.660007 259.727227 
L 320.245363 253.435391 
L 320.538041 251.602299 
L 320.830719 250.815604 
L 321.123397 251.159605 
L 321.416076 252.665142 
L 321.708754 255.340306 
L 322.29411 264.113674 
L 322.879466 276.820038 
L 324.050179 309.121422 
L 325.220892 339.674593 
L 325.806248 350.289578 
L 326.391604 356.244507 
L 326.684282 357.303408 
L 326.976961 357.068399 
L 327.269639 355.554387 
L 327.562317 352.82863 
L 328.147673 344.230235 
L 329.025708 325.719001 
L 330.489098 292.609854 
L 331.074455 282.684689 
L 331.659811 276.076924 
L 331.952489 274.107496 
L 332.245167 273.01094 
L 332.537846 272.75396 
L 332.830524 273.256208 
L 333.123202 274.397161 
L 333.708558 278.101188 
L 335.171949 288.824277 
L 335.464627 290.099187 
L 335.757305 290.833221 
L 336.049983 290.985905 
L 336.342662 290.527429 
L 336.63534 289.446068 
L 337.220696 285.611468 
L 338.098731 277.062242 
L 338.976765 268.431279 
L 339.562121 264.717626 
L 339.854799 263.926643 
L 340.147478 263.985371 
L 340.440156 264.984167 
L 340.732834 266.993918 
L 341.31819 274.070826 
L 341.903547 284.956394 
L 342.781581 306.605119 
L 344.244972 344.998925 
L 344.830328 356.399626 
L 345.415684 363.415813 
L 345.708363 365.007407 
L 346.001041 365.222341 
L 346.293719 364.053597 
L 346.586397 361.540352 
L 347.171753 352.732108 
L 347.75711 339.701162 
L 348.927822 306.746222 
L 350.098535 275.679137 
L 350.683891 264.488777 
L 351.269248 257.350188 
L 351.561926 255.394743 
L 351.854604 254.47439 
L 352.147282 254.53837 
L 352.43996 255.510014 
L 353.025317 259.653453 
L 353.903351 269.161074 
L 354.781385 278.822573 
L 355.366742 283.565223 
L 355.952098 286.183932 
L 356.244776 286.642522 
L 356.537454 286.546951 
L 356.830133 285.965854 
L 357.415489 283.731679 
L 358.586202 278.396999 
L 358.87888 277.715574 
L 359.171558 277.573737 
L 359.464236 278.097441 
L 359.756914 279.368273 
L 360.049592 281.442379 
L 360.634949 288.162723 
L 361.220305 298.161019 
L 362.098339 317.825628 
L 363.56173 352.296371 
L 364.147086 362.162469 
L 364.732443 367.68797 
L 365.025121 368.525091 
L 365.317799 368.000273 
L 365.610477 366.078383 
L 365.903155 362.767459 
L 366.488512 352.286175 
L 367.073868 337.422474 
L 368.244581 300.341455 
L 369.415293 265.060385 
L 370.00065 252.090034 
L 370.586006 243.624934 
L 370.878684 241.22261 
L 371.171362 240.052883 
L 371.46404 240.057241 
L 371.756719 241.151559 
L 372.049397 243.242886 
L 372.634753 249.870931 
L 373.805466 268.191336 
L 374.6835 281.153851 
L 375.268856 287.505054 
L 375.854213 291.48907 
L 376.146891 292.594861 
L 376.439569 293.162482 
L 376.732247 293.287 
L 377.024925 293.075208 
L 378.195638 291.284912 
L 378.488316 291.29272 
L 378.780994 291.729657 
L 379.073673 292.715485 
L 379.366351 294.336214 
L 379.951707 299.629466 
L 380.537063 307.723147 
L 381.415098 324.037627 
L 382.878489 353.241389 
L 383.463845 361.437334 
L 383.756523 364.097658 
L 384.049201 365.625213 
L 384.341879 365.903569 
L 384.634558 364.863603 
L 384.927236 362.489172 
L 385.512592 353.786885 
L 386.097948 340.266218 
L 386.975983 313.443679 
L 388.732052 256.767141 
L 389.317408 243.246273 
L 389.902764 234.54374 
L 390.195442 232.169152 
L 390.488121 231.129025 
L 390.780799 231.407216 
L 391.073477 232.934587 
L 391.658833 239.259362 
L 392.24419 249.013234 
L 394.585615 293.692426 
L 395.170971 300.396341 
L 395.756327 304.313409 
L 396.049006 305.299064 
L 396.341684 305.735852 
L 396.634362 305.743531 
L 396.92704 305.439943 
L 397.805075 303.95284 
L 398.097753 303.740988 
L 398.390431 303.865458 
L 398.683109 304.43306 
L 398.975787 305.538856 
L 399.561144 309.522907 
L 400.1465 315.874239 
L 401.024534 328.837049 
L 402.195247 347.158063 
L 402.780603 353.786488 
L 403.073281 355.878009 
L 403.36596 356.97254 
L 403.658638 356.977121 
L 403.951316 355.80761 
L 404.243994 353.405502 
L 404.82935 344.940865 
L 405.414707 331.970949 
L 406.292741 306.229916 
L 408.04881 251.701492 
L 408.634166 238.897003 
L 409.219523 230.955034 
L 409.512201 229.033213 
L 409.804879 228.508433 
L 410.097557 229.345572 
L 410.390235 231.493848 
L 410.975592 239.341159 
L 411.560948 250.892191 
L 413.902373 304.248071 
L 414.48773 312.663266 
L 415.073086 317.663234 
L 415.365764 318.933851 
L 415.658442 319.457325 
L 415.95112 319.315254 
L 416.243798 318.633608 
L 416.829155 316.212418 
L 417.707189 312.034217 
L 417.999867 311.063453 
L 418.292546 310.482157 
L 418.585224 310.386409 
L 418.877902 310.844835 
L 419.17058 311.874471 
L 419.755936 315.59085 
L 420.341293 321.205729 
L 422.097362 339.763241 
L 422.39004 341.517902 
L 422.682718 342.489582 
L 422.975396 342.553619 
L 423.268074 341.633352 
L 423.560752 339.678008 
L 424.146109 332.539647 
L 424.731465 321.349599 
L 425.6095 298.728912 
L 427.365568 250.369099 
L 427.950925 239.292796 
L 428.536281 232.977894 
L 428.828959 231.809365 
L 429.121637 232.024521 
L 429.414316 233.616326 
L 429.706994 236.517772 
L 430.29235 245.853516 
L 431.170385 266.497127 
L 432.926453 312.077218 
L 433.51181 322.962785 
L 434.097166 330.039642 
L 434.389844 332.049325 
L 434.682522 333.048042 
L 434.975201 333.106685 
L 435.267879 332.315593 
L 435.560557 330.771023 
L 436.145913 325.972247 
L 437.901982 309.251199 
L 438.487338 306.50373 
L 438.780017 306.045024 
L 439.072695 306.197465 
L 439.365373 306.931264 
L 439.950729 309.940396 
L 441.999476 323.772393 
L 442.292154 324.274487 
L 442.584833 324.017357 
L 442.877511 322.920676 
L 443.170189 320.951148 
L 443.755545 314.343209 
L 444.340902 304.417959 
L 445.218936 285.171925 
L 446.682327 252.797947 
L 447.267683 244.199811 
L 447.560361 241.47421 
L 447.853039 239.960379 
L 448.145718 239.725552 
L 448.438396 240.784638 
L 448.731074 243.132151 
L 449.31643 251.525307 
L 449.901787 264.084729 
L 451.072499 296.34983 
L 452.243212 326.992872 
L 452.828568 337.856392 
L 453.413924 344.36773 
L 453.706603 345.873438 
L 453.999281 346.217583 
L 454.291959 345.43101 
L 454.584637 343.598034 
L 455.169993 337.306382 
L 456.048028 323.531592 
L 457.218741 304.454156 
L 457.804097 297.413922 
L 458.389453 293.074999 
L 458.682131 292.013727 
L 458.974809 291.652651 
L 459.267488 291.943539 
L 459.560166 292.82057 
L 460.145522 295.856659 
L 461.316235 303.168782 
L 461.608913 304.399737 
L 461.901591 305.144344 
L 462.194269 305.295434 
L 462.486947 304.762453 
L 462.779625 303.506072 
L 463.364982 298.830846 
L 463.950338 291.482174 
L 465.121051 272.216476 
L 465.999085 258.771182 
L 466.584442 252.882924 
L 466.87712 251.32177 
L 467.169798 250.811975 
L 467.462476 251.435311 
L 467.755154 253.244674 
L 468.34051 260.350879 
L 468.925867 271.700794 
L 469.803901 294.451598 
L 471.267292 334.771722 
L 471.852648 346.881004 
L 472.438005 354.674789 
L 472.730683 356.715039 
L 473.023361 357.441226 
L 473.316039 356.867944 
L 473.608717 355.049007 
L 474.194074 347.966335 
L 474.77943 337.179223 
L 477.413533 281.690219 
L 477.99889 275.491482 
L 478.291568 273.746545 
L 478.584246 272.871427 
L 478.876924 272.797513 
L 479.169602 273.453003 
L 479.754959 276.513024 
L 481.511028 289.118691 
L 481.803706 290.272218 
L 482.096384 290.872793 
L 482.389062 290.860978 
L 482.68174 290.232585 
L 482.974418 289.00967 
L 483.559775 284.926331 
L 484.437809 276.225551 
L 485.315844 267.771274 
L 485.9012 264.380478 
L 486.193878 263.786221 
L 486.486556 264.088404 
L 486.779234 265.349304 
L 487.071913 267.607918 
L 487.657269 275.195443 
L 488.242625 286.524986 
L 489.12066 308.585663 
L 490.58405 346.640034 
L 491.169407 357.56949 
L 491.754763 363.977356 
L 492.047441 365.225574 
L 492.340119 365.11213 
L 492.632798 363.615081 
L 492.925476 360.762981 
L 493.510832 351.376444 
L 494.096188 337.909254 
L 496.730292 268.303958 
L 497.315648 259.598498 
L 497.608326 256.819895 
L 497.901004 255.118176 
L 498.193683 254.461163 
L 498.486361 254.762529 
L 498.779039 255.922698 
L 499.364395 260.37545 
L 500.535108 273.414595 
L 501.413142 282.004079 
L 501.998499 285.459437 
L 502.291177 286.324609 
L 502.583855 286.631445 
L 502.876533 286.417374 
L 503.169211 285.728023 
L 503.754568 283.324426 
L 504.632602 279.107866 
L 504.92528 278.10987 
L 505.217958 277.563675 
L 505.510636 277.577919 
L 505.803315 278.263073 
L 506.095993 279.725592 
L 506.681349 285.169596 
L 507.266705 293.974558 
L 508.14474 312.459925 
L 509.900809 353.676268 
L 510.486165 363.060895 
L 510.778843 366.146471 
L 511.071521 367.995492 
L 511.3642 368.501763 
L 511.656878 367.618298 
L 511.949556 365.352254 
L 512.534912 356.785745 
L 513.120269 343.43447 
L 513.998303 317.201088 
L 515.754372 263.282283 
L 516.339728 250.827757 
L 516.925085 242.987798 
L 517.217763 240.89585 
L 517.510441 240.011621 
L 517.803119 240.301503 
L 518.095797 241.673051 
L 518.681154 247.130613 
L 519.559188 259.899617 
L 521.022579 282.122774 
L 521.607935 288.199779 
L 522.193291 291.853665 
L 522.48597 292.818411 
L 522.778648 293.276625 
L 523.071326 293.295804 
L 523.364004 292.993107 
L 524.534717 291.239617 
L 524.827395 291.343491 
L 525.120073 291.917462 
L 525.412751 293.042895 
L 525.705429 294.807352 
L 526.290786 300.4634 
L 526.876142 308.85536 
L 527.754176 325.487438 
L 529.217567 354.356684 
L 529.802924 362.133733 
L 530.095602 364.513251 
L 530.38828 365.722368 
L 530.680958 365.684983 
L 530.973636 364.328064 
L 531.266314 361.612531 
L 531.851671 352.265576 
L 532.437027 338.2238 
L 533.315061 310.945 
L 535.07113 254.813671 
L 535.656487 241.882038 
L 536.241843 233.816499 
L 536.534521 231.793744 
L 536.827199 231.106967 
L 537.119877 231.700477 
L 537.412556 233.515144 
L 537.997912 240.371759 
L 538.875946 256.268584 
L 540.632015 290.541289 
L 541.217372 298.298717 
L 541.802728 303.243242 
L 542.095406 304.687187 
L 542.388084 305.539357 
L 542.680762 305.868425 
L 542.973441 305.771459 
L 543.558797 304.881868 
L 544.144153 303.941 
L 544.436831 303.787893 
L 544.72951 304.023761 
L 545.022188 304.725027 
L 545.314866 305.954485 
L 545.900222 310.230436 
L 546.485578 316.846826 
L 547.363613 330.045561 
L 548.534326 348.124218 
L 549.119682 354.35063 
L 549.41236 356.21361 
L 549.705038 357.047423 
L 549.997716 356.743226 
L 550.290395 355.2544 
L 550.583073 352.553767 
L 551.168429 343.479564 
L 551.753785 329.997877 
L 552.63182 303.771997 
L 554.387889 249.794496 
L 554.973245 237.527158 
L 555.558601 230.2812 
L 555.85128 228.695221 
L 556.143958 228.512692 
L 556.436636 229.706735 
L 556.729314 232.18343 
L 557.31467 240.552096 
L 558.192705 259.344161 
L 559.948774 300.30544 
L 560.53413 309.91946 
L 561.119486 316.236578 
L 561.412164 318.114789 
L 561.704843 319.178635 
L 561.997521 319.528291 
L 562.290199 319.263662 
L 562.582877 318.477904 
L 563.168233 315.917604 
L 564.046268 311.838608 
L 564.338946 310.955713 
L 564.631624 310.509272 
L 564.924302 310.550398 
L 565.216981 311.131179 
L 565.509659 312.300033 
L 566.095015 316.302165 
L 566.973049 325.400117 
L 568.143762 338.09761 
L 568.729118 341.881657 
L 569.021797 342.630438 
L 569.314475 342.468891 
L 569.607153 341.286882 
L 569.899831 339.037213 
L 570.485187 331.373264 
L 571.070544 319.684567 
L 571.948578 296.624808 
L 573.704647 248.687273 
L 574.290003 238.159188 
L 574.87536 232.465114 
L 575.168038 231.658134 
L 575.460716 232.213319 
L 575.753394 234.116362 
L 576.338751 241.756179 
L 576.924107 253.596389 
L 578.094819 284.344104 
L 579.265532 313.535667 
L 579.850888 324.011329 
L 580.436245 330.569186 
L 580.728923 332.336278 
L 581.021601 333.120377 
L 581.314279 332.957289 
L 581.606957 331.953942 
L 582.192314 327.984043 
L 584.241061 308.821064 
L 584.826417 306.392558 
L 585.119095 306.074478 
L 585.411773 306.392011 
L 585.704452 307.292741 
L 586.289808 310.501213 
L 588.045877 323.089485 
L 588.338555 324.070778 
L 588.631233 324.373063 
L 588.923911 323.923887 
L 589.216589 322.630261 
L 589.509268 320.42467 
L 590.094624 313.363563 
L 590.67998 303.072231 
L 591.850693 276.545102 
L 593.021405 251.559295 
L 593.606762 243.430177 
L 593.89944 241.008764 
L 594.192118 239.785998 
L 594.484796 239.846978 
L 594.777474 241.237406 
L 595.070153 243.914733 
L 595.655509 252.834739 
L 596.240865 265.854351 
L 597.704256 306.648675 
L 598.58229 328.476741 
L 599.167647 338.795604 
L 599.753003 344.760237 
L 600.045681 345.953184 
L 600.338359 345.992798 
L 600.631038 344.955468 
L 600.923716 342.897823 
L 601.509072 336.188082 
L 602.387107 322.177691 
L 603.557819 303.370001 
L 604.143175 296.658632 
L 604.728532 292.695386 
L 605.02121 291.807409 
L 605.313888 291.646459 
L 605.606566 292.115092 
L 605.899244 293.108199 
L 606.484601 296.331619 
L 607.655313 303.571065 
L 607.947991 304.711938 
L 608.24067 305.301064 
L 608.533348 305.283009 
L 608.826026 304.60407 
L 609.118704 303.185732 
L 609.70406 298.129412 
L 610.289417 290.540494 
L 612.630842 254.834496 
L 612.92352 252.512025 
L 613.216198 251.193469 
L 613.508876 250.985192 
L 613.801555 251.907834 
L 614.094233 253.981313 
L 614.679589 261.657716 
L 615.264945 273.45107 
L 616.14298 296.610666 
L 617.606371 336.484782 
L 618.191727 348.112042 
L 618.777083 355.263299 
L 619.069761 356.961537 
L 619.36244 357.38124 
L 619.655118 356.486261 
L 619.947796 354.323752 
L 620.533152 346.720256 
L 621.118509 335.520548 
L 623.459934 284.743688 
L 624.04529 277.271341 
L 624.630646 273.290942 
L 624.923325 272.624506 
L 625.216003 272.778022 
L 625.508681 273.60581 
L 626.094037 276.874965 
L 627.850106 289.3955 
L 628.142784 290.39236 
L 628.435463 290.856789 
L 628.728141 290.736903 
L 629.020819 289.964838 
L 629.606175 286.663821 
L 630.191531 281.555583 
L 631.654922 267.264184 
L 632.240279 264.268723 
L 632.532957 263.892093 
L 632.825635 264.400727 
L 633.118313 265.925132 
L 633.410991 268.485875 
L 633.996347 276.541131 
L 634.581704 288.34678 
L 635.752416 318.812668 
L 636.923129 348.403301 
L 637.508485 358.771745 
L 638.093842 364.590496 
L 638.38652 365.479005 
L 638.679198 364.972049 
L 638.971876 363.138867 
L 639.264554 359.992013 
L 639.849911 349.957568 
L 640.727945 328.113752 
L 642.484014 279.079454 
L 643.06937 266.949584 
L 643.654727 258.714095 
L 643.947405 256.233155 
L 644.240083 254.759893 
L 644.532761 254.296472 
L 644.825439 254.835457 
L 645.118117 256.226145 
L 645.703474 260.885253 
L 647.752221 282.346773 
L 648.337577 285.507804 
L 648.630255 286.273042 
L 648.922934 286.41282 
L 649.215612 286.032802 
L 649.50829 285.27512 
L 650.093646 282.769456 
L 650.971681 278.685996 
L 651.264359 277.75993 
L 651.557037 277.311112 
L 651.849715 277.535438 
L 652.142393 278.463472 
L 652.435071 280.103499 
L 653.020428 286.000747 
L 653.605784 295.245965 
L 654.483819 314.247981 
L 656.239887 355.124897 
L 656.825244 364.147301 
L 657.117922 366.897575 
L 657.4106 368.392466 
L 657.703278 368.629091 
L 657.995956 367.460147 
L 658.288635 364.807448 
L 658.873991 355.63931 
L 659.459347 341.77734 
L 660.63006 305.524627 
L 661.800772 269.299777 
L 662.386129 255.364763 
L 662.971485 245.677268 
L 663.264163 242.619734 
L 663.556841 240.906955 
L 663.84952 240.355396 
L 664.142198 240.82499 
L 664.434876 242.386546 
L 665.020232 248.346902 
L 665.898267 261.296339 
L 667.068979 279.394238 
L 667.654336 286.151307 
L 668.239692 290.727599 
L 668.53237 292.109641 
L 668.825048 292.771498 
L 669.117726 293.023032 
L 669.410405 293.039699 
L 669.703083 292.676617 
L 670.288439 291.346793 
L 670.873795 290.824607 
L 671.166473 290.819805 
L 671.459152 291.423803 
L 672.044508 294.742137 
L 672.629864 300.400678 
L 673.507899 314.204007 
L 675.849324 357.917724 
L 676.43468 363.406888 
L 676.727358 364.284122 
L 677.020037 363.394126 
L 677.312715 361.584302 
L 677.605393 359.01843 
L 677.898071 354.623525 
L 678.776106 334.476708 
L 679.361462 314.762336 
L 679.65414 304.891529 
L 679.946818 299.758415 
L 679.946818 299.758415 
" style="fill:none;stroke:#00ff00;stroke-linecap:square;stroke-width:5;"/>
   </g>
   <g id="patch_9">
    <path d="M 65.63 375.64 
L 65.63 221.4 
" style="fill:none;stroke:#ffffff;stroke-linecap:square;stroke-linejoin:miter;stroke-width:0.8;"/>
   </g>
   <g id="patch_10">
    <path d="M 709.2 375.64 
L 709.2 221.4 
" style="fill:none;stroke:#ffffff;stroke-linecap:square;stroke-linejoin:miter;stroke-width:0.8;"/>
   </g>
   <g id="patch_11">
    <path d="M 65.63 375.64 
L 709.2 375.64 
" style="fill:none;stroke:#ffffff;stroke-linecap:square;stroke-linejoin:miter;stroke-width:0.8;"/>
   </g>
   <g id="patch_12">
    <path d="M 65.63 221.4 
L 709.2 221.4 
" style="fill:none;stroke:#ffffff;stroke-linecap:square;stroke-linejoin:miter;stroke-width:0.8;"/>
   </g>
   <g id="legend_2">
    <g id="patch_13">
     <path d="M 609.421875 248.61375 
L 700.8 248.61375 
Q 703.2 248.61375 703.2 246.21375 
L 703.2 229.8 
Q 703.2 227.4 700.8 227.4 
L 609.421875 227.4 
Q 607.021875 227.4 607.021875 229.8 
L 607.021875 246.21375 
Q 607.021875 248.61375 609.421875 248.61375 
z
" style="fill:#121212;opacity:0.8;stroke:#ffffff;stroke-linejoin:miter;"/>
    </g>
    <g id="line2d_28">
     <path d="M 611.821875 237.118125 
L 635.821875 237.118125 
" style="fill:none;stroke:#00ff00;stroke-linecap:square;stroke-width:5;"/>
    </g>
    <g id="line2d_29"/>
    <g id="text_29">
     <!-- High IFT  -->
     <defs>
      <path d="M 9.8125 72.90625 
L 19.671875 72.90625 
L 19.671875 43.015625 
L 55.515625 43.015625 
L 55.515625 72.90625 
L 65.375 72.90625 
L 65.375 0 
L 55.515625 0 
L 55.515625 34.71875 
L 19.671875 34.71875 
L 19.671875 0 
L 9.8125 0 
z
" id="DejaVuSans-72"/>
      <path d="M 45.40625 27.984375 
Q 45.40625 37.75 41.375 43.109375 
Q 37.359375 48.484375 30.078125 48.484375 
Q 22.859375 48.484375 18.828125 43.109375 
Q 14.796875 37.75 14.796875 27.984375 
Q 14.796875 18.265625 18.828125 12.890625 
Q 22.859375 7.515625 30.078125 7.515625 
Q 37.359375 7.515625 41.375 12.890625 
Q 45.40625 18.265625 45.40625 27.984375 
z
M 54.390625 6.78125 
Q 54.390625 -7.171875 48.1875 -13.984375 
Q 42 -20.796875 29.203125 -20.796875 
Q 24.46875 -20.796875 20.265625 -20.09375 
Q 16.0625 -19.390625 12.109375 -17.921875 
L 12.109375 -9.1875 
Q 16.0625 -11.328125 19.921875 -12.34375 
Q 23.78125 -13.375 27.78125 -13.375 
Q 36.625 -13.375 41.015625 -8.765625 
Q 45.40625 -4.15625 45.40625 5.171875 
L 45.40625 9.625 
Q 42.625 4.78125 38.28125 2.390625 
Q 33.9375 0 27.875 0 
Q 17.828125 0 11.671875 7.65625 
Q 5.515625 15.328125 5.515625 27.984375 
Q 5.515625 40.671875 11.671875 48.328125 
Q 17.828125 56 27.875 56 
Q 33.9375 56 38.28125 53.609375 
Q 42.625 51.21875 45.40625 46.390625 
L 45.40625 54.6875 
L 54.390625 54.6875 
z
" id="DejaVuSans-103"/>
      <path d="M 54.890625 33.015625 
L 54.890625 0 
L 45.90625 0 
L 45.90625 32.71875 
Q 45.90625 40.484375 42.875 44.328125 
Q 39.84375 48.1875 33.796875 48.1875 
Q 26.515625 48.1875 22.3125 43.546875 
Q 18.109375 38.921875 18.109375 30.90625 
L 18.109375 0 
L 9.078125 0 
L 9.078125 75.984375 
L 18.109375 75.984375 
L 18.109375 46.1875 
Q 21.34375 51.125 25.703125 53.5625 
Q 30.078125 56 35.796875 56 
Q 45.21875 56 50.046875 50.171875 
Q 54.890625 44.34375 54.890625 33.015625 
z
" id="DejaVuSans-104"/>
     </defs>
     <g style="fill:#ffffff;" transform="translate(645.421875 241.318125)scale(0.12 -0.12)">
      <use xlink:href="#DejaVuSans-72"/>
      <use x="75.195312" xlink:href="#DejaVuSans-105"/>
      <use x="102.978516" xlink:href="#DejaVuSans-103"/>
      <use x="166.455078" xlink:href="#DejaVuSans-104"/>
      <use x="229.833984" xlink:href="#DejaVuSans-32"/>
      <use x="261.621094" xlink:href="#DejaVuSans-73"/>
      <use x="291.113281" xlink:href="#DejaVuSans-70"/>
      <use x="348.617188" xlink:href="#DejaVuSans-84"/>
      <use x="409.701172" xlink:href="#DejaVuSans-32"/>
     </g>
    </g>
   </g>
  </g>
 </g>
 <defs>
  <clipPath id="pd663a9d25a">
   <rect height="154.24" width="643.57" x="65.63" y="10.8"/>
  </clipPath>
  <clipPath id="pc9419627f6">
   <rect height="154.24" width="643.57" x="65.63" y="221.4"/>
  </clipPath>
 </defs>
</svg>
