<?xml version="1.0" encoding="utf-8" standalone="no"?>
<!DOCTYPE svg PUBLIC "-//W3C//DTD SVG 1.1//EN"
  "http://www.w3.org/Graphics/SVG/1.1/DTD/svg11.dtd">
<svg height="432pt" version="1.1" viewBox="0 0 720 432" width="720pt" xmlns="http://www.w3.org/2000/svg" xmlns:xlink="http://www.w3.org/1999/xlink">
 <metadata>
  <rdf:RDF xmlns:cc="http://creativecommons.org/ns#" xmlns:dc="http://purl.org/dc/elements/1.1/" xmlns:rdf="http://www.w3.org/1999/02/22-rdf-syntax-ns#">
   <cc:Work>
    <dc:type rdf:resource="http://purl.org/dc/dcmitype/StillImage"/>
    <dc:date>2025-06-26T21:20:08.769883</dc:date>
    <dc:format>image/svg+xml</dc:format>
    <dc:creator>
     <cc:Agent>
      <dc:title>Matplotlib v3.4.3, https://matplotlib.org/</dc:title>
     </cc:Agent>
    </dc:creator>
   </cc:Work>
  </rdf:RDF>
 </metadata>
 <defs>
  <style type="text/css">*{stroke-linecap:butt;stroke-linejoin:round;}</style>
 </defs>
 <g id="figure_1">
  <g id="patch_1">
   <path d="M 0 432 
L 720 432 
L 720 0 
L 0 0 
z
" style="fill:#121212;"/>
  </g>
  <g id="axes_1">
   <g id="patch_2">
    <path d="M 83.675 160.233472 
L 709.2 160.233472 
L 709.2 10.8 
L 83.675 10.8 
z
" style="fill:#121212;"/>
   </g>
   <g id="matplotlib.axis_1">
    <g id="xtick_1">
     <g id="line2d_1">
      <defs>
       <path d="M 0 0 
L 0 3.5 
" id="m640e43f761" style="stroke:#ffffff;stroke-width:0.8;"/>
      </defs>
      <g>
       <use style="fill:#ffffff;stroke:#ffffff;stroke-width:0.8;" x="112.107955" xlink:href="#m640e43f761" y="160.233472"/>
      </g>
     </g>
     <g id="text_1">
      <!-- 0 -->
      <g style="fill:#ffffff;" transform="translate(106.381705 180.910659)scale(0.18 -0.18)">
       <defs>
        <path d="M 2034 4250 
Q 1547 4250 1301 3770 
Q 1056 3291 1056 2328 
Q 1056 1369 1301 889 
Q 1547 409 2034 409 
Q 2525 409 2770 889 
Q 3016 1369 3016 2328 
Q 3016 3291 2770 3770 
Q 2525 4250 2034 4250 
z
M 2034 4750 
Q 2819 4750 3233 4129 
Q 3647 3509 3647 2328 
Q 3647 1150 3233 529 
Q 2819 -91 2034 -91 
Q 1250 -91 836 529 
Q 422 1150 422 2328 
Q 422 3509 836 4129 
Q 1250 4750 2034 4750 
z
" id="DejaVuSans-30" transform="scale(0.015625)"/>
       </defs>
       <use xlink:href="#DejaVuSans-30"/>
      </g>
     </g>
    </g>
    <g id="xtick_2">
     <g id="line2d_2">
      <g>
       <use style="fill:#ffffff;stroke:#ffffff;stroke-width:0.8;" x="225.239086" xlink:href="#m640e43f761" y="160.233472"/>
      </g>
     </g>
     <g id="text_2">
      <!-- 5 -->
      <g style="fill:#ffffff;" transform="translate(219.512836 180.910659)scale(0.18 -0.18)">
       <defs>
        <path d="M 691 4666 
L 3169 4666 
L 3169 4134 
L 1269 4134 
L 1269 2991 
Q 1406 3038 1543 3061 
Q 1681 3084 1819 3084 
Q 2600 3084 3056 2656 
Q 3513 2228 3513 1497 
Q 3513 744 3044 326 
Q 2575 -91 1722 -91 
Q 1428 -91 1123 -41 
Q 819 9 494 109 
L 494 744 
Q 775 591 1075 516 
Q 1375 441 1709 441 
Q 2250 441 2565 725 
Q 2881 1009 2881 1497 
Q 2881 1984 2565 2268 
Q 2250 2553 1709 2553 
Q 1456 2553 1204 2497 
Q 953 2441 691 2322 
L 691 4666 
z
" id="DejaVuSans-35" transform="scale(0.015625)"/>
       </defs>
       <use xlink:href="#DejaVuSans-35"/>
      </g>
     </g>
    </g>
    <g id="xtick_3">
     <g id="line2d_3">
      <g>
       <use style="fill:#ffffff;stroke:#ffffff;stroke-width:0.8;" x="338.370218" xlink:href="#m640e43f761" y="160.233472"/>
      </g>
     </g>
     <g id="text_3">
      <!-- 10 -->
      <g style="fill:#ffffff;" transform="translate(326.917718 180.910659)scale(0.18 -0.18)">
       <defs>
        <path d="M 794 531 
L 1825 531 
L 1825 4091 
L 703 3866 
L 703 4441 
L 1819 4666 
L 2450 4666 
L 2450 531 
L 3481 531 
L 3481 0 
L 794 0 
L 794 531 
z
" id="DejaVuSans-31" transform="scale(0.015625)"/>
       </defs>
       <use xlink:href="#DejaVuSans-31"/>
       <use x="63.623047" xlink:href="#DejaVuSans-30"/>
      </g>
     </g>
    </g>
    <g id="xtick_4">
     <g id="line2d_4">
      <g>
       <use style="fill:#ffffff;stroke:#ffffff;stroke-width:0.8;" x="451.501349" xlink:href="#m640e43f761" y="160.233472"/>
      </g>
     </g>
     <g id="text_4">
      <!-- 15 -->
      <g style="fill:#ffffff;" transform="translate(440.048849 180.910659)scale(0.18 -0.18)">
       <use xlink:href="#DejaVuSans-31"/>
       <use x="63.623047" xlink:href="#DejaVuSans-35"/>
      </g>
     </g>
    </g>
    <g id="xtick_5">
     <g id="line2d_5">
      <g>
       <use style="fill:#ffffff;stroke:#ffffff;stroke-width:0.8;" x="564.632481" xlink:href="#m640e43f761" y="160.233472"/>
      </g>
     </g>
     <g id="text_5">
      <!-- 20 -->
      <g style="fill:#ffffff;" transform="translate(553.179981 180.910659)scale(0.18 -0.18)">
       <defs>
        <path d="M 1228 531 
L 3431 531 
L 3431 0 
L 469 0 
L 469 531 
Q 828 903 1448 1529 
Q 2069 2156 2228 2338 
Q 2531 2678 2651 2914 
Q 2772 3150 2772 3378 
Q 2772 3750 2511 3984 
Q 2250 4219 1831 4219 
Q 1534 4219 1204 4116 
Q 875 4013 500 3803 
L 500 4441 
Q 881 4594 1212 4672 
Q 1544 4750 1819 4750 
Q 2544 4750 2975 4387 
Q 3406 4025 3406 3419 
Q 3406 3131 3298 2873 
Q 3191 2616 2906 2266 
Q 2828 2175 2409 1742 
Q 1991 1309 1228 531 
z
" id="DejaVuSans-32" transform="scale(0.015625)"/>
       </defs>
       <use xlink:href="#DejaVuSans-32"/>
       <use x="63.623047" xlink:href="#DejaVuSans-30"/>
      </g>
     </g>
    </g>
    <g id="xtick_6">
     <g id="line2d_6">
      <g>
       <use style="fill:#ffffff;stroke:#ffffff;stroke-width:0.8;" x="677.763612" xlink:href="#m640e43f761" y="160.233472"/>
      </g>
     </g>
     <g id="text_6">
      <!-- 25 -->
      <g style="fill:#ffffff;" transform="translate(666.311112 180.910659)scale(0.18 -0.18)">
       <use xlink:href="#DejaVuSans-32"/>
       <use x="63.623047" xlink:href="#DejaVuSans-35"/>
      </g>
     </g>
    </g>
    <g id="text_7">
     <!-- Time (t) -->
     <g style="fill:#ffffff;" transform="translate(361.005625 202.331284)scale(0.18 -0.18)">
      <defs>
       <path d="M -19 4666 
L 3928 4666 
L 3928 4134 
L 2272 4134 
L 2272 0 
L 1638 0 
L 1638 4134 
L -19 4134 
L -19 4666 
z
" id="DejaVuSans-54" transform="scale(0.015625)"/>
       <path d="M 603 3500 
L 1178 3500 
L 1178 0 
L 603 0 
L 603 3500 
z
M 603 4863 
L 1178 4863 
L 1178 4134 
L 603 4134 
L 603 4863 
z
" id="DejaVuSans-69" transform="scale(0.015625)"/>
       <path d="M 3328 2828 
Q 3544 3216 3844 3400 
Q 4144 3584 4550 3584 
Q 5097 3584 5394 3201 
Q 5691 2819 5691 2113 
L 5691 0 
L 5113 0 
L 5113 2094 
Q 5113 2597 4934 2840 
Q 4756 3084 4391 3084 
Q 3944 3084 3684 2787 
Q 3425 2491 3425 1978 
L 3425 0 
L 2847 0 
L 2847 2094 
Q 2847 2600 2669 2842 
Q 2491 3084 2119 3084 
Q 1678 3084 1418 2786 
Q 1159 2488 1159 1978 
L 1159 0 
L 581 0 
L 581 3500 
L 1159 3500 
L 1159 2956 
Q 1356 3278 1631 3431 
Q 1906 3584 2284 3584 
Q 2666 3584 2933 3390 
Q 3200 3197 3328 2828 
z
" id="DejaVuSans-6d" transform="scale(0.015625)"/>
       <path d="M 3597 1894 
L 3597 1613 
L 953 1613 
Q 991 1019 1311 708 
Q 1631 397 2203 397 
Q 2534 397 2845 478 
Q 3156 559 3463 722 
L 3463 178 
Q 3153 47 2828 -22 
Q 2503 -91 2169 -91 
Q 1331 -91 842 396 
Q 353 884 353 1716 
Q 353 2575 817 3079 
Q 1281 3584 2069 3584 
Q 2775 3584 3186 3129 
Q 3597 2675 3597 1894 
z
M 3022 2063 
Q 3016 2534 2758 2815 
Q 2500 3097 2075 3097 
Q 1594 3097 1305 2825 
Q 1016 2553 972 2059 
L 3022 2063 
z
" id="DejaVuSans-65" transform="scale(0.015625)"/>
       <path id="DejaVuSans-20" transform="scale(0.015625)"/>
       <path d="M 1984 4856 
Q 1566 4138 1362 3434 
Q 1159 2731 1159 2009 
Q 1159 1288 1364 580 
Q 1569 -128 1984 -844 
L 1484 -844 
Q 1016 -109 783 600 
Q 550 1309 550 2009 
Q 550 2706 781 3412 
Q 1013 4119 1484 4856 
L 1984 4856 
z
" id="DejaVuSans-28" transform="scale(0.015625)"/>
       <path d="M 1172 4494 
L 1172 3500 
L 2356 3500 
L 2356 3053 
L 1172 3053 
L 1172 1153 
Q 1172 725 1289 603 
Q 1406 481 1766 481 
L 2356 481 
L 2356 0 
L 1766 0 
Q 1100 0 847 248 
Q 594 497 594 1153 
L 594 3053 
L 172 3053 
L 172 3500 
L 594 3500 
L 594 4494 
L 1172 4494 
z
" id="DejaVuSans-74" transform="scale(0.015625)"/>
       <path d="M 513 4856 
L 1013 4856 
Q 1481 4119 1714 3412 
Q 1947 2706 1947 2009 
Q 1947 1309 1714 600 
Q 1481 -109 1013 -844 
L 513 -844 
Q 928 -128 1133 580 
Q 1338 1288 1338 2009 
Q 1338 2731 1133 3434 
Q 928 4138 513 4856 
z
" id="DejaVuSans-29" transform="scale(0.015625)"/>
      </defs>
      <use xlink:href="#DejaVuSans-54"/>
      <use x="57.958984" xlink:href="#DejaVuSans-69"/>
      <use x="85.742188" xlink:href="#DejaVuSans-6d"/>
      <use x="183.154297" xlink:href="#DejaVuSans-65"/>
      <use x="244.677734" xlink:href="#DejaVuSans-20"/>
      <use x="276.464844" xlink:href="#DejaVuSans-28"/>
      <use x="315.478516" xlink:href="#DejaVuSans-74"/>
      <use x="354.6875" xlink:href="#DejaVuSans-29"/>
     </g>
    </g>
   </g>
   <g id="matplotlib.axis_2">
    <g id="ytick_1">
     <g id="line2d_7">
      <defs>
       <path d="M 0 0 
L -3.5 0 
" id="m32e4c9a777" style="stroke:#ffffff;stroke-width:0.8;"/>
      </defs>
      <g>
       <use style="fill:#ffffff;stroke:#ffffff;stroke-width:0.8;" x="83.675" xlink:href="#m32e4c9a777" y="158.612343"/>
      </g>
     </g>
     <g id="text_8">
      <!-- −5.0 -->
      <g style="fill:#ffffff;" transform="translate(32.965937 165.450937)scale(0.18 -0.18)">
       <defs>
        <path d="M 678 2272 
L 4684 2272 
L 4684 1741 
L 678 1741 
L 678 2272 
z
" id="DejaVuSans-2212" transform="scale(0.015625)"/>
        <path d="M 684 794 
L 1344 794 
L 1344 0 
L 684 0 
L 684 794 
z
" id="DejaVuSans-2e" transform="scale(0.015625)"/>
       </defs>
       <use xlink:href="#DejaVuSans-2212"/>
       <use x="83.789062" xlink:href="#DejaVuSans-35"/>
       <use x="147.412109" xlink:href="#DejaVuSans-2e"/>
       <use x="179.199219" xlink:href="#DejaVuSans-30"/>
      </g>
     </g>
    </g>
    <g id="ytick_2">
     <g id="line2d_8">
      <g>
       <use style="fill:#ffffff;stroke:#ffffff;stroke-width:0.8;" x="83.675" xlink:href="#m32e4c9a777" y="132.41815"/>
      </g>
     </g>
     <g id="text_9">
      <!-- −2.5 -->
      <g style="fill:#ffffff;" transform="translate(32.965937 139.256744)scale(0.18 -0.18)">
       <use xlink:href="#DejaVuSans-2212"/>
       <use x="83.789062" xlink:href="#DejaVuSans-32"/>
       <use x="147.412109" xlink:href="#DejaVuSans-2e"/>
       <use x="179.199219" xlink:href="#DejaVuSans-35"/>
      </g>
     </g>
    </g>
    <g id="ytick_3">
     <g id="line2d_9">
      <g>
       <use style="fill:#ffffff;stroke:#ffffff;stroke-width:0.8;" x="83.675" xlink:href="#m32e4c9a777" y="106.223956"/>
      </g>
     </g>
     <g id="text_10">
      <!-- 0.0 -->
      <g style="fill:#ffffff;" transform="translate(48.049375 113.06255)scale(0.18 -0.18)">
       <use xlink:href="#DejaVuSans-30"/>
       <use x="63.623047" xlink:href="#DejaVuSans-2e"/>
       <use x="95.410156" xlink:href="#DejaVuSans-30"/>
      </g>
     </g>
    </g>
    <g id="ytick_4">
     <g id="line2d_10">
      <g>
       <use style="fill:#ffffff;stroke:#ffffff;stroke-width:0.8;" x="83.675" xlink:href="#m32e4c9a777" y="80.029763"/>
      </g>
     </g>
     <g id="text_11">
      <!-- 2.5 -->
      <g style="fill:#ffffff;" transform="translate(48.049375 86.868357)scale(0.18 -0.18)">
       <use xlink:href="#DejaVuSans-32"/>
       <use x="63.623047" xlink:href="#DejaVuSans-2e"/>
       <use x="95.410156" xlink:href="#DejaVuSans-35"/>
      </g>
     </g>
    </g>
    <g id="ytick_5">
     <g id="line2d_11">
      <g>
       <use style="fill:#ffffff;stroke:#ffffff;stroke-width:0.8;" x="83.675" xlink:href="#m32e4c9a777" y="53.835569"/>
      </g>
     </g>
     <g id="text_12">
      <!-- 5.0 -->
      <g style="fill:#ffffff;" transform="translate(48.049375 60.674163)scale(0.18 -0.18)">
       <use xlink:href="#DejaVuSans-35"/>
       <use x="63.623047" xlink:href="#DejaVuSans-2e"/>
       <use x="95.410156" xlink:href="#DejaVuSans-30"/>
      </g>
     </g>
    </g>
    <g id="ytick_6">
     <g id="line2d_12">
      <g>
       <use style="fill:#ffffff;stroke:#ffffff;stroke-width:0.8;" x="83.675" xlink:href="#m32e4c9a777" y="27.641376"/>
      </g>
     </g>
     <g id="text_13">
      <!-- 7.5 -->
      <g style="fill:#ffffff;" transform="translate(48.049375 34.47997)scale(0.18 -0.18)">
       <defs>
        <path d="M 525 4666 
L 3525 4666 
L 3525 4397 
L 1831 0 
L 1172 0 
L 2766 4134 
L 525 4134 
L 525 4666 
z
" id="DejaVuSans-37" transform="scale(0.015625)"/>
       </defs>
       <use xlink:href="#DejaVuSans-37"/>
       <use x="63.623047" xlink:href="#DejaVuSans-2e"/>
       <use x="95.410156" xlink:href="#DejaVuSans-35"/>
      </g>
     </g>
    </g>
    <g id="text_14">
     <!-- Amplitude (y) -->
     <g style="fill:#ffffff;" transform="translate(25.2225 146.847517)rotate(-90)scale(0.18 -0.18)">
      <defs>
       <path d="M 2188 4044 
L 1331 1722 
L 3047 1722 
L 2188 4044 
z
M 1831 4666 
L 2547 4666 
L 4325 0 
L 3669 0 
L 3244 1197 
L 1141 1197 
L 716 0 
L 50 0 
L 1831 4666 
z
" id="DejaVuSans-41" transform="scale(0.015625)"/>
       <path d="M 1159 525 
L 1159 -1331 
L 581 -1331 
L 581 3500 
L 1159 3500 
L 1159 2969 
Q 1341 3281 1617 3432 
Q 1894 3584 2278 3584 
Q 2916 3584 3314 3078 
Q 3713 2572 3713 1747 
Q 3713 922 3314 415 
Q 2916 -91 2278 -91 
Q 1894 -91 1617 61 
Q 1341 213 1159 525 
z
M 3116 1747 
Q 3116 2381 2855 2742 
Q 2594 3103 2138 3103 
Q 1681 3103 1420 2742 
Q 1159 2381 1159 1747 
Q 1159 1113 1420 752 
Q 1681 391 2138 391 
Q 2594 391 2855 752 
Q 3116 1113 3116 1747 
z
" id="DejaVuSans-70" transform="scale(0.015625)"/>
       <path d="M 603 4863 
L 1178 4863 
L 1178 0 
L 603 0 
L 603 4863 
z
" id="DejaVuSans-6c" transform="scale(0.015625)"/>
       <path d="M 544 1381 
L 544 3500 
L 1119 3500 
L 1119 1403 
Q 1119 906 1312 657 
Q 1506 409 1894 409 
Q 2359 409 2629 706 
Q 2900 1003 2900 1516 
L 2900 3500 
L 3475 3500 
L 3475 0 
L 2900 0 
L 2900 538 
Q 2691 219 2414 64 
Q 2138 -91 1772 -91 
Q 1169 -91 856 284 
Q 544 659 544 1381 
z
M 1991 3584 
L 1991 3584 
z
" id="DejaVuSans-75" transform="scale(0.015625)"/>
       <path d="M 2906 2969 
L 2906 4863 
L 3481 4863 
L 3481 0 
L 2906 0 
L 2906 525 
Q 2725 213 2448 61 
Q 2172 -91 1784 -91 
Q 1150 -91 751 415 
Q 353 922 353 1747 
Q 353 2572 751 3078 
Q 1150 3584 1784 3584 
Q 2172 3584 2448 3432 
Q 2725 3281 2906 2969 
z
M 947 1747 
Q 947 1113 1208 752 
Q 1469 391 1925 391 
Q 2381 391 2643 752 
Q 2906 1113 2906 1747 
Q 2906 2381 2643 2742 
Q 2381 3103 1925 3103 
Q 1469 3103 1208 2742 
Q 947 2381 947 1747 
z
" id="DejaVuSans-64" transform="scale(0.015625)"/>
       <path d="M 2059 -325 
Q 1816 -950 1584 -1140 
Q 1353 -1331 966 -1331 
L 506 -1331 
L 506 -850 
L 844 -850 
Q 1081 -850 1212 -737 
Q 1344 -625 1503 -206 
L 1606 56 
L 191 3500 
L 800 3500 
L 1894 763 
L 2988 3500 
L 3597 3500 
L 2059 -325 
z
" id="DejaVuSans-79" transform="scale(0.015625)"/>
      </defs>
      <use xlink:href="#DejaVuSans-41"/>
      <use x="68.408203" xlink:href="#DejaVuSans-6d"/>
      <use x="165.820312" xlink:href="#DejaVuSans-70"/>
      <use x="229.296875" xlink:href="#DejaVuSans-6c"/>
      <use x="257.080078" xlink:href="#DejaVuSans-69"/>
      <use x="284.863281" xlink:href="#DejaVuSans-74"/>
      <use x="324.072266" xlink:href="#DejaVuSans-75"/>
      <use x="387.451172" xlink:href="#DejaVuSans-64"/>
      <use x="450.927734" xlink:href="#DejaVuSans-65"/>
      <use x="512.451172" xlink:href="#DejaVuSans-20"/>
      <use x="544.238281" xlink:href="#DejaVuSans-28"/>
      <use x="583.251953" xlink:href="#DejaVuSans-79"/>
      <use x="642.431641" xlink:href="#DejaVuSans-29"/>
     </g>
    </g>
   </g>
   <g id="line2d_13">
    <path clip-path="url(#p947c5b4c48)" d="M 112.107955 98.483953 
L 124.061749 75.548536 
L 128.615576 66.358476 
L 135.446316 52.395863 
L 137.723229 48.326022 
L 139.430914 45.668116 
L 141.138599 43.410605 
L 142.846284 41.578218 
L 144.553969 40.164442 
L 146.261654 39.135037 
L 147.969339 38.436274 
L 149.677024 38.006305 
L 151.384709 37.787428 
L 153.661622 37.753191 
L 155.938535 37.982194 
L 157.64622 38.346017 
L 159.353905 38.913782 
L 161.06159 39.730273 
L 162.769275 40.83736 
L 164.47696 42.263791 
L 166.184645 44.017766 
L 167.89233 46.083722 
L 170.169243 49.255811 
L 173.015385 53.702573 
L 178.13844 62.277078 
L 184.969179 74.041411 
L 188.953778 81.341788 
L 197.492202 97.246277 
L 200.338344 101.884407 
L 202.615257 105.183993 
L 204.892171 108.123999 
L 207.169084 110.747415 
L 210.015225 113.655284 
L 212.861367 116.18835 
L 215.13828 117.912674 
L 216.845965 118.98806 
L 218.55365 119.839432 
L 220.261335 120.435872 
L 221.96902 120.75565 
L 223.676705 120.790667 
L 225.38439 120.548142 
L 227.092075 120.049206 
L 228.79976 119.324791 
L 231.076673 118.068146 
L 233.353587 116.545611 
L 236.199728 114.333681 
L 239.04587 111.783592 
L 241.322783 109.467189 
L 243.599696 106.876379 
L 246.445838 103.253075 
L 249.861208 98.458868 
L 258.399633 86.199655 
L 261.815003 81.756987 
L 265.799601 76.953739 
L 269.214971 73.142665 
L 272.061112 70.266477 
L 274.338026 68.259352 
L 276.04571 66.978084 
L 277.753395 65.921142 
L 279.46108 65.10775 
L 281.168765 64.545579 
L 282.87645 64.230837 
L 284.584135 64.150625 
L 286.29182 64.287007 
L 287.999505 64.621857 
L 289.70719 65.141401 
L 291.414875 65.839451 
L 293.12256 66.718611 
L 294.830245 67.789227 
L 296.53793 69.06633 
L 298.245615 70.565273 
L 299.9533 72.297046 
L 302.230213 74.971365 
L 304.507126 78.039833 
L 307.353268 82.342956 
L 310.768638 87.99402 
L 315.891693 97.007928 
L 321.583976 107.485368 
L 332.399314 127.704969 
L 335.245456 132.411201 
L 337.522369 135.812838 
L 339.799282 138.86829 
L 342.076196 141.580505 
L 344.353109 143.959825 
L 346.630022 146.007187 
L 348.906935 147.70234 
L 350.61462 148.71707 
L 352.322305 149.485001 
L 354.02999 149.980484 
L 355.737675 150.180992 
L 357.44536 150.070965 
L 359.153045 149.644383 
L 360.86073 148.905515 
L 362.568415 147.867687 
L 364.2761 146.550339 
L 365.983785 144.975057 
L 368.260698 142.50662 
L 370.537611 139.644712 
L 372.814525 136.397715 
L 375.091438 132.755783 
L 377.368351 128.703818 
L 379.645265 124.237978 
L 382.491406 118.108399 
L 385.906776 110.097412 
L 390.460603 98.75213 
L 407.537452 55.653311 
L 410.952822 47.781534 
L 413.798964 41.801836 
L 416.075877 37.471233 
L 418.35279 33.562484 
L 420.629704 30.068339 
L 422.906617 26.973056 
L 425.18353 24.268804 
L 427.460443 21.967455 
L 429.168128 20.525668 
L 430.875813 19.349639 
L 432.583498 18.460731 
L 434.291183 17.8772 
L 435.998868 17.610378 
L 437.706553 17.662073 
L 439.414238 18.023769 
L 441.121923 18.677831 
L 442.829608 19.600439 
L 444.537293 20.765622 
L 446.814206 22.655999 
L 449.09112 24.895565 
L 451.368033 27.467915 
L 453.644946 30.376534 
L 455.921859 33.631683 
L 458.198773 37.233325 
L 461.044914 42.18232 
L 464.460284 48.619052 
L 478.690992 76.076923 
L 483.814047 85.279671 
L 487.229417 90.953315 
L 489.50633 94.384386 
L 491.783243 97.451616 
L 494.060157 100.112378 
L 496.33707 102.358242 
L 498.613983 104.210496 
L 500.890897 105.705449 
L 503.16781 106.875206 
L 505.444723 107.731473 
L 507.152408 108.159598 
L 508.860093 108.388039 
L 510.567778 108.398209 
L 512.275463 108.172826 
L 513.983148 107.700721 
L 515.690833 106.98063 
L 517.398518 106.023084 
L 519.106203 104.849958 
L 521.383116 103.003803 
L 524.229258 100.357268 
L 527.644628 96.856109 
L 531.629226 92.440206 
L 535.044596 88.34005 
L 539.029194 83.169908 
L 546.429162 73.423651 
L 549.275304 70.144945 
L 551.552217 67.836823 
L 553.82913 65.811525 
L 556.106044 64.042894 
L 558.952185 62.148424 
L 561.229098 60.87753 
L 563.506012 59.857419 
L 565.213697 59.295978 
L 566.921382 58.947437 
L 568.629067 58.84559 
L 570.336752 59.016764 
L 572.044436 59.474687 
L 573.752121 60.217748 
L 575.459806 61.229323 
L 577.167491 62.481148 
L 579.444405 64.464921 
L 581.721318 66.739959 
L 584.56746 69.92642 
L 587.413601 73.499903 
L 589.690514 76.691759 
L 591.967428 80.233922 
L 594.244341 84.149826 
L 597.090483 89.526609 
L 601.075081 97.633524 
L 606.767364 109.23478 
L 611.321191 117.962377 
L 619.859615 133.721144 
L 622.705757 138.656339 
L 624.98267 142.230113 
L 626.690355 144.599834 
L 628.39804 146.65635 
L 630.105725 148.381465 
L 631.81341 149.78179 
L 633.521095 150.885965 
L 635.22878 151.737357 
L 636.936465 152.38361 
L 639.213378 152.993672 
L 641.490291 153.353173 
L 643.197976 153.441041 
L 644.905661 153.327712 
L 646.613346 152.953326 
L 647.751803 152.526077 
L 648.89026 151.935145 
L 650.028716 151.165374 
L 651.167173 150.206234 
L 652.874858 148.403884 
L 654.582543 146.178176 
L 656.290228 143.574185 
L 658.567141 139.64324 
L 662.551739 132.123988 
L 667.105566 123.644288 
L 671.659392 115.74614 
L 677.351676 105.864391 
L 680.767045 99.559903 
L 680.767045 99.559903 
" style="fill:none;stroke:#00ffff;stroke-linecap:square;stroke-width:5;"/>
   </g>
   <g id="patch_3">
    <path d="M 83.675 160.233472 
L 83.675 10.8 
" style="fill:none;stroke:#ffffff;stroke-linecap:square;stroke-linejoin:miter;stroke-width:0.8;"/>
   </g>
   <g id="patch_4">
    <path d="M 709.2 160.233472 
L 709.2 10.8 
" style="fill:none;stroke:#ffffff;stroke-linecap:square;stroke-linejoin:miter;stroke-width:0.8;"/>
   </g>
   <g id="patch_5">
    <path d="M 83.675 160.233472 
L 709.2 160.233472 
" style="fill:none;stroke:#ffffff;stroke-linecap:square;stroke-linejoin:miter;stroke-width:0.8;"/>
   </g>
   <g id="patch_6">
    <path d="M 83.675 10.8 
L 709.2 10.8 
" style="fill:none;stroke:#ffffff;stroke-linecap:square;stroke-linejoin:miter;stroke-width:0.8;"/>
   </g>
   <g id="legend_1">
    <g id="patch_7">
     <path d="M 617.3925 38.01375 
L 700.8 38.01375 
Q 703.2 38.01375 703.2 35.61375 
L 703.2 19.2 
Q 703.2 16.8 700.8 16.8 
L 617.3925 16.8 
Q 614.9925 16.8 614.9925 19.2 
L 614.9925 35.61375 
Q 614.9925 38.01375 617.3925 38.01375 
z
" style="fill:#121212;opacity:0.8;stroke:#ffffff;stroke-linejoin:miter;"/>
    </g>
    <g id="line2d_14">
     <path d="M 619.7925 26.518125 
L 643.7925 26.518125 
" style="fill:none;stroke:#00ffff;stroke-linecap:square;stroke-width:5;"/>
    </g>
    <g id="line2d_15"/>
    <g id="text_15">
     <!-- Low IFT -->
     <g style="fill:#ffffff;" transform="translate(653.3925 30.718125)scale(0.12 -0.12)">
      <defs>
       <path d="M 628 4666 
L 1259 4666 
L 1259 531 
L 3531 531 
L 3531 0 
L 628 0 
L 628 4666 
z
" id="DejaVuSans-4c" transform="scale(0.015625)"/>
       <path d="M 1959 3097 
Q 1497 3097 1228 2736 
Q 959 2375 959 1747 
Q 959 1119 1226 758 
Q 1494 397 1959 397 
Q 2419 397 2687 759 
Q 2956 1122 2956 1747 
Q 2956 2369 2687 2733 
Q 2419 3097 1959 3097 
z
M 1959 3584 
Q 2709 3584 3137 3096 
Q 3566 2609 3566 1747 
Q 3566 888 3137 398 
Q 2709 -91 1959 -91 
Q 1206 -91 779 398 
Q 353 888 353 1747 
Q 353 2609 779 3096 
Q 1206 3584 1959 3584 
z
" id="DejaVuSans-6f" transform="scale(0.015625)"/>
       <path d="M 269 3500 
L 844 3500 
L 1563 769 
L 2278 3500 
L 2956 3500 
L 3675 769 
L 4391 3500 
L 4966 3500 
L 4050 0 
L 3372 0 
L 2619 2869 
L 1863 0 
L 1184 0 
L 269 3500 
z
" id="DejaVuSans-77" transform="scale(0.015625)"/>
       <path d="M 628 4666 
L 1259 4666 
L 1259 0 
L 628 0 
L 628 4666 
z
" id="DejaVuSans-49" transform="scale(0.015625)"/>
       <path d="M 628 4666 
L 3309 4666 
L 3309 4134 
L 1259 4134 
L 1259 2759 
L 3109 2759 
L 3109 2228 
L 1259 2228 
L 1259 0 
L 628 0 
L 628 4666 
z
" id="DejaVuSans-46" transform="scale(0.015625)"/>
      </defs>
      <use xlink:href="#DejaVuSans-4c"/>
      <use x="53.962891" xlink:href="#DejaVuSans-6f"/>
      <use x="115.144531" xlink:href="#DejaVuSans-77"/>
      <use x="196.931641" xlink:href="#DejaVuSans-20"/>
      <use x="228.71875" xlink:href="#DejaVuSans-49"/>
      <use x="258.210938" xlink:href="#DejaVuSans-46"/>
      <use x="313.980469" xlink:href="#DejaVuSans-54"/>
     </g>
    </g>
   </g>
  </g>
  <g id="axes_2">
   <g id="patch_8">
    <path d="M 83.675 374.2 
L 709.2 374.2 
L 709.2 224.766528 
L 83.675 224.766528 
z
" style="fill:#121212;"/>
   </g>
   <g id="matplotlib.axis_3">
    <g id="xtick_7">
     <g id="line2d_16">
      <g>
       <use style="fill:#ffffff;stroke:#ffffff;stroke-width:0.8;" x="112.107955" xlink:href="#m640e43f761" y="374.2"/>
      </g>
     </g>
     <g id="text_16">
      <!-- 0 -->
      <g style="fill:#ffffff;" transform="translate(106.381705 394.877187)scale(0.18 -0.18)">
       <use xlink:href="#DejaVuSans-30"/>
      </g>
     </g>
    </g>
    <g id="xtick_8">
     <g id="line2d_17">
      <g>
       <use style="fill:#ffffff;stroke:#ffffff;stroke-width:0.8;" x="225.239086" xlink:href="#m640e43f761" y="374.2"/>
      </g>
     </g>
     <g id="text_17">
      <!-- 5 -->
      <g style="fill:#ffffff;" transform="translate(219.512836 394.877187)scale(0.18 -0.18)">
       <use xlink:href="#DejaVuSans-35"/>
      </g>
     </g>
    </g>
    <g id="xtick_9">
     <g id="line2d_18">
      <g>
       <use style="fill:#ffffff;stroke:#ffffff;stroke-width:0.8;" x="338.370218" xlink:href="#m640e43f761" y="374.2"/>
      </g>
     </g>
     <g id="text_18">
      <!-- 10 -->
      <g style="fill:#ffffff;" transform="translate(326.917718 394.877187)scale(0.18 -0.18)">
       <use xlink:href="#DejaVuSans-31"/>
       <use x="63.623047" xlink:href="#DejaVuSans-30"/>
      </g>
     </g>
    </g>
    <g id="xtick_10">
     <g id="line2d_19">
      <g>
       <use style="fill:#ffffff;stroke:#ffffff;stroke-width:0.8;" x="451.501349" xlink:href="#m640e43f761" y="374.2"/>
      </g>
     </g>
     <g id="text_19">
      <!-- 15 -->
      <g style="fill:#ffffff;" transform="translate(440.048849 394.877187)scale(0.18 -0.18)">
       <use xlink:href="#DejaVuSans-31"/>
       <use x="63.623047" xlink:href="#DejaVuSans-35"/>
      </g>
     </g>
    </g>
    <g id="xtick_11">
     <g id="line2d_20">
      <g>
       <use style="fill:#ffffff;stroke:#ffffff;stroke-width:0.8;" x="564.632481" xlink:href="#m640e43f761" y="374.2"/>
      </g>
     </g>
     <g id="text_20">
      <!-- 20 -->
      <g style="fill:#ffffff;" transform="translate(553.179981 394.877187)scale(0.18 -0.18)">
       <use xlink:href="#DejaVuSans-32"/>
       <use x="63.623047" xlink:href="#DejaVuSans-30"/>
      </g>
     </g>
    </g>
    <g id="xtick_12">
     <g id="line2d_21">
      <g>
       <use style="fill:#ffffff;stroke:#ffffff;stroke-width:0.8;" x="677.763612" xlink:href="#m640e43f761" y="374.2"/>
      </g>
     </g>
     <g id="text_21">
      <!-- 25 -->
      <g style="fill:#ffffff;" transform="translate(666.311112 394.877187)scale(0.18 -0.18)">
       <use xlink:href="#DejaVuSans-32"/>
       <use x="63.623047" xlink:href="#DejaVuSans-35"/>
      </g>
     </g>
    </g>
    <g id="text_22">
     <!-- Time (t) -->
     <g style="fill:#ffffff;" transform="translate(361.005625 416.297812)scale(0.18 -0.18)">
      <use xlink:href="#DejaVuSans-54"/>
      <use x="57.958984" xlink:href="#DejaVuSans-69"/>
      <use x="85.742188" xlink:href="#DejaVuSans-6d"/>
      <use x="183.154297" xlink:href="#DejaVuSans-65"/>
      <use x="244.677734" xlink:href="#DejaVuSans-20"/>
      <use x="276.464844" xlink:href="#DejaVuSans-28"/>
      <use x="315.478516" xlink:href="#DejaVuSans-74"/>
      <use x="354.6875" xlink:href="#DejaVuSans-29"/>
     </g>
    </g>
   </g>
   <g id="matplotlib.axis_4">
    <g id="ytick_7">
     <g id="line2d_22">
      <g>
       <use style="fill:#ffffff;stroke:#ffffff;stroke-width:0.8;" x="83.675" xlink:href="#m32e4c9a777" y="373.939479"/>
      </g>
     </g>
     <g id="text_23">
      <!-- −10 -->
      <g style="fill:#ffffff;" transform="translate(38.686563 380.778073)scale(0.18 -0.18)">
       <use xlink:href="#DejaVuSans-2212"/>
       <use x="83.789062" xlink:href="#DejaVuSans-31"/>
       <use x="147.412109" xlink:href="#DejaVuSans-30"/>
      </g>
     </g>
    </g>
    <g id="ytick_8">
     <g id="line2d_23">
      <g>
       <use style="fill:#ffffff;stroke:#ffffff;stroke-width:0.8;" x="83.675" xlink:href="#m32e4c9a777" y="336.713508"/>
      </g>
     </g>
     <g id="text_24">
      <!-- −5 -->
      <g style="fill:#ffffff;" transform="translate(50.139062 343.552102)scale(0.18 -0.18)">
       <use xlink:href="#DejaVuSans-2212"/>
       <use x="83.789062" xlink:href="#DejaVuSans-35"/>
      </g>
     </g>
    </g>
    <g id="ytick_9">
     <g id="line2d_24">
      <g>
       <use style="fill:#ffffff;stroke:#ffffff;stroke-width:0.8;" x="83.675" xlink:href="#m32e4c9a777" y="299.487537"/>
      </g>
     </g>
     <g id="text_25">
      <!-- 0 -->
      <g style="fill:#ffffff;" transform="translate(65.2225 306.32613)scale(0.18 -0.18)">
       <use xlink:href="#DejaVuSans-30"/>
      </g>
     </g>
    </g>
    <g id="ytick_10">
     <g id="line2d_25">
      <g>
       <use style="fill:#ffffff;stroke:#ffffff;stroke-width:0.8;" x="83.675" xlink:href="#m32e4c9a777" y="262.261566"/>
      </g>
     </g>
     <g id="text_26">
      <!-- 5 -->
      <g style="fill:#ffffff;" transform="translate(65.2225 269.100159)scale(0.18 -0.18)">
       <use xlink:href="#DejaVuSans-35"/>
      </g>
     </g>
    </g>
    <g id="ytick_11">
     <g id="line2d_26">
      <g>
       <use style="fill:#ffffff;stroke:#ffffff;stroke-width:0.8;" x="83.675" xlink:href="#m32e4c9a777" y="225.035594"/>
      </g>
     </g>
     <g id="text_27">
      <!-- 10 -->
      <g style="fill:#ffffff;" transform="translate(53.77 231.874188)scale(0.18 -0.18)">
       <use xlink:href="#DejaVuSans-31"/>
       <use x="63.623047" xlink:href="#DejaVuSans-30"/>
      </g>
     </g>
    </g>
    <g id="text_28">
     <!-- Amplitude (y) -->
     <g style="fill:#ffffff;" transform="translate(30.943125 360.814045)rotate(-90)scale(0.18 -0.18)">
      <use xlink:href="#DejaVuSans-41"/>
      <use x="68.408203" xlink:href="#DejaVuSans-6d"/>
      <use x="165.820312" xlink:href="#DejaVuSans-70"/>
      <use x="229.296875" xlink:href="#DejaVuSans-6c"/>
      <use x="257.080078" xlink:href="#DejaVuSans-69"/>
      <use x="284.863281" xlink:href="#DejaVuSans-74"/>
      <use x="324.072266" xlink:href="#DejaVuSans-75"/>
      <use x="387.451172" xlink:href="#DejaVuSans-64"/>
      <use x="450.927734" xlink:href="#DejaVuSans-65"/>
      <use x="512.451172" xlink:href="#DejaVuSans-20"/>
      <use x="544.238281" xlink:href="#DejaVuSans-28"/>
      <use x="583.251953" xlink:href="#DejaVuSans-79"/>
      <use x="642.431641" xlink:href="#DejaVuSans-29"/>
     </g>
    </g>
   </g>
   <g id="line2d_27">
    <path clip-path="url(#p4bd542426e)" d="M 112.107955 304.987403 
L 113.246411 268.037601 
L 113.81564 253.344056 
L 114.384868 242.697446 
L 114.954096 236.70188 
L 115.523324 235.452709 
L 116.092553 238.548967 
L 116.661781 245.169272 
L 117.800238 264.395855 
L 118.938694 283.671678 
L 119.507923 291.069229 
L 120.077151 296.462854 
L 120.646379 299.974139 
L 121.215608 302.078988 
L 122.354064 305.082352 
L 122.923293 307.603021 
L 123.492521 311.656039 
L 124.061749 317.516968 
L 125.200206 333.827532 
L 126.338663 351.263902 
L 126.907891 357.676937 
L 127.477119 361.053208 
L 128.046347 360.526653 
L 128.615576 355.608625 
L 129.184804 346.278541 
L 129.754032 333.014134 
L 130.892489 298.810021 
L 132.030946 263.99311 
L 132.600174 250.1098 
L 133.169402 240.163623 
L 133.738631 234.831808 
L 134.307859 234.286134 
L 134.877087 238.188693 
L 135.446316 245.75306 
L 136.584772 267.223575 
L 137.723229 288.713075 
L 138.292457 296.904655 
L 138.861686 302.705231 
L 139.430914 306.124386 
L 140.000142 307.565444 
L 140.569371 307.73506 
L 141.138599 307.509634 
L 141.707827 307.778663 
L 142.277055 309.288324 
L 142.846284 312.508465 
L 143.415512 317.542723 
L 144.553969 331.499615 
L 145.692425 344.911967 
L 146.261654 348.728676 
L 146.830882 349.34029 
L 147.40011 346.152678 
L 147.969339 338.998088 
L 148.538567 328.184113 
L 149.677024 299.030373 
L 150.81548 268.585885 
L 151.384709 256.45299 
L 151.953937 247.953421 
L 152.523165 243.794884 
L 153.092394 244.196201 
L 153.661622 248.867456 
L 154.23085 257.056353 
L 157.076992 308.399835 
L 157.64622 313.154066 
L 158.215448 314.97607 
L 158.784677 314.235767 
L 159.353905 311.657169 
L 160.492362 304.865425 
L 161.06159 302.608589 
L 161.630818 302.115241 
L 162.200047 303.730202 
L 162.769275 307.393603 
L 163.907732 318.696043 
L 164.47696 324.535066 
L 165.046188 329.091916 
L 165.615417 331.395902 
L 166.184645 330.730209 
L 166.753873 326.751401 
L 167.323102 319.557665 
L 168.461558 298.101769 
L 169.600015 274.704931 
L 170.169243 265.527076 
L 170.738471 259.523748 
L 171.3077 257.395192 
L 171.876928 259.381313 
L 172.446156 265.227138 
L 173.015385 274.214176 
L 175.292298 317.413011 
L 175.861526 323.801804 
L 176.430755 326.763458 
L 176.999983 326.195194 
L 177.569211 322.45922 
L 178.13844 316.318763 
L 179.846125 294.404379 
L 180.415353 289.551142 
L 180.984581 287.178236 
L 181.553809 287.476449 
L 182.123038 290.208807 
L 182.692266 294.755018 
L 183.830723 305.534566 
L 184.399951 309.699165 
L 184.969179 311.86128 
L 185.538408 311.489239 
L 186.107636 308.451531 
L 186.676864 303.045853 
L 188.953778 275.283061 
L 189.523006 272.269564 
L 190.092234 272.556763 
L 190.661463 276.394664 
L 191.230691 283.56198 
L 192.369148 304.801892 
L 193.507604 327.171534 
L 194.076833 335.470113 
L 194.646061 340.411349 
L 195.215289 341.38596 
L 195.784517 338.262038 
L 196.353746 331.399974 
L 197.492202 310.00273 
L 198.630659 286.671893 
L 199.199887 277.421487 
L 199.769116 271.014854 
L 200.338344 267.8886 
L 200.907572 268.026827 
L 201.476801 270.983603 
L 202.046029 275.965338 
L 203.753714 292.811009 
L 204.322942 295.980613 
L 204.892171 297.043879 
L 205.461399 296.044263 
L 206.030627 293.421591 
L 207.169084 286.574473 
L 207.738312 284.342756 
L 208.30754 284.155944 
L 208.876769 286.660483 
L 209.445997 292.124323 
L 210.015225 300.374194 
L 211.153682 322.394467 
L 212.292139 344.014789 
L 212.861367 351.403817 
L 213.430595 355.054237 
L 213.999824 354.321984 
L 214.569052 349.042826 
L 215.13828 339.562419 
L 216.276737 311.649977 
L 217.415194 280.735185 
L 217.984422 267.698227 
L 218.55365 257.788767 
L 219.122879 251.663532 
L 219.692107 249.509108 
L 220.261335 251.043027 
L 220.830564 255.577903 
L 221.96902 269.614996 
L 223.107477 283.187266 
L 223.676705 287.810606 
L 224.245933 290.601173 
L 224.815162 291.75875 
L 225.38439 291.831917 
L 225.953618 291.615871 
L 226.522847 292.011539 
L 227.092075 293.866884 
L 227.661303 297.823919 
L 228.230532 304.194234 
L 228.79976 312.881849 
L 231.076673 355.350241 
L 231.645902 362.008916 
L 232.21513 364.770718 
L 232.784358 362.954068 
L 233.353587 356.347062 
L 233.922815 345.252778 
L 235.061271 313.199488 
L 236.768956 261.55754 
L 237.338185 249.184035 
L 237.907413 240.925946 
L 238.476641 237.138417 
L 239.04587 237.679531 
L 239.615098 241.9565 
L 240.184326 249.029559 
L 242.46124 282.931013 
L 243.030468 288.500883 
L 243.599696 292.31587 
L 244.168925 294.738179 
L 245.307381 298.171714 
L 245.87661 300.816625 
L 246.445838 305.028291 
L 247.015066 311.200647 
L 248.153523 329.103976 
L 249.861208 358.862168 
L 250.430436 365.014435 
L 250.999664 367.407569 
L 251.568893 365.31422 
L 252.138121 358.452005 
L 252.707349 347.044297 
L 253.845806 313.924025 
L 255.553491 259.396716 
L 256.122719 245.939246 
L 256.691948 236.718274 
L 257.261176 232.213323 
L 257.830404 232.392045 
L 258.399633 236.739112 
L 258.968861 244.346499 
L 261.245774 283.819868 
L 261.815003 290.965321 
L 262.384231 296.093 
L 262.953459 299.419777 
L 263.522687 301.495147 
L 264.091916 303.086027 
L 264.661144 305.029586 
L 265.230372 308.076292 
L 265.799601 312.746735 
L 266.368829 319.223761 
L 267.507286 336.364539 
L 268.645742 353.588262 
L 269.214971 359.435685 
L 269.784199 361.985707 
L 270.353427 360.454902 
L 270.922656 354.465116 
L 271.491884 344.120016 
L 272.630341 313.205861 
L 274.338026 260.956737 
L 274.907254 247.91361 
L 275.476482 239.010426 
L 276.04571 234.803577 
L 276.614939 235.33679 
L 277.184167 240.153591 
L 277.753395 248.373708 
L 280.030309 290.865556 
L 280.599537 298.392306 
L 281.168765 303.49701 
L 281.737994 306.294718 
L 282.307222 307.276393 
L 282.87645 307.20608 
L 283.445679 306.979473 
L 284.014907 307.465066 
L 284.584135 309.351487 
L 285.153364 313.023605 
L 285.722592 318.48585 
L 287.999505 345.684367 
L 288.568734 348.83373 
L 289.137962 348.601615 
L 289.70719 344.491067 
L 290.276418 336.449385 
L 290.845647 324.901467 
L 291.984103 295.124157 
L 293.12256 265.478549 
L 293.691788 254.227454 
L 294.261017 246.821626 
L 294.830245 243.850859 
L 295.399473 245.405064 
L 295.968702 251.07113 
L 296.53793 259.995144 
L 298.814843 303.359751 
L 299.384072 310.263397 
L 299.9533 314.229681 
L 300.522528 315.310262 
L 301.091757 313.974237 
L 301.660985 311.017377 
L 302.799441 304.219619 
L 303.36867 302.283256 
L 303.937898 302.233708 
L 304.507126 304.31908 
L 305.076355 308.378162 
L 307.353268 329.536422 
L 307.922496 331.130938 
L 308.491725 329.640893 
L 309.060953 324.829333 
L 309.630181 316.908333 
L 310.768638 294.711533 
L 311.907095 271.882749 
L 312.476323 263.458957 
L 313.045551 258.428724 
L 313.61478 257.382633 
L 314.184008 260.436159 
L 314.753236 267.211521 
L 315.891693 288.295202 
L 317.030149 310.915748 
L 317.599378 319.570061 
L 318.168606 325.175468 
L 318.737834 327.275736 
L 319.307063 325.886282 
L 319.876291 321.477451 
L 321.014748 307.235216 
L 322.153204 293.314585 
L 322.722433 289.010753 
L 323.291661 287.268144 
L 323.860889 288.170775 
L 324.430118 291.380383 
L 326.707031 310.412986 
L 327.276259 311.923424 
L 327.845488 310.829858 
L 328.414716 307.109014 
L 328.983944 301.164119 
L 330.691629 278.998109 
L 331.260857 273.91754 
L 331.830086 271.676113 
L 332.399314 272.848754 
L 332.968542 277.569609 
L 333.537771 285.499165 
L 334.676227 307.512518 
L 335.814684 329.348491 
L 336.383912 336.935735 
L 336.953141 340.974335 
L 337.522369 340.968125 
L 338.091597 336.908218 
L 338.660826 329.2714 
L 339.799282 307.150561 
L 340.937739 284.381708 
L 341.506967 275.804716 
L 342.076196 270.214922 
L 342.645424 267.936759 
L 343.214652 268.84197 
L 343.78388 272.387783 
L 344.922337 283.774959 
L 345.491565 289.515117 
L 346.060794 294.016287 
L 346.630022 296.641757 
L 347.19925 297.128442 
L 347.768479 295.623332 
L 348.337707 292.657616 
L 349.476164 285.837085 
L 350.045392 283.99258 
L 350.61462 284.386804 
L 351.183849 287.581658 
L 351.753077 293.739324 
L 352.322305 302.574526 
L 354.599219 345.866133 
L 355.168447 352.40685 
L 355.737675 355.014251 
L 356.306903 353.157575 
L 356.876132 346.799381 
L 357.44536 336.409069 
L 358.583817 307.569228 
L 359.722273 277.180123 
L 360.291502 264.884757 
L 360.86073 255.922749 
L 361.429958 250.835652 
L 361.999187 249.689049 
L 362.568415 252.089897 
L 363.137643 257.26521 
L 365.414557 284.787401 
L 365.983785 288.959214 
L 366.553013 291.304866 
L 367.122242 292.118266 
L 368.260698 291.850424 
L 368.829927 292.50888 
L 369.399155 294.807499 
L 369.968383 299.316629 
L 370.537611 306.251958 
L 371.676068 326.173154 
L 372.814525 348.338313 
L 373.383753 357.207742 
L 373.952981 362.941744 
L 374.52221 364.573328 
L 375.091438 361.531431 
L 375.660666 353.731857 
L 376.229895 341.606285 
L 377.368351 308.395531 
L 378.506808 272.798949 
L 379.076036 257.878529 
L 379.645265 246.495833 
L 380.214493 239.369308 
L 380.783721 236.728318 
L 381.35295 238.310631 
L 381.922178 243.424096 
L 383.060634 260.060956 
L 384.199091 277.675908 
L 384.768319 284.614822 
L 385.337548 289.766232 
L 385.906776 293.216719 
L 386.476004 295.409887 
L 387.614461 298.96671 
L 388.183689 301.957529 
L 388.752918 306.637904 
L 389.322146 313.315241 
L 390.460603 331.93381 
L 391.599059 352.58481 
L 392.168288 360.844247 
L 392.737516 366.110156 
L 393.306744 367.396301 
L 393.875973 364.078541 
L 394.445201 355.99867 
L 395.014429 343.509468 
L 396.152886 309.079583 
L 397.291342 271.52711 
L 397.860571 255.471132 
L 398.429799 242.981486 
L 398.999027 234.90104 
L 399.568256 231.582589 
L 400.137484 232.867945 
L 400.706712 238.132988 
L 401.275941 246.391502 
L 403.552854 285.657309 
L 404.122082 292.333808 
L 404.691311 297.013431 
L 405.260539 300.003602 
L 406.968224 305.752434 
L 407.537452 309.202829 
L 408.106681 314.3543 
L 408.675909 321.293428 
L 410.952822 355.547461 
L 411.52205 360.661751 
L 412.091279 362.244958 
L 412.660507 359.604909 
L 413.229735 352.479348 
L 413.798964 341.097613 
L 414.93742 308.860898 
L 416.645105 257.373804 
L 417.214334 245.248707 
L 417.783562 237.449467 
L 418.35279 234.407755 
L 418.922019 236.039371 
L 419.491247 241.773249 
L 420.060475 250.642402 
L 422.337389 292.726328 
L 422.906617 299.660796 
L 423.475845 304.169003 
L 424.045073 306.466662 
L 424.614302 307.124145 
L 425.752758 306.854418 
L 426.321987 307.666954 
L 426.891215 310.011824 
L 427.460443 314.182959 
L 428.029672 320.083533 
L 429.737357 341.703765 
L 430.306585 346.879109 
L 430.875813 349.280144 
L 431.445042 348.133879 
L 432.01427 343.047263 
L 432.583498 334.085866 
L 433.721955 307.13334 
L 435.42964 262.565932 
L 435.998868 252.176602 
L 436.568097 245.819369 
L 437.137325 243.963607 
L 437.706553 246.571851 
L 438.275781 253.11332 
L 439.414238 273.924368 
L 440.552695 296.406671 
L 441.121923 305.241937 
L 441.691151 311.399508 
L 442.26038 314.59411 
L 442.829608 314.987932 
L 443.398836 313.142885 
L 445.106521 303.354322 
L 445.67575 301.848276 
L 446.244978 302.333981 
L 446.814206 304.958452 
L 447.383435 309.45863 
L 449.09112 326.583279 
L 449.660348 330.128371 
L 450.229576 331.03298 
L 450.798804 328.754353 
L 451.368033 323.164241 
L 451.937261 314.587089 
L 453.075718 291.818397 
L 454.214174 269.698344 
L 454.783403 262.062132 
L 455.352631 258.002953 
L 455.921859 257.997576 
L 456.491088 262.037091 
L 457.060316 269.62531 
L 458.198773 291.463313 
L 459.337229 313.478626 
L 459.906458 321.409073 
L 460.475686 326.130728 
L 461.044914 327.304059 
L 461.614143 325.063192 
L 462.183371 319.983039 
L 464.460284 291.872197 
L 465.029512 288.150966 
L 465.598741 287.056863 
L 466.167969 288.566628 
L 466.737197 292.243848 
L 468.444882 307.595573 
L 469.014111 310.804139 
L 469.583339 311.70573 
L 470.152567 309.96211 
L 470.721796 305.65732 
L 471.860252 291.735032 
L 472.998709 277.491625 
L 473.567937 273.082431 
L 474.137166 271.692774 
L 474.706394 273.793009 
L 475.275622 279.398552 
L 475.844851 288.053167 
L 478.121764 331.760061 
L 478.690992 338.53637 
L 479.26022 341.590913 
L 479.829449 340.54588 
L 480.398677 335.51672 
L 480.967905 327.093991 
L 482.106362 304.267185 
L 483.244819 282.072004 
L 483.814047 274.151623 
L 484.383275 269.340533 
L 484.952504 267.850798 
L 485.521732 269.445452 
L 486.09096 273.491969 
L 487.798645 290.60255 
L 488.367874 294.660947 
L 488.937102 296.745503 
L 489.50633 296.69503 
L 490.075559 294.757657 
L 491.783243 284.999757 
L 492.352472 283.662647 
L 492.9217 284.742195 
L 493.490928 288.707525 
L 494.060157 295.610319 
L 495.198613 316.218568 
L 496.33707 338.972948 
L 496.906298 347.89689 
L 497.475527 353.563066 
L 498.044755 355.11756 
L 498.613983 352.147253 
L 499.183212 344.742047 
L 499.75244 333.49172 
L 500.890897 303.848005 
L 502.029353 274.072901 
L 502.598582 262.526135 
L 503.16781 254.485599 
L 503.737038 250.37616 
L 504.306266 250.145088 
L 504.875495 253.295404 
L 505.444723 258.978292 
L 507.152408 280.496361 
L 507.721636 285.958792 
L 508.290865 289.630909 
L 508.860093 291.517139 
L 509.429321 292.002358 
L 509.99855 291.775201 
L 510.567778 291.704176 
L 511.137006 292.684995 
L 511.706235 295.481723 
L 512.275463 300.585349 
L 512.844691 308.110949 
L 513.983148 328.780589 
L 515.121605 350.59808 
L 515.690833 358.817141 
L 516.260061 363.632993 
L 516.82929 364.165388 
L 517.398518 359.957873 
L 517.967746 351.054195 
L 518.536974 338.010759 
L 519.675431 303.910624 
L 520.813888 268.949143 
L 521.383116 254.848839 
L 521.952344 244.504549 
L 522.521573 238.515718 
L 523.090801 236.985986 
L 523.660029 239.537174 
L 524.229258 245.385827 
L 525.367714 262.612073 
L 526.506171 279.755242 
L 527.075399 286.233337 
L 527.644628 290.904726 
L 528.213856 293.952231 
L 529.921541 299.563356 
L 530.490769 302.890171 
L 531.059997 308.017679 
L 531.629226 315.162758 
L 532.767682 334.376655 
L 533.906139 354.632817 
L 534.475367 362.239026 
L 535.044596 366.58483 
L 535.613824 366.762234 
L 536.183052 362.255946 
L 536.752281 353.033649 
L 537.321509 339.574903 
L 538.459966 304.138721 
L 539.598422 267.151601 
L 540.167651 251.922737 
L 540.736879 240.514645 
L 541.306107 233.652258 
L 541.875336 231.558959 
L 542.444564 233.952364 
L 543.013792 240.105115 
L 544.152249 259.291809 
L 545.290705 279.61603 
L 545.859934 287.771723 
L 546.429162 293.945452 
L 546.99839 298.158536 
L 547.567619 300.80487 
L 548.706075 304.24113 
L 549.275304 306.664669 
L 549.844532 310.480754 
L 550.41376 316.05156 
L 551.552217 332.015633 
L 552.690674 349.954711 
L 553.259902 357.027621 
L 553.82913 361.304206 
L 554.398359 361.844709 
L 554.967587 358.056357 
L 555.536815 349.797253 
L 556.106044 337.422563 
L 557.2445 304.05429 
L 558.382957 268.506053 
L 558.952185 253.720024 
L 559.521413 242.624265 
L 560.090642 236.015869 
L 560.65987 234.197949 
L 561.229098 236.958637 
L 561.798327 243.616383 
L 562.936783 264.220989 
L 564.07524 286.083338 
L 564.644468 294.77122 
L 565.213697 301.142052 
L 565.782925 305.099845 
L 566.352153 306.956168 
L 566.921382 307.353013 
L 567.49061 307.138314 
L 568.059838 307.212965 
L 568.629067 308.372126 
L 569.198295 311.164337 
L 569.767523 315.789337 
L 570.90598 329.364814 
L 572.044436 343.404682 
L 572.613665 347.94069 
L 573.182893 349.475529 
L 573.752121 347.321785 
L 574.32135 341.196971 
L 574.890578 331.287662 
L 576.029035 303.149343 
L 577.167491 272.283814 
L 577.73672 259.420167 
L 578.305948 249.938391 
L 578.875176 244.65769 
L 579.444405 243.923762 
L 580.013633 247.572413 
L 580.582861 254.959626 
L 581.721318 276.576358 
L 582.859775 298.593407 
L 583.429003 306.841911 
L 583.998231 312.3046 
L 584.56746 314.808233 
L 585.136688 314.620788 
L 585.705916 312.38873 
L 587.413601 302.919748 
L 587.982829 301.920999 
L 588.552058 302.985407 
L 589.121286 306.1564 
L 589.690514 311.070759 
L 591.398199 327.991091 
L 591.967428 330.949893 
L 592.536656 331.090127 
L 593.105884 327.96581 
L 593.675113 321.56099 
L 594.244341 312.312228 
L 596.521254 267.588209 
L 597.090483 260.726384 
L 597.659711 257.602357 
L 598.228939 258.576518 
L 598.798167 263.516967 
L 599.367396 271.814436 
L 601.644309 315.416937 
L 602.213537 322.58205 
L 602.782766 326.417675 
L 603.351994 326.702585 
L 603.921222 323.686842 
L 604.490451 318.043127 
L 606.198136 295.916655 
L 606.767364 290.509778 
L 607.336592 287.471212 
L 607.905821 287.098682 
L 608.475049 289.260694 
L 609.044277 293.425585 
L 610.751962 308.75452 
L 611.321191 311.488631 
L 611.890419 311.788885 
L 612.459647 309.418259 
L 613.028875 304.567486 
L 614.167332 290.156997 
L 615.305789 276.523064 
L 615.875017 272.789499 
L 616.444245 272.223431 
L 617.013474 275.187011 
L 617.582702 281.577403 
L 618.15193 290.826364 
L 620.428844 333.765049 
L 620.998072 339.609865 
L 621.5673 341.594538 
L 622.136529 339.464124 
L 622.705757 333.458568 
L 623.274985 324.278167 
L 625.551898 279.413373 
L 626.121127 272.216533 
L 626.690355 268.234747 
L 627.259583 267.566283 
L 627.828812 269.86778 
L 628.39804 274.422495 
L 630.105725 291.560258 
L 630.674953 295.223467 
L 631.244182 296.838798 
L 631.81341 296.346382 
L 632.382638 294.09103 
L 634.090323 284.728114 
L 634.659552 283.9911 
L 635.22878 285.816678 
L 635.798008 290.574683 
L 636.367237 298.203759 
L 637.505693 319.639752 
L 638.64415 341.936618 
L 639.213378 350.128421 
L 639.782606 354.802105 
L 640.351835 355.205295 
L 640.921063 351.048012 
L 641.490291 342.549027 
L 642.05952 330.416013 
L 644.905661 259.99271 
L 645.47489 252.834069 
L 646.044118 249.641967 
L 646.613346 250.248759 
L 647.182575 254.060431 
L 647.751803 260.161846 
L 649.459488 281.409979 
L 650.028716 286.440104 
L 650.597945 289.656689 
L 651.167173 291.163489 
L 651.736401 291.430452 
L 652.305629 291.203841 
L 652.874858 291.37322 
L 653.444086 292.815033 
L 654.013314 296.235952 
L 654.582543 302.039299 
L 655.151771 310.23462 
L 656.290228 331.734256 
L 657.428684 353.217744 
L 657.997913 360.789311 
L 658.567141 364.699316 
L 659.136369 364.161142 
L 659.705598 358.836681 
L 660.274826 348.897501 
L 660.844054 335.02062 
L 663.690196 252.751912 
L 664.259424 243.420951 
L 664.828653 238.500382 
L 665.397881 237.969582 
L 665.967109 241.339907 
L 666.536337 247.745344 
L 668.813251 281.448024 
L 669.382479 287.295523 
L 669.951707 291.334775 
L 670.520936 293.841727 
L 671.659392 296.819541 
L 672.228621 298.913509 
L 672.797849 302.415856 
L 673.367077 307.80302 
L 673.936306 315.197133 
L 675.074762 334.477338 
L 676.213219 353.726886 
L 676.782447 360.366909 
L 677.351676 363.488991 
L 677.920904 362.272166 
L 678.490132 356.315832 
L 679.05936 345.715657 
L 679.628589 331.076007 
L 680.767045 294.257093 
L 680.767045 294.257093 
" style="fill:none;stroke:#00ff00;stroke-linecap:square;stroke-width:5;"/>
   </g>
   <g id="patch_9">
    <path d="M 83.675 374.2 
L 83.675 224.766528 
" style="fill:none;stroke:#ffffff;stroke-linecap:square;stroke-linejoin:miter;stroke-width:0.8;"/>
   </g>
   <g id="patch_10">
    <path d="M 709.2 374.2 
L 709.2 224.766528 
" style="fill:none;stroke:#ffffff;stroke-linecap:square;stroke-linejoin:miter;stroke-width:0.8;"/>
   </g>
   <g id="patch_11">
    <path d="M 83.675 374.2 
L 709.2 374.2 
" style="fill:none;stroke:#ffffff;stroke-linecap:square;stroke-linejoin:miter;stroke-width:0.8;"/>
   </g>
   <g id="patch_12">
    <path d="M 83.675 224.766528 
L 709.2 224.766528 
" style="fill:none;stroke:#ffffff;stroke-linecap:square;stroke-linejoin:miter;stroke-width:0.8;"/>
   </g>
   <g id="legend_2">
    <g id="patch_13">
     <path d="M 609.63 251.980278 
L 700.8 251.980278 
Q 703.2 251.980278 703.2 249.580278 
L 703.2 233.166528 
Q 703.2 230.766528 700.8 230.766528 
L 609.63 230.766528 
Q 607.23 230.766528 607.23 233.166528 
L 607.23 249.580278 
Q 607.23 251.980278 609.63 251.980278 
z
" style="fill:#121212;opacity:0.8;stroke:#ffffff;stroke-linejoin:miter;"/>
    </g>
    <g id="line2d_28">
     <path d="M 612.03 240.484653 
L 636.03 240.484653 
" style="fill:none;stroke:#00ff00;stroke-linecap:square;stroke-width:5;"/>
    </g>
    <g id="line2d_29"/>
    <g id="text_29">
     <!-- High IFT  -->
     <g style="fill:#ffffff;" transform="translate(645.63 244.684653)scale(0.12 -0.12)">
      <defs>
       <path d="M 628 4666 
L 1259 4666 
L 1259 2753 
L 3553 2753 
L 3553 4666 
L 4184 4666 
L 4184 0 
L 3553 0 
L 3553 2222 
L 1259 2222 
L 1259 0 
L 628 0 
L 628 4666 
z
" id="DejaVuSans-48" transform="scale(0.015625)"/>
       <path d="M 2906 1791 
Q 2906 2416 2648 2759 
Q 2391 3103 1925 3103 
Q 1463 3103 1205 2759 
Q 947 2416 947 1791 
Q 947 1169 1205 825 
Q 1463 481 1925 481 
Q 2391 481 2648 825 
Q 2906 1169 2906 1791 
z
M 3481 434 
Q 3481 -459 3084 -895 
Q 2688 -1331 1869 -1331 
Q 1566 -1331 1297 -1286 
Q 1028 -1241 775 -1147 
L 775 -588 
Q 1028 -725 1275 -790 
Q 1522 -856 1778 -856 
Q 2344 -856 2625 -561 
Q 2906 -266 2906 331 
L 2906 616 
Q 2728 306 2450 153 
Q 2172 0 1784 0 
Q 1141 0 747 490 
Q 353 981 353 1791 
Q 353 2603 747 3093 
Q 1141 3584 1784 3584 
Q 2172 3584 2450 3431 
Q 2728 3278 2906 2969 
L 2906 3500 
L 3481 3500 
L 3481 434 
z
" id="DejaVuSans-67" transform="scale(0.015625)"/>
       <path d="M 3513 2113 
L 3513 0 
L 2938 0 
L 2938 2094 
Q 2938 2591 2744 2837 
Q 2550 3084 2163 3084 
Q 1697 3084 1428 2787 
Q 1159 2491 1159 1978 
L 1159 0 
L 581 0 
L 581 4863 
L 1159 4863 
L 1159 2956 
Q 1366 3272 1645 3428 
Q 1925 3584 2291 3584 
Q 2894 3584 3203 3211 
Q 3513 2838 3513 2113 
z
" id="DejaVuSans-68" transform="scale(0.015625)"/>
      </defs>
      <use xlink:href="#DejaVuSans-48"/>
      <use x="75.195312" xlink:href="#DejaVuSans-69"/>
      <use x="102.978516" xlink:href="#DejaVuSans-67"/>
      <use x="166.455078" xlink:href="#DejaVuSans-68"/>
      <use x="229.833984" xlink:href="#DejaVuSans-20"/>
      <use x="261.621094" xlink:href="#DejaVuSans-49"/>
      <use x="291.113281" xlink:href="#DejaVuSans-46"/>
      <use x="346.882812" xlink:href="#DejaVuSans-54"/>
      <use x="407.966797" xlink:href="#DejaVuSans-20"/>
     </g>
    </g>
   </g>
  </g>
 </g>
 <defs>
  <clipPath id="p947c5b4c48">
   <rect height="149.433472" width="625.525" x="83.675" y="10.8"/>
  </clipPath>
  <clipPath id="p4bd542426e">
   <rect height="149.433472" width="625.525" x="83.675" y="224.766528"/>
  </clipPath>
 </defs>
</svg>
