<?xml version="1.0" encoding="utf-8" standalone="no"?>
<!DOCTYPE svg PUBLIC "-//W3C//DTD SVG 1.1//EN"
  "http://www.w3.org/Graphics/SVG/1.1/DTD/svg11.dtd">
<!-- Created with matplotlib (https://matplotlib.org/) -->
<svg height="576pt" version="1.1" viewBox="0 0 720 576" width="720pt" xmlns="http://www.w3.org/2000/svg" xmlns:xlink="http://www.w3.org/1999/xlink">
 <defs>
  <style type="text/css">
*{stroke-linecap:butt;stroke-linejoin:round;}
  </style>
 </defs>
 <g id="figure_1">
  <g id="patch_1">
   <path d="M 0 576 
L 720 576 
L 720 0 
L 0 0 
z
" style="fill:#121212;"/>
  </g>
  <g id="axes_1">
   <g id="patch_2">
    <path d="M 39.94 218.21452 
L 709.2 218.21452 
L 709.2 39.6 
L 39.94 39.6 
z
" style="fill:#121212;"/>
   </g>
   <g id="PolyCollection_1">
    <defs>
     <path d="M 677.497536 -410.244522 
L 677.497536 -406.401297 
L 677.817925 -412.063142 
L 678.138313 -415.473878 
L 678.458702 -418.141201 
L 678.779091 -417.372151 
L 678.779091 -445.298195 
L 678.779091 -445.298195 
L 678.458702 -436.851146 
L 678.138313 -428.312768 
L 677.817925 -419.158656 
L 677.497536 -410.244522 
z
" id="m3dd1ff1815" style="stroke:#00ffff;stroke-opacity:0.2;"/>
    </defs>
    <g clip-path="url(#p4ee887d518)">
     <use style="fill:#00ffff;fill-opacity:0.2;stroke:#00ffff;stroke-opacity:0.2;" x="0" xlink:href="#m3dd1ff1815" y="576"/>
    </g>
   </g>
   <g id="matplotlib.axis_1">
    <g id="xtick_1">
     <g id="line2d_1">
      <defs>
       <path d="M 0 0 
L 0 3.5 
" id="mc3c5bf636f" style="stroke:#ffffff;stroke-width:0.8;"/>
      </defs>
      <g>
       <use style="fill:#ffffff;stroke:#ffffff;stroke-width:0.8;" x="145.972647" xlink:href="#mc3c5bf636f" y="218.21452"/>
      </g>
     </g>
     <g id="text_1">
      <!-- 2020-01-15 -->
      <defs>
       <path d="M 19.1875 8.296875 
L 53.609375 8.296875 
L 53.609375 0 
L 7.328125 0 
L 7.328125 8.296875 
Q 12.9375 14.109375 22.625 23.890625 
Q 32.328125 33.6875 34.8125 36.53125 
Q 39.546875 41.84375 41.421875 45.53125 
Q 43.3125 49.21875 43.3125 52.78125 
Q 43.3125 58.59375 39.234375 62.25 
Q 35.15625 65.921875 28.609375 65.921875 
Q 23.96875 65.921875 18.8125 64.3125 
Q 13.671875 62.703125 7.8125 59.421875 
L 7.8125 69.390625 
Q 13.765625 71.78125 18.9375 73 
Q 24.125 74.21875 28.421875 74.21875 
Q 39.75 74.21875 46.484375 68.546875 
Q 53.21875 62.890625 53.21875 53.421875 
Q 53.21875 48.921875 51.53125 44.890625 
Q 49.859375 40.875 45.40625 35.40625 
Q 44.1875 33.984375 37.640625 27.21875 
Q 31.109375 20.453125 19.1875 8.296875 
z
" id="DejaVuSans-50"/>
       <path d="M 31.78125 66.40625 
Q 24.171875 66.40625 20.328125 58.90625 
Q 16.5 51.421875 16.5 36.375 
Q 16.5 21.390625 20.328125 13.890625 
Q 24.171875 6.390625 31.78125 6.390625 
Q 39.453125 6.390625 43.28125 13.890625 
Q 47.125 21.390625 47.125 36.375 
Q 47.125 51.421875 43.28125 58.90625 
Q 39.453125 66.40625 31.78125 66.40625 
z
M 31.78125 74.21875 
Q 44.046875 74.21875 50.515625 64.515625 
Q 56.984375 54.828125 56.984375 36.375 
Q 56.984375 17.96875 50.515625 8.265625 
Q 44.046875 -1.421875 31.78125 -1.421875 
Q 19.53125 -1.421875 13.0625 8.265625 
Q 6.59375 17.96875 6.59375 36.375 
Q 6.59375 54.828125 13.0625 64.515625 
Q 19.53125 74.21875 31.78125 74.21875 
z
" id="DejaVuSans-48"/>
       <path d="M 4.890625 31.390625 
L 31.203125 31.390625 
L 31.203125 23.390625 
L 4.890625 23.390625 
z
" id="DejaVuSans-45"/>
       <path d="M 12.40625 8.296875 
L 28.515625 8.296875 
L 28.515625 63.921875 
L 10.984375 60.40625 
L 10.984375 69.390625 
L 28.421875 72.90625 
L 38.28125 72.90625 
L 38.28125 8.296875 
L 54.390625 8.296875 
L 54.390625 0 
L 12.40625 0 
z
" id="DejaVuSans-49"/>
       <path d="M 10.796875 72.90625 
L 49.515625 72.90625 
L 49.515625 64.59375 
L 19.828125 64.59375 
L 19.828125 46.734375 
Q 21.96875 47.46875 24.109375 47.828125 
Q 26.265625 48.1875 28.421875 48.1875 
Q 40.625 48.1875 47.75 41.5 
Q 54.890625 34.8125 54.890625 23.390625 
Q 54.890625 11.625 47.5625 5.09375 
Q 40.234375 -1.421875 26.90625 -1.421875 
Q 22.3125 -1.421875 17.546875 -0.640625 
Q 12.796875 0.140625 7.71875 1.703125 
L 7.71875 11.625 
Q 12.109375 9.234375 16.796875 8.0625 
Q 21.484375 6.890625 26.703125 6.890625 
Q 35.15625 6.890625 40.078125 11.328125 
Q 45.015625 15.765625 45.015625 23.390625 
Q 45.015625 31 40.078125 35.4375 
Q 35.15625 39.890625 26.703125 39.890625 
Q 22.75 39.890625 18.8125 39.015625 
Q 14.890625 38.140625 10.796875 36.28125 
z
" id="DejaVuSans-53"/>
      </defs>
      <g style="fill:#ffffff;" transform="translate(118.078942 294.914808)rotate(-45)scale(0.15 -0.15)">
       <use xlink:href="#DejaVuSans-50"/>
       <use x="63.623047" xlink:href="#DejaVuSans-48"/>
       <use x="127.246094" xlink:href="#DejaVuSans-50"/>
       <use x="190.869141" xlink:href="#DejaVuSans-48"/>
       <use x="254.492188" xlink:href="#DejaVuSans-45"/>
       <use x="290.576172" xlink:href="#DejaVuSans-48"/>
       <use x="354.199219" xlink:href="#DejaVuSans-49"/>
       <use x="417.822266" xlink:href="#DejaVuSans-45"/>
       <use x="453.90625" xlink:href="#DejaVuSans-49"/>
       <use x="517.529297" xlink:href="#DejaVuSans-53"/>
      </g>
     </g>
    </g>
    <g id="xtick_2">
     <g id="line2d_2">
      <g>
       <use style="fill:#ffffff;stroke:#ffffff;stroke-width:0.8;" x="276.691246" xlink:href="#mc3c5bf636f" y="218.21452"/>
      </g>
     </g>
     <g id="text_2">
      <!-- 2020-02-01 -->
      <g style="fill:#ffffff;" transform="translate(248.79754 294.914808)rotate(-45)scale(0.15 -0.15)">
       <use xlink:href="#DejaVuSans-50"/>
       <use x="63.623047" xlink:href="#DejaVuSans-48"/>
       <use x="127.246094" xlink:href="#DejaVuSans-50"/>
       <use x="190.869141" xlink:href="#DejaVuSans-48"/>
       <use x="254.492188" xlink:href="#DejaVuSans-45"/>
       <use x="290.576172" xlink:href="#DejaVuSans-48"/>
       <use x="354.199219" xlink:href="#DejaVuSans-50"/>
       <use x="417.822266" xlink:href="#DejaVuSans-45"/>
       <use x="453.90625" xlink:href="#DejaVuSans-48"/>
       <use x="517.529297" xlink:href="#DejaVuSans-49"/>
      </g>
     </g>
    </g>
    <g id="xtick_3">
     <g id="line2d_3">
      <g>
       <use style="fill:#ffffff;stroke:#ffffff;stroke-width:0.8;" x="384.341856" xlink:href="#mc3c5bf636f" y="218.21452"/>
      </g>
     </g>
     <g id="text_3">
      <!-- 2020-02-15 -->
      <g style="fill:#ffffff;" transform="translate(356.448151 294.914808)rotate(-45)scale(0.15 -0.15)">
       <use xlink:href="#DejaVuSans-50"/>
       <use x="63.623047" xlink:href="#DejaVuSans-48"/>
       <use x="127.246094" xlink:href="#DejaVuSans-50"/>
       <use x="190.869141" xlink:href="#DejaVuSans-48"/>
       <use x="254.492188" xlink:href="#DejaVuSans-45"/>
       <use x="290.576172" xlink:href="#DejaVuSans-48"/>
       <use x="354.199219" xlink:href="#DejaVuSans-50"/>
       <use x="417.822266" xlink:href="#DejaVuSans-45"/>
       <use x="453.90625" xlink:href="#DejaVuSans-49"/>
       <use x="517.529297" xlink:href="#DejaVuSans-53"/>
      </g>
     </g>
    </g>
    <g id="xtick_4">
     <g id="line2d_4">
      <g>
       <use style="fill:#ffffff;stroke:#ffffff;stroke-width:0.8;" x="499.681796" xlink:href="#mc3c5bf636f" y="218.21452"/>
      </g>
     </g>
     <g id="text_4">
      <!-- 2020-03-01 -->
      <defs>
       <path d="M 40.578125 39.3125 
Q 47.65625 37.796875 51.625 33 
Q 55.609375 28.21875 55.609375 21.1875 
Q 55.609375 10.40625 48.1875 4.484375 
Q 40.765625 -1.421875 27.09375 -1.421875 
Q 22.515625 -1.421875 17.65625 -0.515625 
Q 12.796875 0.390625 7.625 2.203125 
L 7.625 11.71875 
Q 11.71875 9.328125 16.59375 8.109375 
Q 21.484375 6.890625 26.8125 6.890625 
Q 36.078125 6.890625 40.9375 10.546875 
Q 45.796875 14.203125 45.796875 21.1875 
Q 45.796875 27.640625 41.28125 31.265625 
Q 36.765625 34.90625 28.71875 34.90625 
L 20.21875 34.90625 
L 20.21875 43.015625 
L 29.109375 43.015625 
Q 36.375 43.015625 40.234375 45.921875 
Q 44.09375 48.828125 44.09375 54.296875 
Q 44.09375 59.90625 40.109375 62.90625 
Q 36.140625 65.921875 28.71875 65.921875 
Q 24.65625 65.921875 20.015625 65.03125 
Q 15.375 64.15625 9.8125 62.3125 
L 9.8125 71.09375 
Q 15.4375 72.65625 20.34375 73.4375 
Q 25.25 74.21875 29.59375 74.21875 
Q 40.828125 74.21875 47.359375 69.109375 
Q 53.90625 64.015625 53.90625 55.328125 
Q 53.90625 49.265625 50.4375 45.09375 
Q 46.96875 40.921875 40.578125 39.3125 
z
" id="DejaVuSans-51"/>
      </defs>
      <g style="fill:#ffffff;" transform="translate(471.78809 294.914808)rotate(-45)scale(0.15 -0.15)">
       <use xlink:href="#DejaVuSans-50"/>
       <use x="63.623047" xlink:href="#DejaVuSans-48"/>
       <use x="127.246094" xlink:href="#DejaVuSans-50"/>
       <use x="190.869141" xlink:href="#DejaVuSans-48"/>
       <use x="254.492188" xlink:href="#DejaVuSans-45"/>
       <use x="290.576172" xlink:href="#DejaVuSans-48"/>
       <use x="354.199219" xlink:href="#DejaVuSans-51"/>
       <use x="417.822266" xlink:href="#DejaVuSans-45"/>
       <use x="453.90625" xlink:href="#DejaVuSans-48"/>
       <use x="517.529297" xlink:href="#DejaVuSans-49"/>
      </g>
     </g>
    </g>
    <g id="xtick_5">
     <g id="line2d_5">
      <g>
       <use style="fill:#ffffff;stroke:#ffffff;stroke-width:0.8;" x="607.332406" xlink:href="#mc3c5bf636f" y="218.21452"/>
      </g>
     </g>
     <g id="text_5">
      <!-- 2020-03-15 -->
      <g style="fill:#ffffff;" transform="translate(579.438701 294.914808)rotate(-45)scale(0.15 -0.15)">
       <use xlink:href="#DejaVuSans-50"/>
       <use x="63.623047" xlink:href="#DejaVuSans-48"/>
       <use x="127.246094" xlink:href="#DejaVuSans-50"/>
       <use x="190.869141" xlink:href="#DejaVuSans-48"/>
       <use x="254.492188" xlink:href="#DejaVuSans-45"/>
       <use x="290.576172" xlink:href="#DejaVuSans-48"/>
       <use x="354.199219" xlink:href="#DejaVuSans-51"/>
       <use x="417.822266" xlink:href="#DejaVuSans-45"/>
       <use x="453.90625" xlink:href="#DejaVuSans-49"/>
       <use x="517.529297" xlink:href="#DejaVuSans-53"/>
      </g>
     </g>
    </g>
   </g>
   <g id="matplotlib.axis_2">
    <g id="ytick_1">
     <g id="line2d_6">
      <defs>
       <path d="M 0 0 
L -3.5 0 
" id="mdf3e6bcde1" style="stroke:#ffffff;stroke-width:0.8;"/>
      </defs>
      <g>
       <use style="fill:#ffffff;stroke:#ffffff;stroke-width:0.8;" x="39.94" xlink:href="#mdf3e6bcde1" y="197.132211"/>
      </g>
     </g>
     <g id="text_6">
      <!-- −4 -->
      <defs>
       <path d="M 10.59375 35.5 
L 73.1875 35.5 
L 73.1875 27.203125 
L 10.59375 27.203125 
z
" id="DejaVuSans-8722"/>
       <path d="M 37.796875 64.3125 
L 12.890625 25.390625 
L 37.796875 25.390625 
z
M 35.203125 72.90625 
L 47.609375 72.90625 
L 47.609375 25.390625 
L 58.015625 25.390625 
L 58.015625 17.1875 
L 47.609375 17.1875 
L 47.609375 0 
L 37.796875 0 
L 37.796875 17.1875 
L 4.890625 17.1875 
L 4.890625 26.703125 
z
" id="DejaVuSans-52"/>
      </defs>
      <g style="fill:#ffffff;" transform="translate(10.826719 202.831039)scale(0.15 -0.15)">
       <use xlink:href="#DejaVuSans-8722"/>
       <use x="83.789062" xlink:href="#DejaVuSans-52"/>
      </g>
     </g>
    </g>
    <g id="ytick_2">
     <g id="line2d_7">
      <g>
       <use style="fill:#ffffff;stroke:#ffffff;stroke-width:0.8;" x="39.94" xlink:href="#mdf3e6bcde1" y="162.988796"/>
      </g>
     </g>
     <g id="text_7">
      <!-- −2 -->
      <g style="fill:#ffffff;" transform="translate(10.826719 168.687624)scale(0.15 -0.15)">
       <use xlink:href="#DejaVuSans-8722"/>
       <use x="83.789062" xlink:href="#DejaVuSans-50"/>
      </g>
     </g>
    </g>
    <g id="ytick_3">
     <g id="line2d_8">
      <g>
       <use style="fill:#ffffff;stroke:#ffffff;stroke-width:0.8;" x="39.94" xlink:href="#mdf3e6bcde1" y="128.845381"/>
      </g>
     </g>
     <g id="text_8">
      <!-- 0 -->
      <g style="fill:#ffffff;" transform="translate(23.39625 134.544209)scale(0.15 -0.15)">
       <use xlink:href="#DejaVuSans-48"/>
      </g>
     </g>
    </g>
    <g id="ytick_4">
     <g id="line2d_9">
      <g>
       <use style="fill:#ffffff;stroke:#ffffff;stroke-width:0.8;" x="39.94" xlink:href="#mdf3e6bcde1" y="94.701967"/>
      </g>
     </g>
     <g id="text_9">
      <!-- 2 -->
      <g style="fill:#ffffff;" transform="translate(23.39625 100.400795)scale(0.15 -0.15)">
       <use xlink:href="#DejaVuSans-50"/>
      </g>
     </g>
    </g>
    <g id="ytick_5">
     <g id="line2d_10">
      <g>
       <use style="fill:#ffffff;stroke:#ffffff;stroke-width:0.8;" x="39.94" xlink:href="#mdf3e6bcde1" y="60.558552"/>
      </g>
     </g>
     <g id="text_10">
      <!-- 4 -->
      <g style="fill:#ffffff;" transform="translate(23.39625 66.25738)scale(0.15 -0.15)">
       <use xlink:href="#DejaVuSans-52"/>
      </g>
     </g>
    </g>
   </g>
   <g id="line2d_11">
    <path clip-path="url(#p4ee887d518)" d="M 677.497536 170.518673 
L 677.817925 160.457748 
L 678.138313 147.672953 
L 678.458702 136.234309 
L 678.779091 130.285873 
" style="fill:none;stroke:#0000ff;stroke-linecap:square;stroke-width:1.5;"/>
   </g>
   <g id="line2d_12">
    <path clip-path="url(#p4ee887d518)" d="M 70.360909 150.421218 
L 71.642464 144.170546 
L 71.962853 143.293143 
L 72.283241 142.853498 
L 72.60363 143.016397 
L 72.924019 143.904187 
L 73.244408 145.451434 
L 73.885185 150.28427 
L 74.846351 161.074814 
L 76.127906 175.476043 
L 76.768684 179.463869 
L 77.089072 180.089759 
L 77.409461 179.554005 
L 77.72985 177.848046 
L 78.050238 174.974291 
L 78.691016 165.432897 
L 79.331793 151.378423 
L 80.292959 124.110768 
L 81.894903 76.810444 
L 82.535681 62.767833 
L 83.176458 53.971773 
L 83.496847 51.847124 
L 83.817235 51.259284 
L 84.137624 52.288536 
L 84.458013 54.930904 
L 85.09879 64.430544 
L 85.739568 78.711842 
L 87.021123 114.695223 
L 87.982289 140.632495 
L 88.623066 154.311169 
L 89.263844 163.643822 
L 89.584232 166.610294 
L 89.904621 168.37579 
L 90.22501 168.964232 
L 90.545399 168.526887 
L 90.865787 167.198775 
L 91.506565 162.237717 
L 93.749286 140.357778 
L 94.069674 138.742721 
L 94.390063 137.847886 
L 94.710452 137.708865 
L 95.030841 138.247002 
L 95.351229 139.402244 
L 95.992007 143.411955 
L 97.59395 156.08903 
L 97.914339 157.702811 
L 98.234728 158.662745 
L 98.555117 158.841323 
L 98.875505 158.069713 
L 99.195894 156.268054 
L 99.516283 153.458649 
L 100.15706 144.801027 
L 100.797838 132.423394 
L 102.079393 101.36805 
L 103.040559 79.042797 
L 103.681336 67.996744 
L 104.322114 61.673264 
L 104.642502 60.636718 
L 104.962891 61.123586 
L 105.28328 63.091982 
L 105.603668 66.516539 
L 106.244446 77.561972 
L 106.885223 93.076552 
L 109.768722 171.56547 
L 110.409499 180.460213 
L 110.729888 182.86252 
L 111.050277 183.931179 
L 111.370665 183.689218 
L 111.691054 182.160573 
L 112.011443 179.468565 
L 112.65222 171.333747 
L 113.933775 149.014946 
L 114.894941 133.351025 
L 115.535719 125.95564 
L 116.176496 121.784993 
L 116.496885 120.997651 
L 116.817274 120.976187 
L 117.137662 121.658423 
L 117.458051 122.980101 
L 118.098829 126.886392 
L 119.380383 135.10324 
L 119.700772 136.25402 
L 120.021161 136.797087 
L 120.34155 136.61059 
L 120.661938 135.581627 
L 120.982327 133.693995 
L 121.623105 127.484172 
L 122.263882 118.303637 
L 124.506603 80.863724 
L 125.14738 75.026445 
L 125.467769 73.824944 
L 125.788158 73.871446 
L 126.108547 75.25451 
L 126.428935 78.03427 
L 127.069713 87.558008 
L 127.71049 101.767953 
L 128.671656 128.995154 
L 130.2736 174.744209 
L 130.914377 187.620875 
L 131.555155 195.228154 
L 131.875544 196.839539 
L 132.195932 196.910261 
L 132.516321 195.493321 
L 132.83671 192.687299 
L 133.477487 183.266779 
L 134.438653 162.298256 
L 136.040597 123.569393 
L 136.681374 111.642544 
L 137.322152 103.458848 
L 137.642541 100.902423 
L 137.962929 99.402801 
L 138.283318 98.881719 
L 138.603707 99.231455 
L 138.924095 100.368081 
L 139.564873 104.466255 
L 141.166817 117.055298 
L 141.487205 118.669902 
L 141.807594 119.713306 
L 142.127983 120.08088 
L 142.448371 119.711923 
L 142.76876 118.633281 
L 143.089149 116.897129 
L 143.729926 111.639702 
L 145.652259 92.057645 
L 145.972647 90.089252 
L 146.293036 88.92666 
L 146.613425 88.737857 
L 146.933813 89.646718 
L 147.254202 91.694715 
L 147.574591 94.901489 
L 148.215368 104.845132 
L 148.856146 118.925709 
L 150.137701 154.58164 
L 151.419256 188.280356 
L 152.060033 199.746287 
L 152.380422 203.474594 
L 152.70081 205.68037 
L 153.021199 206.324212 
L 153.341588 205.389498 
L 153.661977 202.861457 
L 154.302754 193.317467 
L 154.943532 178.76218 
L 156.225086 140.921345 
L 157.506641 104.319599 
L 158.147419 90.774288 
L 158.788196 81.892823 
L 159.108585 79.285673 
L 159.428974 77.915752 
L 159.749362 77.728332 
L 160.069751 78.595778 
L 160.39014 80.386499 
L 161.030917 86.210318 
L 163.273638 110.848953 
L 163.914416 114.225869 
L 164.234804 114.898449 
L 164.555193 114.94568 
L 164.875582 114.42789 
L 165.195971 113.404312 
L 166.157137 108.67624 
L 166.797914 105.708547 
L 167.118303 104.797681 
L 167.438692 104.490725 
L 167.75908 104.895637 
L 168.079469 106.128225 
L 168.399858 108.304576 
L 169.040635 115.624747 
L 169.681413 126.765656 
L 170.642579 149.14595 
L 172.244522 189.490176 
L 172.8853 201.47753 
L 173.526077 208.579667 
L 173.846466 209.963687 
L 174.166855 209.752494 
L 174.487244 207.914969 
L 174.807632 204.488031 
L 175.44841 193.075946 
L 176.089187 176.406134 
L 177.370742 133.851983 
L 178.652297 92.364881 
L 179.293074 76.74246 
L 179.933852 66.227543 
L 180.254241 63.098197 
L 180.574629 61.3731 
L 180.895018 61.020786 
L 181.215407 61.987219 
L 181.535795 64.146237 
L 182.176573 71.361793 
L 183.137739 86.777766 
L 184.419294 107.606769 
L 185.060071 115.27372 
L 185.700849 120.228342 
L 186.021237 121.652812 
L 186.341626 122.465181 
L 186.662015 122.73819 
L 186.982404 122.560417 
L 187.623181 121.469418 
L 188.263959 120.437758 
L 188.584347 120.325016 
L 188.904736 120.705978 
L 189.225125 121.693109 
L 189.545513 123.366008 
L 190.186291 129.09517 
L 190.827068 138.084021 
L 191.788234 156.622183 
L 193.710567 196.219978 
L 194.351344 204.165437 
L 194.671733 206.268253 
L 194.992122 206.956 
L 195.31251 206.160136 
L 195.632899 203.816103 
L 195.953288 199.900088 
L 196.594065 187.628079 
L 197.234843 170.183689 
L 198.516398 125.990258 
L 199.797953 82.827777 
L 200.43873 66.556366 
L 201.079507 55.725473 
L 201.399896 52.578988 
L 201.720285 51.006915 
L 202.040674 50.963941 
L 202.361062 52.365456 
L 202.681451 55.123289 
L 203.322228 64.136284 
L 204.283395 83.400735 
L 205.885338 116.866889 
L 206.526116 126.592081 
L 207.166893 133.146684 
L 207.487282 135.191438 
L 207.807671 136.49566 
L 208.128059 137.160796 
L 208.448448 137.281118 
L 208.768837 136.980618 
L 210.050392 134.897732 
L 210.37078 134.919775 
L 210.691169 135.45056 
L 211.011558 136.568293 
L 211.331946 138.33233 
L 211.972724 143.990824 
L 212.613501 152.281242 
L 213.895056 173.595005 
L 214.856222 188.391166 
L 215.497 194.714933 
L 215.817389 196.304021 
L 216.137777 196.639629 
L 216.458166 195.614658 
L 216.778555 193.190171 
L 217.098943 189.353517 
L 217.739721 177.500575 
L 218.380498 160.769809 
L 219.662053 118.299338 
L 220.943608 76.787393 
L 221.584386 61.315584 
L 222.225163 51.388665 
L 222.545552 48.762836 
L 222.86594 47.739222 
L 223.186329 48.326122 
L 223.506718 50.469058 
L 223.827107 54.044961 
L 224.467884 64.920744 
L 225.42905 87.672985 
L 227.030994 127.651719 
L 227.671771 139.689137 
L 228.312549 147.95715 
L 228.632937 150.621489 
L 228.953326 152.316576 
L 229.273715 153.110822 
L 229.594104 153.127591 
L 229.914492 152.494873 
L 230.55527 149.82134 
L 231.836825 143.667625 
L 232.157213 142.86887 
L 232.477602 142.620849 
L 232.797991 142.976434 
L 233.11838 143.979027 
L 233.438768 145.657976 
L 234.079546 150.869021 
L 235.040712 161.862317 
L 236.001878 173.046177 
L 236.642655 178.205702 
L 236.963044 179.549891 
L 237.283433 179.898866 
L 237.603822 179.137211 
L 237.92421 177.164893 
L 238.244599 173.94465 
L 238.885377 163.855844 
L 239.526154 149.298 
L 240.48732 121.693422 
L 242.089264 74.885523 
L 242.730041 61.478968 
L 243.370819 53.402217 
L 243.691207 51.667248 
L 244.011596 51.535656 
L 244.331985 52.982022 
L 244.652373 55.963598 
L 245.293151 66.173538 
L 245.933928 80.91506 
L 248.817427 155.86675 
L 249.458204 164.659906 
L 249.778593 167.277533 
L 250.098982 168.73899 
L 250.41937 169.089444 
L 250.739759 168.401075 
L 251.060148 166.80632 
L 251.700925 161.557552 
L 253.623258 141.936354 
L 254.264035 138.445886 
L 254.584424 137.717908 
L 254.904813 137.704444 
L 255.225201 138.400626 
L 255.54559 139.737552 
L 256.186367 143.90737 
L 257.788311 156.401651 
L 258.1087 157.892232 
L 258.429089 158.651813 
L 258.749477 158.56613 
L 259.069866 157.551959 
L 259.390255 155.529772 
L 260.031032 148.346219 
L 260.67181 137.295922 
L 261.632976 115.342449 
L 263.234919 77.352961 
L 263.875697 66.808653 
L 264.196085 63.332363 
L 264.516474 61.224213 
L 264.836863 60.559576 
L 265.157252 61.400829 
L 265.47764 63.76487 
L 265.798029 67.595651 
L 266.438807 79.2566 
L 267.399973 104.442437 
L 269.322305 159.91569 
L 269.963082 173.068221 
L 270.60386 181.303111 
L 270.924249 183.399865 
L 271.244637 184.122235 
L 271.565026 183.53153 
L 271.885415 181.722492 
L 272.526192 174.89917 
L 273.487358 159.318765 
L 274.768913 136.993853 
L 275.409691 128.478463 
L 276.050468 123.06118 
L 276.370857 121.605515 
L 276.691246 120.98817 
L 277.011634 121.163546 
L 277.332023 122.026695 
L 277.972801 125.321729 
L 279.574744 135.446865 
L 279.895133 136.463403 
L 280.215522 136.800689 
L 280.53591 136.382454 
L 280.856299 135.152782 
L 281.176688 133.065851 
L 281.817465 126.395496 
L 282.458243 116.936779 
L 284.700964 79.79474 
L 285.341741 74.480841 
L 285.66213 73.569191 
L 285.982519 73.967831 
L 286.302907 75.712501 
L 286.623296 78.812577 
L 287.264073 88.979471 
L 287.904851 103.70406 
L 289.186406 141.13606 
L 290.467961 176.542168 
L 291.108738 188.843194 
L 291.429127 193.023836 
L 291.749516 195.743978 
L 292.069904 196.971071 
L 292.390293 196.698734 
L 292.710682 194.944243 
L 293.03107 191.785538 
L 293.671848 181.82141 
L 294.633014 160.369929 
L 296.234958 122.001864 
L 296.875735 110.500227 
L 297.516513 102.842912 
L 297.836901 100.560669 
L 298.15729 99.289941 
L 298.477679 98.992143 
L 298.798067 99.574166 
L 299.118456 100.896343 
L 299.759234 105.188702 
L 301.361177 117.615002 
L 301.681566 119.092414 
L 302.001955 119.943039 
L 302.322343 120.119974 
L 302.642732 119.588676 
L 302.963121 118.335555 
L 303.603898 113.891883 
L 304.565064 103.984735 
L 305.526231 93.982865 
L 306.167008 89.679352 
L 306.487397 88.762732 
L 306.807785 88.830788 
L 307.128174 89.988229 
L 307.448563 92.3172 
L 308.08934 100.518175 
L 308.730118 113.13276 
L 309.691284 138.220079 
L 311.293228 182.712195 
L 311.934005 195.923736 
L 312.574782 204.054344 
L 312.895171 205.898741 
L 313.21556 206.147814 
L 313.535949 204.793431 
L 313.856337 201.880993 
L 314.497115 191.673685 
L 315.137892 176.572957 
L 316.419447 138.383593 
L 317.701002 102.381943 
L 318.341779 89.414153 
L 318.982557 81.1417 
L 319.302946 78.87566 
L 319.623334 77.809122 
L 319.943723 77.883265 
L 320.264112 79.009241 
L 320.5845 81.042569 
L 321.225278 87.15 
L 323.14761 109.054912 
L 323.788388 113.361904 
L 324.108776 114.555275 
L 324.429165 115.086706 
L 324.749554 114.975954 
L 325.069943 114.302559 
L 325.71072 111.713517 
L 326.992275 105.531499 
L 327.312664 104.741839 
L 327.633052 104.577473 
L 327.953441 105.18436 
L 328.27383 106.657046 
L 328.594218 109.060594 
L 329.234996 116.84837 
L 329.875773 128.434753 
L 330.83694 151.222806 
L 332.438883 191.168737 
L 333.079661 202.601925 
L 333.400049 206.515588 
L 333.720438 209.005073 
L 334.040827 209.975159 
L 334.361215 209.366981 
L 334.681604 207.139826 
L 335.001993 203.303009 
L 335.64277 191.156921 
L 336.283548 173.932332 
L 337.565103 130.96152 
L 338.846658 90.076552 
L 339.487435 75.046045 
L 340.128212 65.236384 
L 340.448601 62.452486 
L 340.76899 61.096964 
L 341.089379 61.102014 
L 341.409767 62.370149 
L 341.730156 64.793654 
L 342.370934 72.47447 
L 343.3321 88.159026 
L 344.613655 108.726238 
L 345.254432 116.086239 
L 345.895209 120.703059 
L 346.215598 121.984489 
L 346.535987 122.642269 
L 346.856376 122.786565 
L 347.176764 122.541133 
L 348.458319 120.466474 
L 348.778708 120.475522 
L 349.099097 120.98186 
L 349.419485 122.124273 
L 349.739874 124.002432 
L 350.380652 130.136442 
L 351.021429 139.515689 
L 351.982595 158.421493 
L 353.584539 192.263858 
L 354.225316 201.761612 
L 354.545705 204.844491 
L 354.866094 206.614677 
L 355.186482 206.937245 
L 355.506871 205.732095 
L 355.82726 202.98052 
L 356.147649 198.690747 
L 356.788426 185.690218 
L 357.429203 167.683137 
L 358.710758 123.03927 
L 359.992313 80.466044 
L 360.633091 64.797579 
L 361.273868 54.712772 
L 361.594257 51.961014 
L 361.914646 50.755678 
L 362.235034 51.078056 
L 362.555423 52.848027 
L 362.875812 55.93067 
L 363.516589 65.427959 
L 364.477755 85.078514 
L 365.75931 112.402387 
L 366.400088 123.256387 
L 367.040865 131.025124 
L 367.681642 135.564363 
L 368.002031 136.706575 
L 368.32242 137.21274 
L 368.642809 137.221639 
L 368.963197 136.86983 
L 369.924364 135.146522 
L 370.244752 134.90102 
L 370.565141 135.045261 
L 370.88553 135.703019 
L 371.205918 136.984455 
L 371.526307 138.946625 
L 372.167085 144.947973 
L 372.807862 153.558129 
L 375.370972 192.895539 
L 375.691361 195.319267 
L 376.011749 196.587649 
L 376.332138 196.592958 
L 376.652527 195.237687 
L 376.972915 192.454038 
L 377.613693 182.644913 
L 378.25447 167.61491 
L 379.215636 137.785279 
L 381.137969 74.595789 
L 381.778746 59.757489 
L 382.419524 50.554051 
L 382.739912 48.326976 
L 383.060301 47.718842 
L 383.38069 48.688949 
L 383.701079 51.178448 
L 384.341856 60.272192 
L 384.982633 73.657942 
L 387.545743 135.488647 
L 388.186521 145.240475 
L 388.827298 151.034618 
L 389.147687 152.507055 
L 389.468076 153.113675 
L 389.788464 152.949038 
L 390.108853 152.159122 
L 390.74963 149.35336 
L 391.710797 144.511511 
L 392.031185 143.386555 
L 392.351574 142.712929 
L 392.671963 142.601973 
L 392.992351 143.133213 
L 393.31274 144.326392 
L 393.953518 148.633066 
L 394.594295 155.139787 
L 396.516627 176.644897 
L 396.837016 178.678261 
L 397.157405 179.804279 
L 397.477794 179.878487 
L 397.798182 178.812049 
L 398.118571 176.546127 
L 398.43896 173.03398 
L 399.079737 162.331261 
L 399.720515 147.313034 
L 401.00207 109.365372 
L 402.283624 73.051765 
L 402.924402 60.216148 
L 403.565179 52.898214 
L 403.885568 51.544081 
L 404.205957 51.793411 
L 404.526345 53.638051 
L 404.846734 57.000351 
L 405.487512 67.818946 
L 406.448678 91.741501 
L 408.37101 144.561342 
L 409.011788 157.175927 
L 409.652565 165.376843 
L 409.972954 167.705735 
L 410.293342 168.863084 
L 410.613731 168.931042 
L 410.93412 168.014296 
L 411.254509 166.224393 
L 411.895286 160.663399 
L 413.817618 141.286451 
L 414.458396 138.102585 
L 414.778785 137.57102 
L 415.099173 137.747674 
L 415.419562 138.598027 
L 415.739951 140.07518 
L 416.380728 144.484091 
L 417.982672 156.792138 
L 418.30306 158.114131 
L 418.623449 158.695975 
L 418.943838 158.398003 
L 419.264227 157.12713 
L 419.584615 154.844771 
L 420.225393 147.187254 
L 420.86617 135.685518 
L 421.827336 113.382525 
L 423.42928 75.866401 
L 424.070057 65.902573 
L 424.390446 62.744049 
L 424.710835 60.989767 
L 425.031224 60.717641 
L 425.351612 61.944948 
L 425.672001 64.66533 
L 426.312778 74.391619 
L 426.953556 88.945927 
L 428.235111 126.335882 
L 429.516666 161.846136 
L 430.157443 174.435172 
L 430.798221 181.980744 
L 431.118609 183.725612 
L 431.438998 184.124419 
L 431.759387 183.212911 
L 432.079775 181.088793 
L 432.720553 173.797801 
L 433.681719 157.835081 
L 434.963274 135.727465 
L 435.604051 127.56899 
L 436.244829 122.540891 
L 436.565218 121.311051 
L 436.885606 120.892623 
L 437.205995 121.229715 
L 437.526384 122.246049 
L 438.167161 125.764378 
L 439.448716 134.237928 
L 439.769105 135.664403 
L 440.089494 136.52728 
L 440.409882 136.702368 
L 440.730271 136.084731 
L 441.05066 134.628792 
L 441.371048 132.334133 
L 442.011826 125.297675 
L 442.972992 109.993821 
L 444.574936 82.7884 
L 445.215713 75.964875 
L 445.536102 74.155754 
L 445.85649 73.564985 
L 446.176879 74.287329 
L 446.497268 76.384083 
L 446.817657 79.846904 
L 447.458434 90.629299 
L 448.099212 105.875276 
L 449.380766 143.659177 
L 450.341933 170.860547 
L 450.98271 184.893216 
L 451.623487 193.924933 
L 451.943876 196.289248 
L 452.264265 197.130779 
L 452.584654 196.46644 
L 452.905042 194.35859 
L 453.225431 190.882582 
L 453.866209 180.338844 
L 454.827375 158.445885 
L 456.429318 120.397782 
L 457.070096 109.3478 
L 457.710873 102.164482 
L 458.031262 100.142386 
L 458.351651 99.128268 
L 458.672039 99.042614 
L 458.992428 99.802219 
L 459.312817 101.292797 
L 459.953594 105.7896 
L 461.235149 116.085274 
L 461.875927 119.292927 
L 462.196315 119.988895 
L 462.516704 119.975204 
L 462.837093 119.246999 
L 463.157481 117.829841 
L 463.798259 113.097922 
L 464.759425 103.015147 
L 465.720591 93.218028 
L 466.361369 89.288652 
L 466.681757 88.600006 
L 467.002146 88.950186 
L 467.322535 90.411363 
L 467.642924 93.028725 
L 468.283701 101.821421 
L 468.924478 114.950502 
L 469.885645 140.515203 
L 471.487588 184.613971 
L 472.128366 197.279416 
L 472.769143 204.705081 
L 473.089532 206.15156 
L 473.409921 206.020098 
L 473.730309 204.285264 
L 474.050698 200.980147 
L 474.691475 190.102693 
L 475.332253 174.496431 
L 478.215751 93.835321 
L 478.856529 83.747123 
L 479.176918 80.527178 
L 479.497306 78.555165 
L 479.817695 77.793795 
L 480.138084 78.143028 
L 480.458472 79.487474 
L 481.09925 84.647482 
L 482.060416 95.831906 
L 483.021582 106.825559 
L 483.66236 112.036744 
L 483.982748 113.715705 
L 484.303137 114.718297 
L 484.623526 115.073869 
L 484.943914 114.825797 
L 485.264303 114.026952 
L 485.905081 111.241577 
L 486.866247 106.355277 
L 487.186636 105.198764 
L 487.507024 104.565813 
L 487.827413 104.58232 
L 488.147802 105.376301 
L 488.46819 107.07112 
L 488.788579 109.735167 
L 489.429357 118.002553 
L 490.070134 130.039342 
L 491.0313 153.205708 
L 492.633244 192.767811 
L 493.274021 203.643053 
L 493.59441 207.218729 
L 493.914799 209.361441 
L 494.235187 209.948126 
L 494.555576 208.924335 
L 494.875965 206.298362 
L 495.196354 202.096428 
L 495.837131 189.245483 
L 496.477908 171.519076 
L 499.361407 80.186913 
L 500.002184 68.334448 
L 500.322573 64.498048 
L 500.642962 62.073824 
L 500.963351 61.049148 
L 501.283739 61.385073 
L 501.604128 62.974473 
L 501.924517 65.662895 
L 502.565294 73.723118 
L 505.128404 113.702226 
L 505.769181 119.361265 
L 506.08957 121.125565 
L 506.409959 122.243548 
L 506.730348 122.774542 
L 507.050736 122.796767 
L 507.371125 122.445992 
L 508.65268 120.413984 
L 508.973069 120.534357 
L 509.293457 121.199495 
L 509.613846 122.503687 
L 509.934235 124.548403 
L 510.575012 131.102834 
L 511.21579 140.827739 
L 512.176956 160.101586 
L 513.778899 193.556302 
L 514.419677 202.568625 
L 514.740066 205.326096 
L 515.060454 206.727263 
L 515.380843 206.68394 
L 515.701232 205.111494 
L 516.02162 201.964637 
L 516.662398 191.133051 
L 517.303175 174.860938 
L 518.264342 143.249288 
L 519.866285 87.502939 
L 520.507063 70.058278 
L 521.14784 57.786068 
L 521.468229 53.870018 
L 521.788617 51.525978 
L 522.109006 50.730116 
L 522.429395 51.417897 
L 522.749784 53.520798 
L 523.390561 61.466489 
L 524.031338 73.137352 
L 526.27406 119.604737 
L 526.914837 128.594322 
L 527.555614 134.324214 
L 527.876003 135.99751 
L 528.196392 136.985035 
L 528.516781 137.36637 
L 528.837169 137.254003 
L 529.477947 136.223113 
L 530.118724 135.132801 
L 530.439113 134.955375 
L 530.759502 135.228708 
L 531.07989 136.04136 
L 531.400279 137.4661 
L 532.041057 142.421226 
L 532.681834 150.088535 
L 533.643 165.383702 
L 534.924555 186.333897 
L 535.565332 193.549286 
L 535.885721 195.708174 
L 536.20611 196.674426 
L 536.526499 196.321912 
L 536.846887 194.596607 
L 537.167276 191.467017 
L 537.808054 180.951506 
L 538.448831 165.328443 
L 539.409997 134.936955 
L 541.011941 81.284026 
L 541.652718 64.613374 
L 542.293496 53.200519 
L 542.613884 49.773188 
L 542.934273 47.935299 
L 543.254662 47.723777 
L 543.57505 49.107477 
L 543.895439 51.977561 
L 544.536217 61.67547 
L 545.497383 83.452388 
L 547.419715 130.919785 
L 548.060493 142.060855 
L 548.70127 149.381357 
L 549.021659 151.557895 
L 549.342047 152.790719 
L 549.662436 153.195913 
L 549.982825 152.889251 
L 550.303214 151.978686 
L 550.943991 149.011719 
L 551.905157 144.284833 
L 552.225546 143.261702 
L 552.545935 142.74435 
L 552.866323 142.792009 
L 553.186712 143.465039 
L 553.507101 144.819548 
L 554.147878 149.457362 
L 554.788656 156.146808 
L 556.390599 174.714704 
L 557.031377 179.099794 
L 557.351766 179.967507 
L 557.672154 179.780301 
L 557.992543 178.410547 
L 558.312932 175.80355 
L 558.953709 166.922292 
L 559.594487 153.37701 
L 560.555653 126.654537 
L 562.157596 78.933129 
L 562.798374 64.377195 
L 563.439151 54.832426 
L 563.75954 52.303986 
L 564.079929 51.368828 
L 564.400317 52.012197 
L 564.720706 54.217511 
L 565.041095 57.945358 
L 565.681872 69.410284 
L 566.643038 93.899736 
L 568.565371 146.251445 
L 569.206148 158.391017 
L 569.846926 165.990498 
L 570.167314 168.038266 
L 570.487703 168.946909 
L 570.808092 168.757916 
L 571.128481 167.595202 
L 571.769258 162.99474 
L 573.050813 149.326189 
L 573.69159 143.145591 
L 574.332368 139.052105 
L 574.652756 137.973755 
L 574.973145 137.605153 
L 575.293534 137.973121 
L 575.613923 139.016919 
L 576.2547 142.735011 
L 578.177032 157.322751 
L 578.497421 158.459909 
L 578.81781 158.810208 
L 579.138199 158.289687 
L 579.458587 156.790586 
L 579.778976 154.234669 
L 580.419753 146.052005 
L 581.060531 134.126041 
L 582.342086 103.385454 
L 583.303252 80.725619 
L 583.944029 69.124659 
L 584.584807 62.204673 
L 584.905196 60.787689 
L 585.225584 60.858354 
L 585.545973 62.469632 
L 585.866362 65.572214 
L 586.507139 75.909036 
L 587.147917 90.996629 
L 588.429471 128.699594 
L 589.390638 155.925198 
L 590.031415 170.13393 
L 590.672193 179.656476 
L 590.992581 182.435595 
L 591.31297 183.818025 
L 591.633359 183.863932 
L 591.953747 182.661835 
L 592.274136 180.277363 
L 592.914914 172.501875 
L 593.87608 156.266133 
L 595.157635 134.471107 
L 595.798412 126.693733 
L 596.43919 122.100982 
L 596.759578 121.071962 
L 597.079967 120.885448 
L 597.400356 121.428516 
L 597.720744 122.579364 
L 598.361522 126.314778 
L 599.643077 134.704107 
L 599.963465 136.026192 
L 600.283854 136.708893 
L 600.604243 136.68797 
L 600.924632 135.901191 
L 601.24502 134.25757 
L 601.885798 128.398125 
L 602.526575 119.603815 
L 605.089685 78.226426 
L 605.410074 75.535064 
L 605.730462 74.007074 
L 606.050851 73.765715 
L 606.37124 74.834906 
L 606.691629 77.237728 
L 607.012017 81.017345 
L 607.652795 92.441566 
L 608.293572 108.093151 
L 611.177071 186.319787 
L 611.817848 194.606919 
L 612.138237 196.574899 
L 612.458626 197.061265 
L 612.779014 196.024131 
L 613.099403 193.518139 
L 613.74018 184.706935 
L 614.380958 171.728313 
L 616.944068 112.88627 
L 617.584845 104.227046 
L 617.905234 101.416824 
L 618.225623 99.614417 
L 618.546011 98.842127 
L 618.8664 99.020027 
L 619.186789 99.979297 
L 619.827566 103.767711 
L 621.749899 118.276956 
L 622.070287 119.432152 
L 622.390676 119.97035 
L 622.711065 119.831421 
L 623.031453 118.936725 
L 623.351842 117.321929 
L 623.99262 112.382919 
L 626.235341 90.486378 
L 626.555729 89.159146 
L 626.876118 88.722694 
L 627.196507 89.312117 
L 627.516895 91.078652 
L 627.837284 94.046134 
L 628.478062 103.380853 
L 629.118839 117.061661 
L 630.080005 143.002025 
L 631.681949 186.657308 
L 632.322726 198.672633 
L 632.643115 202.772753 
L 632.963504 205.415609 
L 633.283892 206.445245 
L 633.604281 205.857766 
L 633.92467 203.73341 
L 634.245059 200.086722 
L 634.885836 188.458448 
L 635.847002 163.145053 
L 637.769335 106.322352 
L 638.410112 92.265824 
L 639.050889 82.722245 
L 639.371278 79.847243 
L 639.691667 78.139974 
L 640.012056 77.602945 
L 640.332444 78.22754 
L 640.652833 79.839119 
L 641.293611 85.23826 
L 643.536332 110.108638 
L 644.177109 113.771754 
L 644.497498 114.658539 
L 644.817886 114.820519 
L 645.138275 114.38014 
L 645.458664 113.502112 
L 646.099441 110.598458 
L 647.060607 105.866399 
L 647.380996 104.79324 
L 647.701385 104.273134 
L 648.021774 104.533091 
L 648.342162 105.60853 
L 648.662551 107.509052 
L 648.98294 110.384307 
L 649.623717 119.279412 
L 650.264495 131.679581 
L 651.54605 163.725486 
L 652.507216 187.735117 
L 653.147993 200.271031 
L 653.788771 208.089135 
L 654.109159 209.821468 
L 654.429548 210.095678 
L 654.749937 208.741064 
L 655.070326 205.667021 
L 655.711103 195.042655 
L 656.35188 178.978907 
L 657.313047 148.187672 
L 658.91499 94.989312 
L 659.555768 78.840919 
L 660.196545 67.614703 
L 660.516934 64.071523 
L 660.837323 62.086693 
L 661.157711 61.447527 
L 661.4781 61.991709 
L 661.798489 63.801296 
L 662.439266 70.70837 
L 663.080044 80.202577 
L 664.681987 106.687135 
L 665.322765 114.517469 
L 665.963542 119.82064 
L 666.283931 121.422199 
L 666.604319 122.189183 
L 666.924708 122.48067 
L 667.245097 122.499983 
L 667.565486 122.079231 
L 668.206263 120.538184 
L 668.847041 119.933055 
L 669.167429 119.927492 
L 669.487818 120.627426 
L 669.808207 122.24412 
L 670.448984 127.258312 
L 671.089762 135.871768 
L 672.050928 153.493907 
L 673.652871 187.732494 
L 674.293649 197.682962 
L 674.934426 204.044002 
L 675.254815 205.060572 
L 675.575204 204.029213 
L 675.895592 201.931924 
L 676.215981 198.9585 
L 676.53637 193.865527 
L 677.177147 178.483471 
L 677.177147 178.483471 
" style="fill:none;stroke:#00ff00;stroke-linecap:square;stroke-width:1.5;"/>
   </g>
   <g id="line2d_13">
    <path clip-path="url(#p4ee887d518)" d="M 677.497536 167.67709 
L 677.817925 160.389103 
L 678.138313 154.106677 
L 678.458702 148.503826 
L 678.779091 144.664827 
" style="fill:none;stroke:#00ffff;stroke-linecap:square;stroke-width:1.5;"/>
   </g>
   <g id="patch_3">
    <path d="M 39.94 218.21452 
L 39.94 39.6 
" style="fill:none;stroke:#ffffff;stroke-linecap:square;stroke-linejoin:miter;stroke-width:0.8;"/>
   </g>
   <g id="patch_4">
    <path d="M 709.2 218.21452 
L 709.2 39.6 
" style="fill:none;stroke:#ffffff;stroke-linecap:square;stroke-linejoin:miter;stroke-width:0.8;"/>
   </g>
   <g id="patch_5">
    <path d="M 39.94 218.21452 
L 709.2 218.21452 
" style="fill:none;stroke:#ffffff;stroke-linecap:square;stroke-linejoin:miter;stroke-width:0.8;"/>
   </g>
   <g id="patch_6">
    <path d="M 39.94 39.6 
L 709.2 39.6 
" style="fill:none;stroke:#ffffff;stroke-linecap:square;stroke-linejoin:miter;stroke-width:0.8;"/>
   </g>
  </g>
  <g id="axes_2">
   <g id="patch_7">
    <path d="M 39.94 486.41452 
L 709.2 486.41452 
L 709.2 307.8 
L 39.94 307.8 
z
" style="fill:#121212;"/>
   </g>
   <g id="PolyCollection_2">
    <defs>
     <path d="M 666.54958 -146.139646 
L 666.54958 -141.941472 
L 669.606958 -148.126228 
L 672.664335 -151.851969 
L 675.721713 -154.765638 
L 678.779091 -153.925561 
L 678.779091 -184.430768 
L 678.779091 -184.430768 
L 675.721713 -175.203576 
L 672.664335 -165.87662 
L 669.606958 -155.877062 
L 666.54958 -146.139646 
z
" id="m60d2c5d15c" style="stroke:#00ffff;stroke-opacity:0.2;"/>
    </defs>
    <g clip-path="url(#p1a3fce4fe6)">
     <use style="fill:#00ffff;fill-opacity:0.2;stroke:#00ffff;stroke-opacity:0.2;" x="0" xlink:href="#m60d2c5d15c" y="576"/>
    </g>
   </g>
   <g id="matplotlib.axis_3">
    <g id="xtick_6">
     <g id="line2d_14">
      <g>
       <use style="fill:#ffffff;stroke:#ffffff;stroke-width:0.8;" x="70.360909" xlink:href="#mc3c5bf636f" y="486.41452"/>
      </g>
     </g>
     <g id="text_11">
      <!-- 2020-03-16 -->
      <defs>
       <path d="M 33.015625 40.375 
Q 26.375 40.375 22.484375 35.828125 
Q 18.609375 31.296875 18.609375 23.390625 
Q 18.609375 15.53125 22.484375 10.953125 
Q 26.375 6.390625 33.015625 6.390625 
Q 39.65625 6.390625 43.53125 10.953125 
Q 47.40625 15.53125 47.40625 23.390625 
Q 47.40625 31.296875 43.53125 35.828125 
Q 39.65625 40.375 33.015625 40.375 
z
M 52.59375 71.296875 
L 52.59375 62.3125 
Q 48.875 64.0625 45.09375 64.984375 
Q 41.3125 65.921875 37.59375 65.921875 
Q 27.828125 65.921875 22.671875 59.328125 
Q 17.53125 52.734375 16.796875 39.40625 
Q 19.671875 43.65625 24.015625 45.921875 
Q 28.375 48.1875 33.59375 48.1875 
Q 44.578125 48.1875 50.953125 41.515625 
Q 57.328125 34.859375 57.328125 23.390625 
Q 57.328125 12.15625 50.6875 5.359375 
Q 44.046875 -1.421875 33.015625 -1.421875 
Q 20.359375 -1.421875 13.671875 8.265625 
Q 6.984375 17.96875 6.984375 36.375 
Q 6.984375 53.65625 15.1875 63.9375 
Q 23.390625 74.21875 37.203125 74.21875 
Q 40.921875 74.21875 44.703125 73.484375 
Q 48.484375 72.75 52.59375 71.296875 
z
" id="DejaVuSans-54"/>
      </defs>
      <g style="fill:#ffffff;" transform="translate(42.467204 563.114808)rotate(-45)scale(0.15 -0.15)">
       <use xlink:href="#DejaVuSans-50"/>
       <use x="63.623047" xlink:href="#DejaVuSans-48"/>
       <use x="127.246094" xlink:href="#DejaVuSans-50"/>
       <use x="190.869141" xlink:href="#DejaVuSans-48"/>
       <use x="254.492188" xlink:href="#DejaVuSans-45"/>
       <use x="290.576172" xlink:href="#DejaVuSans-48"/>
       <use x="354.199219" xlink:href="#DejaVuSans-51"/>
       <use x="417.822266" xlink:href="#DejaVuSans-45"/>
       <use x="453.90625" xlink:href="#DejaVuSans-49"/>
       <use x="517.529297" xlink:href="#DejaVuSans-54"/>
      </g>
     </g>
    </g>
    <g id="xtick_7">
     <g id="line2d_15">
      <g>
       <use style="fill:#ffffff;stroke:#ffffff;stroke-width:0.8;" x="143.737976" xlink:href="#mc3c5bf636f" y="486.41452"/>
      </g>
     </g>
     <g id="text_12">
      <!-- 2020-03-17 -->
      <defs>
       <path d="M 8.203125 72.90625 
L 55.078125 72.90625 
L 55.078125 68.703125 
L 28.609375 0 
L 18.3125 0 
L 43.21875 64.59375 
L 8.203125 64.59375 
z
" id="DejaVuSans-55"/>
      </defs>
      <g style="fill:#ffffff;" transform="translate(115.844271 563.114808)rotate(-45)scale(0.15 -0.15)">
       <use xlink:href="#DejaVuSans-50"/>
       <use x="63.623047" xlink:href="#DejaVuSans-48"/>
       <use x="127.246094" xlink:href="#DejaVuSans-50"/>
       <use x="190.869141" xlink:href="#DejaVuSans-48"/>
       <use x="254.492188" xlink:href="#DejaVuSans-45"/>
       <use x="290.576172" xlink:href="#DejaVuSans-48"/>
       <use x="354.199219" xlink:href="#DejaVuSans-51"/>
       <use x="417.822266" xlink:href="#DejaVuSans-45"/>
       <use x="453.90625" xlink:href="#DejaVuSans-49"/>
       <use x="517.529297" xlink:href="#DejaVuSans-55"/>
      </g>
     </g>
    </g>
    <g id="xtick_8">
     <g id="line2d_16">
      <g>
       <use style="fill:#ffffff;stroke:#ffffff;stroke-width:0.8;" x="217.115043" xlink:href="#mc3c5bf636f" y="486.41452"/>
      </g>
     </g>
     <g id="text_13">
      <!-- 2020-03-18 -->
      <defs>
       <path d="M 31.78125 34.625 
Q 24.75 34.625 20.71875 30.859375 
Q 16.703125 27.09375 16.703125 20.515625 
Q 16.703125 13.921875 20.71875 10.15625 
Q 24.75 6.390625 31.78125 6.390625 
Q 38.8125 6.390625 42.859375 10.171875 
Q 46.921875 13.96875 46.921875 20.515625 
Q 46.921875 27.09375 42.890625 30.859375 
Q 38.875 34.625 31.78125 34.625 
z
M 21.921875 38.8125 
Q 15.578125 40.375 12.03125 44.71875 
Q 8.5 49.078125 8.5 55.328125 
Q 8.5 64.0625 14.71875 69.140625 
Q 20.953125 74.21875 31.78125 74.21875 
Q 42.671875 74.21875 48.875 69.140625 
Q 55.078125 64.0625 55.078125 55.328125 
Q 55.078125 49.078125 51.53125 44.71875 
Q 48 40.375 41.703125 38.8125 
Q 48.828125 37.15625 52.796875 32.3125 
Q 56.78125 27.484375 56.78125 20.515625 
Q 56.78125 9.90625 50.3125 4.234375 
Q 43.84375 -1.421875 31.78125 -1.421875 
Q 19.734375 -1.421875 13.25 4.234375 
Q 6.78125 9.90625 6.78125 20.515625 
Q 6.78125 27.484375 10.78125 32.3125 
Q 14.796875 37.15625 21.921875 38.8125 
z
M 18.3125 54.390625 
Q 18.3125 48.734375 21.84375 45.5625 
Q 25.390625 42.390625 31.78125 42.390625 
Q 38.140625 42.390625 41.71875 45.5625 
Q 45.3125 48.734375 45.3125 54.390625 
Q 45.3125 60.0625 41.71875 63.234375 
Q 38.140625 66.40625 31.78125 66.40625 
Q 25.390625 66.40625 21.84375 63.234375 
Q 18.3125 60.0625 18.3125 54.390625 
z
" id="DejaVuSans-56"/>
      </defs>
      <g style="fill:#ffffff;" transform="translate(189.221338 563.114808)rotate(-45)scale(0.15 -0.15)">
       <use xlink:href="#DejaVuSans-50"/>
       <use x="63.623047" xlink:href="#DejaVuSans-48"/>
       <use x="127.246094" xlink:href="#DejaVuSans-50"/>
       <use x="190.869141" xlink:href="#DejaVuSans-48"/>
       <use x="254.492188" xlink:href="#DejaVuSans-45"/>
       <use x="290.576172" xlink:href="#DejaVuSans-48"/>
       <use x="354.199219" xlink:href="#DejaVuSans-51"/>
       <use x="417.822266" xlink:href="#DejaVuSans-45"/>
       <use x="453.90625" xlink:href="#DejaVuSans-49"/>
       <use x="517.529297" xlink:href="#DejaVuSans-56"/>
      </g>
     </g>
    </g>
    <g id="xtick_9">
     <g id="line2d_17">
      <g>
       <use style="fill:#ffffff;stroke:#ffffff;stroke-width:0.8;" x="290.492111" xlink:href="#mc3c5bf636f" y="486.41452"/>
      </g>
     </g>
     <g id="text_14">
      <!-- 2020-03-19 -->
      <defs>
       <path d="M 10.984375 1.515625 
L 10.984375 10.5 
Q 14.703125 8.734375 18.5 7.8125 
Q 22.3125 6.890625 25.984375 6.890625 
Q 35.75 6.890625 40.890625 13.453125 
Q 46.046875 20.015625 46.78125 33.40625 
Q 43.953125 29.203125 39.59375 26.953125 
Q 35.25 24.703125 29.984375 24.703125 
Q 19.046875 24.703125 12.671875 31.3125 
Q 6.296875 37.9375 6.296875 49.421875 
Q 6.296875 60.640625 12.9375 67.421875 
Q 19.578125 74.21875 30.609375 74.21875 
Q 43.265625 74.21875 49.921875 64.515625 
Q 56.59375 54.828125 56.59375 36.375 
Q 56.59375 19.140625 48.40625 8.859375 
Q 40.234375 -1.421875 26.421875 -1.421875 
Q 22.703125 -1.421875 18.890625 -0.6875 
Q 15.09375 0.046875 10.984375 1.515625 
z
M 30.609375 32.421875 
Q 37.25 32.421875 41.125 36.953125 
Q 45.015625 41.5 45.015625 49.421875 
Q 45.015625 57.28125 41.125 61.84375 
Q 37.25 66.40625 30.609375 66.40625 
Q 23.96875 66.40625 20.09375 61.84375 
Q 16.21875 57.28125 16.21875 49.421875 
Q 16.21875 41.5 20.09375 36.953125 
Q 23.96875 32.421875 30.609375 32.421875 
z
" id="DejaVuSans-57"/>
      </defs>
      <g style="fill:#ffffff;" transform="translate(262.598405 563.114808)rotate(-45)scale(0.15 -0.15)">
       <use xlink:href="#DejaVuSans-50"/>
       <use x="63.623047" xlink:href="#DejaVuSans-48"/>
       <use x="127.246094" xlink:href="#DejaVuSans-50"/>
       <use x="190.869141" xlink:href="#DejaVuSans-48"/>
       <use x="254.492188" xlink:href="#DejaVuSans-45"/>
       <use x="290.576172" xlink:href="#DejaVuSans-48"/>
       <use x="354.199219" xlink:href="#DejaVuSans-51"/>
       <use x="417.822266" xlink:href="#DejaVuSans-45"/>
       <use x="453.90625" xlink:href="#DejaVuSans-49"/>
       <use x="517.529297" xlink:href="#DejaVuSans-57"/>
      </g>
     </g>
    </g>
    <g id="xtick_10">
     <g id="line2d_18">
      <g>
       <use style="fill:#ffffff;stroke:#ffffff;stroke-width:0.8;" x="363.869178" xlink:href="#mc3c5bf636f" y="486.41452"/>
      </g>
     </g>
     <g id="text_15">
      <!-- 2020-03-20 -->
      <g style="fill:#ffffff;" transform="translate(335.975472 563.114808)rotate(-45)scale(0.15 -0.15)">
       <use xlink:href="#DejaVuSans-50"/>
       <use x="63.623047" xlink:href="#DejaVuSans-48"/>
       <use x="127.246094" xlink:href="#DejaVuSans-50"/>
       <use x="190.869141" xlink:href="#DejaVuSans-48"/>
       <use x="254.492188" xlink:href="#DejaVuSans-45"/>
       <use x="290.576172" xlink:href="#DejaVuSans-48"/>
       <use x="354.199219" xlink:href="#DejaVuSans-51"/>
       <use x="417.822266" xlink:href="#DejaVuSans-45"/>
       <use x="453.90625" xlink:href="#DejaVuSans-50"/>
       <use x="517.529297" xlink:href="#DejaVuSans-48"/>
      </g>
     </g>
    </g>
    <g id="xtick_11">
     <g id="line2d_19">
      <g>
       <use style="fill:#ffffff;stroke:#ffffff;stroke-width:0.8;" x="437.246245" xlink:href="#mc3c5bf636f" y="486.41452"/>
      </g>
     </g>
     <g id="text_16">
      <!-- 2020-03-21 -->
      <g style="fill:#ffffff;" transform="translate(409.35254 563.114808)rotate(-45)scale(0.15 -0.15)">
       <use xlink:href="#DejaVuSans-50"/>
       <use x="63.623047" xlink:href="#DejaVuSans-48"/>
       <use x="127.246094" xlink:href="#DejaVuSans-50"/>
       <use x="190.869141" xlink:href="#DejaVuSans-48"/>
       <use x="254.492188" xlink:href="#DejaVuSans-45"/>
       <use x="290.576172" xlink:href="#DejaVuSans-48"/>
       <use x="354.199219" xlink:href="#DejaVuSans-51"/>
       <use x="417.822266" xlink:href="#DejaVuSans-45"/>
       <use x="453.90625" xlink:href="#DejaVuSans-50"/>
       <use x="517.529297" xlink:href="#DejaVuSans-49"/>
      </g>
     </g>
    </g>
    <g id="xtick_12">
     <g id="line2d_20">
      <g>
       <use style="fill:#ffffff;stroke:#ffffff;stroke-width:0.8;" x="510.623312" xlink:href="#mc3c5bf636f" y="486.41452"/>
      </g>
     </g>
     <g id="text_17">
      <!-- 2020-03-22 -->
      <g style="fill:#ffffff;" transform="translate(482.729607 563.114808)rotate(-45)scale(0.15 -0.15)">
       <use xlink:href="#DejaVuSans-50"/>
       <use x="63.623047" xlink:href="#DejaVuSans-48"/>
       <use x="127.246094" xlink:href="#DejaVuSans-50"/>
       <use x="190.869141" xlink:href="#DejaVuSans-48"/>
       <use x="254.492188" xlink:href="#DejaVuSans-45"/>
       <use x="290.576172" xlink:href="#DejaVuSans-48"/>
       <use x="354.199219" xlink:href="#DejaVuSans-51"/>
       <use x="417.822266" xlink:href="#DejaVuSans-45"/>
       <use x="453.90625" xlink:href="#DejaVuSans-50"/>
       <use x="517.529297" xlink:href="#DejaVuSans-50"/>
      </g>
     </g>
    </g>
    <g id="xtick_13">
     <g id="line2d_21">
      <g>
       <use style="fill:#ffffff;stroke:#ffffff;stroke-width:0.8;" x="584.000379" xlink:href="#mc3c5bf636f" y="486.41452"/>
      </g>
     </g>
     <g id="text_18">
      <!-- 2020-03-23 -->
      <g style="fill:#ffffff;" transform="translate(556.106674 563.114808)rotate(-45)scale(0.15 -0.15)">
       <use xlink:href="#DejaVuSans-50"/>
       <use x="63.623047" xlink:href="#DejaVuSans-48"/>
       <use x="127.246094" xlink:href="#DejaVuSans-50"/>
       <use x="190.869141" xlink:href="#DejaVuSans-48"/>
       <use x="254.492188" xlink:href="#DejaVuSans-45"/>
       <use x="290.576172" xlink:href="#DejaVuSans-48"/>
       <use x="354.199219" xlink:href="#DejaVuSans-51"/>
       <use x="417.822266" xlink:href="#DejaVuSans-45"/>
       <use x="453.90625" xlink:href="#DejaVuSans-50"/>
       <use x="517.529297" xlink:href="#DejaVuSans-51"/>
      </g>
     </g>
    </g>
    <g id="xtick_14">
     <g id="line2d_22">
      <g>
       <use style="fill:#ffffff;stroke:#ffffff;stroke-width:0.8;" x="657.377446" xlink:href="#mc3c5bf636f" y="486.41452"/>
      </g>
     </g>
     <g id="text_19">
      <!-- 2020-03-24 -->
      <g style="fill:#ffffff;" transform="translate(629.483741 563.114808)rotate(-45)scale(0.15 -0.15)">
       <use xlink:href="#DejaVuSans-50"/>
       <use x="63.623047" xlink:href="#DejaVuSans-48"/>
       <use x="127.246094" xlink:href="#DejaVuSans-50"/>
       <use x="190.869141" xlink:href="#DejaVuSans-48"/>
       <use x="254.492188" xlink:href="#DejaVuSans-45"/>
       <use x="290.576172" xlink:href="#DejaVuSans-48"/>
       <use x="354.199219" xlink:href="#DejaVuSans-51"/>
       <use x="417.822266" xlink:href="#DejaVuSans-45"/>
       <use x="453.90625" xlink:href="#DejaVuSans-50"/>
       <use x="517.529297" xlink:href="#DejaVuSans-52"/>
      </g>
     </g>
    </g>
   </g>
   <g id="matplotlib.axis_4">
    <g id="ytick_6">
     <g id="line2d_23">
      <g>
       <use style="fill:#ffffff;stroke:#ffffff;stroke-width:0.8;" x="39.94" xlink:href="#mdf3e6bcde1" y="464.134945"/>
      </g>
     </g>
     <g id="text_20">
      <!-- −4 -->
      <g style="fill:#ffffff;" transform="translate(10.826719 469.833773)scale(0.15 -0.15)">
       <use xlink:href="#DejaVuSans-8722"/>
       <use x="83.789062" xlink:href="#DejaVuSans-52"/>
      </g>
     </g>
    </g>
    <g id="ytick_7">
     <g id="line2d_24">
      <g>
       <use style="fill:#ffffff;stroke:#ffffff;stroke-width:0.8;" x="39.94" xlink:href="#mdf3e6bcde1" y="426.83815"/>
      </g>
     </g>
     <g id="text_21">
      <!-- −2 -->
      <g style="fill:#ffffff;" transform="translate(10.826719 432.536978)scale(0.15 -0.15)">
       <use xlink:href="#DejaVuSans-8722"/>
       <use x="83.789062" xlink:href="#DejaVuSans-50"/>
      </g>
     </g>
    </g>
    <g id="ytick_8">
     <g id="line2d_25">
      <g>
       <use style="fill:#ffffff;stroke:#ffffff;stroke-width:0.8;" x="39.94" xlink:href="#mdf3e6bcde1" y="389.541354"/>
      </g>
     </g>
     <g id="text_22">
      <!-- 0 -->
      <g style="fill:#ffffff;" transform="translate(23.39625 395.240183)scale(0.15 -0.15)">
       <use xlink:href="#DejaVuSans-48"/>
      </g>
     </g>
    </g>
    <g id="ytick_9">
     <g id="line2d_26">
      <g>
       <use style="fill:#ffffff;stroke:#ffffff;stroke-width:0.8;" x="39.94" xlink:href="#mdf3e6bcde1" y="352.244559"/>
      </g>
     </g>
     <g id="text_23">
      <!-- 2 -->
      <g style="fill:#ffffff;" transform="translate(23.39625 357.943387)scale(0.15 -0.15)">
       <use xlink:href="#DejaVuSans-50"/>
      </g>
     </g>
    </g>
    <g id="ytick_10">
     <g id="line2d_27">
      <g>
       <use style="fill:#ffffff;stroke:#ffffff;stroke-width:0.8;" x="39.94" xlink:href="#mdf3e6bcde1" y="314.947764"/>
      </g>
     </g>
     <g id="text_24">
      <!-- 4 -->
      <g style="fill:#ffffff;" transform="translate(23.39625 320.646592)scale(0.15 -0.15)">
       <use xlink:href="#DejaVuSans-52"/>
      </g>
     </g>
    </g>
   </g>
   <g id="line2d_28">
    <path clip-path="url(#p1a3fce4fe6)" d="M 666.54958 435.063463 
L 669.606958 424.073341 
L 672.664335 410.107783 
L 675.721713 397.6127 
L 678.779091 391.114885 
" style="fill:none;stroke:#0000ff;stroke-linecap:square;stroke-width:1.5;"/>
   </g>
   <g id="line2d_29">
    <path clip-path="url(#p1a3fce4fe6)" d="M 70.360909 419.558193 
L 76.475665 401.949516 
L 79.533042 393.509104 
L 82.59042 385.630985 
L 85.647798 378.442959 
L 88.705176 372.108309 
L 91.762554 366.817065 
L 94.819931 362.649346 
L 97.877309 359.57958 
L 100.934687 357.610708 
L 103.992065 356.767092 
L 107.049443 356.961423 
L 110.10682 358.009287 
L 113.164198 359.771484 
L 116.221576 362.147588 
L 119.278954 364.944804 
L 125.393709 370.830368 
L 128.451087 373.617228 
L 131.508465 376.079459 
L 134.565843 377.996862 
L 137.623221 379.258749 
L 140.680598 379.846653 
L 143.737976 379.694893 
L 146.795354 378.717565 
L 149.852732 376.953631 
L 152.91011 374.538932 
L 155.967487 371.55847 
L 159.024865 368.072605 
L 168.196999 356.595446 
L 171.254376 353.057037 
L 174.311754 349.981662 
L 177.369132 347.639632 
L 180.42651 346.189821 
L 183.483888 345.71306 
L 186.541265 346.35692 
L 189.598643 348.286607 
L 192.656021 351.528156 
L 195.713399 356.011973 
L 198.770777 361.725 
L 201.828154 368.661366 
L 204.885532 376.669326 
L 207.94291 385.506962 
L 211.000288 395.002671 
L 223.229799 435.104729 
L 226.287177 444.316145 
L 229.344555 452.692613 
L 232.401932 459.918008 
L 235.45931 465.817636 
L 238.516688 470.29643 
L 241.574066 473.183372 
L 244.631444 474.308102 
L 247.688821 473.666366 
L 250.746199 471.345811 
L 253.803577 467.362326 
L 256.860955 461.737547 
L 259.918333 454.6601 
L 262.97571 446.397899 
L 266.033088 437.126513 
L 269.090466 427.008838 
L 284.377355 374.131396 
L 287.434733 364.938168 
L 290.492111 356.730044 
L 293.549488 349.583422 
L 296.606866 343.672324 
L 299.664244 339.158427 
L 302.721622 336.017899 
L 305.779 334.152952 
L 308.836377 333.566325 
L 311.893755 334.248606 
L 314.951133 336.009025 
L 318.008511 338.60165 
L 321.065889 341.906814 
L 324.123266 345.81334 
L 333.2954 358.513389 
L 336.352778 362.517117 
L 339.410155 366.109864 
L 342.467533 369.074143 
L 345.524911 371.386521 
L 348.582289 373.075574 
L 351.639667 374.044259 
L 354.697044 374.221199 
L 357.754422 373.740148 
L 360.8118 372.781028 
L 363.869178 371.384536 
L 373.041311 365.951405 
L 376.098689 364.440104 
L 379.156067 363.267832 
L 382.213444 362.69969 
L 385.270822 362.983656 
L 388.3282 364.158419 
L 391.385578 366.234467 
L 394.442956 369.375272 
L 397.500333 373.699572 
L 400.557711 379.091901 
L 403.615089 385.402745 
L 406.672467 392.637312 
L 409.729845 400.749516 
L 415.8446 418.460423 
L 425.016734 445.709734 
L 428.074111 453.869964 
L 431.131489 461.201227 
L 434.188867 467.563657 
L 437.246245 472.622349 
L 440.303623 476.103817 
L 443.361 477.996143 
L 446.418378 478.295678 
L 449.475756 476.815956 
L 452.533134 473.458004 
L 455.590512 468.406851 
L 458.647889 461.852404 
L 461.705267 453.789994 
L 464.762645 444.305058 
L 467.820023 433.765667 
L 470.877401 422.516066 
L 476.992156 398.414116 
L 483.106912 374.40713 
L 486.16429 363.14228 
L 489.221667 352.558443 
L 492.279045 343.054753 
L 495.336423 334.918634 
L 498.393801 328.116664 
L 501.451179 322.6556 
L 504.508556 318.785183 
L 507.565934 316.61704 
L 510.623312 315.918842 
L 513.68069 316.513283 
L 516.738068 318.489998 
L 519.795445 321.796567 
L 522.852823 326.034988 
L 525.910201 330.901546 
L 528.967579 336.406051 
L 538.139712 354.334653 
L 541.19709 359.966141 
L 544.254468 365.336641 
L 547.311846 370.046807 
L 550.369223 373.89016 
L 553.426601 377.076418 
L 556.483979 379.683115 
L 559.541357 381.43259 
L 562.598735 382.27041 
L 565.656112 382.588818 
L 568.71349 382.609915 
L 571.770868 382.150303 
L 577.885624 380.46693 
L 580.943001 380.045786 
L 584.000379 379.805914 
L 587.057757 379.799836 
L 590.115135 380.564414 
L 593.172513 382.330421 
L 596.22989 384.764968 
L 599.287268 387.807709 
L 602.344646 391.927901 
L 605.402024 397.216677 
L 608.459402 403.116013 
L 611.516779 409.401015 
L 614.574157 416.466342 
L 620.688913 431.995218 
L 629.861046 453.867099 
L 632.918424 460.023325 
L 635.975802 464.736562 
L 639.03318 468.629934 
L 642.090557 471.685088 
L 645.147935 472.795546 
L 648.205313 471.668933 
L 651.262691 469.377945 
L 654.320069 466.129905 
L 657.377446 460.56656 
L 660.434824 452.472617 
L 663.492202 443.763865 
L 663.492202 443.763865 
" style="fill:none;stroke:#00ff00;stroke-linecap:square;stroke-width:1.5;"/>
   </g>
   <g id="line2d_30">
    <path clip-path="url(#p1a3fce4fe6)" d="M 666.54958 431.95944 
L 669.606958 423.998357 
L 672.664335 417.135705 
L 675.721713 411.015393 
L 678.779091 406.821835 
" style="fill:none;stroke:#00ffff;stroke-linecap:square;stroke-width:1.5;"/>
   </g>
   <g id="patch_8">
    <path d="M 39.94 486.41452 
L 39.94 307.8 
" style="fill:none;stroke:#ffffff;stroke-linecap:square;stroke-linejoin:miter;stroke-width:0.8;"/>
   </g>
   <g id="patch_9">
    <path d="M 709.2 486.41452 
L 709.2 307.8 
" style="fill:none;stroke:#ffffff;stroke-linecap:square;stroke-linejoin:miter;stroke-width:0.8;"/>
   </g>
   <g id="patch_10">
    <path d="M 39.94 486.41452 
L 709.2 486.41452 
" style="fill:none;stroke:#ffffff;stroke-linecap:square;stroke-linejoin:miter;stroke-width:0.8;"/>
   </g>
   <g id="patch_11">
    <path d="M 39.94 307.8 
L 709.2 307.8 
" style="fill:none;stroke:#ffffff;stroke-linecap:square;stroke-linejoin:miter;stroke-width:0.8;"/>
   </g>
  </g>
  <g id="text_25">
   <!-- High Frequency Time Series Forecasting -->
   <defs>
    <path d="M 9.8125 72.90625 
L 19.671875 72.90625 
L 19.671875 43.015625 
L 55.515625 43.015625 
L 55.515625 72.90625 
L 65.375 72.90625 
L 65.375 0 
L 55.515625 0 
L 55.515625 34.71875 
L 19.671875 34.71875 
L 19.671875 0 
L 9.8125 0 
z
" id="DejaVuSans-72"/>
    <path d="M 9.421875 54.6875 
L 18.40625 54.6875 
L 18.40625 0 
L 9.421875 0 
z
M 9.421875 75.984375 
L 18.40625 75.984375 
L 18.40625 64.59375 
L 9.421875 64.59375 
z
" id="DejaVuSans-105"/>
    <path d="M 45.40625 27.984375 
Q 45.40625 37.75 41.375 43.109375 
Q 37.359375 48.484375 30.078125 48.484375 
Q 22.859375 48.484375 18.828125 43.109375 
Q 14.796875 37.75 14.796875 27.984375 
Q 14.796875 18.265625 18.828125 12.890625 
Q 22.859375 7.515625 30.078125 7.515625 
Q 37.359375 7.515625 41.375 12.890625 
Q 45.40625 18.265625 45.40625 27.984375 
z
M 54.390625 6.78125 
Q 54.390625 -7.171875 48.1875 -13.984375 
Q 42 -20.796875 29.203125 -20.796875 
Q 24.46875 -20.796875 20.265625 -20.09375 
Q 16.0625 -19.390625 12.109375 -17.921875 
L 12.109375 -9.1875 
Q 16.0625 -11.328125 19.921875 -12.34375 
Q 23.78125 -13.375 27.78125 -13.375 
Q 36.625 -13.375 41.015625 -8.765625 
Q 45.40625 -4.15625 45.40625 5.171875 
L 45.40625 9.625 
Q 42.625 4.78125 38.28125 2.390625 
Q 33.9375 0 27.875 0 
Q 17.828125 0 11.671875 7.65625 
Q 5.515625 15.328125 5.515625 27.984375 
Q 5.515625 40.671875 11.671875 48.328125 
Q 17.828125 56 27.875 56 
Q 33.9375 56 38.28125 53.609375 
Q 42.625 51.21875 45.40625 46.390625 
L 45.40625 54.6875 
L 54.390625 54.6875 
z
" id="DejaVuSans-103"/>
    <path d="M 54.890625 33.015625 
L 54.890625 0 
L 45.90625 0 
L 45.90625 32.71875 
Q 45.90625 40.484375 42.875 44.328125 
Q 39.84375 48.1875 33.796875 48.1875 
Q 26.515625 48.1875 22.3125 43.546875 
Q 18.109375 38.921875 18.109375 30.90625 
L 18.109375 0 
L 9.078125 0 
L 9.078125 75.984375 
L 18.109375 75.984375 
L 18.109375 46.1875 
Q 21.34375 51.125 25.703125 53.5625 
Q 30.078125 56 35.796875 56 
Q 45.21875 56 50.046875 50.171875 
Q 54.890625 44.34375 54.890625 33.015625 
z
" id="DejaVuSans-104"/>
    <path id="DejaVuSans-32"/>
    <path d="M 9.8125 72.90625 
L 51.703125 72.90625 
L 51.703125 64.59375 
L 19.671875 64.59375 
L 19.671875 43.109375 
L 48.578125 43.109375 
L 48.578125 34.8125 
L 19.671875 34.8125 
L 19.671875 0 
L 9.8125 0 
z
" id="DejaVuSans-70"/>
    <path d="M 41.109375 46.296875 
Q 39.59375 47.171875 37.8125 47.578125 
Q 36.03125 48 33.890625 48 
Q 26.265625 48 22.1875 43.046875 
Q 18.109375 38.09375 18.109375 28.8125 
L 18.109375 0 
L 9.078125 0 
L 9.078125 54.6875 
L 18.109375 54.6875 
L 18.109375 46.1875 
Q 20.953125 51.171875 25.484375 53.578125 
Q 30.03125 56 36.53125 56 
Q 37.453125 56 38.578125 55.875 
Q 39.703125 55.765625 41.0625 55.515625 
z
" id="DejaVuSans-114"/>
    <path d="M 56.203125 29.59375 
L 56.203125 25.203125 
L 14.890625 25.203125 
Q 15.484375 15.921875 20.484375 11.0625 
Q 25.484375 6.203125 34.421875 6.203125 
Q 39.59375 6.203125 44.453125 7.46875 
Q 49.3125 8.734375 54.109375 11.28125 
L 54.109375 2.78125 
Q 49.265625 0.734375 44.1875 -0.34375 
Q 39.109375 -1.421875 33.890625 -1.421875 
Q 20.796875 -1.421875 13.15625 6.1875 
Q 5.515625 13.8125 5.515625 26.8125 
Q 5.515625 40.234375 12.765625 48.109375 
Q 20.015625 56 32.328125 56 
Q 43.359375 56 49.78125 48.890625 
Q 56.203125 41.796875 56.203125 29.59375 
z
M 47.21875 32.234375 
Q 47.125 39.59375 43.09375 43.984375 
Q 39.0625 48.390625 32.421875 48.390625 
Q 24.90625 48.390625 20.390625 44.140625 
Q 15.875 39.890625 15.1875 32.171875 
z
" id="DejaVuSans-101"/>
    <path d="M 14.796875 27.296875 
Q 14.796875 17.390625 18.875 11.75 
Q 22.953125 6.109375 30.078125 6.109375 
Q 37.203125 6.109375 41.296875 11.75 
Q 45.40625 17.390625 45.40625 27.296875 
Q 45.40625 37.203125 41.296875 42.84375 
Q 37.203125 48.484375 30.078125 48.484375 
Q 22.953125 48.484375 18.875 42.84375 
Q 14.796875 37.203125 14.796875 27.296875 
z
M 45.40625 8.203125 
Q 42.578125 3.328125 38.25 0.953125 
Q 33.9375 -1.421875 27.875 -1.421875 
Q 17.96875 -1.421875 11.734375 6.484375 
Q 5.515625 14.40625 5.515625 27.296875 
Q 5.515625 40.1875 11.734375 48.09375 
Q 17.96875 56 27.875 56 
Q 33.9375 56 38.25 53.625 
Q 42.578125 51.265625 45.40625 46.390625 
L 45.40625 54.6875 
L 54.390625 54.6875 
L 54.390625 -20.796875 
L 45.40625 -20.796875 
z
" id="DejaVuSans-113"/>
    <path d="M 8.5 21.578125 
L 8.5 54.6875 
L 17.484375 54.6875 
L 17.484375 21.921875 
Q 17.484375 14.15625 20.5 10.265625 
Q 23.53125 6.390625 29.59375 6.390625 
Q 36.859375 6.390625 41.078125 11.03125 
Q 45.3125 15.671875 45.3125 23.6875 
L 45.3125 54.6875 
L 54.296875 54.6875 
L 54.296875 0 
L 45.3125 0 
L 45.3125 8.40625 
Q 42.046875 3.421875 37.71875 1 
Q 33.40625 -1.421875 27.6875 -1.421875 
Q 18.265625 -1.421875 13.375 4.4375 
Q 8.5 10.296875 8.5 21.578125 
z
M 31.109375 56 
z
" id="DejaVuSans-117"/>
    <path d="M 54.890625 33.015625 
L 54.890625 0 
L 45.90625 0 
L 45.90625 32.71875 
Q 45.90625 40.484375 42.875 44.328125 
Q 39.84375 48.1875 33.796875 48.1875 
Q 26.515625 48.1875 22.3125 43.546875 
Q 18.109375 38.921875 18.109375 30.90625 
L 18.109375 0 
L 9.078125 0 
L 9.078125 54.6875 
L 18.109375 54.6875 
L 18.109375 46.1875 
Q 21.34375 51.125 25.703125 53.5625 
Q 30.078125 56 35.796875 56 
Q 45.21875 56 50.046875 50.171875 
Q 54.890625 44.34375 54.890625 33.015625 
z
" id="DejaVuSans-110"/>
    <path d="M 48.78125 52.59375 
L 48.78125 44.1875 
Q 44.96875 46.296875 41.140625 47.34375 
Q 37.3125 48.390625 33.40625 48.390625 
Q 24.65625 48.390625 19.8125 42.84375 
Q 14.984375 37.3125 14.984375 27.296875 
Q 14.984375 17.28125 19.8125 11.734375 
Q 24.65625 6.203125 33.40625 6.203125 
Q 37.3125 6.203125 41.140625 7.25 
Q 44.96875 8.296875 48.78125 10.40625 
L 48.78125 2.09375 
Q 45.015625 0.34375 40.984375 -0.53125 
Q 36.96875 -1.421875 32.421875 -1.421875 
Q 20.0625 -1.421875 12.78125 6.34375 
Q 5.515625 14.109375 5.515625 27.296875 
Q 5.515625 40.671875 12.859375 48.328125 
Q 20.21875 56 33.015625 56 
Q 37.15625 56 41.109375 55.140625 
Q 45.0625 54.296875 48.78125 52.59375 
z
" id="DejaVuSans-99"/>
    <path d="M 32.171875 -5.078125 
Q 28.375 -14.84375 24.75 -17.8125 
Q 21.140625 -20.796875 15.09375 -20.796875 
L 7.90625 -20.796875 
L 7.90625 -13.28125 
L 13.1875 -13.28125 
Q 16.890625 -13.28125 18.9375 -11.515625 
Q 21 -9.765625 23.484375 -3.21875 
L 25.09375 0.875 
L 2.984375 54.6875 
L 12.5 54.6875 
L 29.59375 11.921875 
L 46.6875 54.6875 
L 56.203125 54.6875 
z
" id="DejaVuSans-121"/>
    <path d="M -0.296875 72.90625 
L 61.375 72.90625 
L 61.375 64.59375 
L 35.5 64.59375 
L 35.5 0 
L 25.59375 0 
L 25.59375 64.59375 
L -0.296875 64.59375 
z
" id="DejaVuSans-84"/>
    <path d="M 52 44.1875 
Q 55.375 50.25 60.0625 53.125 
Q 64.75 56 71.09375 56 
Q 79.640625 56 84.28125 50.015625 
Q 88.921875 44.046875 88.921875 33.015625 
L 88.921875 0 
L 79.890625 0 
L 79.890625 32.71875 
Q 79.890625 40.578125 77.09375 44.375 
Q 74.3125 48.1875 68.609375 48.1875 
Q 61.625 48.1875 57.5625 43.546875 
Q 53.515625 38.921875 53.515625 30.90625 
L 53.515625 0 
L 44.484375 0 
L 44.484375 32.71875 
Q 44.484375 40.625 41.703125 44.40625 
Q 38.921875 48.1875 33.109375 48.1875 
Q 26.21875 48.1875 22.15625 43.53125 
Q 18.109375 38.875 18.109375 30.90625 
L 18.109375 0 
L 9.078125 0 
L 9.078125 54.6875 
L 18.109375 54.6875 
L 18.109375 46.1875 
Q 21.1875 51.21875 25.484375 53.609375 
Q 29.78125 56 35.6875 56 
Q 41.65625 56 45.828125 52.96875 
Q 50 49.953125 52 44.1875 
z
" id="DejaVuSans-109"/>
    <path d="M 53.515625 70.515625 
L 53.515625 60.890625 
Q 47.90625 63.578125 42.921875 64.890625 
Q 37.9375 66.21875 33.296875 66.21875 
Q 25.25 66.21875 20.875 63.09375 
Q 16.5 59.96875 16.5 54.203125 
Q 16.5 49.359375 19.40625 46.890625 
Q 22.3125 44.4375 30.421875 42.921875 
L 36.375 41.703125 
Q 47.40625 39.59375 52.65625 34.296875 
Q 57.90625 29 57.90625 20.125 
Q 57.90625 9.515625 50.796875 4.046875 
Q 43.703125 -1.421875 29.984375 -1.421875 
Q 24.8125 -1.421875 18.96875 -0.25 
Q 13.140625 0.921875 6.890625 3.21875 
L 6.890625 13.375 
Q 12.890625 10.015625 18.65625 8.296875 
Q 24.421875 6.59375 29.984375 6.59375 
Q 38.421875 6.59375 43.015625 9.90625 
Q 47.609375 13.234375 47.609375 19.390625 
Q 47.609375 24.75 44.3125 27.78125 
Q 41.015625 30.8125 33.5 32.328125 
L 27.484375 33.5 
Q 16.453125 35.6875 11.515625 40.375 
Q 6.59375 45.0625 6.59375 53.421875 
Q 6.59375 63.09375 13.40625 68.65625 
Q 20.21875 74.21875 32.171875 74.21875 
Q 37.3125 74.21875 42.625 73.28125 
Q 47.953125 72.359375 53.515625 70.515625 
z
" id="DejaVuSans-83"/>
    <path d="M 44.28125 53.078125 
L 44.28125 44.578125 
Q 40.484375 46.53125 36.375 47.5 
Q 32.28125 48.484375 27.875 48.484375 
Q 21.1875 48.484375 17.84375 46.4375 
Q 14.5 44.390625 14.5 40.28125 
Q 14.5 37.15625 16.890625 35.375 
Q 19.28125 33.59375 26.515625 31.984375 
L 29.59375 31.296875 
Q 39.15625 29.25 43.1875 25.515625 
Q 47.21875 21.78125 47.21875 15.09375 
Q 47.21875 7.46875 41.1875 3.015625 
Q 35.15625 -1.421875 24.609375 -1.421875 
Q 20.21875 -1.421875 15.453125 -0.5625 
Q 10.6875 0.296875 5.421875 2 
L 5.421875 11.28125 
Q 10.40625 8.6875 15.234375 7.390625 
Q 20.0625 6.109375 24.8125 6.109375 
Q 31.15625 6.109375 34.5625 8.28125 
Q 37.984375 10.453125 37.984375 14.40625 
Q 37.984375 18.0625 35.515625 20.015625 
Q 33.0625 21.96875 24.703125 23.78125 
L 21.578125 24.515625 
Q 13.234375 26.265625 9.515625 29.90625 
Q 5.8125 33.546875 5.8125 39.890625 
Q 5.8125 47.609375 11.28125 51.796875 
Q 16.75 56 26.8125 56 
Q 31.78125 56 36.171875 55.265625 
Q 40.578125 54.546875 44.28125 53.078125 
z
" id="DejaVuSans-115"/>
    <path d="M 30.609375 48.390625 
Q 23.390625 48.390625 19.1875 42.75 
Q 14.984375 37.109375 14.984375 27.296875 
Q 14.984375 17.484375 19.15625 11.84375 
Q 23.34375 6.203125 30.609375 6.203125 
Q 37.796875 6.203125 41.984375 11.859375 
Q 46.1875 17.53125 46.1875 27.296875 
Q 46.1875 37.015625 41.984375 42.703125 
Q 37.796875 48.390625 30.609375 48.390625 
z
M 30.609375 56 
Q 42.328125 56 49.015625 48.375 
Q 55.71875 40.765625 55.71875 27.296875 
Q 55.71875 13.875 49.015625 6.21875 
Q 42.328125 -1.421875 30.609375 -1.421875 
Q 18.84375 -1.421875 12.171875 6.21875 
Q 5.515625 13.875 5.515625 27.296875 
Q 5.515625 40.765625 12.171875 48.375 
Q 18.84375 56 30.609375 56 
z
" id="DejaVuSans-111"/>
    <path d="M 34.28125 27.484375 
Q 23.390625 27.484375 19.1875 25 
Q 14.984375 22.515625 14.984375 16.5 
Q 14.984375 11.71875 18.140625 8.90625 
Q 21.296875 6.109375 26.703125 6.109375 
Q 34.1875 6.109375 38.703125 11.40625 
Q 43.21875 16.703125 43.21875 25.484375 
L 43.21875 27.484375 
z
M 52.203125 31.203125 
L 52.203125 0 
L 43.21875 0 
L 43.21875 8.296875 
Q 40.140625 3.328125 35.546875 0.953125 
Q 30.953125 -1.421875 24.3125 -1.421875 
Q 15.921875 -1.421875 10.953125 3.296875 
Q 6 8.015625 6 15.921875 
Q 6 25.140625 12.171875 29.828125 
Q 18.359375 34.515625 30.609375 34.515625 
L 43.21875 34.515625 
L 43.21875 35.40625 
Q 43.21875 41.609375 39.140625 45 
Q 35.0625 48.390625 27.6875 48.390625 
Q 23 48.390625 18.546875 47.265625 
Q 14.109375 46.140625 10.015625 43.890625 
L 10.015625 52.203125 
Q 14.9375 54.109375 19.578125 55.046875 
Q 24.21875 56 28.609375 56 
Q 40.484375 56 46.34375 49.84375 
Q 52.203125 43.703125 52.203125 31.203125 
z
" id="DejaVuSans-97"/>
    <path d="M 18.3125 70.21875 
L 18.3125 54.6875 
L 36.8125 54.6875 
L 36.8125 47.703125 
L 18.3125 47.703125 
L 18.3125 18.015625 
Q 18.3125 11.328125 20.140625 9.421875 
Q 21.96875 7.515625 27.59375 7.515625 
L 36.8125 7.515625 
L 36.8125 0 
L 27.59375 0 
Q 17.1875 0 13.234375 3.875 
Q 9.28125 7.765625 9.28125 18.015625 
L 9.28125 47.703125 
L 2.6875 47.703125 
L 2.6875 54.6875 
L 9.28125 54.6875 
L 9.28125 70.21875 
z
" id="DejaVuSans-116"/>
   </defs>
   <g style="fill:#ffffff;" transform="translate(157.832812 26.716875)scale(0.2 -0.2)">
    <use xlink:href="#DejaVuSans-72"/>
    <use x="75.195312" xlink:href="#DejaVuSans-105"/>
    <use x="102.978516" xlink:href="#DejaVuSans-103"/>
    <use x="166.455078" xlink:href="#DejaVuSans-104"/>
    <use x="229.833984" xlink:href="#DejaVuSans-32"/>
    <use x="261.621094" xlink:href="#DejaVuSans-70"/>
    <use x="319.03125" xlink:href="#DejaVuSans-114"/>
    <use x="360.113281" xlink:href="#DejaVuSans-101"/>
    <use x="421.636719" xlink:href="#DejaVuSans-113"/>
    <use x="485.113281" xlink:href="#DejaVuSans-117"/>
    <use x="548.492188" xlink:href="#DejaVuSans-101"/>
    <use x="610.015625" xlink:href="#DejaVuSans-110"/>
    <use x="673.394531" xlink:href="#DejaVuSans-99"/>
    <use x="728.375" xlink:href="#DejaVuSans-121"/>
    <use x="787.554688" xlink:href="#DejaVuSans-32"/>
    <use x="819.341797" xlink:href="#DejaVuSans-84"/>
    <use x="880.378906" xlink:href="#DejaVuSans-105"/>
    <use x="908.162109" xlink:href="#DejaVuSans-109"/>
    <use x="1005.574219" xlink:href="#DejaVuSans-101"/>
    <use x="1067.097656" xlink:href="#DejaVuSans-32"/>
    <use x="1098.884766" xlink:href="#DejaVuSans-83"/>
    <use x="1162.361328" xlink:href="#DejaVuSans-101"/>
    <use x="1223.884766" xlink:href="#DejaVuSans-114"/>
    <use x="1264.998047" xlink:href="#DejaVuSans-105"/>
    <use x="1292.78125" xlink:href="#DejaVuSans-101"/>
    <use x="1354.304688" xlink:href="#DejaVuSans-115"/>
    <use x="1406.404297" xlink:href="#DejaVuSans-32"/>
    <use x="1438.191406" xlink:href="#DejaVuSans-70"/>
    <use x="1495.664062" xlink:href="#DejaVuSans-111"/>
    <use x="1556.845703" xlink:href="#DejaVuSans-114"/>
    <use x="1597.927734" xlink:href="#DejaVuSans-101"/>
    <use x="1659.451172" xlink:href="#DejaVuSans-99"/>
    <use x="1714.431641" xlink:href="#DejaVuSans-97"/>
    <use x="1775.710938" xlink:href="#DejaVuSans-115"/>
    <use x="1827.810547" xlink:href="#DejaVuSans-116"/>
    <use x="1867.019531" xlink:href="#DejaVuSans-105"/>
    <use x="1894.802734" xlink:href="#DejaVuSans-110"/>
    <use x="1958.181641" xlink:href="#DejaVuSans-103"/>
   </g>
  </g>
 </g>
 <defs>
  <clipPath id="p4ee887d518">
   <rect height="178.61452" width="669.26" x="39.94" y="39.6"/>
  </clipPath>
  <clipPath id="p1a3fce4fe6">
   <rect height="178.61452" width="669.26" x="39.94" y="307.8"/>
  </clipPath>
 </defs>
</svg>
