<?xml version="1.0" encoding="utf-8" standalone="no"?>
<!DOCTYPE svg PUBLIC "-//W3C//DTD SVG 1.1//EN"
  "http://www.w3.org/Graphics/SVG/1.1/DTD/svg11.dtd">
<svg height="360pt" version="1.1" viewBox="0 0 936 360" width="936pt" xmlns="http://www.w3.org/2000/svg" xmlns:xlink="http://www.w3.org/1999/xlink">
 <metadata>
  <rdf:RDF xmlns:cc="http://creativecommons.org/ns#" xmlns:dc="http://purl.org/dc/elements/1.1/" xmlns:rdf="http://www.w3.org/1999/02/22-rdf-syntax-ns#">
   <cc:Work>
    <dc:type rdf:resource="http://purl.org/dc/dcmitype/StillImage"/>
    <dc:date>2025-06-26T20:45:05.237411</dc:date>
    <dc:format>image/svg+xml</dc:format>
    <dc:creator>
     <cc:Agent>
      <dc:title>Matplotlib v3.4.3, https://matplotlib.org/</dc:title>
     </cc:Agent>
    </dc:creator>
   </cc:Work>
  </rdf:RDF>
 </metadata>
 <defs>
  <style type="text/css">*{stroke-linecap:butt;stroke-linejoin:round;}</style>
 </defs>
 <g id="figure_1">
  <g id="patch_1">
   <path d="M 0 360 
L 936 360 
L 936 0 
L 0 0 
z
" style="fill:#121212;"/>
  </g>
  <g id="axes_1">
   <g id="patch_2">
    <path d="M 117 166.745455 
L 842.4 166.745455 
L 842.4 43.2 
L 117 43.2 
z
" style="fill:#121212;"/>
   </g>
   <g id="matplotlib.axis_1">
    <g id="xtick_1">
     <g id="line2d_1">
      <path clip-path="url(#p185323eb21)" d="M 149.972727 166.745455 
L 149.972727 43.2 
" style="fill:none;stroke:#ffffff;stroke-linecap:square;stroke-opacity:0.2;stroke-width:0.8;"/>
     </g>
     <g id="line2d_2">
      <defs>
       <path d="M 0 0 
L 0 3.5 
" id="m76d6cbee02" style="stroke:#ffffff;stroke-width:0.8;"/>
      </defs>
      <g>
       <use style="fill:#ffffff;stroke:#ffffff;stroke-width:0.8;" x="149.972727" xlink:href="#m76d6cbee02" y="166.745455"/>
      </g>
     </g>
     <g id="text_1">
      <!-- 0 -->
      <g style="fill:#ffffff;" transform="translate(146.791477 181.343892)scale(0.1 -0.1)">
       <defs>
        <path d="M 2034 4250 
Q 1547 4250 1301 3770 
Q 1056 3291 1056 2328 
Q 1056 1369 1301 889 
Q 1547 409 2034 409 
Q 2525 409 2770 889 
Q 3016 1369 3016 2328 
Q 3016 3291 2770 3770 
Q 2525 4250 2034 4250 
z
M 2034 4750 
Q 2819 4750 3233 4129 
Q 3647 3509 3647 2328 
Q 3647 1150 3233 529 
Q 2819 -91 2034 -91 
Q 1250 -91 836 529 
Q 422 1150 422 2328 
Q 422 3509 836 4129 
Q 1250 4750 2034 4750 
z
" id="DejaVuSans-30" transform="scale(0.015625)"/>
       </defs>
       <use xlink:href="#DejaVuSans-30"/>
      </g>
     </g>
    </g>
    <g id="xtick_2">
     <g id="line2d_3">
      <path clip-path="url(#p185323eb21)" d="M 281.167041 166.745455 
L 281.167041 43.2 
" style="fill:none;stroke:#ffffff;stroke-linecap:square;stroke-opacity:0.2;stroke-width:0.8;"/>
     </g>
     <g id="line2d_4">
      <g>
       <use style="fill:#ffffff;stroke:#ffffff;stroke-width:0.8;" x="281.167041" xlink:href="#m76d6cbee02" y="166.745455"/>
      </g>
     </g>
     <g id="text_2">
      <!-- 5 -->
      <g style="fill:#ffffff;" transform="translate(277.985791 181.343892)scale(0.1 -0.1)">
       <defs>
        <path d="M 691 4666 
L 3169 4666 
L 3169 4134 
L 1269 4134 
L 1269 2991 
Q 1406 3038 1543 3061 
Q 1681 3084 1819 3084 
Q 2600 3084 3056 2656 
Q 3513 2228 3513 1497 
Q 3513 744 3044 326 
Q 2575 -91 1722 -91 
Q 1428 -91 1123 -41 
Q 819 9 494 109 
L 494 744 
Q 775 591 1075 516 
Q 1375 441 1709 441 
Q 2250 441 2565 725 
Q 2881 1009 2881 1497 
Q 2881 1984 2565 2268 
Q 2250 2553 1709 2553 
Q 1456 2553 1204 2497 
Q 953 2441 691 2322 
L 691 4666 
z
" id="DejaVuSans-35" transform="scale(0.015625)"/>
       </defs>
       <use xlink:href="#DejaVuSans-35"/>
      </g>
     </g>
    </g>
    <g id="xtick_3">
     <g id="line2d_5">
      <path clip-path="url(#p185323eb21)" d="M 412.361354 166.745455 
L 412.361354 43.2 
" style="fill:none;stroke:#ffffff;stroke-linecap:square;stroke-opacity:0.2;stroke-width:0.8;"/>
     </g>
     <g id="line2d_6">
      <g>
       <use style="fill:#ffffff;stroke:#ffffff;stroke-width:0.8;" x="412.361354" xlink:href="#m76d6cbee02" y="166.745455"/>
      </g>
     </g>
     <g id="text_3">
      <!-- 10 -->
      <g style="fill:#ffffff;" transform="translate(405.998854 181.343892)scale(0.1 -0.1)">
       <defs>
        <path d="M 794 531 
L 1825 531 
L 1825 4091 
L 703 3866 
L 703 4441 
L 1819 4666 
L 2450 4666 
L 2450 531 
L 3481 531 
L 3481 0 
L 794 0 
L 794 531 
z
" id="DejaVuSans-31" transform="scale(0.015625)"/>
       </defs>
       <use xlink:href="#DejaVuSans-31"/>
       <use x="63.623047" xlink:href="#DejaVuSans-30"/>
      </g>
     </g>
    </g>
    <g id="xtick_4">
     <g id="line2d_7">
      <path clip-path="url(#p185323eb21)" d="M 543.555667 166.745455 
L 543.555667 43.2 
" style="fill:none;stroke:#ffffff;stroke-linecap:square;stroke-opacity:0.2;stroke-width:0.8;"/>
     </g>
     <g id="line2d_8">
      <g>
       <use style="fill:#ffffff;stroke:#ffffff;stroke-width:0.8;" x="543.555667" xlink:href="#m76d6cbee02" y="166.745455"/>
      </g>
     </g>
     <g id="text_4">
      <!-- 15 -->
      <g style="fill:#ffffff;" transform="translate(537.193167 181.343892)scale(0.1 -0.1)">
       <use xlink:href="#DejaVuSans-31"/>
       <use x="63.623047" xlink:href="#DejaVuSans-35"/>
      </g>
     </g>
    </g>
    <g id="xtick_5">
     <g id="line2d_9">
      <path clip-path="url(#p185323eb21)" d="M 674.749981 166.745455 
L 674.749981 43.2 
" style="fill:none;stroke:#ffffff;stroke-linecap:square;stroke-opacity:0.2;stroke-width:0.8;"/>
     </g>
     <g id="line2d_10">
      <g>
       <use style="fill:#ffffff;stroke:#ffffff;stroke-width:0.8;" x="674.749981" xlink:href="#m76d6cbee02" y="166.745455"/>
      </g>
     </g>
     <g id="text_5">
      <!-- 20 -->
      <g style="fill:#ffffff;" transform="translate(668.387481 181.343892)scale(0.1 -0.1)">
       <defs>
        <path d="M 1228 531 
L 3431 531 
L 3431 0 
L 469 0 
L 469 531 
Q 828 903 1448 1529 
Q 2069 2156 2228 2338 
Q 2531 2678 2651 2914 
Q 2772 3150 2772 3378 
Q 2772 3750 2511 3984 
Q 2250 4219 1831 4219 
Q 1534 4219 1204 4116 
Q 875 4013 500 3803 
L 500 4441 
Q 881 4594 1212 4672 
Q 1544 4750 1819 4750 
Q 2544 4750 2975 4387 
Q 3406 4025 3406 3419 
Q 3406 3131 3298 2873 
Q 3191 2616 2906 2266 
Q 2828 2175 2409 1742 
Q 1991 1309 1228 531 
z
" id="DejaVuSans-32" transform="scale(0.015625)"/>
       </defs>
       <use xlink:href="#DejaVuSans-32"/>
       <use x="63.623047" xlink:href="#DejaVuSans-30"/>
      </g>
     </g>
    </g>
    <g id="xtick_6">
     <g id="line2d_11">
      <path clip-path="url(#p185323eb21)" d="M 805.944294 166.745455 
L 805.944294 43.2 
" style="fill:none;stroke:#ffffff;stroke-linecap:square;stroke-opacity:0.2;stroke-width:0.8;"/>
     </g>
     <g id="line2d_12">
      <g>
       <use style="fill:#ffffff;stroke:#ffffff;stroke-width:0.8;" x="805.944294" xlink:href="#m76d6cbee02" y="166.745455"/>
      </g>
     </g>
     <g id="text_6">
      <!-- 25 -->
      <g style="fill:#ffffff;" transform="translate(799.581794 181.343892)scale(0.1 -0.1)">
       <use xlink:href="#DejaVuSans-32"/>
       <use x="63.623047" xlink:href="#DejaVuSans-35"/>
      </g>
     </g>
    </g>
   </g>
   <g id="matplotlib.axis_2">
    <g id="ytick_1">
     <g id="line2d_13">
      <path clip-path="url(#p185323eb21)" d="M 117 142.411531 
L 842.4 142.411531 
" style="fill:none;stroke:#ffffff;stroke-linecap:square;stroke-opacity:0.2;stroke-width:0.8;"/>
     </g>
     <g id="line2d_14">
      <defs>
       <path d="M 0 0 
L -3.5 0 
" id="mfa26dbe468" style="stroke:#ffffff;stroke-width:0.8;"/>
      </defs>
      <g>
       <use style="fill:#ffffff;stroke:#ffffff;stroke-width:0.8;" x="117" xlink:href="#mfa26dbe468" y="142.411531"/>
      </g>
     </g>
     <g id="text_7">
      <!-- −2 -->
      <g style="fill:#ffffff;" transform="translate(87.886719 148.110359)scale(0.15 -0.15)">
       <defs>
        <path d="M 678 2272 
L 4684 2272 
L 4684 1741 
L 678 1741 
L 678 2272 
z
" id="DejaVuSans-2212" transform="scale(0.015625)"/>
       </defs>
       <use xlink:href="#DejaVuSans-2212"/>
       <use x="83.789062" xlink:href="#DejaVuSans-32"/>
      </g>
     </g>
    </g>
    <g id="ytick_2">
     <g id="line2d_15">
      <path clip-path="url(#p185323eb21)" d="M 117 104.972727 
L 842.4 104.972727 
" style="fill:none;stroke:#ffffff;stroke-linecap:square;stroke-opacity:0.2;stroke-width:0.8;"/>
     </g>
     <g id="line2d_16">
      <g>
       <use style="fill:#ffffff;stroke:#ffffff;stroke-width:0.8;" x="117" xlink:href="#mfa26dbe468" y="104.972727"/>
      </g>
     </g>
     <g id="text_8">
      <!-- 0 -->
      <g style="fill:#ffffff;" transform="translate(100.45625 110.671555)scale(0.15 -0.15)">
       <use xlink:href="#DejaVuSans-30"/>
      </g>
     </g>
    </g>
    <g id="ytick_3">
     <g id="line2d_17">
      <path clip-path="url(#p185323eb21)" d="M 117 67.533924 
L 842.4 67.533924 
" style="fill:none;stroke:#ffffff;stroke-linecap:square;stroke-opacity:0.2;stroke-width:0.8;"/>
     </g>
     <g id="line2d_18">
      <g>
       <use style="fill:#ffffff;stroke:#ffffff;stroke-width:0.8;" x="117" xlink:href="#mfa26dbe468" y="67.533924"/>
      </g>
     </g>
     <g id="text_9">
      <!-- 2 -->
      <g style="fill:#ffffff;" transform="translate(100.45625 73.232752)scale(0.15 -0.15)">
       <use xlink:href="#DejaVuSans-32"/>
      </g>
     </g>
    </g>
   </g>
   <g id="line2d_19">
    <path clip-path="url(#p185323eb21)" d="M 149.972727 104.972727 
L 152.613186 85.039355 
L 153.933415 76.508585 
L 155.253645 69.599786 
L 155.913759 66.876716 
L 156.573874 64.691898 
L 157.233989 63.072916 
L 157.894103 62.038458 
L 158.554218 61.598025 
L 159.214333 61.751781 
L 159.874447 62.490563 
L 160.534562 63.796022 
L 161.194676 65.640922 
L 161.854791 67.989572 
L 163.17502 74.016627 
L 164.49525 81.447198 
L 167.135708 98.396696 
L 169.116052 110.65104 
L 170.436282 117.544009 
L 171.756511 122.85006 
L 172.416626 124.786592 
L 173.07674 126.195687 
L 173.736855 127.05046 
L 174.39697 127.332924 
L 175.057084 127.034279 
L 175.717199 126.15505 
L 176.377314 124.705084 
L 177.037428 122.703397 
L 177.697543 120.177874 
L 179.017772 113.70845 
L 180.338002 105.677387 
L 182.318346 91.776139 
L 184.958804 72.76457 
L 186.279034 64.365064 
L 187.599263 57.410744 
L 188.259378 54.613712 
L 188.919492 52.330269 
L 189.579607 50.595791 
L 190.239722 49.43716 
L 190.899836 48.872336 
L 191.559951 48.910076 
L 192.220066 49.549796 
L 192.88018 50.781576 
L 193.540295 52.586323 
L 194.20041 54.936069 
L 195.520639 61.117085 
L 196.840868 68.943414 
L 198.821212 82.693357 
L 202.121785 106.216393 
L 203.442015 114.163053 
L 204.762244 120.521048 
L 205.422359 122.98291 
L 206.082473 124.916979 
L 206.742588 126.296456 
L 207.402703 127.103461 
L 208.062817 127.329304 
L 208.722932 126.97463 
L 209.383047 126.049397 
L 210.043161 124.572724 
L 210.703276 122.57258 
L 211.363391 120.085341 
L 212.68362 113.83353 
L 214.003849 106.251486 
L 219.284767 73.593856 
L 220.604996 67.66986 
L 221.265111 65.38195 
L 221.925225 63.602697 
L 222.58534 62.366762 
L 223.245455 61.700291 
L 223.905569 61.620498 
L 224.565684 62.135385 
L 225.225799 63.243618 
L 225.885913 64.934537 
L 226.546028 67.188324 
L 227.206143 69.976309 
L 228.526372 76.998772 
L 229.846601 85.615863 
L 231.826945 100.44827 
L 235.127518 125.478125 
L 236.447748 133.920687 
L 237.767977 140.714334 
L 238.428092 143.371926 
L 239.088206 145.487344 
L 239.748321 147.034096 
L 240.408436 147.994629 
L 241.06855 148.360607 
L 241.728665 148.13303 
L 242.38878 147.322225 
L 243.048894 145.947668 
L 243.709009 144.03768 
L 244.369124 141.62897 
L 245.689353 135.500545 
L 247.009582 127.998682 
L 252.2905 95.247849 
L 253.610729 89.194929 
L 254.270844 86.825614 
L 254.930958 84.953246 
L 255.591073 83.612151 
L 256.251188 82.828119 
L 256.911302 82.618003 
L 257.571417 82.989442 
L 258.231532 83.940741 
L 258.891646 85.460897 
L 259.551761 87.529767 
L 260.211876 90.118383 
L 261.532105 96.69774 
L 262.852334 104.811317 
L 264.832678 118.773757 
L 267.473137 137.738766 
L 268.793366 146.062328 
L 270.113595 152.911019 
L 270.77371 155.646064 
L 271.433825 157.862652 
L 272.093939 159.52644 
L 272.754054 160.611641 
L 273.414169 161.101432 
L 274.074283 160.98822 
L 274.734398 160.27376 
L 275.394513 158.969129 
L 276.054627 157.09455 
L 276.714742 154.679072 
L 278.034971 148.382875 
L 279.355201 140.468822 
L 281.335545 126.649917 
L 284.636118 103.194426 
L 285.956347 95.334038 
L 287.276577 89.088937 
L 287.936691 86.691289 
L 288.596806 84.825258 
L 289.256921 83.516548 
L 289.917035 82.781905 
L 290.57715 82.628853 
L 291.237265 83.055582 
L 291.897379 84.050974 
L 292.557494 85.594788 
L 293.217609 87.657975 
L 294.537838 93.185164 
L 295.858067 100.244855 
L 297.838411 112.624867 
L 300.47887 129.486827 
L 301.799099 136.768742 
L 303.119328 142.588017 
L 303.779443 144.814518 
L 304.439558 146.527582 
L 305.099672 147.693584 
L 305.759787 148.287475 
L 306.419902 148.29318 
L 307.080016 147.703859 
L 307.740131 146.522018 
L 308.400246 144.759471 
L 309.06036 142.437165 
L 310.38059 136.240594 
L 311.700819 128.266603 
L 313.681163 113.971672 
L 317.641851 83.899914 
L 318.96208 75.547424 
L 320.28231 68.870389 
L 320.942424 66.278824 
L 321.602539 64.23322 
L 322.262654 62.758973 
L 322.922768 61.872494 
L 323.582883 61.580958 
L 324.242998 61.882192 
L 324.903112 62.764717 
L 325.563227 64.207928 
L 326.223342 66.18243 
L 326.883456 68.650503 
L 328.203686 74.878584 
L 329.523915 82.449691 
L 334.804832 115.121515 
L 336.125061 121.072494 
L 336.785176 123.381847 
L 337.445291 125.189512 
L 338.105405 126.462205 
L 338.76552 127.175232 
L 339.425635 127.312881 
L 340.085749 126.868675 
L 340.745864 125.845477 
L 341.405979 124.255445 
L 342.066093 122.119847 
L 342.726208 119.468722 
L 344.046437 112.780953 
L 345.366667 104.586775 
L 347.347011 90.566471 
L 349.987469 71.652587 
L 351.307699 63.406979 
L 352.627928 56.665576 
L 353.288043 53.99318 
L 353.948157 51.843985 
L 354.608272 50.251291 
L 355.268387 49.239783 
L 355.928501 48.825143 
L 356.588616 49.013799 
L 357.248731 49.802826 
L 357.908845 51.179991 
L 358.56896 53.123948 
L 359.229075 55.604573 
L 360.549304 62.014427 
L 361.869533 70.014289 
L 363.849877 83.898826 
L 366.490336 102.921307 
L 367.810565 111.345615 
L 369.130794 118.349214 
L 369.790909 121.184205 
L 370.451024 123.517103 
L 371.111138 125.314694 
L 371.771253 126.552375 
L 372.431368 127.21454 
L 373.091482 127.294828 
L 373.751597 126.796219 
L 374.411712 125.730983 
L 375.071826 124.120483 
L 375.731941 121.994837 
L 377.05217 116.35935 
L 378.3724 109.219151 
L 380.352744 96.781278 
L 382.993202 79.969899 
L 384.313432 72.765312 
L 385.633661 67.052397 
L 386.293776 64.887956 
L 386.95389 63.241607 
L 387.614005 62.145929 
L 388.27412 61.62487 
L 388.934234 61.69336 
L 389.594349 62.357075 
L 390.254464 63.612341 
L 390.914578 65.446187 
L 391.574693 67.836547 
L 392.894922 74.155278 
L 394.215152 82.226579 
L 396.195495 96.608054 
L 400.156183 126.608221 
L 401.476413 134.868794 
L 402.796642 141.427787 
L 403.456757 143.952794 
L 404.116871 145.928186 
L 404.776986 147.329672 
L 405.437101 148.141984 
L 406.097215 148.359113 
L 406.75733 147.9844 
L 407.417445 147.030479 
L 408.077559 145.519073 
L 408.737674 143.480647 
L 409.397789 140.953922 
L 410.718018 134.627922 
L 412.038247 126.989635 
L 417.319165 94.405604 
L 418.639394 88.558194 
L 419.299509 86.309451 
L 419.959623 84.567009 
L 420.619738 83.363104 
L 421.279853 82.721328 
L 421.939967 82.656248 
L 422.600082 83.173176 
L 423.260197 84.268083 
L 423.920311 85.927657 
L 424.580426 88.129514 
L 425.240541 90.842548 
L 426.56077 97.637179 
L 427.880999 105.910026 
L 429.861343 119.984848 
L 432.501802 138.843057 
L 433.822031 147.008716 
L 435.14226 153.6412 
L 435.802375 156.2503 
L 436.46249 158.331581 
L 437.122604 159.852795 
L 437.782719 160.790364 
L 438.442834 161.129752 
L 439.102948 160.865698 
L 439.763063 160.002296 
L 440.423178 158.55293 
L 441.083292 156.540067 
L 441.743407 153.994897 
L 443.063636 147.472938 
L 444.383866 139.3892 
L 446.36421 125.442379 
L 449.004668 106.465226 
L 450.324898 98.115663 
L 451.645127 91.215746 
L 452.305242 88.441418 
L 452.965356 86.173788 
L 453.625471 84.445022 
L 454.285586 83.278616 
L 454.9457 82.689028 
L 455.605815 82.681457 
L 456.26593 83.251754 
L 456.926044 84.386501 
L 457.586159 86.063216 
L 458.246274 88.250718 
L 459.566503 93.992955 
L 460.886732 101.211731 
L 462.867076 113.704132 
L 465.507535 130.460402 
L 466.827764 137.585685 
L 468.147993 143.19063 
L 468.808108 145.292374 
L 469.468223 146.871498 
L 470.128337 147.896476 
L 470.788452 148.34447 
L 471.448567 148.201696 
L 472.108681 147.463644 
L 472.768796 146.135158 
L 473.428911 144.230358 
L 474.089025 141.772425 
L 475.409255 135.332877 
L 476.729484 127.166041 
L 478.709828 112.701242 
L 482.010401 87.370984 
L 483.330631 78.506467 
L 484.65086 71.152216 
L 485.310975 68.17303 
L 485.971089 65.715097 
L 486.631204 63.810297 
L 487.291319 62.48181 
L 487.951433 61.743759 
L 488.611548 61.600984 
L 489.271663 62.048978 
L 489.931777 63.073956 
L 490.591892 64.653081 
L 491.252007 66.754825 
L 492.572236 72.359769 
L 493.892465 79.485053 
L 495.872809 91.915857 
L 498.513268 108.733723 
L 499.833497 115.9525 
L 501.153726 121.694737 
L 501.813841 123.882239 
L 502.473956 125.558954 
L 503.13407 126.6937 
L 503.794185 127.263998 
L 504.4543 127.256426 
L 505.114414 126.666839 
L 505.774529 125.500432 
L 506.434644 123.771666 
L 507.094758 121.504036 
L 508.414988 115.489009 
L 509.735217 107.806686 
L 511.715561 94.183175 
L 515.016134 70.556255 
L 516.336364 62.472517 
L 517.656593 55.950558 
L 518.316708 53.405387 
L 518.976822 51.392524 
L 519.636937 49.943159 
L 520.297052 49.079757 
L 520.957166 48.815702 
L 521.617281 49.155091 
L 522.277396 50.092659 
L 522.93751 51.613873 
L 523.597625 53.695155 
L 524.25774 56.304254 
L 525.577969 62.936738 
L 526.898198 71.102398 
L 528.878542 85.108142 
L 531.519001 104.035429 
L 532.83923 112.308275 
L 534.159459 119.102906 
L 534.819574 121.815941 
L 535.479689 124.017798 
L 536.139803 125.677372 
L 536.799918 126.772278 
L 537.460033 127.289207 
L 538.120147 127.224126 
L 538.780262 126.58235 
L 539.440377 125.378446 
L 540.100491 123.636004 
L 540.760606 121.38726 
L 542.080835 115.539851 
L 543.401065 108.244446 
L 545.381409 95.700868 
L 548.021867 79.00422 
L 549.342097 71.960196 
L 550.662326 66.464808 
L 551.322441 64.426382 
L 551.982555 62.914976 
L 552.64267 61.961054 
L 553.302785 61.586341 
L 553.962899 61.80347 
L 554.623014 62.615783 
L 555.283129 64.017269 
L 555.943243 65.992661 
L 556.603358 68.517668 
L 557.923587 75.07666 
L 559.243817 83.337233 
L 561.224161 97.882114 
L 564.524734 123.163647 
L 565.844963 131.947632 
L 567.165192 139.192848 
L 567.825307 142.108907 
L 568.485422 144.499268 
L 569.145536 146.333114 
L 569.805651 147.588379 
L 570.465766 148.252094 
L 571.12588 148.320584 
L 571.785995 147.799525 
L 572.44611 146.703848 
L 573.106224 145.057499 
L 573.766339 142.893058 
L 575.086568 137.180142 
L 576.406798 129.975555 
L 578.387142 117.489701 
L 581.0276 100.726303 
L 582.34783 93.586105 
L 583.668059 87.950617 
L 584.328174 85.824972 
L 584.988288 84.214472 
L 585.648403 83.149235 
L 586.308518 82.650626 
L 586.968632 82.730914 
L 587.628747 83.39308 
L 588.288862 84.63076 
L 588.948976 86.428351 
L 589.609091 88.76125 
L 590.92932 94.892019 
L 592.24955 102.664286 
L 594.229894 116.36214 
L 597.530467 139.931165 
L 598.850696 147.931028 
L 600.170925 154.340882 
L 600.83104 156.821507 
L 601.491155 158.765463 
L 602.151269 160.142629 
L 602.811384 160.931655 
L 603.471499 161.120311 
L 604.131613 160.705671 
L 604.791728 159.694164 
L 605.451843 158.10147 
L 606.111957 155.952275 
L 606.772072 153.279879 
L 608.092301 146.538475 
L 609.412531 138.292868 
L 611.392875 124.231574 
L 614.033333 105.358679 
L 615.353563 97.164502 
L 616.673792 90.476733 
L 617.333907 87.825607 
L 617.994021 85.690009 
L 618.654136 84.099978 
L 619.314251 83.07678 
L 619.974365 82.632574 
L 620.63448 82.770223 
L 621.294595 83.483249 
L 621.954709 84.755943 
L 622.614824 86.563608 
L 623.274939 88.87296 
L 624.595168 94.82394 
L 625.915397 102.194004 
L 628.555856 119.107266 
L 630.5362 131.417923 
L 631.856429 138.378751 
L 633.176658 143.763024 
L 633.836773 145.737526 
L 634.496888 147.180738 
L 635.157002 148.063262 
L 635.817117 148.364497 
L 636.477232 148.072961 
L 637.137346 147.186482 
L 637.797461 145.712234 
L 638.457576 143.666631 
L 639.11769 141.075066 
L 640.43792 134.39803 
L 641.758149 126.045541 
L 643.738493 111.42384 
L 647.039066 86.196723 
L 648.359296 77.495221 
L 649.679525 70.360609 
L 650.33964 67.508289 
L 650.999754 65.185983 
L 651.659869 63.423437 
L 652.319984 62.241595 
L 652.980098 61.652274 
L 653.640213 61.657979 
L 654.300328 62.25187 
L 654.960442 63.417873 
L 655.620557 65.130937 
L 656.280672 67.357438 
L 657.600901 73.176713 
L 658.92113 80.458628 
L 660.901474 92.996164 
L 663.541933 109.7006 
L 664.862162 116.760291 
L 666.182391 122.287479 
L 666.842506 124.350666 
L 667.502621 125.89448 
L 668.162735 126.889873 
L 668.82285 127.316602 
L 669.482965 127.16355 
L 670.143079 126.428906 
L 670.803194 125.120196 
L 671.463309 123.254165 
L 672.123423 120.856517 
L 673.443653 114.611416 
L 674.763882 106.751029 
L 676.744226 92.982092 
L 680.044799 69.476632 
L 681.365029 61.56258 
L 682.685258 55.266382 
L 683.345373 52.850905 
L 684.005487 50.976325 
L 684.665602 49.671694 
L 685.325717 48.957234 
L 685.985831 48.844023 
L 686.645946 49.333814 
L 687.306061 50.419015 
L 687.966175 52.082803 
L 688.62629 54.29939 
L 689.286405 57.034436 
L 690.606634 63.883126 
L 691.926863 72.206689 
L 694.567322 91.171697 
L 696.547666 105.134138 
L 697.867895 113.247714 
L 699.188124 119.827072 
L 699.848239 122.415688 
L 700.508354 124.484557 
L 701.168468 126.004713 
L 701.828583 126.956013 
L 702.488698 127.327452 
L 703.148812 127.117335 
L 703.808927 126.333304 
L 704.469042 124.992208 
L 705.129156 123.119841 
L 705.789271 120.750526 
L 707.1095 114.697606 
L 708.42973 107.254869 
L 711.070188 90.300705 
L 713.050532 78.055117 
L 714.370762 71.179401 
L 715.690991 65.907775 
L 716.351106 63.997787 
L 717.01122 62.62323 
L 717.671335 61.812424 
L 718.33145 61.584848 
L 718.991564 61.950825 
L 719.651679 62.911359 
L 720.311794 64.45811 
L 720.971908 66.573529 
L 721.632023 69.23112 
L 722.952252 76.024767 
L 724.272482 84.46733 
L 726.252826 99.162571 
L 729.553399 124.329592 
L 730.873628 132.946682 
L 732.193857 139.969146 
L 732.853972 142.757131 
L 733.514087 145.010917 
L 734.174201 146.701836 
L 734.834316 147.810069 
L 735.494431 148.324957 
L 736.154545 148.245163 
L 736.81466 147.578692 
L 737.474775 146.342757 
L 738.134889 144.563504 
L 738.795004 142.275595 
L 740.115233 136.351599 
L 741.435463 128.994349 
L 744.075921 112.086346 
L 746.056265 99.767516 
L 747.376495 92.790242 
L 748.696724 87.372874 
L 749.356839 85.37273 
L 750.016953 83.896057 
L 750.677068 82.970825 
L 751.337183 82.61615 
L 751.997297 82.841994 
L 752.657412 83.648998 
L 753.317527 85.028476 
L 753.977641 86.962545 
L 754.637756 89.424406 
L 755.957985 95.782402 
L 757.278215 103.729062 
L 759.258559 117.565802 
L 762.559132 141.002041 
L 763.879361 148.828369 
L 765.19959 155.009386 
L 765.859705 157.359131 
L 766.51982 159.163878 
L 767.179934 160.395659 
L 767.840049 161.035378 
L 768.500164 161.073119 
L 769.160278 160.508295 
L 769.820393 159.349664 
L 770.480508 157.615186 
L 771.140622 155.331743 
L 772.460852 149.267404 
L 773.781081 141.530691 
L 775.761425 127.853026 
L 779.061998 104.268068 
L 780.382228 96.237005 
L 781.702457 89.767581 
L 782.362572 87.242058 
L 783.022686 85.240371 
L 783.682801 83.790405 
L 784.342916 82.911176 
L 785.00303 82.612531 
L 785.663145 82.894995 
L 786.32326 83.749768 
L 786.983374 85.158862 
L 787.643489 87.095395 
L 788.303604 89.52401 
L 789.623833 95.677216 
L 790.944062 103.190618 
L 796.22498 135.928827 
L 797.545209 141.955882 
L 798.205324 144.304532 
L 798.865438 146.149432 
L 799.525553 147.454891 
L 800.185667 148.193673 
L 800.845782 148.34743 
L 801.505897 147.906996 
L 802.166011 146.872539 
L 802.826126 145.253557 
L 803.486241 143.068739 
L 804.146355 140.345669 
L 805.466585 133.436869 
L 806.786814 124.906099 
L 808.767158 110.140617 
L 809.427273 104.972727 
L 809.427273 104.972727 
" style="fill:none;stroke:#00ff00;stroke-linecap:square;stroke-width:1.5;"/>
   </g>
   <g id="patch_3">
    <path d="M 117 166.745455 
L 117 43.2 
" style="fill:none;stroke:#ffffff;stroke-linecap:square;stroke-linejoin:miter;stroke-width:0.8;"/>
   </g>
   <g id="patch_4">
    <path d="M 842.4 166.745455 
L 842.4 43.2 
" style="fill:none;stroke:#ffffff;stroke-linecap:square;stroke-linejoin:miter;stroke-width:0.8;"/>
   </g>
   <g id="patch_5">
    <path d="M 117 166.745455 
L 842.4 166.745455 
" style="fill:none;stroke:#ffffff;stroke-linecap:square;stroke-linejoin:miter;stroke-width:0.8;"/>
   </g>
   <g id="patch_6">
    <path d="M 117 43.2 
L 842.4 43.2 
" style="fill:none;stroke:#ffffff;stroke-linecap:square;stroke-linejoin:miter;stroke-width:0.8;"/>
   </g>
   <g id="legend_1">
    <g id="patch_7">
     <path d="M 751.704687 65.878125 
L 835.4 65.878125 
Q 837.4 65.878125 837.4 63.878125 
L 837.4 50.2 
Q 837.4 48.2 835.4 48.2 
L 751.704687 48.2 
Q 749.704687 48.2 749.704687 50.2 
L 749.704687 63.878125 
Q 749.704687 65.878125 751.704687 65.878125 
z
" style="fill:#121212;opacity:0.8;stroke:#ffffff;stroke-linejoin:miter;"/>
    </g>
    <g id="line2d_20">
     <path d="M 753.704687 56.298437 
L 773.704687 56.298437 
" style="fill:none;stroke:#00ff00;stroke-linecap:square;stroke-width:1.5;"/>
    </g>
    <g id="line2d_21"/>
    <g id="text_10">
     <!-- Inverse FT -->
     <g style="fill:#ffffff;" transform="translate(781.704687 59.798437)scale(0.1 -0.1)">
      <defs>
       <path d="M 628 4666 
L 1259 4666 
L 1259 0 
L 628 0 
L 628 4666 
z
" id="DejaVuSans-49" transform="scale(0.015625)"/>
       <path d="M 3513 2113 
L 3513 0 
L 2938 0 
L 2938 2094 
Q 2938 2591 2744 2837 
Q 2550 3084 2163 3084 
Q 1697 3084 1428 2787 
Q 1159 2491 1159 1978 
L 1159 0 
L 581 0 
L 581 3500 
L 1159 3500 
L 1159 2956 
Q 1366 3272 1645 3428 
Q 1925 3584 2291 3584 
Q 2894 3584 3203 3211 
Q 3513 2838 3513 2113 
z
" id="DejaVuSans-6e" transform="scale(0.015625)"/>
       <path d="M 191 3500 
L 800 3500 
L 1894 563 
L 2988 3500 
L 3597 3500 
L 2284 0 
L 1503 0 
L 191 3500 
z
" id="DejaVuSans-76" transform="scale(0.015625)"/>
       <path d="M 3597 1894 
L 3597 1613 
L 953 1613 
Q 991 1019 1311 708 
Q 1631 397 2203 397 
Q 2534 397 2845 478 
Q 3156 559 3463 722 
L 3463 178 
Q 3153 47 2828 -22 
Q 2503 -91 2169 -91 
Q 1331 -91 842 396 
Q 353 884 353 1716 
Q 353 2575 817 3079 
Q 1281 3584 2069 3584 
Q 2775 3584 3186 3129 
Q 3597 2675 3597 1894 
z
M 3022 2063 
Q 3016 2534 2758 2815 
Q 2500 3097 2075 3097 
Q 1594 3097 1305 2825 
Q 1016 2553 972 2059 
L 3022 2063 
z
" id="DejaVuSans-65" transform="scale(0.015625)"/>
       <path d="M 2631 2963 
Q 2534 3019 2420 3045 
Q 2306 3072 2169 3072 
Q 1681 3072 1420 2755 
Q 1159 2438 1159 1844 
L 1159 0 
L 581 0 
L 581 3500 
L 1159 3500 
L 1159 2956 
Q 1341 3275 1631 3429 
Q 1922 3584 2338 3584 
Q 2397 3584 2469 3576 
Q 2541 3569 2628 3553 
L 2631 2963 
z
" id="DejaVuSans-72" transform="scale(0.015625)"/>
       <path d="M 2834 3397 
L 2834 2853 
Q 2591 2978 2328 3040 
Q 2066 3103 1784 3103 
Q 1356 3103 1142 2972 
Q 928 2841 928 2578 
Q 928 2378 1081 2264 
Q 1234 2150 1697 2047 
L 1894 2003 
Q 2506 1872 2764 1633 
Q 3022 1394 3022 966 
Q 3022 478 2636 193 
Q 2250 -91 1575 -91 
Q 1294 -91 989 -36 
Q 684 19 347 128 
L 347 722 
Q 666 556 975 473 
Q 1284 391 1588 391 
Q 1994 391 2212 530 
Q 2431 669 2431 922 
Q 2431 1156 2273 1281 
Q 2116 1406 1581 1522 
L 1381 1569 
Q 847 1681 609 1914 
Q 372 2147 372 2553 
Q 372 3047 722 3315 
Q 1072 3584 1716 3584 
Q 2034 3584 2315 3537 
Q 2597 3491 2834 3397 
z
" id="DejaVuSans-73" transform="scale(0.015625)"/>
       <path id="DejaVuSans-20" transform="scale(0.015625)"/>
       <path d="M 628 4666 
L 3309 4666 
L 3309 4134 
L 1259 4134 
L 1259 2759 
L 3109 2759 
L 3109 2228 
L 1259 2228 
L 1259 0 
L 628 0 
L 628 4666 
z
" id="DejaVuSans-46" transform="scale(0.015625)"/>
       <path d="M -19 4666 
L 3928 4666 
L 3928 4134 
L 2272 4134 
L 2272 0 
L 1638 0 
L 1638 4134 
L -19 4134 
L -19 4666 
z
" id="DejaVuSans-54" transform="scale(0.015625)"/>
      </defs>
      <use xlink:href="#DejaVuSans-49"/>
      <use x="29.492188" xlink:href="#DejaVuSans-6e"/>
      <use x="92.871094" xlink:href="#DejaVuSans-76"/>
      <use x="152.050781" xlink:href="#DejaVuSans-65"/>
      <use x="213.574219" xlink:href="#DejaVuSans-72"/>
      <use x="254.6875" xlink:href="#DejaVuSans-73"/>
      <use x="306.787109" xlink:href="#DejaVuSans-65"/>
      <use x="368.310547" xlink:href="#DejaVuSans-20"/>
      <use x="400.097656" xlink:href="#DejaVuSans-46"/>
      <use x="455.867188" xlink:href="#DejaVuSans-54"/>
     </g>
    </g>
   </g>
  </g>
  <g id="axes_2">
   <g id="patch_8">
    <path d="M 117 315 
L 842.4 315 
L 842.4 191.454545 
L 117 191.454545 
z
" style="fill:#121212;"/>
   </g>
   <g id="matplotlib.axis_3">
    <g id="xtick_7">
     <g id="line2d_22">
      <path clip-path="url(#p5559bbbe1d)" d="M 149.972727 315 
L 149.972727 191.454545 
" style="fill:none;stroke:#ffffff;stroke-linecap:square;stroke-opacity:0.2;stroke-width:0.8;"/>
     </g>
     <g id="line2d_23">
      <g>
       <use style="fill:#ffffff;stroke:#ffffff;stroke-width:0.8;" x="149.972727" xlink:href="#m76d6cbee02" y="315"/>
      </g>
     </g>
     <g id="text_11">
      <!-- 0 -->
      <g style="fill:#ffffff;" transform="translate(146.791477 329.598437)scale(0.1 -0.1)">
       <use xlink:href="#DejaVuSans-30"/>
      </g>
     </g>
    </g>
    <g id="xtick_8">
     <g id="line2d_24">
      <path clip-path="url(#p5559bbbe1d)" d="M 281.167041 315 
L 281.167041 191.454545 
" style="fill:none;stroke:#ffffff;stroke-linecap:square;stroke-opacity:0.2;stroke-width:0.8;"/>
     </g>
     <g id="line2d_25">
      <g>
       <use style="fill:#ffffff;stroke:#ffffff;stroke-width:0.8;" x="281.167041" xlink:href="#m76d6cbee02" y="315"/>
      </g>
     </g>
     <g id="text_12">
      <!-- 5 -->
      <g style="fill:#ffffff;" transform="translate(277.985791 329.598437)scale(0.1 -0.1)">
       <use xlink:href="#DejaVuSans-35"/>
      </g>
     </g>
    </g>
    <g id="xtick_9">
     <g id="line2d_26">
      <path clip-path="url(#p5559bbbe1d)" d="M 412.361354 315 
L 412.361354 191.454545 
" style="fill:none;stroke:#ffffff;stroke-linecap:square;stroke-opacity:0.2;stroke-width:0.8;"/>
     </g>
     <g id="line2d_27">
      <g>
       <use style="fill:#ffffff;stroke:#ffffff;stroke-width:0.8;" x="412.361354" xlink:href="#m76d6cbee02" y="315"/>
      </g>
     </g>
     <g id="text_13">
      <!-- 10 -->
      <g style="fill:#ffffff;" transform="translate(405.998854 329.598437)scale(0.1 -0.1)">
       <use xlink:href="#DejaVuSans-31"/>
       <use x="63.623047" xlink:href="#DejaVuSans-30"/>
      </g>
     </g>
    </g>
    <g id="xtick_10">
     <g id="line2d_28">
      <path clip-path="url(#p5559bbbe1d)" d="M 543.555667 315 
L 543.555667 191.454545 
" style="fill:none;stroke:#ffffff;stroke-linecap:square;stroke-opacity:0.2;stroke-width:0.8;"/>
     </g>
     <g id="line2d_29">
      <g>
       <use style="fill:#ffffff;stroke:#ffffff;stroke-width:0.8;" x="543.555667" xlink:href="#m76d6cbee02" y="315"/>
      </g>
     </g>
     <g id="text_14">
      <!-- 15 -->
      <g style="fill:#ffffff;" transform="translate(537.193167 329.598437)scale(0.1 -0.1)">
       <use xlink:href="#DejaVuSans-31"/>
       <use x="63.623047" xlink:href="#DejaVuSans-35"/>
      </g>
     </g>
    </g>
    <g id="xtick_11">
     <g id="line2d_30">
      <path clip-path="url(#p5559bbbe1d)" d="M 674.749981 315 
L 674.749981 191.454545 
" style="fill:none;stroke:#ffffff;stroke-linecap:square;stroke-opacity:0.2;stroke-width:0.8;"/>
     </g>
     <g id="line2d_31">
      <g>
       <use style="fill:#ffffff;stroke:#ffffff;stroke-width:0.8;" x="674.749981" xlink:href="#m76d6cbee02" y="315"/>
      </g>
     </g>
     <g id="text_15">
      <!-- 20 -->
      <g style="fill:#ffffff;" transform="translate(668.387481 329.598437)scale(0.1 -0.1)">
       <use xlink:href="#DejaVuSans-32"/>
       <use x="63.623047" xlink:href="#DejaVuSans-30"/>
      </g>
     </g>
    </g>
    <g id="xtick_12">
     <g id="line2d_32">
      <path clip-path="url(#p5559bbbe1d)" d="M 805.944294 315 
L 805.944294 191.454545 
" style="fill:none;stroke:#ffffff;stroke-linecap:square;stroke-opacity:0.2;stroke-width:0.8;"/>
     </g>
     <g id="line2d_33">
      <g>
       <use style="fill:#ffffff;stroke:#ffffff;stroke-width:0.8;" x="805.944294" xlink:href="#m76d6cbee02" y="315"/>
      </g>
     </g>
     <g id="text_16">
      <!-- 25 -->
      <g style="fill:#ffffff;" transform="translate(799.581794 329.598437)scale(0.1 -0.1)">
       <use xlink:href="#DejaVuSans-32"/>
       <use x="63.623047" xlink:href="#DejaVuSans-35"/>
      </g>
     </g>
    </g>
   </g>
   <g id="matplotlib.axis_4">
    <g id="ytick_4">
     <g id="line2d_34">
      <path clip-path="url(#p5559bbbe1d)" d="M 117 290.666076 
L 842.4 290.666076 
" style="fill:none;stroke:#ffffff;stroke-linecap:square;stroke-opacity:0.2;stroke-width:0.8;"/>
     </g>
     <g id="line2d_35">
      <g>
       <use style="fill:#ffffff;stroke:#ffffff;stroke-width:0.8;" x="117" xlink:href="#mfa26dbe468" y="290.666076"/>
      </g>
     </g>
     <g id="text_17">
      <!-- −2 -->
      <g style="fill:#ffffff;" transform="translate(87.886719 296.364904)scale(0.15 -0.15)">
       <use xlink:href="#DejaVuSans-2212"/>
       <use x="83.789062" xlink:href="#DejaVuSans-32"/>
      </g>
     </g>
    </g>
    <g id="ytick_5">
     <g id="line2d_36">
      <path clip-path="url(#p5559bbbe1d)" d="M 117 253.227273 
L 842.4 253.227273 
" style="fill:none;stroke:#ffffff;stroke-linecap:square;stroke-opacity:0.2;stroke-width:0.8;"/>
     </g>
     <g id="line2d_37">
      <g>
       <use style="fill:#ffffff;stroke:#ffffff;stroke-width:0.8;" x="117" xlink:href="#mfa26dbe468" y="253.227273"/>
      </g>
     </g>
     <g id="text_18">
      <!-- 0 -->
      <g style="fill:#ffffff;" transform="translate(100.45625 258.926101)scale(0.15 -0.15)">
       <use xlink:href="#DejaVuSans-30"/>
      </g>
     </g>
    </g>
    <g id="ytick_6">
     <g id="line2d_38">
      <path clip-path="url(#p5559bbbe1d)" d="M 117 215.788469 
L 842.4 215.788469 
" style="fill:none;stroke:#ffffff;stroke-linecap:square;stroke-opacity:0.2;stroke-width:0.8;"/>
     </g>
     <g id="line2d_39">
      <g>
       <use style="fill:#ffffff;stroke:#ffffff;stroke-width:0.8;" x="117" xlink:href="#mfa26dbe468" y="215.788469"/>
      </g>
     </g>
     <g id="text_19">
      <!-- 2 -->
      <g style="fill:#ffffff;" transform="translate(100.45625 221.487298)scale(0.15 -0.15)">
       <use xlink:href="#DejaVuSans-32"/>
      </g>
     </g>
    </g>
   </g>
   <g id="line2d_40">
    <path clip-path="url(#p5559bbbe1d)" d="M 149.972727 253.227273 
L 152.613186 233.293901 
L 153.933415 224.763131 
L 155.253645 217.854331 
L 155.913759 215.131261 
L 156.573874 212.946443 
L 157.233989 211.327461 
L 157.894103 210.293004 
L 158.554218 209.85257 
L 159.214333 210.006327 
L 159.874447 210.745109 
L 160.534562 212.050568 
L 161.194676 213.895468 
L 161.854791 216.244118 
L 163.17502 222.271173 
L 164.49525 229.701744 
L 167.135708 246.651242 
L 169.116052 258.905585 
L 170.436282 265.798555 
L 171.756511 271.104605 
L 172.416626 273.041138 
L 173.07674 274.450232 
L 173.736855 275.305005 
L 174.39697 275.587469 
L 175.057084 275.288824 
L 175.717199 274.409595 
L 176.377314 272.959629 
L 177.037428 270.957942 
L 177.697543 268.432419 
L 179.017772 261.962995 
L 180.338002 253.931932 
L 182.318346 240.030685 
L 184.958804 221.019116 
L 186.279034 212.61961 
L 187.599263 205.665289 
L 188.259378 202.868257 
L 188.919492 200.584814 
L 189.579607 198.850336 
L 190.239722 197.691705 
L 190.899836 197.126881 
L 191.559951 197.164622 
L 192.220066 197.804341 
L 192.88018 199.036122 
L 193.540295 200.840869 
L 194.20041 203.190614 
L 195.520639 209.371631 
L 196.840868 217.197959 
L 198.821212 230.947902 
L 202.121785 254.470938 
L 203.442015 262.417598 
L 204.762244 268.775594 
L 205.422359 271.237455 
L 206.082473 273.171524 
L 206.742588 274.551002 
L 207.402703 275.358006 
L 208.062817 275.58385 
L 208.722932 275.229175 
L 209.383047 274.303943 
L 210.043161 272.82727 
L 210.703276 270.827126 
L 211.363391 268.339886 
L 212.68362 262.088075 
L 214.003849 254.506031 
L 219.284767 221.848401 
L 220.604996 215.924405 
L 221.265111 213.636496 
L 221.925225 211.857243 
L 222.58534 210.621308 
L 223.245455 209.954837 
L 223.905569 209.875043 
L 224.565684 210.389931 
L 225.225799 211.498164 
L 225.885913 213.189083 
L 226.546028 215.442869 
L 227.206143 218.230854 
L 228.526372 225.253318 
L 229.846601 233.870408 
L 231.826945 248.702816 
L 235.127518 273.73267 
L 236.447748 282.175233 
L 237.767977 288.96888 
L 238.428092 291.626471 
L 239.088206 293.74189 
L 239.748321 295.288641 
L 240.408436 296.249175 
L 241.06855 296.615152 
L 241.728665 296.387576 
L 242.38878 295.57677 
L 243.048894 294.202213 
L 243.709009 292.292225 
L 244.369124 289.883515 
L 245.689353 283.755091 
L 247.009582 276.253228 
L 252.2905 243.502394 
L 253.610729 237.449474 
L 254.270844 235.080159 
L 254.930958 233.207792 
L 255.591073 231.866696 
L 256.251188 231.082665 
L 256.911302 230.872548 
L 257.571417 231.243987 
L 258.231532 232.195287 
L 258.891646 233.715443 
L 259.551761 235.784312 
L 260.211876 238.372928 
L 261.532105 244.952286 
L 262.852334 253.065862 
L 264.832678 267.028303 
L 267.473137 285.993311 
L 268.793366 294.316874 
L 270.113595 301.165564 
L 270.77371 303.90061 
L 271.433825 306.117197 
L 272.093939 307.780985 
L 272.754054 308.866186 
L 273.414169 309.355977 
L 274.074283 309.242766 
L 274.734398 308.528306 
L 275.394513 307.223675 
L 276.054627 305.349095 
L 276.714742 302.933618 
L 278.034971 296.63742 
L 279.355201 288.723368 
L 281.335545 274.904462 
L 284.636118 251.448971 
L 285.956347 243.588584 
L 287.276577 237.343483 
L 287.936691 234.945835 
L 288.596806 233.079804 
L 289.256921 231.771094 
L 289.917035 231.03645 
L 290.57715 230.883398 
L 291.237265 231.310127 
L 291.897379 232.30552 
L 292.557494 233.849334 
L 293.217609 235.912521 
L 294.537838 241.439709 
L 295.858067 248.4994 
L 297.838411 260.879412 
L 300.47887 277.741372 
L 301.799099 285.023287 
L 303.119328 290.842562 
L 303.779443 293.069063 
L 304.439558 294.782127 
L 305.099672 295.94813 
L 305.759787 296.542021 
L 306.419902 296.547726 
L 307.080016 295.958405 
L 307.740131 294.776563 
L 308.400246 293.014017 
L 309.06036 290.691711 
L 310.38059 284.49514 
L 311.700819 276.521148 
L 313.681163 262.226218 
L 317.641851 232.154459 
L 318.96208 223.80197 
L 320.28231 217.124934 
L 320.942424 214.533369 
L 321.602539 212.487766 
L 322.262654 211.013518 
L 322.922768 210.127039 
L 323.582883 209.835503 
L 324.242998 210.136738 
L 324.903112 211.019262 
L 325.563227 212.462474 
L 326.223342 214.436976 
L 326.883456 216.905049 
L 328.203686 223.133129 
L 329.523915 230.704237 
L 334.804832 263.37606 
L 336.125061 269.32704 
L 336.785176 271.636392 
L 337.445291 273.444057 
L 338.105405 274.716751 
L 338.76552 275.429777 
L 339.425635 275.567426 
L 340.085749 275.12322 
L 340.745864 274.100022 
L 341.405979 272.509991 
L 342.066093 270.374393 
L 342.726208 267.723267 
L 344.046437 261.035498 
L 345.366667 252.841321 
L 347.347011 238.821017 
L 349.987469 219.907132 
L 351.307699 211.661525 
L 352.627928 204.920121 
L 353.288043 202.247725 
L 353.948157 200.09853 
L 354.608272 198.505836 
L 355.268387 197.494329 
L 355.928501 197.079689 
L 356.588616 197.268345 
L 357.248731 198.057371 
L 357.908845 199.434537 
L 358.56896 201.378493 
L 359.229075 203.859118 
L 360.549304 210.268972 
L 361.869533 218.268835 
L 363.849877 232.153371 
L 366.490336 251.175853 
L 367.810565 259.600161 
L 369.130794 266.603759 
L 369.790909 269.43875 
L 370.451024 271.771649 
L 371.111138 273.56924 
L 371.771253 274.80692 
L 372.431368 275.469086 
L 373.091482 275.549374 
L 373.751597 275.050765 
L 374.411712 273.985528 
L 375.071826 272.375028 
L 375.731941 270.249383 
L 377.05217 264.613895 
L 378.3724 257.473697 
L 380.352744 245.035823 
L 382.993202 228.224445 
L 384.313432 221.019858 
L 385.633661 215.306942 
L 386.293776 213.142501 
L 386.95389 211.496152 
L 387.614005 210.400475 
L 388.27412 209.879416 
L 388.934234 209.947906 
L 389.594349 210.611621 
L 390.254464 211.866886 
L 390.914578 213.700732 
L 391.574693 216.091093 
L 392.894922 222.409824 
L 394.215152 230.481124 
L 396.195495 244.8626 
L 400.156183 274.862767 
L 401.476413 283.12334 
L 402.796642 289.682332 
L 403.456757 292.207339 
L 404.116871 294.182731 
L 404.776986 295.584217 
L 405.437101 296.39653 
L 406.097215 296.613659 
L 406.75733 296.238946 
L 407.417445 295.285024 
L 408.077559 293.773618 
L 408.737674 291.735192 
L 409.397789 289.208467 
L 410.718018 282.882468 
L 412.038247 275.24418 
L 417.319165 242.660149 
L 418.639394 236.81274 
L 419.299509 234.563996 
L 419.959623 232.821554 
L 420.619738 231.61765 
L 421.279853 230.975874 
L 421.939967 230.910793 
L 422.600082 231.427722 
L 423.260197 232.522628 
L 423.920311 234.182202 
L 424.580426 236.384059 
L 425.240541 239.097094 
L 426.56077 245.891725 
L 427.880999 254.164571 
L 429.861343 268.239394 
L 432.501802 287.097602 
L 433.822031 295.263262 
L 435.14226 301.895746 
L 435.802375 304.504845 
L 436.46249 306.586127 
L 437.122604 308.107341 
L 437.782719 309.044909 
L 438.442834 309.384298 
L 439.102948 309.120243 
L 439.763063 308.256841 
L 440.423178 306.807476 
L 441.083292 304.794613 
L 441.743407 302.249442 
L 443.063636 295.727483 
L 444.383866 287.643745 
L 446.36421 273.696924 
L 449.004668 254.719771 
L 450.324898 246.370208 
L 451.645127 239.470292 
L 452.305242 236.695964 
L 452.965356 234.428334 
L 453.625471 232.699568 
L 454.285586 231.533161 
L 454.9457 230.943574 
L 455.605815 230.936002 
L 456.26593 231.5063 
L 456.926044 232.641046 
L 457.586159 234.317761 
L 458.246274 236.505263 
L 459.566503 242.2475 
L 460.886732 249.466277 
L 462.867076 261.958677 
L 465.507535 278.714947 
L 466.827764 285.840231 
L 468.147993 291.445175 
L 468.808108 293.546919 
L 469.468223 295.126044 
L 470.128337 296.151022 
L 470.788452 296.599016 
L 471.448567 296.456241 
L 472.108681 295.71819 
L 472.768796 294.389703 
L 473.428911 292.484903 
L 474.089025 290.02697 
L 475.409255 283.587422 
L 476.729484 275.420586 
L 478.709828 260.955787 
L 482.010401 235.625529 
L 483.330631 226.761012 
L 484.65086 219.406762 
L 485.310975 216.427575 
L 485.971089 213.969642 
L 486.631204 212.064842 
L 487.291319 210.736356 
L 487.951433 209.998304 
L 488.611548 209.85553 
L 489.271663 210.303524 
L 489.931777 211.328502 
L 490.591892 212.907626 
L 491.252007 215.00937 
L 492.572236 220.614315 
L 493.892465 227.739598 
L 495.872809 240.170402 
L 498.513268 256.988269 
L 499.833497 264.207045 
L 501.153726 269.949282 
L 501.813841 272.136784 
L 502.473956 273.813499 
L 503.13407 274.948246 
L 503.794185 275.518543 
L 504.4543 275.510972 
L 505.114414 274.921384 
L 505.774529 273.754978 
L 506.434644 272.026212 
L 507.094758 269.758582 
L 508.414988 263.743554 
L 509.735217 256.061231 
L 511.715561 242.43772 
L 515.016134 218.8108 
L 516.336364 210.727062 
L 517.656593 204.205103 
L 518.316708 201.659933 
L 518.976822 199.64707 
L 519.636937 198.197704 
L 520.297052 197.334302 
L 520.957166 197.070248 
L 521.617281 197.409636 
L 522.277396 198.347205 
L 522.93751 199.868419 
L 523.597625 201.9497 
L 524.25774 204.5588 
L 525.577969 211.191284 
L 526.898198 219.356943 
L 528.878542 233.362688 
L 531.519001 252.289974 
L 532.83923 260.562821 
L 534.159459 267.357452 
L 534.819574 270.070486 
L 535.479689 272.272343 
L 536.139803 273.931917 
L 536.799918 275.026824 
L 537.460033 275.543752 
L 538.120147 275.478672 
L 538.780262 274.836896 
L 539.440377 273.632991 
L 540.100491 271.890549 
L 540.760606 269.641806 
L 542.080835 263.794396 
L 543.401065 256.498991 
L 545.381409 243.955413 
L 548.021867 227.258765 
L 549.342097 220.214741 
L 550.662326 214.719353 
L 551.322441 212.680927 
L 551.982555 211.169521 
L 552.64267 210.2156 
L 553.302785 209.840887 
L 553.962899 210.058016 
L 554.623014 210.870328 
L 555.283129 212.271814 
L 555.943243 214.247206 
L 556.603358 216.772213 
L 557.923587 223.331206 
L 559.243817 231.591779 
L 561.224161 246.13666 
L 564.524734 271.418193 
L 565.844963 280.202177 
L 567.165192 287.447394 
L 567.825307 290.363453 
L 568.485422 292.753813 
L 569.145536 294.587659 
L 569.805651 295.842925 
L 570.465766 296.50664 
L 571.12588 296.57513 
L 571.785995 296.054071 
L 572.44611 294.958393 
L 573.106224 293.312044 
L 573.766339 291.147603 
L 575.086568 285.434688 
L 576.406798 278.230101 
L 578.387142 265.744247 
L 581.0276 248.980849 
L 582.34783 241.84065 
L 583.668059 236.205163 
L 584.328174 234.079517 
L 584.988288 232.469017 
L 585.648403 231.403781 
L 586.308518 230.905172 
L 586.968632 230.98546 
L 587.628747 231.647625 
L 588.288862 232.885306 
L 588.948976 234.682897 
L 589.609091 237.015795 
L 590.92932 243.146564 
L 592.24955 250.918832 
L 594.229894 264.616686 
L 597.530467 288.185711 
L 598.850696 296.185573 
L 600.170925 302.595427 
L 600.83104 305.076052 
L 601.491155 307.020009 
L 602.151269 308.397174 
L 602.811384 309.186201 
L 603.471499 309.374857 
L 604.131613 308.960217 
L 604.791728 307.948709 
L 605.451843 306.356015 
L 606.111957 304.20682 
L 606.772072 301.534424 
L 608.092301 294.793021 
L 609.412531 286.547413 
L 611.392875 272.48612 
L 614.033333 253.613225 
L 615.353563 245.419047 
L 616.673792 238.731278 
L 617.333907 236.080153 
L 617.994021 233.944555 
L 618.654136 232.354523 
L 619.314251 231.331325 
L 619.974365 230.887119 
L 620.63448 231.024768 
L 621.294595 231.737795 
L 621.954709 233.010488 
L 622.614824 234.818153 
L 623.274939 237.127506 
L 624.595168 243.078485 
L 625.915397 250.44855 
L 628.555856 267.361812 
L 630.5362 279.672469 
L 631.856429 286.633297 
L 633.176658 292.01757 
L 633.836773 293.992072 
L 634.496888 295.435283 
L 635.157002 296.317808 
L 635.817117 296.619042 
L 636.477232 296.327506 
L 637.137346 295.441027 
L 637.797461 293.96678 
L 638.457576 291.921176 
L 639.11769 289.329611 
L 640.43792 282.652576 
L 641.758149 274.300086 
L 643.738493 259.678385 
L 647.039066 234.451269 
L 648.359296 225.749767 
L 649.679525 218.615155 
L 650.33964 215.762835 
L 650.999754 213.440529 
L 651.659869 211.677982 
L 652.319984 210.496141 
L 652.980098 209.90682 
L 653.640213 209.912525 
L 654.300328 210.506416 
L 654.960442 211.672418 
L 655.620557 213.385482 
L 656.280672 215.611983 
L 657.600901 221.431258 
L 658.92113 228.713173 
L 660.901474 241.25071 
L 663.541933 257.955145 
L 664.862162 265.014836 
L 666.182391 270.542025 
L 666.842506 272.605212 
L 667.502621 274.149026 
L 668.162735 275.144418 
L 668.82285 275.571147 
L 669.482965 275.418095 
L 670.143079 274.683452 
L 670.803194 273.374742 
L 671.463309 271.508711 
L 672.123423 269.111063 
L 673.443653 262.865962 
L 674.763882 255.005574 
L 676.744226 241.236637 
L 680.044799 217.731178 
L 681.365029 209.817125 
L 682.685258 203.520928 
L 683.345373 201.10545 
L 684.005487 199.230871 
L 684.665602 197.92624 
L 685.325717 197.21178 
L 685.985831 197.098568 
L 686.645946 197.588359 
L 687.306061 198.67356 
L 687.966175 200.337348 
L 688.62629 202.553936 
L 689.286405 205.288981 
L 690.606634 212.137672 
L 691.926863 220.461234 
L 694.567322 239.426243 
L 696.547666 253.388683 
L 697.867895 261.50226 
L 699.188124 268.081617 
L 699.848239 270.670233 
L 700.508354 272.739103 
L 701.168468 274.259259 
L 701.828583 275.210558 
L 702.488698 275.581997 
L 703.148812 275.371881 
L 703.808927 274.587849 
L 704.469042 273.246754 
L 705.129156 271.374386 
L 705.789271 269.005071 
L 707.1095 262.952151 
L 708.42973 255.509415 
L 711.070188 238.555251 
L 713.050532 226.309662 
L 714.370762 219.433946 
L 715.690991 214.16232 
L 716.351106 212.252332 
L 717.01122 210.877775 
L 717.671335 210.06697 
L 718.33145 209.839393 
L 718.991564 210.205371 
L 719.651679 211.165904 
L 720.311794 212.712656 
L 720.971908 214.828074 
L 721.632023 217.485666 
L 722.952252 224.279313 
L 724.272482 232.721875 
L 726.252826 247.417116 
L 729.553399 272.584137 
L 730.873628 281.201228 
L 732.193857 288.223691 
L 732.853972 291.011676 
L 733.514087 293.265463 
L 734.174201 294.956382 
L 734.834316 296.064615 
L 735.494431 296.579502 
L 736.154545 296.499709 
L 736.81466 295.833238 
L 737.474775 294.597303 
L 738.134889 292.81805 
L 738.795004 290.53014 
L 740.115233 284.606144 
L 741.435463 277.248895 
L 744.075921 260.340891 
L 746.056265 248.022061 
L 747.376495 241.044787 
L 748.696724 235.62742 
L 749.356839 233.627276 
L 750.016953 232.150603 
L 750.677068 231.22537 
L 751.337183 230.870696 
L 751.997297 231.096539 
L 752.657412 231.903544 
L 753.317527 233.283021 
L 753.977641 235.21709 
L 754.637756 237.678952 
L 755.957985 244.036947 
L 757.278215 251.983607 
L 759.258559 265.820348 
L 762.559132 289.256586 
L 763.879361 297.082915 
L 765.19959 303.263931 
L 765.859705 305.613677 
L 766.51982 307.418424 
L 767.179934 308.650204 
L 767.840049 309.289924 
L 768.500164 309.327664 
L 769.160278 308.76284 
L 769.820393 307.604209 
L 770.480508 305.869731 
L 771.140622 303.586288 
L 772.460852 297.52195 
L 773.781081 289.785237 
L 775.761425 276.107572 
L 779.061998 252.522613 
L 780.382228 244.49155 
L 781.702457 238.022126 
L 782.362572 235.496603 
L 783.022686 233.494916 
L 783.682801 232.04495 
L 784.342916 231.165721 
L 785.00303 230.867076 
L 785.663145 231.14954 
L 786.32326 232.004313 
L 786.983374 233.413408 
L 787.643489 235.34994 
L 788.303604 237.778555 
L 789.623833 243.931761 
L 790.944062 251.445163 
L 796.22498 284.183373 
L 797.545209 290.210428 
L 798.205324 292.559078 
L 798.865438 294.403978 
L 799.525553 295.709437 
L 800.185667 296.448219 
L 800.845782 296.601975 
L 801.505897 296.161542 
L 802.166011 295.127084 
L 802.826126 293.508102 
L 803.486241 291.323284 
L 804.146355 288.600214 
L 805.466585 281.691415 
L 806.786814 273.160645 
L 808.767158 258.395162 
L 809.427273 253.227273 
L 809.427273 253.227273 
" style="fill:none;stroke:#00ffff;stroke-linecap:square;stroke-width:1.5;"/>
   </g>
   <g id="patch_9">
    <path d="M 117 315 
L 117 191.454545 
" style="fill:none;stroke:#ffffff;stroke-linecap:square;stroke-linejoin:miter;stroke-width:0.8;"/>
   </g>
   <g id="patch_10">
    <path d="M 842.4 315 
L 842.4 191.454545 
" style="fill:none;stroke:#ffffff;stroke-linecap:square;stroke-linejoin:miter;stroke-width:0.8;"/>
   </g>
   <g id="patch_11">
    <path d="M 117 315 
L 842.4 315 
" style="fill:none;stroke:#ffffff;stroke-linecap:square;stroke-linejoin:miter;stroke-width:0.8;"/>
   </g>
   <g id="patch_12">
    <path d="M 117 191.454545 
L 842.4 191.454545 
" style="fill:none;stroke:#ffffff;stroke-linecap:square;stroke-linejoin:miter;stroke-width:0.8;"/>
   </g>
   <g id="legend_2">
    <g id="patch_13">
     <path d="M 702.692188 214.13267 
L 835.4 214.13267 
Q 837.4 214.13267 837.4 212.13267 
L 837.4 198.454545 
Q 837.4 196.454545 835.4 196.454545 
L 702.692188 196.454545 
Q 700.692188 196.454545 700.692188 198.454545 
L 700.692188 212.13267 
Q 700.692188 214.13267 702.692188 214.13267 
z
" style="fill:#121212;opacity:0.8;stroke:#ffffff;stroke-linejoin:miter;"/>
    </g>
    <g id="line2d_41">
     <path d="M 704.692188 204.552983 
L 724.692188 204.552983 
" style="fill:none;stroke:#00ffff;stroke-linecap:square;stroke-width:1.5;"/>
    </g>
    <g id="line2d_42"/>
    <g id="text_20">
     <!-- Original Time Series -->
     <g style="fill:#ffffff;" transform="translate(732.692188 208.052983)scale(0.1 -0.1)">
      <defs>
       <path d="M 2522 4238 
Q 1834 4238 1429 3725 
Q 1025 3213 1025 2328 
Q 1025 1447 1429 934 
Q 1834 422 2522 422 
Q 3209 422 3611 934 
Q 4013 1447 4013 2328 
Q 4013 3213 3611 3725 
Q 3209 4238 2522 4238 
z
M 2522 4750 
Q 3503 4750 4090 4092 
Q 4678 3434 4678 2328 
Q 4678 1225 4090 567 
Q 3503 -91 2522 -91 
Q 1538 -91 948 565 
Q 359 1222 359 2328 
Q 359 3434 948 4092 
Q 1538 4750 2522 4750 
z
" id="DejaVuSans-4f" transform="scale(0.015625)"/>
       <path d="M 603 3500 
L 1178 3500 
L 1178 0 
L 603 0 
L 603 3500 
z
M 603 4863 
L 1178 4863 
L 1178 4134 
L 603 4134 
L 603 4863 
z
" id="DejaVuSans-69" transform="scale(0.015625)"/>
       <path d="M 2906 1791 
Q 2906 2416 2648 2759 
Q 2391 3103 1925 3103 
Q 1463 3103 1205 2759 
Q 947 2416 947 1791 
Q 947 1169 1205 825 
Q 1463 481 1925 481 
Q 2391 481 2648 825 
Q 2906 1169 2906 1791 
z
M 3481 434 
Q 3481 -459 3084 -895 
Q 2688 -1331 1869 -1331 
Q 1566 -1331 1297 -1286 
Q 1028 -1241 775 -1147 
L 775 -588 
Q 1028 -725 1275 -790 
Q 1522 -856 1778 -856 
Q 2344 -856 2625 -561 
Q 2906 -266 2906 331 
L 2906 616 
Q 2728 306 2450 153 
Q 2172 0 1784 0 
Q 1141 0 747 490 
Q 353 981 353 1791 
Q 353 2603 747 3093 
Q 1141 3584 1784 3584 
Q 2172 3584 2450 3431 
Q 2728 3278 2906 2969 
L 2906 3500 
L 3481 3500 
L 3481 434 
z
" id="DejaVuSans-67" transform="scale(0.015625)"/>
       <path d="M 2194 1759 
Q 1497 1759 1228 1600 
Q 959 1441 959 1056 
Q 959 750 1161 570 
Q 1363 391 1709 391 
Q 2188 391 2477 730 
Q 2766 1069 2766 1631 
L 2766 1759 
L 2194 1759 
z
M 3341 1997 
L 3341 0 
L 2766 0 
L 2766 531 
Q 2569 213 2275 61 
Q 1981 -91 1556 -91 
Q 1019 -91 701 211 
Q 384 513 384 1019 
Q 384 1609 779 1909 
Q 1175 2209 1959 2209 
L 2766 2209 
L 2766 2266 
Q 2766 2663 2505 2880 
Q 2244 3097 1772 3097 
Q 1472 3097 1187 3025 
Q 903 2953 641 2809 
L 641 3341 
Q 956 3463 1253 3523 
Q 1550 3584 1831 3584 
Q 2591 3584 2966 3190 
Q 3341 2797 3341 1997 
z
" id="DejaVuSans-61" transform="scale(0.015625)"/>
       <path d="M 603 4863 
L 1178 4863 
L 1178 0 
L 603 0 
L 603 4863 
z
" id="DejaVuSans-6c" transform="scale(0.015625)"/>
       <path d="M 3328 2828 
Q 3544 3216 3844 3400 
Q 4144 3584 4550 3584 
Q 5097 3584 5394 3201 
Q 5691 2819 5691 2113 
L 5691 0 
L 5113 0 
L 5113 2094 
Q 5113 2597 4934 2840 
Q 4756 3084 4391 3084 
Q 3944 3084 3684 2787 
Q 3425 2491 3425 1978 
L 3425 0 
L 2847 0 
L 2847 2094 
Q 2847 2600 2669 2842 
Q 2491 3084 2119 3084 
Q 1678 3084 1418 2786 
Q 1159 2488 1159 1978 
L 1159 0 
L 581 0 
L 581 3500 
L 1159 3500 
L 1159 2956 
Q 1356 3278 1631 3431 
Q 1906 3584 2284 3584 
Q 2666 3584 2933 3390 
Q 3200 3197 3328 2828 
z
" id="DejaVuSans-6d" transform="scale(0.015625)"/>
       <path d="M 3425 4513 
L 3425 3897 
Q 3066 4069 2747 4153 
Q 2428 4238 2131 4238 
Q 1616 4238 1336 4038 
Q 1056 3838 1056 3469 
Q 1056 3159 1242 3001 
Q 1428 2844 1947 2747 
L 2328 2669 
Q 3034 2534 3370 2195 
Q 3706 1856 3706 1288 
Q 3706 609 3251 259 
Q 2797 -91 1919 -91 
Q 1588 -91 1214 -16 
Q 841 59 441 206 
L 441 856 
Q 825 641 1194 531 
Q 1563 422 1919 422 
Q 2459 422 2753 634 
Q 3047 847 3047 1241 
Q 3047 1584 2836 1778 
Q 2625 1972 2144 2069 
L 1759 2144 
Q 1053 2284 737 2584 
Q 422 2884 422 3419 
Q 422 4038 858 4394 
Q 1294 4750 2059 4750 
Q 2388 4750 2728 4690 
Q 3069 4631 3425 4513 
z
" id="DejaVuSans-53" transform="scale(0.015625)"/>
      </defs>
      <use xlink:href="#DejaVuSans-4f"/>
      <use x="78.710938" xlink:href="#DejaVuSans-72"/>
      <use x="119.824219" xlink:href="#DejaVuSans-69"/>
      <use x="147.607422" xlink:href="#DejaVuSans-67"/>
      <use x="211.083984" xlink:href="#DejaVuSans-69"/>
      <use x="238.867188" xlink:href="#DejaVuSans-6e"/>
      <use x="302.246094" xlink:href="#DejaVuSans-61"/>
      <use x="363.525391" xlink:href="#DejaVuSans-6c"/>
      <use x="391.308594" xlink:href="#DejaVuSans-20"/>
      <use x="423.095703" xlink:href="#DejaVuSans-54"/>
      <use x="481.054688" xlink:href="#DejaVuSans-69"/>
      <use x="508.837891" xlink:href="#DejaVuSans-6d"/>
      <use x="606.25" xlink:href="#DejaVuSans-65"/>
      <use x="667.773438" xlink:href="#DejaVuSans-20"/>
      <use x="699.560547" xlink:href="#DejaVuSans-53"/>
      <use x="763.037109" xlink:href="#DejaVuSans-65"/>
      <use x="824.560547" xlink:href="#DejaVuSans-72"/>
      <use x="865.673828" xlink:href="#DejaVuSans-69"/>
      <use x="893.457031" xlink:href="#DejaVuSans-65"/>
      <use x="954.980469" xlink:href="#DejaVuSans-73"/>
     </g>
    </g>
   </g>
  </g>
 </g>
 <defs>
  <clipPath id="p185323eb21">
   <rect height="123.545455" width="725.4" x="117" y="43.2"/>
  </clipPath>
  <clipPath id="p5559bbbe1d">
   <rect height="123.545455" width="725.4" x="117" y="191.454545"/>
  </clipPath>
 </defs>
</svg>
